<?xml version="1.0" encoding="utf-8"?>
<!-- Generator: Adobe Illustrator 25.3.1, SVG Export Plug-In . SVG Version: 6.00 Build 0)  -->
<svg version="1.1" id="_10" xmlns="http://www.w3.org/2000/svg" xmlns:xlink="http://www.w3.org/1999/xlink" x="0px" y="0px"
	 viewBox="0 0 512 335" style="enable-background:new 0 0 512 335;" xml:space="preserve">
<style type="text/css">
	.st0{fill:#FFFFFF;}
</style>
<path class="st0" d="M469.8,279.8V35.4c0-19.6-15.9-35.4-35.4-35.4H77.6C58,0,42.2,15.8,42.2,35.4v244.5H0v4.4
	c0,28,22.7,50.8,50.8,50.8l0,0h410.5c28,0,50.8-22.7,50.8-50.8v-4.4h-42.3V279.8z M288,304.2v6.5c0,2.3-1.9,4.3-4.2,4.3l0,0h-55.5
	c-2.3,0-4.2-1.9-4.2-4.2l0,0v-6.5c0-2.4,1.9-4.3,4.2-4.3l0,0h55.5C286.1,299.9,288,301.8,288,304.2L288,304.2z M77.6,279.8V35.4
	h356.8v244.5H77.6V279.8z"/>
<path class="st0" d="M205.5,78.3c1.4,0,2.8-0.6,3.7-1.7l0,0c1.9-2.1,1.7-5.3-0.4-7.1c-2.1-1.9-5.3-1.7-7.1,0.4s-1.7,5.3,0.4,7.1
	C203.1,77.8,204.3,78.3,205.5,78.3z"/>
<path class="st0" d="M193,258.4c-2.8,0-5,2.2-5,5v40.4c0,2.8,2.3,5,5,5s5-2.3,5-5v-40.3c0-2.8-2.1-5-4.9-5.1H193z"/>
<path class="st0" d="M335.8,201.5c13-15.8,7.5-41.6-9.5-51.4c-3.8-2.2-8.1-3.7-12.4-4.3v-29.4c0-36.3-29.3-65.8-65.6-65.9
	c-8.8,0-17.5,1.8-25.5,5.2c-2.6,1.1-3.8,4.1-2.7,6.7c1.1,2.6,4.1,3.8,6.7,2.6c6.8-2.9,14.2-4.4,21.6-4.4
	c30.7,0.1,55.6,25.1,55.5,55.8v34.1c0,2.8,2.2,5,5,5c14,0.1,25.3,11.5,25.2,25.5c0,7.6-3.5,14.8-9.5,19.6c-3.4,3.5-6.2,5.1-13,6.3
	l-24.3-9.5l0,0l-11.2-4.3c-3.4-1.3-5.2-4.7-5.2-6.6v-12.9c2-1.4,3.9-2.9,5.8-4.5c10.9-9.5,16.8-21,16.8-32.3V117c0-2.8-2.2-5-5-5
	c-11.1,0-21.2-3.4-28.4-9.3c1-1.2,1.8-2.5,2.6-3.8c1.4-2.4,0.5-5.5-1.9-6.9s-5.5-0.5-6.9,1.9l0,0c-1.1,1.9-2.5,3.5-4.2,4.9
	c-0.1,0.1-0.2,0.2-0.3,0.2l-0.1,0.1c-10.1,8.5-29.6,11.8-41.4,11.8c-2.8,0-5,2.2-5,5v20.8c0,11.4,6,22.8,16.8,32.3
	c1.8,1.6,3.8,3.1,5.8,4.5v12.9c0,1.9-1.8,5.3-5.2,6.6l-11.2,4.4l0,0l-22.4,8.7c-14-0.6-24.9-12.4-24.4-26.4
	c0.5-13.6,11.7-24.3,25.2-24.4c2.8,0,5-2.2,5-5v-34.1c0-7.5,1.5-15,4.4-21.9c1.1-2.6-0.1-5.5-2.6-6.6c-2.6-1.1-5.5,0.1-6.6,2.6l0,0
	c-3.5,8.2-5.4,17.1-5.3,26v29.4c-19.4,2.9-32.8,21-29.9,40.4c1.7,11.4,8.9,21.3,19.2,26.5c-5.6,4-9.1,10.9-9.1,18.6v72.6
	c0,2.8,2.3,5,5,5c2.8,0,5-2.3,5-5v-72.7c0-4.3,1.8-9.5,6.8-11.4l30.1-11.7l25.5,25.6c7.1,7.1,18.6,7.2,25.7,0.1c0,0,0,0,0.1-0.1
	l25.5-25.6c0,0,33.2,8.6,37,14.8c1.5,11.4,0.7,86,0.7,86l10.1,0.1c0,0,1.7-82,0.7-87.5s-8-10.1-8-10.1L335.8,201.5z M213.1,136.8
	v-15.9c11.4-0.7,27.8-3.7,39.3-11.5c8,7.1,18.9,11.5,31,12.4v14.9c0,12-10,23.3-20,29.7c-0.1,0.1-0.3,0.2-0.4,0.3
	c-5.4,3.4-10.8,5.4-14.7,5.4s-9.3-2-14.7-5.4c-0.1-0.1-0.3-0.2-0.4-0.3C223.1,160.1,213.1,148.9,213.1,136.8z M254.1,226.6
	c-3.2,3.2-8.3,3.2-11.5,0l-22.5-22.5l4-1.6c7.6-3,11.6-10.3,11.6-16v-7.3c3.9,1.8,8.2,2.8,12.6,3c4.3-0.2,8.6-1.2,12.5-3v7.3
	c0,5.7,4,13.1,11.6,16l4,1.6L254.1,226.6z"/>
<path class="st0" d="M301.8,256.4c-2.8,0-5,2.2-5,5v40.4c0,2.8,2.3,5,5,5s5-2.3,5-5v-40.3c0-2.8-2.1-5-4.9-5.1H301.8z"/>
</svg>
