<?xml version="1.0" encoding="utf-8"?>
<!-- Generator: Adobe Illustrator 23.0.3, SVG Export Plug-In . SVG Version: 6.00 Build 0)  -->
<svg version="1.1" id="レイヤー_5" xmlns="http://www.w3.org/2000/svg" xmlns:xlink="http://www.w3.org/1999/xlink" x="0px"
	 y="0px" viewBox="0 0 71.47 79.56" style="enable-background:new 0 0 71.47 79.56;" xml:space="preserve">
<style type="text/css">
	.st0{fill:#FFFFFF;}
</style>
<g>
	<path class="st0" d="M16.38,8.58c0.42,0,0.84-0.17,1.15-0.51l0,0c0.58-0.63,0.53-1.62-0.11-2.19c-0.63-0.58-1.62-0.53-2.2,0.11
		c-0.58,0.63-0.53,1.62,0.11,2.2C15.64,8.45,16.01,8.58,16.38,8.58z"/>
	<path class="st0" d="M12.51,64.02c-0.86,0-1.55,0.7-1.55,1.55v12.43c0,0.86,0.7,1.55,1.55,1.55c0.86,0,1.55-0.7,1.55-1.55V65.58
		C14.07,64.72,13.37,64.02,12.51,64.02z"/>
	<path class="st0" d="M68.39,51.02c-0.02-0.03-0.05-0.06-0.07-0.09c-0.32-0.39-0.65-0.77-1.01-1.13c-2.61-2.61-6.04-4.08-9.72-4.17
		c0.95-1.64,1.46-3.52,1.46-5.48c0-5.49-4.06-10.05-9.32-10.81v-9.05C49.73,9.1,40.67,0,29.53,0c-2.72,0-5.36,0.54-7.86,1.61
		c-0.79,0.34-1.16,1.25-0.82,2.04c0.34,0.79,1.25,1.16,2.04,0.82c2.11-0.9,4.34-1.36,6.64-1.36c9.43,0,17.09,7.71,17.09,17.18v10.49
		c0,0.86,0.7,1.55,1.55,1.55c4.28,0,7.77,3.5,7.77,7.81c0,2.39-1.06,4.6-2.91,6.09c-1.42,0.43-2.77,1.09-3.99,1.95l-7.49-2.91
		c0,0-0.01,0-0.01,0l-3.46-1.34c-1.04-0.4-1.6-1.44-1.6-2.03v-3.98c0.61-0.42,1.21-0.88,1.78-1.38c3.34-2.92,5.18-6.45,5.18-9.95
		v-6.08c0-0.86-0.7-1.55-1.55-1.55c-3.42,0-6.53-1.03-8.74-2.85c0.3-0.37,0.57-0.75,0.81-1.16c0.43-0.74,0.17-1.69-0.57-2.12
		c-0.74-0.43-1.69-0.17-2.12,0.57c-0.32,0.56-0.76,1.06-1.28,1.52c-0.03,0.02-0.06,0.05-0.09,0.07c-0.01,0.01-0.02,0.02-0.03,0.02
		c-3.11,2.62-9.11,3.64-12.73,3.64c-0.86,0-1.55,0.7-1.55,1.55v6.39c0,3.5,1.84,7.03,5.18,9.95c0.57,0.5,1.17,0.96,1.78,1.38v3.98
		c0,0.59-0.56,1.63-1.6,2.03l-3.46,1.34c0,0,0,0-0.01,0l-6.89,2.67c-4.16-0.15-7.5-3.59-7.5-7.81c0-4.31,3.49-7.81,7.77-7.81
		c0.86,0,1.55-0.7,1.55-1.55V20.29c0-2.34,0.47-4.61,1.39-6.75c0.34-0.79-0.03-1.7-0.81-2.04c-0.79-0.34-1.7,0.03-2.04,0.82
		c-1.09,2.53-1.64,5.22-1.64,7.98v9.05C4.06,30.1,0,34.65,0,40.15c0,4.27,2.46,7.98,6.03,9.77c-1.74,1.22-2.8,3.34-2.8,5.74v22.36
		c0,0.86,0.7,1.55,1.55,1.55c0.86,0,1.55-0.7,1.55-1.55V55.65c0-1.31,0.55-2.92,2.1-3.52l9.26-3.59l7.86,7.89
		c1.06,1.06,2.47,1.65,3.97,1.65c1.5,0,2.92-0.59,3.97-1.65l7.86-7.89l5.09,1.98c-1.32,1.51-2.3,3.26-2.88,5.15
		c-1.23,0.62-2.35,1.43-3.33,2.4c-0.01,0.01-0.01,0.01-0.02,0.02c-0.01,0.01-0.02,0.02-0.03,0.02l-9.13,9.13
		c-2.88,2.88-4.26,6.87-3.79,10.95c0.09,0.79,0.76,1.38,1.54,1.38c0.06,0,0.12,0,0.18-0.01c0.85-0.1,1.46-0.87,1.36-1.72
		c-0.36-3.13,0.69-6.19,2.9-8.4l5.14-5.14c-0.07,2.3,0.28,4.94,1.06,7.66c0.19,0.68,0.82,1.13,1.49,1.13c0.14,0,0.28-0.02,0.43-0.06
		c0.83-0.23,1.3-1.09,1.07-1.92c-1.49-5.22-1.06-9.2,0.05-10.9c0.14-0.14,0.29-0.28,0.44-0.41c0,0.03,0,0.06,0,0.09
		c0,3.81,1.48,7.4,4.18,10.09c2.78,2.78,6.44,4.17,10.09,4.17c0.03,0,0.07,0,0.1,0c-0.16,0.19-0.33,0.37-0.51,0.55l-2.2,2.2
		c-0.61,0.61-0.61,1.59,0,2.2c0.3,0.3,0.7,0.46,1.1,0.46c0.4,0,0.8-0.15,1.1-0.46l2.2-2.2c1-1,1.82-2.14,2.45-3.39
		c2.14-0.66,4.16-1.84,5.85-3.53C72.48,64.81,72.84,56.62,68.39,51.02z M18.71,26.59v-4.89c3.5-0.21,8.55-1.15,12.1-3.53
		c2.46,2.18,5.82,3.53,9.54,3.82v4.59c0,3.7-3.07,7.16-6.17,9.15c-0.04,0.02-0.08,0.05-0.12,0.08c-1.66,1.04-3.32,1.65-4.52,1.65
		c-1.2,0-2.86-0.61-4.52-1.65c-0.04-0.03-0.08-0.05-0.12-0.08C21.77,33.75,18.71,30.3,18.71,26.59z M31.3,54.24
		c-0.47,0.47-1.1,0.73-1.77,0.73c-0.67,0-1.3-0.26-1.77-0.73l-6.9-6.93l1.23-0.48c2.35-0.91,3.58-3.17,3.58-4.93v-2.24
		c1.38,0.59,2.72,0.92,3.86,0.92c1.14,0,2.48-0.33,3.86-0.92v2.24c0,1.76,1.23,4.02,3.58,4.93l1.23,0.48L31.3,54.24z M49.31,67.79
		c-2.11-2.11-3.27-4.91-3.27-7.9c0-0.92,0.11-1.82,0.32-2.69c0.01-0.03,0.02-0.07,0.03-0.1c0.49-1.92,1.49-3.67,2.92-5.11
		c2.11-2.11,4.91-3.27,7.9-3.27S63,49.89,65.1,52c0.25,0.25,0.49,0.52,0.72,0.79c0.4,0.8,0.04,1.69-0.5,2.24
		c-0.37,0.37-0.86,0.57-1.39,0.57s-1.02-0.2-1.39-0.57c-0.61-0.61-1.59-0.61-2.2,0c-0.61,0.61-0.61,1.59,0,2.2
		c0.96,0.96,2.23,1.49,3.59,1.49c1.35,0,2.63-0.53,3.59-1.49c0.15-0.15,0.28-0.3,0.41-0.46c1.1,3.79,0.16,8.05-2.82,11.03
		C60.75,72.15,53.67,72.15,49.31,67.79z"/>
	<path class="st0" d="M45.04,77.4c-0.34-0.79-1.25-1.15-2.04-0.82c-0.79,0.34-1.15,1.25-0.82,2.04c0.25,0.59,0.83,0.94,1.43,0.94
		c0.2,0,0.41-0.04,0.61-0.13C45.01,79.1,45.37,78.19,45.04,77.4L45.04,77.4z"/>
</g>
</svg>
