<?xml version="1.0" encoding="utf-8"?>
<!-- Generator: Adobe Illustrator 25.3.1, SVG Export Plug-In . SVG Version: 6.00 Build 0)  -->
<svg version="1.1" id="_x32_" xmlns="http://www.w3.org/2000/svg" xmlns:xlink="http://www.w3.org/1999/xlink" x="0px" y="0px"
	 viewBox="0 0 512 512" style="enable-background:new 0 0 512 512;" xml:space="preserve">
<style type="text/css">
	.st0{fill:#FFFFFF;}
</style>
<g>
	<polygon class="st0" points="426.9,0 391.7,35.4 407.9,51.3 408,51.4 359.4,100.2 412,152.7 460.4,104.1 476.8,120.3 512,84.9 	"/>
	<path class="st0" d="M294.9,71.5l-0.8-0.8l0,0l-0.1-0.1L258.7,106l13.7,13.5L162,229.9L74,318l18.8,81.4L0,511.8l0.2,0.2
		l112.2-92.9l81.7,18.8l88-88l110.2-110.4l14,13.7l34.9-35.2l0.1-0.1h0l0.1-0.1L294.9,71.5z M175.7,258.7l43.8,43.5l17.2-17.4
		l-43.5-43.3l24.5-24.7l43.8,43.5l17.2-17.4l-43.3-43l-0.3-0.3l20.7-20.9l77.6,77.4L187.2,402.3l-62.9-14.4L109.7,325l24.2-24.2
		l43.5,43.2l0.1,0.1l0,0l0.1,0.1l17.2-17.4l-43.5-43.3L175.7,258.7L175.7,258.7z"/>
</g>
</svg>
