<?xml version="1.0" encoding="utf-8"?>
<!-- Generator: Adobe Illustrator 23.0.3, SVG Export Plug-In . SVG Version: 6.00 Build 0)  -->
<svg version="1.1" id="レイヤー_5" xmlns="http://www.w3.org/2000/svg" xmlns:xlink="http://www.w3.org/1999/xlink" x="0px"
	 y="0px" viewBox="0 0 81.6 76.16" style="enable-background:new 0 0 81.6 76.16;" xml:space="preserve">
<style type="text/css">
	.st0{fill:#FFFFFF;}
</style>
<g>
	<g>
		<g>
			<path class="st0" d="M77.52,36.72V6.8c0-3.75-3.05-6.8-6.8-6.8H10.88c-3.75,0-6.8,3.05-6.8,6.8v20.4C1.83,27.2,0,29.03,0,31.28
				v40.8c0,2.25,1.83,4.08,4.08,4.08H34c2.25,0,4.08-1.83,4.08-4.08h11.4c1.28,0,2.46-0.58,3.24-1.6c0.78-1.02,1.03-2.31,0.69-3.55
				l-2.67-9.81h7.74v14.96c0,2.25,1.83,4.08,4.08,4.08h14.96c2.25,0,4.08-1.83,4.08-4.08V40.8C81.6,38.55,79.77,36.72,77.52,36.72z
				 M35.36,72.08c0,0.75-0.61,1.36-1.36,1.36H4.08c-0.75,0-1.36-0.61-1.36-1.36v-2.72h32.64V72.08z M35.36,66.64H2.72V36.72h32.64
				V66.64z M35.36,34H2.72v-2.72c0-0.75,0.61-1.36,1.36-1.36H34c0.75,0,1.36,0.61,1.36,1.36V34z M50.79,67.64
				c0.11,0.41,0.03,0.84-0.23,1.18c-0.26,0.34-0.65,0.53-1.08,0.53h-11.4v-2.72h12.44L50.79,67.64z M38.08,63.92v-6.8h9.84l1.86,6.8
				H38.08z M58.48,54.4h-20.4v-8.16h20.4V54.4z M58.48,40.8v2.72h-20.4V31.28c0-2.25-1.83-4.08-4.08-4.08H6.8V6.8
				c0-2.25,1.83-4.08,4.08-4.08h59.84c2.25,0,4.08,1.83,4.08,4.08v29.92H62.56C60.31,36.72,58.48,38.55,58.48,40.8z M78.88,72.08
				c0,0.75-0.61,1.36-1.36,1.36H62.56c-0.75,0-1.36-0.61-1.36-1.36v-2.72h17.68V72.08z M78.88,66.64H61.2v-20.4h17.68V66.64z
				 M78.88,43.52H61.2V40.8c0-0.75,0.61-1.36,1.36-1.36h14.96c0.75,0,1.36,0.61,1.36,1.36V43.52z"/>
		</g>
	</g>
	<g>
		<g>
			
				<rect x="7.03" y="53.04" transform="matrix(0.7071 -0.7071 0.7071 0.7071 -35.2791 23.626)" class="st0" width="7.69" height="2.72"/>
		</g>
	</g>
	<g>
		<g>
			
				<rect x="10.22" y="51.68" transform="matrix(0.7071 -0.7071 0.7071 0.7071 -31.1311 30.9207)" class="st0" width="23.08" height="2.72"/>
		</g>
	</g>
	<g>
		<g>
			
				<rect x="14.63" y="43.52" transform="matrix(0.7071 -0.7071 0.7071 0.7071 -25.7609 27.5692)" class="st0" width="11.54" height="2.72"/>
		</g>
	</g>
	<g>
		<g>
			
				<rect x="63.87" y="52.36" transform="matrix(0.7071 -0.7071 0.7071 0.7071 -17.8719 64.2963)" class="st0" width="9.61" height="2.72"/>
		</g>
	</g>
	<g>
		<g>
			
				<rect x="66.59" y="57.81" transform="matrix(0.7071 -0.7071 0.7071 0.7071 -20.9261 67.8143)" class="st0" width="9.61" height="2.72"/>
		</g>
	</g>
	<g>
		<g>
			
				<rect x="35.03" y="19.04" transform="matrix(0.7071 -0.7071 0.7071 0.7071 -2.4758 34.8238)" class="st0" width="11.54" height="2.72"/>
		</g>
	</g>
	<g>
		<g>
			
				<rect x="47.27" y="16.32" transform="matrix(0.7071 -0.7071 0.7071 0.7071 3.0328 42.6827)" class="st0" width="11.54" height="2.72"/>
		</g>
	</g>
	<g>
		<g>
			
				<rect x="39.67" y="25.84" transform="matrix(0.7071 -0.7071 0.7071 0.7071 -6.4884 38.7392)" class="st0" width="7.69" height="2.72"/>
		</g>
	</g>
	<g>
		<g>
			
				<rect x="46.46" y="9.53" transform="matrix(0.7071 -0.7071 0.7071 0.7071 7.0367 38.7694)" class="st0" width="7.71" height="2.72"/>
		</g>
	</g>
	<g>
		<g>
			<rect x="9.52" y="5.44" class="st0" width="2.72" height="2.72"/>
		</g>
	</g>
	<g>
		<g>
			<rect x="14.96" y="5.44" class="st0" width="2.72" height="2.72"/>
		</g>
	</g>
	<g>
		<g>
			<rect x="20.4" y="5.44" class="st0" width="2.72" height="2.72"/>
		</g>
	</g>
</g>
</svg>
