<?xml version="1.0" encoding="utf-8"?>
<!-- Generator: Adobe Illustrator 23.0.3, SVG Export Plug-In . SVG Version: 6.00 Build 0)  -->
<svg version="1.1" id="レイヤー_5" xmlns="http://www.w3.org/2000/svg" xmlns:xlink="http://www.w3.org/1999/xlink" x="0px"
	 y="0px" viewBox="0 0 87.04 87.04" style="enable-background:new 0 0 87.04 87.04;" xml:space="preserve">
<style type="text/css">
	.st0{fill:#FFFFFF;}
</style>
<g>
	<g>
		<g>
			<path class="st0" d="M30.89,62.36c-0.12-0.04-0.25-0.05-0.38-0.06c1.86-1.96,3.01-4.6,3.01-7.51v-8.94
				c0-0.08-0.01-0.16-0.02-0.24c0.01-0.16,0.02-0.32,0.02-0.49v-5.66c0-0.94-0.76-1.7-1.7-1.7h-11.4c-4.8,0-8.71,3.91-8.71,8.71
				v8.32c0,2.91,1.15,5.55,3.01,7.51c-0.13,0.01-0.25,0.03-0.38,0.06C6.32,63.09,0,69.86,0,78.08v7.26c0,0.94,0.76,1.7,1.7,1.7
				h41.84c0.94,0,1.7-0.76,1.7-1.7v-7.26C45.24,69.86,38.93,63.09,30.89,62.36z M15.12,48.62v-2.16c0-2.93,2.38-5.31,5.31-5.31h9.7
				v3.96c0,1.99-1.62,3.61-3.61,3.61h-11.4V48.62z M15.12,52.13h11.4c1.32,0,2.56-0.37,3.61-1.01v3.66c0,4.14-3.37,7.51-7.51,7.51
				s-7.51-3.37-7.51-7.51V52.13z M26.32,65.69l-3.7,3.7l-3.7-3.7H26.32z M41.84,83.64L41.84,83.64H3.4v-3.4h7.05
				c0.94,0,1.7-0.76,1.7-1.7s-0.76-1.7-1.7-1.7H3.46c0.57-5.73,5.07-10.32,10.75-11.04l7.2,7.2c0.32,0.32,0.75,0.5,1.2,0.5
				c0.45,0,0.88-0.18,1.2-0.5l7.2-7.2c6.09,0.77,10.82,5.98,10.82,12.28V83.64z"/>
		</g>
	</g>
	<g>
		<g>
			<path class="st0" d="M72.69,24.6c-0.12-0.04-0.25-0.05-0.38-0.06c1.86-1.96,3.01-4.6,3.01-7.51V8.09c0-0.08-0.01-0.16-0.02-0.24
				c0.01-0.16,0.02-0.32,0.02-0.49V1.7c0-0.94-0.76-1.7-1.7-1.7h-11.4c-4.8,0-8.71,3.91-8.71,8.71v8.32c0,2.91,1.15,5.55,3.01,7.51
				c-0.13,0.01-0.25,0.03-0.38,0.06c-8.03,0.73-14.35,7.5-14.35,15.72v7.26c0,0.94,0.76,1.7,1.7,1.7h13.68c0.94,0,1.7-0.76,1.7-1.7
				s-0.76-1.7-1.7-1.7H45.2v-5.56c0-6.3,4.73-11.51,10.82-12.28l7.2,7.2c0.33,0.33,0.77,0.5,1.2,0.5c0.44,0,0.87-0.17,1.2-0.5
				l7.2-7.2c6.09,0.77,10.82,5.98,10.82,12.28v5.56H71.12c-0.94,0-1.7,0.76-1.7,1.7s0.76,1.7,1.7,1.7h14.22c0.94,0,1.7-0.76,1.7-1.7
				v-7.26C87.04,32.1,80.72,25.33,72.69,24.6z M64.42,31.64l-3.7-3.7h7.4L64.42,31.64z M71.92,17.03c0,4.14-3.37,7.51-7.51,7.51
				s-7.51-3.37-7.51-7.5v-2.66h11.4c1.32,0,2.56-0.37,3.61-1.01V17.03z M71.92,7.36c0,1.99-1.62,3.61-3.61,3.61h-11.4v-0.11V8.71
				c0-2.93,2.38-5.31,5.31-5.31h9.7V7.36L71.92,7.36z"/>
		</g>
	</g>
	<g>
		<g>
			<path class="st0" d="M65.62,46.38c-0.32-0.32-0.75-0.5-1.2-0.5c-0.45,0-0.89,0.18-1.2,0.5c-0.32,0.32-0.5,0.75-0.5,1.2
				c0,0.45,0.18,0.89,0.5,1.2c0.32,0.32,0.75,0.5,1.2,0.5c0.45,0,0.89-0.18,1.2-0.5c0.32-0.32,0.5-0.75,0.5-1.2
				C66.12,47.14,65.94,46.7,65.62,46.38z"/>
		</g>
	</g>
	<g>
		<g>
			<path class="st0" d="M45.46,23.79l-7.11-7.11V8.5c0-4.69-3.81-8.5-8.5-8.5H8.5C3.81,0,0,3.81,0,8.5v14.96
				c0,4.69,3.81,8.5,8.5,8.5h21.35c3.51,0,6.58-2.11,7.87-5.27h6.54c0.69,0,1.31-0.41,1.57-1.05
				C46.09,25.01,45.94,24.27,45.46,23.79z M36.47,23.29c-0.79,0-1.48,0.55-1.66,1.32c-0.54,2.33-2.58,3.95-4.97,3.95H8.5
				c-2.81,0-5.1-2.29-5.1-5.1V8.5c0-2.81,2.29-5.1,5.1-5.1h21.35c2.81,0,5.1,2.29,5.1,5.1v8.88c0,0.45,0.18,0.88,0.5,1.2l4.71,4.71
				H36.47z"/>
		</g>
	</g>
	<g>
		<g>
			<path class="st0" d="M78.54,55.08H57.19c-3.51,0-6.58,2.11-7.87,5.27h-6.54c-0.69,0-1.31,0.41-1.57,1.05
				c-0.26,0.64-0.12,1.37,0.37,1.85l7.11,7.11v8.18c0,4.69,3.81,8.5,8.5,8.5h21.35c4.69,0,8.5-3.81,8.5-8.5V63.58
				C87.04,58.89,83.23,55.08,78.54,55.08z M83.64,78.54c0,2.81-2.29,5.1-5.1,5.1H57.19c-2.81,0-5.1-2.29-5.1-5.1v-8.88
				c0-0.45-0.18-0.88-0.5-1.2l-4.71-4.71h3.68c0.79,0,1.48-0.55,1.66-1.32c0.54-2.33,2.58-3.95,4.97-3.95h21.35
				c2.81,0,5.1,2.29,5.1,5.1V78.54z"/>
		</g>
	</g>
	<g>
		<g>
			<path class="st0" d="M75.51,66.54c-0.66-0.66-1.74-0.66-2.4,0l-4.52,4.52l-2.1-2.1c-0.66-0.66-1.74-0.66-2.4,0
				c-0.66,0.66-0.66,1.74,0,2.4l3.3,3.3c0.33,0.33,0.77,0.5,1.2,0.5s0.87-0.17,1.2-0.5l5.72-5.72
				C76.17,68.28,76.17,67.2,75.51,66.54z"/>
		</g>
	</g>
	<g>
		<g>
			<path class="st0" d="M26.9,11.27C26.7,8.35,24.35,6,21.44,5.8C19.78,5.69,18.21,6.24,17,7.37c-1.19,1.11-1.87,2.68-1.87,4.31
				c0,0.94,0.76,1.7,1.7,1.7c0.94,0,1.7-0.76,1.7-1.7c0-0.7,0.28-1.35,0.79-1.82c0.51-0.48,1.18-0.71,1.88-0.66
				c1.23,0.08,2.22,1.08,2.31,2.31c0.09,1.24-0.73,2.34-1.94,2.61c-1.32,0.3-2.25,1.45-2.25,2.8v0.91c0,0.94,0.76,1.7,1.7,1.7
				c0.94,0,1.7-0.76,1.7-1.7v-0.49C25.36,16.54,27.1,14.06,26.9,11.27z"/>
		</g>
	</g>
	<g>
		<g>
			<path class="st0" d="M22.23,23.12c-0.32-0.32-0.75-0.5-1.2-0.5c-0.45,0-0.89,0.18-1.2,0.5c-0.32,0.32-0.5,0.75-0.5,1.2
				s0.18,0.89,0.5,1.2c0.32,0.32,0.75,0.5,1.2,0.5c0.45,0,0.89-0.18,1.2-0.5c0.32-0.32,0.5-0.75,0.5-1.2S22.54,23.44,22.23,23.12z"
				/>
		</g>
	</g>
	<g>
		<g>
			<path class="st0" d="M18.46,77.34c-0.32-0.32-0.75-0.5-1.2-0.5c-0.45,0-0.89,0.18-1.2,0.5c-0.32,0.32-0.5,0.75-0.5,1.2
				c0,0.45,0.18,0.89,0.5,1.2s0.75,0.5,1.2,0.5c0.45,0,0.89-0.18,1.2-0.5c0.32-0.32,0.5-0.75,0.5-1.2
				C18.95,78.09,18.77,77.65,18.46,77.34z"/>
		</g>
	</g>
</g>
</svg>
