<?xml version="1.0" encoding="utf-8"?>
<!-- Generator: Adobe Illustrator 23.0.3, SVG Export Plug-In . SVG Version: 6.00 Build 0)  -->
<svg version="1.1" id="_x30_1nonborder" xmlns="http://www.w3.org/2000/svg" xmlns:xlink="http://www.w3.org/1999/xlink" x="0px"
	 y="0px" viewBox="0 0 73.5 48.3" style="enable-background:new 0 0 73.5 48.3;" xml:space="preserve">
<style type="text/css">
	.st0{fill:#FFFFFF;}
</style>
<g>
	<g>
		<path class="st0" d="M25.5,3.31l-0.92,0.45c-1.14,0.55-2.48,0.63-3.66,0.21l-1.53-0.54c-0.09-0.06-0.18-0.1-0.27-0.14L9.7,0.07
			C9-0.17,8.22,0.21,7.98,0.91L0.07,23.94c-0.12,0.35-0.09,0.72,0.06,1.03s0.44,0.57,0.78,0.69l9.4,3.22
			c0.15,0.04,0.3,0.08,0.44,0.08c0.57,0,1.1-0.36,1.29-0.92L19.5,6.36l0.51,0.18c1.88,0.66,3.98,0.54,5.77-0.33l0.92-0.45
			c1.13-0.55,2.45-0.63,3.63-0.23l17.3,5.95c-0.18,0.72-0.54,1.57-1.2,2.04c-0.74,0.51-1.83,0.51-3.27,0.02l-7.71-2.64
			c-0.36-0.12-0.75-0.09-1.08,0.09c-0.33,0.18-0.57,0.49-0.67,0.85c-0.02,0.05-1.08,4.03-4.49,5.87c-2.15,1.15-4.81,1.2-7.95,0.13
			c-0.7-0.24-1.49,0.14-1.73,0.84c-0.24,0.7,0.13,1.48,0.84,1.73c1.8,0.61,3.5,0.93,5.07,0.93c1.83,0,3.51-0.4,5.04-1.23
			c3.05-1.63,4.62-4.5,5.34-6.21l6.43,2.2c2.29,0.8,4.22,0.67,5.7-0.36c2.38-1.65,2.51-4.99,2.52-5.15c0.02-0.6-0.36-1.13-0.92-1.32
			L31.2,2.95C29.35,2.32,27.27,2.46,25.5,3.31z M9.93,25.87l-6.84-2.34l7.01-20.45l6.84,2.34L9.93,25.87z"/>
		<path class="st0" d="M61.53,27.42l-3.22,2.97c-2.92,2.69-6.23,4.95-9.8,6.69l-17.12,8.37c-0.75,0.38-1.67,0.06-2.04-0.71
			c-0.38-0.75-0.06-1.67,0.7-2.04l0.21-0.11l0,0l9.36-4.58c0.68-0.33,0.96-1.14,0.63-1.81c-0.33-0.68-1.14-0.96-1.82-0.63
			l-9.36,4.58l0,0l-4.71,2.31c-0.75,0.38-1.67,0.06-2.04-0.71c-0.18-0.36-0.21-0.78-0.08-1.16c0.13-0.39,0.4-0.69,0.77-0.87
			l3.55-1.74l0,0l10.17-4.98c0.68-0.33,0.96-1.14,0.63-1.82s-1.14-0.96-1.82-0.63l-10.18,4.99l0,0l-0.39,0.19l-4.86,2.38
			c-0.36,0.18-0.78,0.21-1.16,0.08c-0.39-0.13-0.69-0.41-0.87-0.76c-0.38-0.75-0.06-1.67,0.7-2.04l1.68-0.83l0,0l3.43-1.68
			l0.96-0.47l0,0l7.89-3.87c0.67-0.33,0.96-1.14,0.63-1.82c-0.33-0.67-1.14-0.96-1.82-0.63l-8.55,4.18l-3.73,1.83
			c-0.75,0.36-1.67,0.06-2.04-0.71c-0.18-0.36-0.21-0.78-0.07-1.16c0.14-0.39,0.4-0.69,0.76-0.87l6.52-3.19
			c0.68-0.33,0.96-1.14,0.63-1.82c-0.33-0.68-1.14-0.96-1.82-0.63l-6.52,3.19c-1.02,0.49-1.78,1.37-2.15,2.43s-0.3,2.22,0.2,3.24
			c0.31,0.63,0.76,1.16,1.3,1.54c-0.95,1.24-1.19,2.96-0.45,4.46c0.49,1.02,1.36,1.78,2.43,2.15c0.45,0.15,0.9,0.22,1.35,0.22
			c-0.02,0.67,0.12,1.35,0.43,1.97c0.73,1.5,2.25,2.37,3.81,2.37c0.63,0,1.26-0.13,1.86-0.43l0.96-0.47
			c0.05,0.51,0.18,1.01,0.4,1.49c0.73,1.5,2.25,2.37,3.81,2.37c0.63,0,1.26-0.13,1.86-0.44l17.11-8.37
			c3.81-1.86,7.32-4.26,10.44-7.13l3.83-3.53l8.76-4.29c0.67-0.33,0.96-1.14,0.63-1.82L62.65,0.91c-0.17-0.33-0.44-0.57-0.78-0.69
			c-0.34-0.12-0.72-0.09-1.03,0.06L51.9,4.65c-0.67,0.33-0.96,1.14-0.63,1.81L61.53,27.42z M60.81,3.33l9.49,19.42l-6.49,3.18
			L54.31,6.51L60.81,3.33z"/>
	</g>
</g>
</svg>
