<?xml version="1.0" encoding="utf-8"?>
<!-- Generator: Adobe Illustrator 23.0.3, SVG Export Plug-In . SVG Version: 6.00 Build 0)  -->
<svg version="1.1" id="レイヤー_1" xmlns="http://www.w3.org/2000/svg" xmlns:xlink="http://www.w3.org/1999/xlink" x="0px"
	 y="0px" viewBox="0 0 87.04 53.58" style="enable-background:new 0 0 87.04 53.58;" xml:space="preserve">
<style type="text/css">
	.st0{fill:#FFFFFF;}
</style>
<g>
	<g>
		<g>
			<g>
				<path class="st0" d="M87,37.88l-1.02-8.57c-0.11-0.92-0.94-1.58-1.86-1.49c-3.38,0.35-6.46-2.12-6.86-5.49
					c-0.4-3.37,2.01-6.49,5.38-6.95c0.92-0.13,1.57-0.96,1.46-1.89l-1.02-8.57c-0.18-1.48-0.92-2.8-2.09-3.73
					c-1.17-0.92-2.63-1.33-4.11-1.16L17.15,7.17c-1.47,0.17-2.78,0.91-3.7,2.06H5.58C2.5,9.22,0,11.73,0,14.81v8.63
					c0,0.93,0.74,1.68,1.67,1.7c3.4,0.06,6.16,2.87,6.16,6.27c0,3.4-2.76,6.21-6.16,6.27C0.74,37.69,0,38.44,0,39.37V48
					c0,3.08,2.5,5.58,5.58,5.58h47.89h12.24c3.08,0,5.58-2.5,5.58-5.58v-2.62l10.82-1.29c1.48-0.18,2.8-0.92,3.73-2.09
					C86.77,40.82,87.18,39.36,87,37.88z M67.9,42.36v3.42V48c0,1.2-0.98,2.18-2.18,2.18H55.18V47.3V47c0-0.94-0.76-1.7-1.7-1.7
					s-1.7,0.76-1.7,1.7v0.71v2.47H31.05H18.46H5.58c-1.2,0-2.18-0.98-2.18-2.18v-7.1c1.91-0.37,3.66-1.3,5.06-2.71
					c1.79-1.82,2.78-4.23,2.78-6.78s-0.99-4.96-2.78-6.78c-1.39-1.41-3.15-2.35-5.06-2.71v-7.1c0-1.2,0.98-2.18,2.18-2.18h6.65h3.4
					h36.14v20.7c0,0.94,0.76,1.7,1.7,1.7s1.7-0.76,1.7-1.7v-20.7h10.54c1.2,0,2.18,0.98,2.18,2.18v7.1
					c-1.91,0.37-3.66,1.3-5.06,2.71c-1.79,1.82-2.78,4.23-2.78,6.78s0.99,4.96,2.78,6.78c1.39,1.41,3.15,2.35,5.06,2.71L67.9,42.36
					L67.9,42.36z M83.17,39.89c-0.36,0.46-0.88,0.75-1.46,0.82L71.3,41.95v-2.58c0-0.93-0.74-1.68-1.67-1.7
					c-3.4-0.06-6.16-2.87-6.16-6.27s2.76-6.21,6.16-6.27c0.93-0.02,1.67-0.77,1.67-1.7V14.8c0-3.08-2.5-5.58-5.58-5.58H53.48H28.61
					l48.65-5.81c0.58-0.07,1.15,0.09,1.61,0.45c0.46,0.36,0.75,0.88,0.82,1.46l0.84,7.05c-1.85,0.59-3.48,1.72-4.7,3.29
					c-1.56,2.02-2.26,4.53-1.96,7.06s1.57,4.81,3.56,6.41c1.55,1.24,3.4,1.96,5.34,2.09l0.84,7.05
					C83.69,38.86,83.53,39.44,83.17,39.89z"/>
				<path class="st0" d="M55.05,39.51c-0.04-0.1-0.1-0.2-0.16-0.29c-0.06-0.09-0.13-0.18-0.21-0.26c-0.08-0.08-0.17-0.15-0.26-0.21
					c-0.09-0.06-0.19-0.11-0.29-0.16s-0.21-0.08-0.32-0.1c-0.22-0.04-0.45-0.04-0.66,0c-0.11,0.02-0.21,0.06-0.32,0.1
					c-0.1,0.04-0.2,0.09-0.29,0.16c-0.09,0.06-0.18,0.13-0.26,0.21c-0.08,0.08-0.15,0.16-0.21,0.26c-0.06,0.09-0.11,0.19-0.16,0.29
					c-0.04,0.1-0.07,0.21-0.1,0.32c-0.02,0.11-0.03,0.22-0.03,0.33c0,0.11,0.01,0.22,0.03,0.33c0.02,0.11,0.05,0.22,0.1,0.32
					c0.04,0.1,0.1,0.2,0.16,0.29c0.06,0.09,0.13,0.18,0.21,0.26c0.08,0.08,0.16,0.15,0.26,0.21c0.09,0.06,0.19,0.11,0.29,0.16
					c0.1,0.04,0.21,0.08,0.32,0.1c0.11,0.02,0.22,0.03,0.33,0.03c0.11,0,0.22-0.01,0.33-0.03c0.11-0.02,0.22-0.05,0.32-0.1
					c0.1-0.04,0.2-0.1,0.29-0.16c0.09-0.06,0.18-0.13,0.26-0.21c0.08-0.08,0.15-0.16,0.21-0.26c0.06-0.09,0.11-0.19,0.16-0.29
					c0.04-0.1,0.07-0.21,0.1-0.32c0.02-0.11,0.03-0.22,0.03-0.33c0-0.11-0.01-0.22-0.03-0.33C55.12,39.72,55.09,39.61,55.05,39.51z"
					/>
			</g>
		</g>
	</g>
	<path class="st0" d="M21.48,39.41c0-0.33,0-10.43,0-10.77c0-0.15,0.02-0.27-0.16-0.37c-1.05-0.54-1.67-1.4-1.87-2.56
		c-0.01-0.04-0.31-7.4-0.1-7.73c0.15-0.23,0.55-0.28,0.78-0.15c0.31,0.17,0.4,0.44,0.4,0.79c-0.01,1.84-0.01,3.67-0.01,5.51
		c0,0.1,0,0.2,0,0.29c0.36,0,0.67,0,1.01,0c0-0.12,0-0.22,0-0.32c0-1.83,0.01-3.66,0-5.48c0-0.35,0.08-0.62,0.4-0.79
		c0.11,0,0.22,0,0.34,0c0.31,0.17,0.4,0.44,0.4,0.79c-0.01,1.84-0.01,3.67-0.01,5.51c0,0.1,0,0.2,0,0.29c0.36,0,0.67,0,1.01,0
		c0-0.11,0-0.22,0-0.32c0-1.83,0.01-3.66-0.01-5.48c0-0.35,0.08-0.62,0.4-0.79c0.11,0,0.22,0,0.34,0c0.31,0.17,0.4,0.44,0.4,0.79
		c-0.01,1.84-0.01,3.67-0.01,5.51c0,0.1,0,0.2,0,0.29c0.36,0,0.67,0,1.01,0c0-0.11,0-0.22,0-0.32c0-1.83,0.01-3.66-0.01-5.48
		c0-0.35,0.08-0.62,0.4-0.79c0.11,0,0.22,0,0.34,0c0.31,0.17,0.4,0.45,0.4,0.79c-0.01,2.16,0,4.31-0.01,6.47
		c-0.01,1.43-0.62,2.51-1.9,3.18c-0.17,0.09-0.17,0.21-0.17,0.36c0,0.37,0,10.51,0,10.88 M24.84,37.1c0,2.51,0,5.03,0,7.54
		c0,0.68-0.22,1.25-0.83,1.61c-1.11,0.66-2.47-0.1-2.53-1.4c-0.02-0.35,0-0.71,0-1.06c0-2.18,0-4.36,0-6.54"/>
	<path class="st0" d="M38.37,17.37c0.3,0.16,0.4,0.42,0.4,0.76c-0.01,8.69,0,17.37-0.01,26.06c0,0.86-0.4,1.49-1.1,1.74
		c-1.13,0.4-2.24-0.39-2.26-1.62c-0.01-1.3,0-2.59,0-3.89c0-1.36,0-2.72-0.01-4.09c0-0.13-0.07-0.28-0.16-0.38
		c-0.3-0.33-0.63-0.64-0.94-0.96c-0.52-0.55-0.79-1.22-0.79-1.97c-0.01-2.46-0.04-4.93,0.01-7.39c0.07-3.4,1.52-6.09,4.27-8.09
		c0.08-0.06,0.17-0.11,0.25-0.17C38.14,17.37,38.25,17.37,38.37,17.37z"/>
</g>
</svg>
