<?xml version="1.0" encoding="utf-8"?>
<!-- Generator: Adobe Illustrator 23.0.3, SVG Export Plug-In . SVG Version: 6.00 Build 0)  -->
<svg version="1.1" id="レイヤー_5" xmlns="http://www.w3.org/2000/svg" xmlns:xlink="http://www.w3.org/1999/xlink" x="0px"
	 y="0px" viewBox="0 0 80.59 78.11" style="enable-background:new 0 0 80.59 78.11;" xml:space="preserve">
<style type="text/css">
	.st0{fill:#FFFFFF;}
</style>
<g>
	<g>
		<g>
			<path class="st0" d="M79.41,36.88c-0.89-0.24-1.64,0.3-1.94,1.1c-0.52,1.38-2.48,2.2-3.89,2.38c-2.13,0.28-4.21-0.66-6.09-1.53
				c-2.23-1.04-4.54-2.02-7.05-2c-2.53,0.02-4.99,1.03-7.05,2.45c-2.32,1.6-4.18,3.68-6,5.8c-0.56,0.65-0.64,1.6,0,2.23
				c0.57,0.57,1.68,0.65,2.23,0c2.92-3.41,6.78-7.9,11.8-7.28c2.37,0.29,4.5,1.62,6.67,2.5c2.24,0.91,4.69,1.34,7.06,0.71
				c2.35-0.62,4.47-2.11,5.35-4.43C80.82,38.02,80.18,37.09,79.41,36.88z"/>
		</g>
	</g>
	<g>
		<g>
			<path class="st0" d="M34.26,20.58c1.77-1.84,3.65-3.81,4.46-6.29c0.78-2.41,0.49-4.98-0.59-7.26c-1.25-2.62-3.31-4.67-5.34-6.69
				c-0.61-0.6-1.73-0.36-2.22,0.26c-0.58,0.73-0.35,1.62,0.26,2.22c3.13,3.11,6.99,7.36,4.2,11.93c-2.48,4.06-7.82,6.85-7.94,12.13
				c-0.06,2.54,1.11,5.01,3.54,6.03c1.88,0.79,3.13-2.11,1.26-2.9c-1.52-0.64-1.9-2.45-1.52-3.94
				C30.92,23.91,32.76,22.14,34.26,20.58z"/>
		</g>
	</g>
	<g>
		<g>
			<path class="st0" d="M55.19,24.03c-0.26-2.1-1.44-4-3.22-5.16c-0.99-0.64-2.07-0.98-3.16-1.07c0.54-1.78,1.55-3.42,3.03-4.55
				c0.68-0.52,1.04-1.36,0.57-2.16c-0.39-0.67-1.48-1.09-2.16-0.57c-2.52,1.93-4.21,4.7-4.81,7.77c-2.06,0.75-3.9,2.26-4.95,4.15
				c-2.84,5.06-1.05,10.97,1.81,15.56c1.07,1.72,3.81,0.14,2.73-1.59c-1.86-3-3.44-6.59-2.62-10.19c0.4-1.75,1.4-3.38,2.83-4.35
				c0.14,1.73,0.62,3.45,1.47,4.97c1.18,2.11,3.41,3.86,5.88,2.68C54.56,28.56,55.44,26.11,55.19,24.03z M51.67,26.21
				c-0.86,1.23-1.76-0.11-2.24-0.97c-0.65-1.18-1.01-2.51-1.07-3.85c-0.01-0.14-0.01-0.28-0.01-0.42c0.08,0,0.16,0.01,0.23,0.01
				C50.9,21.17,53.14,24.1,51.67,26.21z"/>
		</g>
	</g>
	<g>
		<g>
			<path class="st0" d="M61.61,28.34c-2.03,0-2.04,3.16,0,3.16C63.64,31.5,63.64,28.34,61.61,28.34z"/>
		</g>
	</g>
	<g>
		<g>
			<path class="st0" d="M63.58,23.77c-2.03,0-2.04,3.16,0,3.16C65.61,26.93,65.61,23.77,63.58,23.77z"/>
		</g>
	</g>
	<g>
		<g>
			<path class="st0" d="M66.67,27.8c-2.03,0-2.04,3.16,0,3.16C68.7,30.96,68.7,27.8,66.67,27.8z"/>
		</g>
	</g>
	<g>
		<g>
			<path class="st0" d="M18.11,16.87c-2.03,0-2.04,3.16,0,3.16C20.15,20.03,20.15,16.87,18.11,16.87z"/>
		</g>
	</g>
	<g>
		<g>
			<path class="st0" d="M20.08,12.3c-2.03,0-2.04,3.16,0,3.16C22.12,15.46,22.12,12.3,20.08,12.3z"/>
		</g>
	</g>
	<g>
		<g>
			<path class="st0" d="M23.17,16.33c-2.03,0-2.04,3.16,0,3.16C25.2,19.49,25.21,16.33,23.17,16.33z"/>
		</g>
	</g>
	<g>
		<g>
			<path class="st0" d="M44.6,54.49L23.62,33.51c-0.36-0.36-0.87-0.52-1.37-0.44c-0.5,0.08-0.93,0.4-1.16,0.85l-1.89,3.78
				L0.17,75.82c-0.3,0.61-0.18,1.34,0.3,1.82c0.3,0.3,0.71,0.46,1.12,0.46c0.24,0,0.48-0.05,0.71-0.17l41.9-20.92
				c0.45-0.23,0.77-0.66,0.85-1.16C45.12,55.36,44.96,54.85,44.6,54.49z M5.11,73l6.83-13.67l2.31,9.11L5.11,73z M31.18,59.98
				l-2.69-6.56c-0.33-0.81-1.25-1.19-2.06-0.86c-0.81,0.33-1.19,1.25-0.86,2.06l2.78,6.77l-11.21,5.6l-3.04-12l6.38-12.77l1.75,4.28
				c0.25,0.61,0.84,0.98,1.46,0.98c0.2,0,0.4-0.04,0.6-0.12c0.81-0.33,1.19-1.25,0.86-2.06l-2.8-6.83l0.59-1.17l17.88,17.88
				L31.18,59.98z"/>
		</g>
	</g>
	<g>
		<g>
			<path class="st0" d="M63.08,48.18c-3.52,0-6.39,2.87-6.39,6.39c0,3.53,2.87,6.39,6.39,6.39c3.53,0,6.39-2.87,6.39-6.39
				C69.47,51.04,66.6,48.18,63.08,48.18z M63.08,57.8c-1.78,0-3.23-1.45-3.23-3.23c0-1.78,1.45-3.23,3.23-3.23
				c1.78,0,3.23,1.45,3.23,3.23C66.31,56.35,64.86,57.8,63.08,57.8z"/>
		</g>
	</g>
	<g>
		<g>
			<path class="st0" d="M73.38,10.7l-6.35-6.35c-0.3-0.3-0.7-0.46-1.12-0.46c-0.42,0-0.82,0.17-1.12,0.46l-6.35,6.35
				c-0.62,0.62-0.62,1.62,0,2.23l6.35,6.35c0.31,0.31,0.71,0.46,1.12,0.46s0.81-0.15,1.12-0.46l6.35-6.35
				c0.3-0.3,0.46-0.7,0.46-1.12C73.84,11.4,73.68,10.99,73.38,10.7z M65.91,15.93l-4.12-4.12l4.12-4.12l4.12,4.12L65.91,15.93z"/>
		</g>
	</g>
	<g>
		<g>
			<path class="st0" d="M25.22,48.42c-2.03,0-2.04,3.16,0,3.16C27.26,51.58,27.26,48.42,25.22,48.42z"/>
		</g>
	</g>
</g>
</svg>
