<?xml version="1.0" encoding="utf-8"?>
<!-- Generator: Adobe Illustrator 23.0.3, SVG Export Plug-In . SVG Version: 6.00 Build 0)  -->
<svg version="1.1" id="_x30_1nonborder" xmlns="http://www.w3.org/2000/svg" xmlns:xlink="http://www.w3.org/1999/xlink" x="0px"
	 y="0px" viewBox="0 0 61.38 71.68" style="enable-background:new 0 0 61.38 71.68;" xml:space="preserve">
<style type="text/css">
	.st0{fill:#FFFFFF;}
</style>
<g>
	<g>
		<g>
			<path class="st0" d="M60.15,6.91c-0.99-1.16-2.43-1.83-3.96-1.83h-5.01V3.52c0-1.94-1.58-3.52-3.52-3.52H13.71
				c-1.94,0-3.52,1.58-3.52,3.52v1.57H5.18c-1.53,0-2.97,0.67-3.96,1.83c-0.98,1.15-1.4,2.66-1.16,4.15
				C1.38,19.15,6.47,26.3,13.7,30.22c0.66,1.59,1.41,3.09,2.24,4.49c2.66,4.48,5.97,7.57,9.61,9.07c0.37,3.73-2.11,7.26-5.85,8.11
				c-0.01,0-0.01,0-0.02,0.01c-0.73,0.17-1.27,0.83-1.27,1.61v7.61h-3.08c-2.74,0-4.98,2.23-4.98,4.98v3.93
				c0,0.92,0.74,1.66,1.66,1.66h37.52c0.92,0,1.66-0.74,1.66-1.66v-3.93c0-2.74-2.23-4.98-4.98-4.98h-3.08v-7.61
				c0-0.78-0.55-1.44-1.28-1.61c-0.01,0-0.01,0-0.02-0.01c-3.77-0.85-6.25-4.42-5.85-8.18c3.58-1.52,6.83-4.59,9.45-9
				c0.83-1.4,1.58-2.91,2.24-4.49C54.91,26.3,60,19.15,61.31,11.06C61.56,9.57,61.13,8.06,60.15,6.91z M3.34,10.53
				C3.26,10,3.4,9.48,3.75,9.06C4.11,8.64,4.63,8.4,5.18,8.4h5.01v3.05c0,4.79,0.61,9.42,1.77,13.66
				C7.41,21.52,4.28,16.3,3.34,10.53z M46.21,64.43c0.91,0,1.66,0.74,1.66,1.66v2.27h-34.2v-2.27c0-0.91,0.74-1.66,1.66-1.66H46.21z
				 M39.81,55.16v5.95H21.72v-5.95H39.81z M26.08,51.85c0.41-0.45,0.78-0.94,1.12-1.46c1.11-1.73,1.69-3.69,1.71-5.69
				c0.59,0.08,1.18,0.12,1.78,0.12c0.65,0,1.3-0.05,1.94-0.15c0.04,2.69,1.09,5.24,2.85,7.18L26.08,51.85L26.08,51.85z M47.87,11.45
				c0,8.17-1.88,15.83-5.28,21.57c-3.25,5.46-7.47,8.47-11.89,8.47c-4.42,0-8.65-3.01-11.9-8.47c-3.41-5.73-5.28-13.39-5.28-21.57
				V3.52c0-0.11,0.09-0.2,0.2-0.2h33.96c0.11,0,0.2,0.09,0.2,0.2V11.45z M58.04,10.53c-0.94,5.77-4.07,10.99-8.62,14.59
				c1.16-4.24,1.77-8.88,1.77-13.66V8.4h5.01c0.55,0,1.07,0.24,1.43,0.66C57.98,9.48,58.12,10,58.04,10.53z"/>
		</g>
	</g>
	<g>
		<g>
			<path class="st0" d="M40.76,17.03c-0.2-0.6-0.71-1.04-1.34-1.13l-5.01-0.73l-2.24-4.54c-0.28-0.57-0.86-0.92-1.49-0.92
				c-0.63,0-1.21,0.36-1.49,0.92l-2.24,4.54l-5.01,0.73c-0.62,0.09-1.14,0.53-1.34,1.13c-0.2,0.6-0.03,1.26,0.42,1.7l3.62,3.53
				l-0.86,4.99c-0.11,0.62,0.15,1.25,0.66,1.62c0.51,0.37,1.19,0.42,1.75,0.13l4.48-2.35L35.17,29c0.24,0.13,0.51,0.19,0.77,0.19
				c0.34,0,0.69-0.11,0.98-0.32c0.51-0.37,0.77-1,0.66-1.62l-0.86-4.99l3.62-3.53C40.79,18.29,40.96,17.63,40.76,17.03z M33.78,20.5
				c-0.39,0.38-0.57,0.93-0.48,1.47l0.43,2.53l-2.27-1.2c-0.24-0.13-0.51-0.19-0.77-0.19c-0.27,0-0.53,0.06-0.77,0.19l-2.27,1.2
				l0.43-2.53c0.09-0.54-0.09-1.09-0.48-1.47l-1.84-1.79l2.54-0.37c0.54-0.08,1.01-0.42,1.25-0.91l1.14-2.3l1.14,2.3
				c0.24,0.49,0.71,0.83,1.25,0.91l2.54,0.37L33.78,20.5z"/>
		</g>
	</g>
</g>
</svg>
