<?xml version="1.0" encoding="utf-8"?>
<!-- Generator: Adobe Illustrator 23.0.3, SVG Export Plug-In . SVG Version: 6.00 Build 0)  -->
<svg version="1.1" id="design" xmlns="http://www.w3.org/2000/svg" xmlns:xlink="http://www.w3.org/1999/xlink" x="0px" y="0px"
	 viewBox="0 0 96 76.8" style="enable-background:new 0 0 96 76.8;" xml:space="preserve">
<style type="text/css">
	.st0{fill:#FFFFFF;}
</style>
<g>
	<g>
		<g>
			<path class="st0" d="M48,6.4c-17.67,0-32,14.33-32,32s14.33,32,32,32s32-14.33,32-32C79.98,20.74,65.66,6.42,48,6.4z M48,67.2
				c-15.91,0-28.8-12.89-28.8-28.8S32.09,9.6,48,9.6s28.8,12.89,28.8,28.8C76.78,54.3,63.9,67.18,48,67.2z"/>
		</g>
	</g>
	<g>
		<g>
			<path class="st0" d="M93.57,0.3c-1.47-0.61-3.16-0.28-4.28,0.85c-3.91,3.89-6.11,9.19-6.09,14.71V36.8
				c0.01,2.03,1.29,3.83,3.2,4.51V72c0,2.65,2.15,4.8,4.8,4.8S96,74.65,96,72V3.93C96,2.34,95.04,0.91,93.57,0.3z M92.8,72
				c0,0.88-0.72,1.6-1.6,1.6c-0.88,0-1.6-0.72-1.6-1.6V41.6h3.2V72z M92.8,38.4H88c-0.88,0-1.6-0.72-1.6-1.6V15.86
				c-0.01-4.67,1.84-9.15,5.16-12.44c0.13-0.14,0.31-0.22,0.5-0.22c0.1,0,0.2,0.02,0.3,0.06c0.28,0.11,0.46,0.38,0.45,0.67V38.4z"/>
		</g>
	</g>
	<g>
		<g>
			<path class="st0" d="M35.2,27.2c-3.53,0-6.4,2.87-6.4,6.4c0,3.53,2.87,6.4,6.4,6.4s6.4-2.87,6.4-6.4
				C41.6,30.07,38.73,27.2,35.2,27.2z M35.2,36.8c-1.77,0-3.2-1.43-3.2-3.2c0-1.77,1.43-3.2,3.2-3.2c1.77,0,3.2,1.43,3.2,3.2
				C38.4,35.37,36.97,36.8,35.2,36.8z"/>
		</g>
	</g>
	<g>
		<g>
			<path class="st0" d="M48.14,28.28l-2.81-2.81c-0.34-0.34-0.53-0.79-0.52-1.27c0-2.76-2.24-4.99-4.99-4.99h-6.4
				c-1.32,0-2.59,0.53-3.53,1.46l-6.01,6.01c-0.94,0.93-1.47,2.21-1.46,3.53v6.79c0,1.33,0.52,2.6,1.46,3.53l2.81,2.81
				c0.34,0.34,0.53,0.79,0.52,1.27c0,2.76,2.24,4.99,4.99,4.99h3.2c1.32,0,2.59-0.53,3.53-1.46l4.41-4.41
				c0.34-0.33,0.79-0.52,1.27-0.52c2.76,0,4.99-2.24,4.99-4.99v-6.4C49.6,30.48,49.08,29.21,48.14,28.28z M46.4,38.21
				c0,0.99-0.8,1.79-1.79,1.79c-1.32,0-2.59,0.53-3.53,1.46l-4.41,4.41c-0.34,0.33-0.79,0.52-1.27,0.52h-3.2
				c-0.99,0-1.79-0.8-1.79-1.79c0-1.33-0.52-2.6-1.46-3.53l-2.81-2.81c-0.34-0.34-0.53-0.79-0.52-1.27v-6.79
				c0-0.48,0.19-0.93,0.52-1.27l6.01-6.01c0.34-0.33,0.79-0.52,1.27-0.52h6.4c0.99,0,1.79,0.8,1.79,1.79c0,1.33,0.52,2.6,1.46,3.53
				l2.81,2.81c0.34,0.34,0.53,0.79,0.52,1.27L46.4,38.21L46.4,38.21z"/>
		</g>
	</g>
	<g>
		<g>
			<path class="st0" d="M63.53,42.07l-6.4-6.4c-0.63-0.62-1.64-0.62-2.26,0c-0.3,0.3-0.47,0.71-0.47,1.13V40
				c0,0.88-0.72,1.6-1.6,1.6c-2.65,0-4.8,2.15-4.8,4.8c0,0.88-0.72,1.6-1.6,1.6c-2.65,0-4.8,2.15-4.8,4.8c0,0.88-0.72,1.6-1.6,1.6
				h-3.2c-0.88,0-1.6,0.72-1.6,1.6c0,0.42,0.17,0.83,0.47,1.13l6.4,6.4c0.3,0.3,0.71,0.47,1.13,0.47h3.2c2.65,0,4.8-2.15,4.8-4.8
				c0-0.88,0.72-1.6,1.6-1.6c2.65,0,4.8-2.15,4.8-4.8c0-0.88,0.72-1.6,1.6-1.6c2.65,0,4.8-2.15,4.8-4.8v-3.2
				C64,42.78,63.83,42.37,63.53,42.07z M60.8,46.4c0,0.88-0.72,1.6-1.6,1.6c-2.65,0-4.8,2.15-4.8,4.8c0,0.88-0.72,1.6-1.6,1.6
				c-2.65,0-4.8,2.15-4.8,4.8c0,0.88-0.72,1.6-1.6,1.6h-2.54l-3.24-3.24c2.39-0.31,4.18-2.35,4.18-4.76c0-0.88,0.72-1.6,1.6-1.6
				c2.65,0,4.8-2.15,4.8-4.8c0-0.88,0.72-1.6,1.6-1.6c2.41,0,4.45-1.79,4.76-4.18l3.24,3.24V46.4z"/>
		</g>
	</g>
	<g>
		<g>
			<path class="st0" d="M71.81,29.54l-0.28-0.27l-8-8l-6.68-6.67c-2.39-2.39-6.27-2.39-8.66,0c-2.39,2.39-2.39,6.27,0,8.66
				l0.28,0.27l8,8l6.68,6.67c2.39,2.39,6.27,2.39,8.66,0C74.2,35.81,74.2,31.93,71.81,29.54z M50.65,16.68
				c0.52-0.44,1.18-0.68,1.87-0.68h0.01c0.78,0,1.52,0.31,2.07,0.86l3.94,3.94h-8.26C49.24,19.56,49.41,17.71,50.65,16.68z
				 M53.46,24h8.28l4.8,4.8h-8.28L53.46,24z M69.35,36.12c-0.52,0.44-1.18,0.68-1.87,0.68h-0.01c-0.78,0-1.52-0.31-2.07-0.86
				L61.46,32h8.26C70.76,33.24,70.59,35.09,69.35,36.12z"/>
		</g>
	</g>
	<g>
		<g>
			<path class="st0" d="M12.8,0v12.8H9.6V0H6.4v12.8H3.2V0H0v20.8c0.01,2.5,1.19,4.86,3.2,6.36V72c0,2.65,2.15,4.8,4.8,4.8
				s4.8-2.15,4.8-4.8V27.16c2.01-1.5,3.19-3.85,3.2-6.36V0H12.8z M9.6,72c0,0.88-0.72,1.6-1.6,1.6S6.4,72.88,6.4,72V28.8h3.2V72z
				 M12.8,20.8c0,2.65-2.15,4.8-4.8,4.8s-4.8-2.15-4.8-4.8V16h9.6V20.8z"/>
		</g>
	</g>
</g>
</svg>
