<?xml version="1.0" encoding="utf-8"?>
<!-- Generator: Adobe Illustrator 23.0.3, SVG Export Plug-In . SVG Version: 6.00 Build 0)  -->
<svg version="1.1" id="_x30_1nonborder" xmlns="http://www.w3.org/2000/svg" xmlns:xlink="http://www.w3.org/1999/xlink" x="0px"
	 y="0px" viewBox="0 0 61.42 67.11" style="enable-background:new 0 0 61.42 67.11;" xml:space="preserve">
<style type="text/css">
	.st0{fill:none;stroke:#FFFFFF;stroke-width:2;stroke-miterlimit:10;}
	.st1{fill:#FFFFFF;}
</style>
<g>
	<rect x="9.67" y="11.77" class="st0" width="37.92" height="18.3"/>
	<g>
		<g>
			<path class="st1" d="M36.81,15.7h-4.63c-0.28,0-0.5,0.22-0.5,0.5c0,0.28,0.22,0.5,0.5,0.5h4.63c0.28,0,0.5-0.22,0.5-0.5
				C37.31,15.92,37.09,15.7,36.81,15.7z"/>
		</g>
	</g>
	<g>
		<g>
			<path class="st1" d="M27.5,15.73c-2.84,0-5.14,2.3-5.14,5.14c0,2.84,2.3,5.14,5.14,5.14c2.84,0,5.14-2.3,5.14-5.14
				S30.34,15.73,27.5,15.73z M27.5,25.08c-2.32,0-4.2-1.88-4.2-4.2c0-2.32,1.88-4.2,4.2-4.2c2.32,0,4.2,1.88,4.2,4.2
				C31.71,23.19,29.83,25.08,27.5,25.08z"/>
		</g>
	</g>
	<g>
		<g>
			<path class="st1" d="M22.83,25.04h-4.41l-2.09-2.29v-3.8l2.31-2.26h4.2c0.28,0,0.5-0.22,0.5-0.5c0-0.28-0.22-0.5-0.5-0.5h-4.4
				c-0.13,0-0.26,0.05-0.35,0.14l-2.61,2.54c-0.1,0.11-0.15,0.26-0.15,0.41v4.15c0,0.12,0.05,0.25,0.13,0.34l2.37,2.6
				c0.09,0.1,0.23,0.16,0.37,0.16h4.64c0.28,0,0.5-0.22,0.5-0.5S23.11,25.04,22.83,25.04z"/>
		</g>
	</g>
	<path class="st1" d="M28.24,47.35c0.47-0.47,0.47-1.23,0-1.7c-0.47-0.47-1.23-0.47-1.7,0c-0.47,0.47-0.47,1.23,0,1.7
		C27.01,47.81,27.77,47.81,28.24,47.35z"/>
	<path class="st1" d="M13.82,66.76c0.47,0.47,1.22,0.47,1.69,0.01l5.82-5.73c0.99-0.99,1.29-2.45,0.85-3.72l1.25-1.21
		c0.67-0.65,1.56-1.01,2.5-1.01h15.95c2.83,0,5.5-1.09,7.53-3.06c0.08-0.08-0.63,0.76,10.88-13c1.71-2.02,1.45-5.05-0.57-6.76
		c-2.01-1.69-5.02-1.45-6.73,0.54l-7.08,7.28c-0.89-1.1-2.26-1.79-3.73-1.79H28.8c-1.9-0.8-3.92-1.2-6.01-1.2
		c-5.78,0-10.82,2.67-13.53,7.67c-1.14-0.22-2.34,0.13-3.21,0.99l-5.71,5.72c-0.47,0.47-0.47,1.22,0,1.69L13.82,66.76z M22.79,39.51
		c1.84,0,3.61,0.37,5.28,1.1c0.15,0.07,0.32,0.1,0.48,0.1h13.62c1.3,0,2.4,1.06,2.4,2.4c0,1.32-1.08,2.4-2.4,2.4h-9.79
		c-0.66,0-1.2,0.54-1.2,1.2c0,0.66,0.54,1.2,1.2,1.2h9.79c2.65,0,4.8-2.15,4.8-4.8c0-0.21-0.01-0.42-0.04-0.63
		c6.85-7.04,7.81-8.03,7.85-8.08c0.85-1.01,2.37-1.14,3.38-0.29c1.01,0.85,1.14,2.37,0.28,3.39L47.69,50.36
		c-1.57,1.51-3.63,2.34-5.81,2.34H25.93c-1.56,0-3.04,0.6-4.16,1.68l-1.02,0.98l-9.4-9.4C13.54,41.85,17.67,39.51,22.79,39.51z
		 M7.75,47.47c0.4-0.4,1-0.47,1.49-0.17c0.21,0.13-0.39-0.42,10.39,10.35c0.48,0.48,0.45,1.24,0.01,1.69l-4.96,4.88L2.89,52.34
		L7.75,47.47z"/>
	<polyline class="st0" points="12.03,8.37 13.59,1.19 44.02,7.67 	"/>
</g>
</svg>
