<?xml version="1.0" encoding="utf-8"?>
<!-- Generator: Adobe Illustrator 23.0.3, SVG Export Plug-In . SVG Version: 6.00 Build 0)  -->
<svg version="1.1" id="design" xmlns="http://www.w3.org/2000/svg" xmlns:xlink="http://www.w3.org/1999/xlink" x="0px" y="0px"
	 viewBox="0 0 102.4 87.68" style="enable-background:new 0 0 102.4 87.68;" xml:space="preserve">
<style type="text/css">
	.st0{fill:#FFFFFF;}
</style>
<g>
	<g>
		<g>
			<path class="st0" d="M100.9,72.19h-6.6c-0.83,0-1.5,0.67-1.5,1.5v0.55c0,1.44-0.83,2.69-2.07,3.28l-3.12-11.65h2.14
				c0.83,0,1.5-0.67,1.5-1.5c0-0.83-0.67-1.5-1.5-1.5h-3.01c-0.38,0-0.75-0.03-1.11-0.08c0,0,0,0,0,0
				c-3.81-0.54-6.75-3.82-6.75-7.78v-3.38c0-0.83-0.67-1.5-1.5-1.5h-3.91c-2.68,0-4.85-2.18-4.85-4.85v-0.21h11.87
				c1.99,0,3.91,0.58,5.56,1.66c0.69,0.46,1.62,0.27,2.08-0.43c0.46-0.69,0.27-1.62-0.43-2.08c-1.99-1.31-4.29-2.05-6.67-2.15
				c-1.34-2.83-3.87-5.48-7.25-7.57c-0.45-1.66-1.07-3.78-1.7-5.82c-0.49-1.58-1.16-3.67-1.78-5.35c1.04-1.2,1.45-2.86,1.03-4.44
				c-0.57-2.12-2.5-3.6-4.68-3.6c-0.42,0-0.84,0.06-1.26,0.17l-6.69,1.79c-1.25,0.34-2.3,1.14-2.95,2.26
				c-0.65,1.12-0.82,2.43-0.49,3.68c0.26,0.99,0.82,1.86,1.62,2.5c0.45,0.37,0.95,0.65,1.49,0.83c0.14,0.8,0.32,1.74,0.54,2.82
				c0.17,0.81,0.96,1.33,1.77,1.16c0.81-0.17,1.33-0.96,1.16-1.77c-0.31-1.52-0.54-2.75-0.67-3.66c-0.1-0.7-0.67-1.23-1.37-1.28
				c-2.06-0.16-2.35-3.1-0.34-3.64l6.69-1.79c1.01-0.27,2.01,0.35,2.27,1.31c0.2,0.76-0.1,1.56-0.75,2.01
				c-0.58,0.4-0.81,1.14-0.54,1.8c0.54,1.33,1.25,3.44,2.08,6.09c0.7,2.25,1.38,4.61,1.82,6.29c0.1,0.38,0.35,0.71,0.69,0.91
				c1.6,0.94,4.21,2.75,5.87,5.3H67.54c-1.06,0-1.92,0.86-1.92,1.92v1.29c0,1.3,0.32,2.53,0.89,3.62c-0.44,0.31-0.87,0.65-1.27,1.02
				c-0.9-1.16-2.27-1.94-3.82-2.03c-0.02-0.28-0.04-0.55-0.04-0.84c0-3.16,1.34-6.18,2.46-8.16c0.19-0.34,0.25-0.75,0.14-1.13
				c-0.26-0.97-0.57-2.18-0.88-3.42c-0.2-0.8-1-1.3-1.81-1.1c-0.8,0.2-1.3,1.01-1.1,1.81c0.25,1.03,0.51,2.04,0.74,2.92
				c-1.23,2.29-2.55,5.57-2.55,9.1c0,0.28,0.01,0.55,0.03,0.83h-0.8c-2.9,0-5.25,2.36-5.25,5.25c0,2.52,1.78,4.62,4.15,5.13
				c-0.36,0.71-0.57,1.52-0.57,2.37c0,2.01,1.13,3.76,2.8,4.64c-0.54,0.82-0.85,1.81-0.85,2.86c0,1.87,0.98,3.52,2.46,4.45
				c-0.62,0.86-0.98,1.92-0.98,3.05c0,2.9,2.36,5.25,5.25,5.25h2.38l1.12,4.19c0.42,1.58,1.86,2.63,3.42,2.63
				c0.3,0,0.61-0.04,0.92-0.12l16.15-4.33c1.32-0.35,2.27-1.41,2.54-2.67c2.43-0.75,4.23-2.83,4.59-5.38h5.17
				c0.83,0,1.5-0.67,1.5-1.5C102.4,72.86,101.73,72.19,100.9,72.19z M66.33,53.11C66.33,53.11,66.33,53.11,66.33,53.11
				c0.58-0.73,1.27-1.36,2.04-1.87c1.37,1.17,3.15,1.88,5.1,1.88h2.41V55c0,5.01,3.41,9.24,8.03,10.49
				c-0.25,3.76-2.89,7.04-6.61,8.04c-1.44,0.39-2.93,0.41-4.37,0.07c-0.42-1-1.14-1.85-2.06-2.42c0.62-0.86,0.98-1.92,0.98-3.05
				c0-2.01-1.13-3.76-2.8-4.64c0.54-0.82,0.85-1.81,0.85-2.86c0-2.52-1.78-4.62-4.15-5.13C66.12,54.77,66.33,53.96,66.33,53.11z
				 M57.6,55.36c-1.24,0-2.25-1.01-2.25-2.25s1.01-2.25,2.25-2.25h2.5c0,0,0,0,0.01,0c0,0,0.01,0,0.01,0h0.96
				c1.24,0,2.25,1.01,2.25,2.25s-1.01,2.25-2.25,2.25H57.6z M58.93,60.61c0-1.24,1.01-2.25,2.25-2.25h3.48
				c1.24,0,2.25,1.01,2.25,2.25c0,1.24-1.01,2.25-2.25,2.25h-1.53h-1.94C59.94,62.86,58.93,61.85,58.93,60.61z M60.88,68.11
				c0-1.24,1.01-2.25,2.25-2.25c1.29,0,2.19,0,3.48,0c1.24,0,2.25,1.01,2.25,2.25c0,1.24-1.01,2.25-2.25,2.25c-2.07,0-3.14,0-3.48,0
				C61.89,70.36,60.88,69.35,60.88,68.11z M68.09,77.86c0,0-0.01,0-0.01,0h-3.47c-1.24,0-2.25-1.01-2.25-2.25
				c0-1.24,1.01-2.25,2.25-2.25c2.07,0,3.14,0,3.48,0c1.24,0,2.25,1.01,2.25,2.25C70.33,76.85,69.32,77.86,68.09,77.86z
				 M87.82,80.33l-16.15,4.33c-0.29,0.08-0.59-0.09-0.67-0.38l-1.01-3.78c1.63-0.64,2.86-2.06,3.23-3.8
				c0.58,0.09,1.17,0.13,1.75,0.13c1.04,0,2.08-0.14,3.1-0.41c3.39-0.91,6.1-3.24,7.59-6.22l2.54,9.47
				C88.28,79.96,88.11,80.26,87.82,80.33z"/>
		</g>
	</g>
	<g>
		<g>
			<path class="st0" d="M100.9,53.55h-7.41c-0.19-1.55-0.66-3.06-1.38-4.44c-0.38-0.73-1.29-1.02-2.02-0.64
				c-0.73,0.38-1.02,1.29-0.64,2.02c1.57,3,1.03,5.39,1.14,6.92c0,0.83,0.67,1.5,1.5,1.5c0.83,0,1.5-0.67,1.5-1.5v-0.86h7.31
				c0.83,0,1.5-0.67,1.5-1.5S101.73,53.55,100.9,53.55z"/>
		</g>
	</g>
	<g>
		<g>
			<path class="st0" d="M50.05,53.11c0-2.89-2.36-5.25-5.25-5.25H44c0.02-0.27,0.03-0.55,0.03-0.83c0-3.52-1.32-6.81-2.55-9.1
				c0.82-3.11,2.01-8.16,2.57-11.42c0.54-0.18,1.04-0.46,1.49-0.83c0.8-0.65,1.35-1.51,1.62-2.5c0.34-1.25,0.16-2.56-0.48-3.68
				c-0.65-1.12-1.7-1.93-2.95-2.26l-6.69-1.79c-0.41-0.11-0.84-0.17-1.26-0.17c-2.19,0-4.12,1.48-4.68,3.6
				c-0.42,1.58-0.01,3.24,1.03,4.44c-0.27,0.74-0.57,1.6-0.9,2.58c-0.26,0.79,0.17,1.64,0.95,1.9c0.79,0.26,1.63-0.17,1.9-0.95
				c0.46-1.4,0.87-2.54,1.21-3.38c0.26-0.65,0.04-1.4-0.54-1.8c-0.65-0.45-0.95-1.25-0.75-2.01c0.22-0.81,0.95-1.38,1.79-1.38
				c0.16,0,0.32,0.02,0.48,0.06l6.69,1.79c2,0.54,1.72,3.48-0.34,3.64c-0.7,0.05-1.27,0.59-1.37,1.28
				c-0.45,3.14-1.95,9.49-2.82,12.67c-0.1,0.38-0.05,0.79,0.14,1.13c1.12,1.98,2.46,5,2.46,8.16c0,0.28-0.01,0.56-0.04,0.83h-6.88
				c-0.62-0.29-1.27-0.53-1.95-0.71c-1.02-0.27-2.06-0.41-3.1-0.41c-1.72,0-3.45,0.39-5.02,1.12h-1.33l0.8-2.98
				c0.07-0.25,0.14-0.49,0.23-0.73c0.02-0.04,0.03-0.08,0.05-0.12c1.35-3.58,4.84-6.07,6.89-7.27c0.34-0.2,0.59-0.53,0.69-0.91
				c0.26-0.99,0.56-2.06,0.96-3.43c0.23-0.8-0.22-1.63-1.02-1.86c-0.8-0.23-1.63,0.22-1.86,1.02c-0.27,0.92-0.57,1.98-0.82,2.92
				c-2.26,1.4-5.55,3.94-7.26,7.58c-6.52,0.27-11.69,5.24-12.46,11.48H1.5c-0.83,0-1.5,0.67-1.5,1.5s0.67,1.5,1.5,1.5h8.81
				c0.82,0,1.49-0.66,1.5-1.49c0.04-3.82,2.19-7.13,5.35-8.82c0.02-0.01,0.04-0.02,0.06-0.03c0.97-0.51,2.02-0.86,3.12-1.03
				l-0.72,2.68h-0.2c-0.83,0-1.5,0.67-1.5,1.5c0,0.83,0.67,1.5,1.5,1.5c20.44,0,16.18,0,22.86,0c0,0,0.01,0,0.01,0c0,0,0,0,0.01,0
				h2.5c1.24,0,2.25,1.01,2.25,2.25s-1.01,2.25-2.25,2.25h-3.58c-0.83,0-1.5,0.67-1.5,1.5s0.67,1.5,1.5,1.5
				c1.24,0,2.25,1.01,2.25,2.25c0,1.24-1.01,2.25-2.25,2.25h-1.94c-0.83,0-1.5,0.67-1.5,1.5c0,0.83,0.67,1.5,1.5,1.5
				c1.24,0,2.25,1.01,2.25,2.25c0,1.24-1.01,2.25-2.25,2.25h-1.48c-0.83,0-1.5,0.67-1.5,1.5c0,0.83,0.67,1.5,1.5,1.5
				c1.24,0,2.25,1.01,2.25,2.25c0,1.24-1.01,2.25-2.25,2.25H13.23c-2,0-3.63-1.63-3.63-3.63v-0.55c0-0.83-0.67-1.5-1.5-1.5H1.5
				c-0.83,0-1.5,0.67-1.5,1.5s0.67,1.5,1.5,1.5h5.17c0.37,2.54,2.19,4.62,4.59,5.37c0.27,1.26,1.21,2.31,2.55,2.67
				c16.69,4.43,16.2,4.45,17.07,4.45c1.56,0,3-1.05,3.42-2.63l1.12-4.19h2.38c2.9,0,5.25-2.36,5.25-5.25c0-1.14-0.36-2.19-0.98-3.05
				c1.48-0.93,2.46-2.58,2.46-4.45c0-1.05-0.31-2.04-0.85-2.86c1.66-0.88,2.79-2.63,2.79-4.64c0-0.85-0.2-1.66-0.56-2.37
				C48.27,57.73,50.05,55.63,50.05,53.11z M31.4,84.28c-0.08,0.29-0.38,0.46-0.67,0.38l-14.18-3.8h15.76L31.4,84.28z"/>
		</g>
	</g>
	<g>
		<g>
			<path class="st0" d="M51.2,0c-0.83,0-1.5,0.67-1.5,1.5v6.13c0,0.83,0.67,1.5,1.5,1.5s1.5-0.67,1.5-1.5V1.5
				C52.7,0.67,52.03,0,51.2,0z"/>
		</g>
	</g>
	<g>
		<g>
			<path class="st0" d="M47.24,8.25l-4.27-5.31c-0.52-0.65-1.46-0.75-2.11-0.23c-0.65,0.52-0.75,1.46-0.23,2.11l4.27,5.31
				c0.3,0.37,0.73,0.56,1.17,0.56c0.33,0,0.66-0.11,0.94-0.33C47.66,9.84,47.76,8.9,47.24,8.25z"/>
		</g>
	</g>
	<g>
		<g>
			<path class="st0" d="M61.54,2.72c-0.65-0.52-1.59-0.42-2.11,0.23l-4.27,5.31c-0.52,0.65-0.42,1.59,0.23,2.11
				c0.28,0.22,0.61,0.33,0.94,0.33c0.44,0,0.87-0.19,1.17-0.56l4.27-5.31C62.29,4.18,62.18,3.24,61.54,2.72z"/>
		</g>
	</g>
</g>
</svg>
