<?xml version="1.0" encoding="utf-8"?>
<!-- Generator: Adobe Illustrator 25.3.1, SVG Export Plug-In . SVG Version: 6.00 Build 0)  -->
<svg version="1.1" id="_x31_0" xmlns="http://www.w3.org/2000/svg" xmlns:xlink="http://www.w3.org/1999/xlink" x="0px" y="0px"
	 viewBox="0 0 512 512" style="enable-background:new 0 0 512 512;" xml:space="preserve">
<style type="text/css">
	.st0{fill:#FFFFFF;}
</style>
<g>
	<path class="st0" d="M413,0H99C74.1,0,53.9,20.2,53.9,45.1v421.8c0,24.9,20.2,45.1,45.1,45.1h314c24.9,0,45.1-20.2,45.1-45.1V45.1
		C458.1,20.2,437.9,0,413,0z M414.8,466.9c0,1-0.8,1.8-1.8,1.8H99c-1,0-1.8-0.8-1.8-1.8V45.1c0-1,0.8-1.8,1.8-1.8h314
		c1,0,1.8,0.8,1.8,1.8V466.9z"/>
	<path class="st0" d="M351.2,166.3c-0.1-0.1-0.1-0.1-0.2-0.2c-1.8-1.6-3.8-2.9-5.8-4.2c-0.2-0.1-0.4-0.3-0.6-0.4
		c-2.1-1.2-4.4-2.3-6.7-3.1c-0.2-0.1-0.3-0.1-0.5-0.2c-2.5-0.9-5.1-1.6-7.8-2c0,0-0.1,0-0.1,0c-2.8-0.5-5.6-0.7-8.5-0.7c0,0,0,0,0,0
		c0,0,0,0,0,0c-0.9,0-1.7-0.1-2.6-0.1c-27.1,1.3-45.6,19.5-57.7,39c-1.7,2.6-3.2,5.2-4.6,7.7c-11.9-22.2-31.5-45.2-62.2-46.7
		c-0.9,0-1.7,0.1-2.6,0.1c0,0,0,0,0,0c0,0,0,0-0.1,0c-2.9,0-5.8,0.2-8.5,0.7c0,0-0.1,0-0.1,0c-2.7,0.5-5.3,1.1-7.8,2
		c-0.2,0.1-0.3,0.1-0.5,0.2c-2.4,0.9-4.6,1.9-6.7,3.1c-0.2,0.1-0.4,0.3-0.6,0.4c-2.1,1.2-4,2.6-5.9,4.2c-0.1,0.1-0.1,0.1-0.2,0.2
		c-7.9,6.8-13.3,16.5-15,28c-3.4,23.6,10.7,51.8,44.3,60c11.5,2.8,22.9,4.6,33,5.7c1,0.1,1.8,0.3,2.8,0.4
		c-10.7,13.1-28.8,27.7-59.4,37.9l9.4,28.3c40.3-13.4,63.5-34.1,76.9-52.5c1.1-1.5,2.1-2.9,3.1-4.3c12.8,19.4,36.5,42.3,79.9,56.8
		l9.4-28.1l0,0l0.1-0.1c-22.7-7.6-38.5-17.6-49.5-27.6c-0.8-0.7-1.5-1.4-2.2-2.1c-0.9-0.8-1.8-1.7-2.6-2.5c-1.7-1.8-3.4-3.7-4.9-5.6
		c10.8-1.1,23.2-3,35.7-6.1c33.6-8.2,47.8-36.4,44.3-60C364.5,182.7,359,173.1,351.2,166.3z M197.3,225.3
		c-17.2-4.2-23.4-16.4-21.9-26.7c0.5-3.2,3-13.5,15.7-13.5c0.4,0,0.8,0,1.2,0c20,1,33.3,21.2,41.2,38.9c1.1,2.5,2.1,4.9,3,7.4
		C225.3,230.5,211.3,228.7,197.3,225.3z M314.7,225.3c-11.4,2.8-22.7,4.4-32.5,5.4c-2.2,0.2-4.5,0.4-6.7,0.6
		c7.2-18.8,21.3-45.1,44.2-46.2c0.4,0,0.8,0,1.2,0c12.7,0,15.2,10.3,15.7,13.5C338.1,208.9,331.9,221.1,314.7,225.3z"/>
	<path class="st0" d="M195.9,66.4c3.4-1.9,2-7.1-1.9-7.1h-80.5v66c0,0.6,0.3,1,0.5,1.4c0,0,0,0.1,0,0.1c0.9,1.8,2.9,2.6,4.8,1.8
		c0,0,0,0,0,0c0.5-0.2,1-0.4,1.4-0.8c12.3-14.1,26.9-27.7,43.5-40.2C174.3,79.6,185.1,72.5,195.9,66.4z"/>
</g>
</svg>
