<?xml version="1.0" encoding="utf-8"?>
<!-- Generator: Adobe Illustrator 23.0.3, SVG Export Plug-In . SVG Version: 6.00 Build 0)  -->
<svg version="1.1" id="レイヤー_1" xmlns="http://www.w3.org/2000/svg" xmlns:xlink="http://www.w3.org/1999/xlink" x="0px"
	 y="0px" viewBox="0 0 58.4 51.5" style="enable-background:new 0 0 58.4 51.5;" xml:space="preserve">
<style type="text/css">
	.st0{fill:#FFFFFF;}
</style>
<g>
	<path class="st0" d="M8.49,13.54c-0.88,0-1.59-0.71-1.59-1.59s0.71-1.59,1.59-1.59H27.2c0.88,0,1.59,0.71,1.59,1.59
		s-0.71,1.59-1.59,1.59H8.49z"/>
	<path class="st0" d="M8.49,20.44c-0.88,0-1.59-0.71-1.59-1.59c0-0.88,0.71-1.59,1.59-1.59H27.2c0.88,0,1.59,0.71,1.59,1.59
		c0,0.88-0.71,1.59-1.59,1.59H8.49z"/>
	<path class="st0" d="M8.49,27.34c-0.88,0-1.59-0.71-1.59-1.59s0.71-1.59,1.59-1.59H27.2c0.88,0,1.59,0.71,1.59,1.59
		s-0.71,1.59-1.59,1.59H8.49z"/>
	<path class="st0" d="M48.18,51.5c-0.32,0-0.62-0.09-0.88-0.27L43,48.37l-4.29,2.86c-0.26,0.17-0.57,0.27-0.88,0.27
		c-0.26,0-0.52-0.07-0.75-0.19c-0.52-0.28-0.84-0.82-0.84-1.4V44.6H4.73C2.12,44.6,0,42.47,0,39.87V4.73C0,2.12,2.12,0,4.73,0h48.94
		c2.61,0,4.73,2.12,4.73,4.73v35.14c0,2.61-2.12,4.73-4.73,4.73h-3.9v5.31c0,0.59-0.32,1.13-0.84,1.4
		C48.7,51.43,48.44,51.5,48.18,51.5z M43,44.86c0.32,0,0.62,0.09,0.88,0.27l2.7,1.8v-9.18l-0.66,0.22C44.98,38.29,44,38.45,43,38.45
		s-1.98-0.16-2.93-0.48l-0.66-0.22v9.18l2.7-1.8C42.38,44.96,42.69,44.86,43,44.86z M43,19.95c5.09,0,9.23,4.15,9.23,9.25
		c0,2.26-0.83,4.44-2.33,6.14l-0.13,0.14v5.93h3.9c0.84,0,1.55-0.71,1.55-1.55V4.73c0-0.84-0.71-1.55-1.55-1.55H4.73
		c-0.84,0-1.55,0.71-1.55,1.55v35.14c0,0.84,0.71,1.55,1.55,1.55h31.51v-5.93l-0.13-0.14c-1.5-1.7-2.33-3.88-2.33-6.14
		C33.78,24.1,37.92,19.95,43,19.95z M43,23.13c-3.33,0-6.04,2.72-6.04,6.07c0,3.35,2.71,6.07,6.04,6.07s6.04-2.72,6.04-6.07
		C49.05,25.86,46.34,23.13,43,23.13z"/>
</g>
</svg>
