<?xml version="1.0" encoding="utf-8"?>
<!-- Generator: Adobe Illustrator 25.3.1, SVG Export Plug-In . SVG Version: 6.00 Build 0)  -->
<svg version="1.1" id="_x31_0" xmlns="http://www.w3.org/2000/svg" xmlns:xlink="http://www.w3.org/1999/xlink" x="0px" y="0px"
	 viewBox="0 0 512 512" style="enable-background:new 0 0 512 512;" xml:space="preserve">
<style type="text/css">
	.st0{fill:#FFFFFF;}
</style>
<g>
	<path class="st0" d="M480.5,151.4c0.8-5.3-1.5-10.6-5.6-14.1c-2.7-2.3-3.6-3-5.5-3.9c-0.7-0.3-1.1-0.5-7.9-2.3
		c-1.1-0.3-2.2-0.6-3.6-1l42.9-37.3c1.6-1.4,1.2-3.9-0.7-4.8l-38.9-18.1l-5.4,1.6c-20.6,6.1-50.5,14.9-67.1,19.7
		c-1.8-4.5-5.5-7.9-10.7-8.9c-7.9-1.6-16.4-3.4-25.2-5.2l-10.3-2.1c-0.1,0-0.1,0-0.2-0.1L221.7,18.7C189.6,3.8,167.7,2.9,155,4.8
		c-10.6,1.6-18.4,4.3-23,6l-1.5,0.5c-6.4,2.2-11.1,7.5-12.4,14.1c-1.5,7.5,1.5,15.5,8.1,21.3l1.9,1.8c6.5,6,19.9,18.4,36.5,26.1
		l42.1,19.6l0,0l-4.7,10.2l5.8,10.8l20.6,9.6c0.5,0.3,1.1,0.4,1.8,0.7l22.2,6.4c4.9,1.4,10.1-0.4,13.1-4.4l3.3-4.4l66.9,31.1
		c18.5,8.6,92.3,18.9,106.9,20.9l10.8,1.5l5.8-12.4l4.8,0.5C471.9,165.1,479.2,159.7,480.5,151.4z M460.2,149.2l-0.6-0.1l-13.8-3.2
		l-15.1-3.5l-11.3-2.6l-12.5-5.4l-0.2-0.1l1-2.2c0,0,8.8,2.3,19.4,5.1c3.3,0.9,6.7,1.8,10.2,2.7c5.8,1.5,11.5,3,16.1,4.2
		c5.8,1.5,9.8,2.6,9.9,2.6c0.1,0,1.4,1.2,2.5,2.1c0.4,0.3,0.1,0.9-0.4,0.9L460.2,149.2z M372.4,98.5l-0.3,0.2L356,97.4l-58.8-4.7
		l-35-16.3l1.3-2.8c0.3,0.1,42,8.7,74.4,15.4c9.7,2,18.6,3.8,25.2,5.2c7.4,1.5,12,2.4,12,2.4L372.4,98.5z M290.8,67.2
		c-13.2-2.7-22.6-4.7-24.3-5.1c-5.4-1.4-11.2,1.2-13.7,6.4l-1.3,2.8c-2.7,5.9-0.2,12.9,5.7,15.7l35,16.3c1.3,0.6,2.6,1,4,1.1l74.9,6
		c2.6,0.2,5.3-0.5,7.5-1.9l0.5-0.3c0.7,0.3,1.2,0.5,1.3,0.7c5.4-1.3,79.6-23.2,79.6-23.2l12.3,5.7l4.9,2.3l-39.4,34.2
		c-7.2-1.9-16-4.2-27.1-7.2l-9.6-2.5l-10,21.6l-0.2,0.5l0,0l-0.1,0.1l11.1,4.8l12.7,5.5l1,0.4l1.1,0.2l23.4,5.4l5.5,1.3l-1,2.2
		c0,0-85.3-11.6-102.7-19.7l-70.3-32.7l0.3-1.2c0.9-3.7-0.6-7.6-3.8-9.7l-19.2-12.9c-0.4-0.3-0.8-0.5-1.2-0.7l-19.7-9.1l-9,0.9
		l-3.1,6.7l-44.8-20.8c-16.5-7.7-30.3-21.5-34.8-25.5c-3.3-2.9-4.3-6.5-3-8.7c0,0,0-0.1,0.1-0.1c0.2-0.4,0.5-0.7,0.9-0.9
		c0,0,0.1,0,0.1-0.1c0.4-0.3,0.8-0.5,1.2-0.6c1.8-0.6,4.1-1.5,7-2.4l19.2,10.7l11.8,1.9l2.3-8.2l-9.3-4.3l-7.6-3.6
		c10.6-1.2,29.2,0.2,56.6,12.9c0,0,17.5,8.1,38.5,17.9L290.8,67.2z M255.6,120.9l-22.2-6.4c-0.1,0-0.1,0-0.1,0l-12.2-5.7l4.3-9.4
		l2.5-5.4l2.5-5.3l1.6-3.4l12.3,5.7l15.5,10.4l3.8,2.6c0.1,0.1,0.2,0.2,0.2,0.3c0.1,0.2,0.1,0.4,0.1,0.6l-1.3,5.4l-0.4,1.8l-1.2,2.5
		l-0.8,1l-3.7,5C256.3,120.9,255.9,121,255.6,120.9z"/>
</g>
<g>
	<path class="st0" d="M346.2,193.8h-13.4c-7.9,0-14.3-6.4-14.3-14.3v-13.4c0-3.4-2.8-6.2-6.2-6.2H46c-3.4,0-6.2,2.8-6.2,6.2v13.5
		c0,7.9-6.4,14.2-14.2,14.2H12.1c-3.4,0-6.2,2.8-6.2,6.2v114.9c0,3.4,2.8,6.2,6.2,6.2h13.4c7.9,0,14.3,6.4,14.3,14.3v13.4
		c0,3.4,2.8,6.2,6.2,6.2h266.2c3.4,0,6.2-2.8,6.2-6.2v-13.4c0-7.9,6.4-14.3,14.3-14.3h13.4c3.4,0,6.2-2.8,6.2-6.2V200
		C352.4,196.6,349.6,193.8,346.2,193.8z M332.7,301.3v0.2c-18.7,0-33.9,15.2-33.9,33.9H59.5c0-18.7-15.2-33.9-33.9-33.9v-87.8v-0.2
		c18.7,0,33.9-15.2,33.9-33.9h239.4c0,18.7,15.2,33.9,33.9,33.9V301.3z"/>
	<path class="st0" d="M108.5,266c0.1-0.3,0.2-0.6,0.3-0.9h0c0,0,0-0.1,0-0.1h-7.7c-0.4,1.6-1.1,2.9-2.2,4c-1,1-2.5,1.6-4.4,1.6
		c-1.1,0-2-0.2-2.8-0.5c-0.8-0.4-1.5-0.9-2-1.5c-0.4-0.4-0.7-0.9-0.9-1.4c-0.2-0.5-0.4-1.2-0.6-2c-0.1-0.8-0.3-1.8-0.3-3
		c-0.1-1.2-0.1-2.8-0.1-4.6c0-1.9,0-3.4,0.1-4.6c0.1-1.2,0.2-2.2,0.3-3c0.1-0.8,0.3-1.5,0.6-2c0.2-0.5,0.5-1,0.9-1.4
		c0.5-0.6,1.2-1.1,2-1.5c0.8-0.4,1.8-0.5,2.8-0.5c1.9,0,3.3,0.5,4.4,1.6c1,1,1.7,2.4,2.1,4h6.5l1.1,0c0,0,0,0,0,0h0.1
		c-0.7-4.1-2.4-7.1-4.9-9.2c-2.6-2.1-5.7-3.1-9.3-3.1c-2.3,0-4.2,0.4-5.9,1.1c-1.7,0.7-3.2,1.7-4.5,3c-1,1-1.7,2-2.3,3.1
		c-0.5,1.1-0.9,2.2-1.1,3.5c-0.2,1.3-0.4,2.6-0.4,4.1c-0.1,1.5-0.1,3.2-0.1,5c0,1.9,0,3.5,0.1,5c0.1,1.5,0.2,2.9,0.4,4.1
		c0.2,1.3,0.6,2.4,1.1,3.5c0.5,1.1,1.3,2.1,2.3,3.1c1.3,1.3,2.9,2.3,4.5,3c1.7,0.7,3.6,1.1,5.9,1.1c3.6,0,6.7-1,9.3-3.1
		C106.2,272.3,107.7,269.5,108.5,266z"/>
	<polygon class="st0" points="115.3,276.7 115.3,276.8 115.3,276.9 122.9,276.9 122.9,238.4 122.9,238.1 122.9,238 115.3,238 	"/>
	<polygon class="st0" points="154.2,251 154.1,261.7 138.8,238 132,238 132,276.9 139.6,276.9 139.6,263.9 139.7,253.2 155,276.9 
		161.7,276.9 161.7,238.3 161.7,238.1 161.7,238 154.2,238 	"/>
	<polygon class="st0" points="170.8,276.9 196.4,276.9 196.4,270.3 196.4,270.2 196.4,270.1 178.4,270.1 178.4,260.7 193.7,260.7 
		193.7,253.9 178.4,253.9 178.4,244.8 196.2,244.8 196.3,244.8 196.4,244.8 196.4,238.2 196.4,238.1 196.4,238 170.8,238 	"/>
	<polygon class="st0" points="227.9,261.2 231.4,254.5 231.4,276.9 239,276.9 239,238 231.5,238 225.3,251 221.4,259 211.3,238 
		203.8,238 203.8,276.9 211.4,276.9 211.4,264.9 211.5,254.4 218.9,269 224,269 	"/>
	<path class="st0" d="M258,238l-10.5,28.8l-3.7,9.9h0l0,0.1h7.9l2.3-6.9h13.8l2.3,6.9h7.9L263.9,238L258,238L258,238z M265.8,263.6
		h-7.4l-2.3,0l4.9-14.1l3.6,10.7L265.8,263.6z"/>
	<polygon class="st0" points="50.8,293.6 50.7,293.6 50.7,308 55.5,308 55.5,293.6 50.8,293.6 	"/>
	<rect x="50.7" y="264.8" class="st0" width="4.8" height="14.4"/>
	<rect x="50.7" y="207.2" class="st0" width="4.8" height="14.4"/>
	<rect x="50.7" y="236" class="st0" width="4.8" height="14.4"/>
	<polygon class="st0" points="302.9,293.6 302.8,293.6 302.8,308 307.6,308 307.6,293.6 302.9,293.6 	"/>
	<rect x="302.8" y="264.8" class="st0" width="4.8" height="14.4"/>
	<rect x="302.8" y="207.2" class="st0" width="4.8" height="14.4"/>
	<rect x="302.8" y="236" class="st0" width="4.8" height="14.4"/>
	<polygon class="st0" points="113.3,210.6 111.3,216.8 109.6,221.6 109.8,221.5 109.7,221.7 119.1,214.9 128.6,221.7 125,210.6 
		130.1,206.9 134.4,203.9 134.2,203.9 134.4,203.8 122.7,203.8 120.8,197.7 119.2,192.7 119.2,192.9 119.1,192.7 115.5,203.8 
		109.1,203.8 103.9,203.7 104.1,203.8 103.9,203.8 	"/>
	<polygon class="st0" points="173.3,210.6 171.3,216.7 169.7,221.6 169.8,221.5 169.7,221.7 179.1,214.9 188.6,221.7 185,210.6 
		190.1,206.9 194.4,203.9 194.2,203.9 194.4,203.8 182.7,203.8 180.8,197.7 179.2,192.7 179.2,192.9 179.1,192.7 175.5,203.8 
		169.1,203.8 164,203.7 164.1,203.8 163.9,203.8 	"/>
	<polygon class="st0" points="233.3,210.6 231.3,216.7 229.7,221.6 229.8,221.5 229.7,221.7 239.2,214.9 248.6,221.7 245,210.6 
		250.1,206.9 254.4,203.9 254.3,203.9 254.4,203.8 242.8,203.8 240.8,197.7 239.3,192.7 239.2,192.9 239.2,192.7 235.6,203.8 
		229.1,203.8 224,203.7 224.1,203.8 223.9,203.8 	"/>
	<polygon class="st0" points="122.7,304.3 120.8,298.2 119.2,293.3 119.2,293.4 119.1,293.2 115.5,304.3 109.1,304.3 103.9,304.2 
		104.1,304.3 103.9,304.3 113.3,311.2 111.3,317.3 109.6,322.1 109.8,322.1 109.7,322.2 119.1,315.4 128.6,322.2 125,311.2 
		130.1,307.4 134.4,304.4 134.2,304.4 134.4,304.3 	"/>
	<polygon class="st0" points="182.7,304.3 180.8,298.2 179.2,293.3 179.2,293.4 179.1,293.2 175.5,304.3 169.1,304.3 164,304.2 
		164.1,304.3 163.9,304.3 173.3,311.2 171.3,317.3 169.7,322.1 169.8,322.1 169.7,322.2 179.1,315.4 188.6,322.2 185,311.2 
		190.1,307.4 194.4,304.4 194.2,304.4 194.4,304.3 	"/>
	<polygon class="st0" points="254.4,304.3 242.8,304.3 240.8,298.2 239.3,293.3 239.2,293.4 239.2,293.2 235.6,304.3 229.1,304.3 
		224,304.2 224.1,304.3 223.9,304.3 233.3,311.2 231.3,317.3 229.7,322.1 229.8,322.1 229.7,322.2 239.2,315.4 248.6,322.2 
		245,311.2 250.1,307.4 254.4,304.4 254.3,304.4 	"/>
</g>
<g>
	<path class="st0" d="M354.7,509.9c1.2,0,2.5-0.3,3.6-0.8c1.7-0.8,3.3-1.8,4.6-3.2l49.2-49.2l-68.1-68.1l-49.2,49.2
		c-1.2,1.2-2.2,2.6-3,4.1c-1.8,3.6-1.1,7.8,1.7,10.6l54.5,54.5C350,509,352.4,509.9,354.7,509.9z M302.5,445.5l6.6-6.6l52.8,52.8
		l-6.6,6.6c-0.1,0.1-0.2,0.2-0.4,0.3l-52.7-52.7C302.3,445.8,302.4,445.7,302.5,445.5z M348.5,429.6l16.4,16.4
		c1.7,1.7,2.6,4,2.5,6.5c0,0.1,0,0.2,0,0.4c-0.2,2.4-1.3,4.8-3.1,6.5c-3.9,3.9-9.9,4.1-13.4,0.6l-8.1-8.1
		C342.1,442.7,344.1,434.6,348.5,429.6z M372.3,467.4c2.6-2.6,4.2-5.8,4.9-9.1l9.1,9.1l-21.9,21.9l-52.8-52.8l2.6-2.6l34.5,34.5
		C355,474.6,365.6,474.2,372.3,467.4z M388.8,464.8l-11.3-11.3c-0.3-3.5-1.7-6.9-4.3-9.6l-34.5-34.5l5.4-5.4l52.8,52.8L388.8,464.8z
		"/>
	<path class="st0" d="M408.9,296.9c-0.2-0.2-0.5-0.5-0.7-0.7c-0.9-0.7-1.8-1.3-2.8-1.8c-5.6-2.8-12.6-1.9-17.2,2.8
		c-0.1,0.1-0.2,0.3-0.3,0.4l-24.5,26.2c-2.9,3.1-4.9,6.9-5.8,11l-8.7,46.5l67.1,67.1c3.9,3.9,10.2,3.9,14.1,0l65.2-65.2
		c18.2-18.2,18.2-47.7,0-65.9l-24.7-24.7c-13-13-29.5-14.5-44.6-7.5c-1.3,0.6-2.7,1.3-4,2.1c0,0,0,0,0,0c-2.7,1.6-4.7,4.2-5.5,7.2
		c-1,3.8-1.3,7.6-1,11.2c0.3,3.6,1.2,7.1,2.6,10c1.1,2.2,2.5,4.1,4.1,5.8c0.6,0.6,1.3,1.2,1.9,1.6c0.2,0.2,0.4,0.3,0.5,0.5l0.2,0.1
		c1.1,1.1,1.7,2.6,1.6,4.2c0,1.6-0.7,3-1.8,4.1c-2.3,2.2-6,2.1-8.2-0.1l-0.3-0.3c-3.3-3.4-5.8-7.8-7.3-12.5
		c-1.3-4.3-1.8-8.9-1.5-13.6C407.5,302.7,408,299.8,408.9,296.9z M468.8,318l22,21.9c4.9,4.9,4.7,7.9,4,10.6c-0.7,3-3.3,9.5-13,19.2
		l-15.6,15.6c-2.3,2.3-6.1,0-5.2-3.1c3.3-11.6,5-23.7,5-36.1c0-8.6-0.8-17.1-2.5-25.3C463,317.8,466.6,315.7,468.8,318z"/>
</g>
</svg>
