<?xml version="1.0" encoding="utf-8"?>
<!-- Generator: Adobe Illustrator 25.3.1, SVG Export Plug-In . SVG Version: 6.00 Build 0)  -->
<svg version="1.1" id="_10" xmlns="http://www.w3.org/2000/svg" xmlns:xlink="http://www.w3.org/1999/xlink" x="0px" y="0px"
	 viewBox="0 0 512 335" style="enable-background:new 0 0 512 335;" xml:space="preserve">
<style type="text/css">
	.st0{fill:#FFFFFF;}
</style>
<path class="st0" d="M469.8,279.8V35.4c0-19.6-15.9-35.4-35.4-35.4H77.6C58,0,42.2,15.8,42.2,35.4v244.5H0v4.4
	c0,28,22.7,50.8,50.8,50.8l0,0h410.5c28,0,50.8-22.7,50.8-50.8v-4.4h-42.3V279.8z M288,304.2v6.5c0,2.3-1.9,4.3-4.2,4.3l0,0h-55.5
	c-2.3,0-4.2-1.9-4.2-4.2l0,0v-6.5c0-2.4,1.9-4.3,4.2-4.3l0,0h55.5C286.1,299.9,288,301.8,288,304.2L288,304.2z M77.6,279.8V35.4
	h356.8v244.5H77.6V279.8z"/>
<g>
	<g>
		<g>
			<path class="st0" d="M297,173.5c-0.6-0.2-1.3-0.3-1.9-0.3c9.4-10,15.3-23.4,15.3-38.1V89.7c0-0.4-0.1-0.8-0.1-1.2
				c0.1-0.8,0.1-1.6,0.1-2.5V57.2c0-4.8-3.9-8.6-8.6-8.6h-57.9c-24.4,0-44.2,19.9-44.2,44.2v42.3c0,14.8,5.8,28.2,15.3,38.1
				c-0.7,0.1-1.3,0.2-1.9,0.3c-40.8,3.7-72.9,38.1-72.9,79.9v36.9c0,4.8,3.9,8.6,8.6,8.6h69.5c4.8,0,8.6-3.9,8.6-8.6
				c0-4.8-3.9-8.6-8.6-8.6h-60.8v-28.2c0-32,24-58.5,55-62.4l36.6,36.6c1.7,1.7,3.9,2.5,6.1,2.5c2.2,0,4.4-0.9,6.1-2.5l36.6-36.6
				c30.9,3.9,55,30.4,55,62.4v28.2H289c-4.8,0-8.6,3.9-8.6,8.6c0,4.8,3.9,8.6,8.6,8.6h72.2c4.8,0,8.6-3.9,8.6-8.6v-36.9
				C369.9,211.6,337.8,177.2,297,173.5z M255,209.3l-18.8-18.8h37.6L255,209.3z M293.1,135.1c0,21-17.1,38.1-38.1,38.1
				s-38.1-17.1-38.1-38.1v-13.5h57.9c6.7,0,13-1.9,18.3-5.1L293.1,135.1L293.1,135.1z M293.1,86c0,10.1-8.2,18.3-18.3,18.3h-57.9
				v-0.6V92.8c0-14.9,12.1-27,27-27h49.3V86L293.1,86z"/>
		</g>
	</g>
</g>
</svg>
