<?xml version="1.0" encoding="utf-8"?>
<!-- Generator: Adobe Illustrator 23.0.3, SVG Export Plug-In . SVG Version: 6.00 Build 0)  -->
<svg version="1.1" id="レイヤー_5" xmlns="http://www.w3.org/2000/svg" xmlns:xlink="http://www.w3.org/1999/xlink" x="0px"
	 y="0px" viewBox="0 0 67.63 67.63" style="enable-background:new 0 0 67.63 67.63;" xml:space="preserve">
<style type="text/css">
	.st0{fill:#FFFFFF;}
</style>
<g>
	<path class="st0" d="M64.14,67.63c-0.5-4.48-4.31-7.98-8.92-7.98s-8.42,3.5-8.92,7.98h-3.55c-0.5-4.48-4.31-7.98-8.92-7.98
		s-8.42,3.5-8.92,7.98h-3.55c-0.5-4.48-4.31-7.98-8.92-7.98s-8.42,3.5-8.92,7.98H0.04c0.33-4.07,2.67-7.76,6.26-9.8l0.93-0.53
		l-0.59-0.89c-0.78-1.18-1.2-2.55-1.2-3.96c0-3.95,3.21-7.16,7.16-7.16s7.16,3.21,7.16,7.16c0,1.47-0.45,2.88-1.29,4.09l-0.62,0.88
		l0.92,0.55c1.38,0.83,2.57,1.9,3.54,3.18l0.8,1.05l0.8-1.05c1-1.32,2.23-2.42,3.66-3.25l0.93-0.54l-0.61-0.89
		c-0.81-1.19-1.24-2.58-1.24-4.02c0-3.95,3.21-7.16,7.16-7.16s7.16,3.21,7.16,7.16c0,1.44-0.43,2.83-1.24,4.02l-0.61,0.89l0.93,0.54
		c1.43,0.83,2.66,1.93,3.66,3.25l0.8,1.05l0.8-1.05c1.02-1.34,2.27-2.45,3.72-3.28l0.93-0.54l-0.6-0.89
		c-0.8-1.18-1.22-2.56-1.22-3.99c0-3.95,3.21-7.16,7.16-7.16s7.16,3.21,7.16,7.16c0,1.46-0.44,2.86-1.27,4.06l-0.61,0.88l0.92,0.55
		c3.48,2.06,5.75,5.71,6.08,9.7H64.14z M55.3,48.73c-2.05,0-3.72,1.67-3.72,3.72c0,2.05,1.67,3.72,3.72,3.72
		c2.05,0,3.72-1.67,3.72-3.72C59.02,50.4,57.36,48.73,55.3,48.73z M33.82,48.73c-2.05,0-3.72,1.67-3.72,3.72
		c0,2.05,1.67,3.72,3.72,3.72s3.72-1.67,3.72-3.72C37.54,50.4,35.87,48.73,33.82,48.73z M12.6,48.73c-2.05,0-3.72,1.67-3.72,3.72
		c0,2.05,1.67,3.72,3.72,3.72c2.05,0,3.72-1.67,3.72-3.72C16.32,50.4,14.65,48.73,12.6,48.73z M27.2,37.85v-3.44h32.91V7.16
		c0-2.05-1.67-3.72-3.72-3.72H27.34V0h29.06c3.95,0,7.16,3.21,7.16,7.16v27.25h4.08v3.44H27.2z M16.32,37.85v-15.5H7.16
		c-2.05,0-3.72,1.67-3.72,3.72v11.78H0V26.06c0-3.95,3.21-7.16,7.16-7.16h32.86v3.44H19.76v15.5H16.32z M12.74,14.32
		c-3.95,0-7.16-3.21-7.16-7.16S8.79,0,12.74,0s7.16,3.21,7.16,7.16S16.68,14.32,12.74,14.32z M12.74,3.44
		c-2.05,0-3.72,1.67-3.72,3.72c0,2.05,1.67,3.72,3.72,3.72s3.72-1.67,3.72-3.72C16.46,5.11,14.79,3.44,12.74,3.44z"/>
</g>
</svg>
