<?xml version="1.0" encoding="utf-8"?>
<!-- Generator: Adobe Illustrator 23.0.6, SVG Export Plug-In . SVG Version: 6.00 Build 0)  -->
<svg version="1.1" id="レイヤー_1" xmlns="http://www.w3.org/2000/svg" xmlns:xlink="http://www.w3.org/1999/xlink" x="0px"
	 y="0px" viewBox="0 0 489.5 550" style="enable-background:new 0 0 489.5 550;" xml:space="preserve">
<style type="text/css">
	.st0{fill:#35AEE9;}
	.st1{fill:#FFFFFF;}
	.st2{fill:#E8C31F;}
	.st3{fill:#029AE4;}
	.st4{fill:#F3E18F;}
	.st5{fill:#F1DB79;}
	.st6{fill:#EFD562;}
	.st7{fill:#E85298;}
	.st8{fill:#EAC935;}
</style>
<g>
	<g>
		<rect class="st0" width="489.5" height="550"/>
	</g>
	<g>
		<g>
			<g>
				<path class="st1" d="M60.71,42.35v4.25c1.44,0,1.92-0.05,2.06-0.05c0.24,0,0.26,0.02,0.26,0.26v1.78c0,0.24-0.02,0.26-0.26,0.26
					c-0.14,0-0.62-0.05-2.06-0.05v3.98c0.91-0.41,1.82-0.84,2.66-1.32c-0.05,0.53-0.02,1.08,0,1.58c0.05,0.77,0.05,0.77-0.58,1.1
					c-1.68,0.89-3.7,1.8-5.52,2.47c-0.38,0.14-0.62,0.26-0.74,0.34c-0.17,0.12-0.24,0.17-0.38,0.17c-0.12,0-0.24-0.07-0.31-0.29
					c-0.22-0.63-0.41-1.39-0.6-2.26c0.72-0.14,1.42-0.34,2.26-0.6c0.26-0.07,0.53-0.17,0.79-0.26v-4.92c-1.56,0-2.06,0.05-2.21,0.05
					c-0.24,0-0.26-0.02-0.26-0.26v-1.78c0-0.24,0.02-0.26,0.26-0.26c0.14,0,0.65,0.05,2.21,0.05v-4.25h-0.14
					c-1.68,0-2.21,0.05-2.35,0.05c-0.22,0-0.24-0.02-0.24-0.29v-1.75c0-0.24,0.02-0.26,0.24-0.26c0.14,0,0.67,0.05,2.35,0.05h2.66
					c1.68,0,2.18-0.05,2.33-0.05c0.24,0,0.26,0.02,0.26,0.26v1.75c0,0.26-0.02,0.29-0.26,0.29c-0.14,0-0.65-0.05-2.33-0.05H60.71z
					 M72.47,57.04c0,0.48,0.02,0.65,0.26,0.74c0.17,0.07,0.46,0.07,0.86,0.07c0.6,0,0.96-0.05,1.25-0.29
					c0.34-0.29,0.41-1.06,0.48-2.76c0.55,0.43,1.1,0.63,1.56,0.77c0.55,0.17,0.6,0.24,0.55,0.84c-0.12,1.66-0.43,2.54-0.98,3.02
					s-1.49,0.72-2.98,0.72c-1.22,0-2.04-0.1-2.64-0.36c-0.48-0.21-0.74-0.77-0.74-1.58v-5.45h-1.37c-0.26,4.34-2.38,6.43-6.65,7.61
					c-0.24,0.07-0.43,0.12-0.53,0.12c-0.24,0-0.34-0.12-0.62-0.58c-0.36-0.58-0.72-1.03-1.1-1.34c4.13-0.96,6.26-2.02,6.48-5.81
					c-1.34,0.02-1.85,0.05-1.97,0.05c-0.24,0-0.26-0.02-0.26-0.26c0-0.17,0.05-1.03,0.05-2.93v-6.89c0-1.9-0.05-2.79-0.05-2.93
					c0-0.26,0.02-0.29,0.26-0.29c0.14,0,0.86,0.05,3,0.05h4.99c2.14,0,2.83-0.05,3-0.05c0.24,0,0.26,0.02,0.26,0.29
					c0,0.14-0.05,1.03-0.05,2.93v6.89c0,1.9,0.05,2.78,0.05,2.93c0,0.24-0.02,0.26-0.26,0.26c-0.17,0-0.86-0.05-2.86-0.05V57.04z
					 M66.5,41.73v1.68h6.65v-1.68H66.5z M73.15,47.03v-1.66H66.5v1.66H73.15z M73.15,49.02H66.5v1.7h6.65V49.02z"/>
				<path class="st1" d="M82.91,51.71c-0.55,0.48-1.15,0.96-1.75,1.39c-0.29,0.21-0.46,0.34-0.6,0.34c-0.17,0-0.29-0.14-0.5-0.48
					c-0.36-0.6-0.79-1.03-1.2-1.37c1.54-0.94,2.88-1.99,4.01-3.17c-0.02-0.48-0.07-0.91-0.14-1.46c0.48,0.02,0.94,0.02,1.39,0.07
					c0.67-0.86,1.25-1.78,1.73-2.76h-2.81c-2.16,0-2.9,0.05-3.05,0.05c-0.24,0-0.26-0.02-0.26-0.26v-1.82
					c0-0.24,0.02-0.26,0.26-0.26c0.14,0,0.89,0.05,3.05,0.05h3.77c0.17-0.5,0.31-1.01,0.46-1.54c0.19-0.72,0.26-1.3,0.26-1.95
					c1.01,0.12,1.78,0.24,2.52,0.38c0.29,0.07,0.41,0.22,0.41,0.38s-0.1,0.31-0.22,0.46c-0.17,0.19-0.29,0.43-0.43,0.94
					c-0.12,0.46-0.26,0.89-0.41,1.32h8.09c2.16,0,2.88-0.05,3.02-0.05c0.24,0,0.26,0.02,0.26,0.26v1.82c0,0.24-0.02,0.26-0.26,0.26
					c-0.14,0-0.86-0.05-3.02-0.05h-8.98c-0.82,1.82-1.87,3.48-3.14,4.97c-0.02,0.36,0,0.77,0,1.3v6.55c0,2.02,0.05,3.02,0.05,3.14
					c0,0.24-0.02,0.26-0.26,0.26h-2.02c-0.24,0-0.26-0.02-0.26-0.26c0-0.14,0.05-1.13,0.05-3.14V51.71z M89.8,59.58
					c-2.33,0-3.12,0.05-3.26,0.05c-0.24,0-0.26-0.02-0.26-0.26v-1.82c0-0.24,0.02-0.26,0.26-0.26c0.14,0,0.94,0.05,3.26,0.05h2.21
					v-5.16h-1.34c-2.18,0-2.93,0.05-3.07,0.05c-0.24,0-0.26-0.02-0.26-0.26v-1.78c0-0.24,0.02-0.26,0.26-0.26
					c0.14,0,0.89,0.05,3.07,0.05h1.34v-0.7c0-1.7-0.02-2.45-0.17-3.62c0.91,0.02,1.73,0.07,2.54,0.17c0.24,0.02,0.38,0.14,0.38,0.24
					c0,0.19-0.07,0.31-0.14,0.5c-0.12,0.29-0.14,0.89-0.14,2.66v0.74h1.7c2.18,0,2.93-0.05,3.07-0.05c0.24,0,0.26,0.02,0.26,0.26
					v1.78c0,0.24-0.02,0.26-0.26,0.26c-0.14,0-0.89-0.05-3.07-0.05h-1.7v5.16h2.74c2.3,0,3.1-0.05,3.26-0.05
					c0.22,0,0.24,0.02,0.24,0.26v1.82c0,0.24-0.02,0.26-0.24,0.26c-0.17,0-0.96-0.05-3.26-0.05H89.8z"/>
				<path class="st1" d="M115.77,43.96c-0.55,4.08-1.56,7.83-3,10.34c-1.03,1.8-2.28,2.76-4.08,2.76c-2.11,0-4.25-2.26-4.25-6.17
					c0-2.3,0.98-4.51,2.71-6.24c2.02-2.02,4.56-3.07,7.8-3.07c5.76,0,9.14,3.55,9.14,8.33c0,4.46-2.52,7.27-7.39,8.74
					c-0.5,0.14-0.72,0.05-1.03-0.43c-0.26-0.41-0.77-0.96-1.68-1.51c4.06-0.96,7.25-2.64,7.25-7.18c0-2.86-2.16-5.57-5.38-5.57
					H115.77z M108.88,46.29c-1.15,1.3-1.87,2.9-1.87,4.44c0,2.21,0.89,3.43,1.63,3.43c0.62,0,1.15-0.31,1.8-1.46
					c1.06-1.95,2.14-5.4,2.54-8.59C111.31,44.44,109.96,45.11,108.88,46.29z"/>
				<path class="st1" d="M130.46,60.4c-0.24,0-0.26-0.02-0.26-0.26c0-0.14,0.05-1.42,0.05-7.83v-4.44c0-4.46-0.05-5.79-0.05-5.95
					c0-0.24,0.02-0.26,0.26-0.26c0.17,0,1.01,0.05,3.34,0.05h1.56c0.38-0.77,0.6-1.39,0.89-2.26c0.12-0.31,0.19-0.67,0.26-1.13
					c0.82,0.07,1.87,0.24,2.57,0.36c0.22,0.05,0.34,0.19,0.34,0.31c0,0.14-0.1,0.24-0.19,0.34c-0.17,0.19-0.29,0.36-0.36,0.58
					c-0.24,0.58-0.46,1.08-0.84,1.8h4.68c2.33,0,3.17-0.05,3.34-0.05c0.24,0,0.26,0.02,0.26,0.26c0,0.14-0.05,1.49-0.05,5.3v5.06
					c0,6.41,0.05,7.68,0.05,7.8c0,0.24-0.02,0.26-0.26,0.26h-2.14c-0.24,0-0.26-0.02-0.26-0.26v-1.08h-10.83v1.13
					c0,0.24-0.02,0.26-0.26,0.26H130.46z M132.81,46.62h10.83v-2.62h-10.83V46.62z M143.63,51.57v-2.69h-10.83v2.69H143.63z
					 M143.63,56.7v-2.88h-10.83v2.88H143.63z"/>
				<path class="st1" d="M165.4,39.04c0.31-0.14,0.36-0.12,0.46,0.12c1.56,3.67,4.51,6.98,7.78,8.86c-0.43,0.38-0.98,1.1-1.39,1.8
					c-0.22,0.36-0.31,0.53-0.46,0.53c-0.12,0-0.26-0.12-0.5-0.31c-0.82-0.6-1.58-1.25-2.28-1.95c-0.05,0.7-0.05,1.54-0.07,2.38
					c-0.07,2.57-0.24,4.49-0.6,6.72c-0.31,1.9-1.22,2.95-3.58,2.95c-0.6,0-1.06,0-1.63-0.05c-0.74-0.05-0.72-0.05-0.89-0.84
					c-0.17-0.82-0.41-1.46-0.74-1.92c1.2,0.17,1.9,0.22,2.74,0.22c1.01,0,1.42-0.38,1.61-1.49c0.24-1.39,0.41-3.24,0.46-5.95h-4.27
					c-0.46,4.8-2.86,8.21-7.3,10.18c-0.26,0.12-0.43,0.19-0.58,0.19c-0.19,0-0.26-0.17-0.5-0.58c-0.31-0.58-0.77-1.1-1.22-1.44
					c4.37-1.58,6.48-4.13,6.94-8.35h-0.29c-2.26,0-3.02,0.05-3.17,0.05c-0.24,0-0.26-0.02-0.26-0.26v-1.75
					c-0.74,0.72-1.51,1.37-2.33,1.99c-0.26,0.19-0.41,0.31-0.53,0.31c-0.17,0-0.26-0.17-0.5-0.53c-0.38-0.6-0.94-1.2-1.34-1.46
					c3.24-2.09,5.57-4.92,6.94-7.92c0.22-0.48,0.36-0.94,0.48-1.54c0.86,0.21,1.85,0.55,2.5,0.84c0.26,0.12,0.34,0.24,0.34,0.41
					c0,0.14-0.07,0.24-0.19,0.36c-0.24,0.19-0.38,0.41-0.55,0.77c-1.2,2.59-2.66,4.63-4.39,6.36c0.34,0.02,1.18,0.05,3.02,0.05h6.46
					c2.09,0,2.88-0.02,3.12-0.05c-2.23-2.26-3.96-4.87-5.16-7.61c-0.1-0.26-0.05-0.29,0.22-0.41L165.4,39.04z"/>
				<path class="st1" d="M187.77,43.96c-0.55,4.08-1.56,7.83-3,10.34c-1.03,1.8-2.28,2.76-4.08,2.76c-2.11,0-4.25-2.26-4.25-6.17
					c0-2.3,0.98-4.51,2.71-6.24c2.02-2.02,4.56-3.07,7.8-3.07c5.76,0,9.14,3.55,9.14,8.33c0,4.46-2.52,7.27-7.39,8.74
					c-0.5,0.14-0.72,0.05-1.03-0.43c-0.26-0.41-0.77-0.96-1.68-1.51c4.06-0.96,7.25-2.64,7.25-7.18c0-2.86-2.16-5.57-5.38-5.57
					H187.77z M180.88,46.29c-1.15,1.3-1.87,2.9-1.87,4.44c0,2.21,0.89,3.43,1.63,3.43c0.62,0,1.15-0.31,1.8-1.46
					c1.06-1.95,2.14-5.4,2.54-8.59C183.31,44.44,181.96,45.11,180.88,46.29z"/>
				<path class="st1" d="M202.05,51.11c0-0.77,0-1.68,0.02-2.57c-0.53,0.74-1.08,1.44-1.63,2.09c-0.17,0.19-0.31,0.29-0.43,0.29
					c-0.12,0-0.22-0.14-0.26-0.41c-0.17-0.84-0.53-1.73-0.82-2.18c2.04-2.28,3.89-5.28,4.78-8.14c0.19-0.55,0.31-1.1,0.36-1.68
					c0.84,0.22,1.73,0.48,2.4,0.77c0.26,0.1,0.38,0.19,0.38,0.36s-0.1,0.29-0.26,0.43c-0.14,0.14-0.24,0.34-0.46,0.94
					c-0.43,1.15-0.96,2.35-1.58,3.53v12.1c0,2.35,0.05,3.53,0.05,3.65c0,0.24-0.02,0.26-0.29,0.26h-2.02
					c-0.26,0-0.29-0.02-0.29-0.26c0-0.14,0.05-1.3,0.05-3.65V51.11z M209.78,59.37c-2.33,0-3.12,0.05-3.26,0.05
					c-0.22,0-0.24-0.02-0.24-0.29v-1.87c0-0.24,0.02-0.26,0.24-0.26c0.14,0,0.94,0.05,3.26,0.05h2.06v-8.45h-2.45
					c-2.35,0-3.14,0.05-3.29,0.05c-0.24,0-0.26-0.02-0.26-0.29v-1.87c0-0.24,0.02-0.26,0.26-0.26c0.14,0,0.94,0.05,3.29,0.05h2.45
					v-3.74c0-1.7,0-2.57-0.17-3.65c0.94,0.02,1.9,0.07,2.71,0.17c0.24,0.02,0.38,0.14,0.38,0.26c0,0.17-0.07,0.31-0.14,0.48
					c-0.12,0.31-0.17,0.91-0.17,2.69v3.79h3.1c2.35,0,3.17-0.05,3.29-0.05c0.24,0,0.26,0.02,0.26,0.26v1.87
					c0,0.26-0.02,0.29-0.26,0.29c-0.12,0-0.94-0.05-3.29-0.05h-3.1v8.45H217c2.3,0,3.1-0.05,3.24-0.05c0.26,0,0.29,0.02,0.29,0.26
					v1.87c0,0.26-0.02,0.29-0.29,0.29c-0.14,0-0.94-0.05-3.24-0.05H209.78z"/>
				<path class="st1" d="M226.6,53.73c-2.09,0-2.81,0.05-2.95,0.05c-0.22,0-0.24-0.02-0.24-0.26v-1.44c0-0.24,0.02-0.26,0.24-0.26
					c0.14,0,0.86,0.05,2.95,0.05h6.43v-1.13h-3.96c-2.33,0-3.12,0.05-3.26,0.05c-0.24,0-0.26-0.03-0.26-0.24v-1.32
					c0-0.24,0.02-0.26,0.26-0.26c0.14,0,0.94,0.05,3.26,0.05h3.96v-1.06h-3.1c-2.35,0-3.19,0.05-3.34,0.05
					c-0.26,0-0.29-0.02-0.29-0.29c0-0.14,0.05-0.46,0.05-1.25v-1.3c0-0.79-0.05-1.1-0.05-1.25c0-0.26,0.02-0.29,0.29-0.29
					c0.14,0,0.98,0.05,3.34,0.05h3.1v-1.06h-6.05c-2.16,0-2.9,0.05-3.05,0.05c-0.24,0-0.26-0.02-0.26-0.26v-1.51
					c0-0.24,0.02-0.26,0.26-0.26c0.14,0,0.89,0.05,3.05,0.05h6.05c0-0.96-0.05-1.54-0.17-2.21c0.89,0.03,1.66,0.05,2.5,0.14
					c0.22,0.02,0.38,0.12,0.38,0.26c0,0.19-0.07,0.31-0.14,0.46c-0.1,0.26-0.14,0.55-0.14,1.34h6.1c2.16,0,2.9-0.05,3.05-0.05
					c0.24,0,0.26,0.03,0.26,0.26v1.51c0,0.24-0.02,0.26-0.26,0.26c-0.14,0-0.89-0.05-3.05-0.05h-6.1v1.06h3.19
					c2.35,0,3.19-0.05,3.36-0.05c0.24,0,0.26,0.02,0.26,0.29c0,0.14-0.05,0.46-0.05,1.25v1.3c0,0.79,0.05,1.1,0.05,1.25
					c0,0.26-0.02,0.29-0.26,0.29c-0.17,0-1.01-0.05-3.36-0.05h-3.19V49h3.89c2.35,0,3.19-0.05,3.31-0.05c0.24,0,0.26,0.02,0.26,0.26
					c0,0.14-0.05,0.72-0.05,2.09v0.55c1.42,0,1.97-0.05,2.09-0.05c0.22,0,0.24,0.02,0.24,0.26v1.44c0,0.24-0.02,0.26-0.24,0.26
					c-0.12,0-0.67-0.02-2.09-0.05v1.22c0,1.44,0.05,2.06,0.05,2.21c0,0.24-0.02,0.26-0.26,0.26h-1.85c-0.24,0-0.26-0.02-0.26-0.26
					v-0.53h-5.06c0.02,0.43,0.02,0.84,0.02,1.2c0,1.1-0.22,1.75-0.86,2.13c-0.6,0.34-1.66,0.5-3.38,0.53c-0.72,0-0.72-0.02-0.96-0.7
					c-0.22-0.6-0.53-1.25-0.94-1.82c0.89,0.1,1.54,0.12,2.42,0.1c1.03-0.02,1.25-0.19,1.25-0.89v-0.55h-3.94
					c-2.35,0-3.14,0.05-3.29,0.05c-0.24,0-0.26-0.02-0.26-0.29V55.1c0-0.26,0.02-0.29,0.26-0.29c0.14,0,0.94,0.05,3.29,0.05h3.94
					v-1.13H226.6z M233.03,46.41v-1.2h-4.34v1.2H233.03z M239.9,45.21h-4.44v1.2h4.44V45.21z M235.46,50.73v1.13h5.09v-1.13H235.46z
					 M240.55,54.86v-1.13h-5.09v1.13H240.55z"/>
				<path class="st1" d="M253.29,40.79c0.26,0.14,0.36,0.29,0.36,0.48c0,0.17-0.07,0.34-0.17,0.53c-0.17,0.29-0.26,0.62-0.43,1.32
					c-0.79,3.62-1.2,6.98-1.2,8.74c0,0.96,0,2.06,0.07,3.07c0.48-1.11,0.98-2.14,1.49-3.34c0.34,0.77,0.53,1.1,0.84,1.51
					c0.1,0.12,0.14,0.21,0.14,0.34c0,0.12-0.05,0.24-0.14,0.38c-0.84,1.9-1.13,2.95-1.22,3.65c-0.1,0.67-0.05,1.03-0.02,1.27
					c0.02,0.17-0.07,0.24-0.29,0.31c-0.46,0.17-1.15,0.31-1.8,0.41c-0.26,0.07-0.36,0.05-0.48-0.29c-0.67-1.71-1.03-4.56-1.03-7.32
					c0-2.3,0.19-4.22,0.98-9.1c0.12-0.84,0.26-1.87,0.17-2.83C251.51,40.17,252.81,40.55,253.29,40.79z M261.55,47.2
					c-1.63,0.05-3.31,0.1-4.94-0.02c-0.31,0-0.41-0.07-0.43-0.31c-0.1-0.58-0.17-1.44-0.17-2.18c1.8,0.17,3.67,0.19,5.47,0.07
					c0-0.86-0.02-1.63-0.02-2.52c-0.02-0.87-0.1-1.49-0.31-2.35c1.39,0.12,2.11,0.22,2.9,0.46c0.26,0.07,0.43,0.19,0.43,0.41
					c0,0.12-0.05,0.19-0.14,0.41c-0.1,0.21-0.17,0.53-0.19,0.84c-0.05,0.82-0.05,1.44-0.05,2.54c1.13-0.1,2.38-0.26,3.41-0.43
					c0.29-0.07,0.34,0.02,0.38,0.29c0.1,0.43,0.14,1.2,0.14,1.7c0,0.22-0.1,0.34-0.26,0.36c-0.86,0.22-2.45,0.41-3.7,0.5
					c0,2.69,0.05,4.37,0.17,6.43c1.42,0.58,2.64,1.25,3.98,2.3c0.22,0.14,0.24,0.22,0.12,0.48c-0.31,0.62-0.7,1.29-1.1,1.85
					c-0.07,0.1-0.14,0.14-0.22,0.14c-0.07,0-0.14-0.05-0.22-0.12c-0.74-0.7-1.54-1.29-2.59-1.92c-0.19,2.02-1.56,3.12-4.39,3.12
					c-2.76,0-4.3-1.3-4.3-3.36c0-1.97,1.78-3.38,4.2-3.38c0.62,0,1.34,0.07,1.92,0.19C261.59,50.85,261.57,49.1,261.55,47.2z
					 M259.6,54.66c-1.13,0-1.8,0.41-1.8,1.15c0,0.74,0.53,1.2,1.94,1.2c1.2,0,1.97-0.7,1.97-1.56c0-0.17,0-0.29-0.02-0.48
					C260.92,54.73,260.27,54.66,259.6,54.66z"/>
				<path class="st1" d="M283.36,44.13c1.58-0.5,2.81-0.67,4.22-0.67c3.1,0,5.06,1.8,5.06,4.44c0,3.1-2.28,4.99-6.19,4.99
					c-0.48,0-0.74,0-1.06-0.02c-0.43-0.02-0.55-0.14-0.65-0.43c-0.29-0.89-0.55-1.56-1.18-2.3c1.06,0.17,1.75,0.24,2.66,0.24
					c2.21,0,3.6-0.98,3.6-2.66c0-1.27-0.96-1.97-2.5-1.97c-1.27,0-2.28,0.26-3.55,0.67c-1.39,0.48-2.5,0.91-3.96,1.58
					c1.27,3.6,2.47,6.96,3.72,10.68c0.1,0.31,0.12,0.41-0.22,0.58c-0.6,0.31-1.3,0.55-2.06,0.77c-0.17,0.02-0.24-0.02-0.31-0.26
					c-1.13-3.82-2.16-7.06-3.46-10.66c-0.91,0.43-1.68,0.79-2.28,1.08s-0.86,0.46-1.25,0.74c-0.17,0.14-0.34,0.24-0.46,0.24
					c-0.14,0-0.38-0.12-0.58-0.36c-0.6-0.72-1.01-1.56-1.46-2.35c1.08-0.19,1.49-0.31,2.35-0.62c0.53-0.19,1.34-0.48,2.79-1.1
					c-0.29-0.86-0.62-1.82-1.1-3.1c-0.17-0.43-0.48-1.15-1.1-1.99c1.03-0.22,2.28-0.36,3.22-0.36c0.22,0,0.36,0.17,0.36,0.5
					c0,0.31,0.05,0.48,0.1,0.79c0.14,0.53,0.22,0.89,0.48,1.85c0.17,0.6,0.31,0.96,0.43,1.27
					C280.53,45.09,282.02,44.53,283.36,44.13z M282.76,39.25c0.12-0.07,0.19-0.1,0.26-0.1s0.14,0.02,0.26,0.1
					c0.77,0.5,1.87,1.32,2.59,2.18c0.07,0.1,0.12,0.17,0.12,0.26c0,0.1-0.05,0.17-0.12,0.26c-0.43,0.48-0.98,0.94-1.58,1.32
					c-0.07,0.05-0.14,0.1-0.22,0.1c-0.05,0-0.12-0.05-0.19-0.12c-0.84-0.96-1.73-1.87-2.98-2.64
					C281.59,40.09,282.26,39.57,282.76,39.25z"/>
				<path class="st1" d="M303.47,40.21c0.31,0.12,0.46,0.26,0.46,0.48c0,0.14-0.05,0.24-0.17,0.38c-0.17,0.19-0.29,0.53-0.43,1.13
					c-0.34,1.63-0.53,3.34-0.67,4.58c-0.05,0.86-0.12,1.78-0.07,2.64c0.53-0.94,1.03-1.85,1.68-3.07c0.22,0.72,0.46,1.15,0.74,1.56
					c0.12,0.14,0.14,0.26,0.14,0.38c0,0.19-0.1,0.38-0.24,0.6c-0.53,1.01-1.08,2.02-1.42,3.07c-0.07,0.22-0.1,0.43-0.12,0.72
					c0,0.24-0.1,0.34-0.31,0.38c-0.29,0.07-1.32,0.22-1.92,0.29c-0.17,0.02-0.29-0.14-0.34-0.31c-0.38-1.03-0.72-2.88-0.72-4.87
					c0-1.61,0.26-3.58,0.58-5.98c0.1-0.84,0.19-1.66,0.19-2.74C301.94,39.69,302.85,39.93,303.47,40.21z M311.27,39.81
					c0.48,0.12,0.53,0.24,0.48,0.65c-0.05,0.34-0.05,0.77-0.05,1.11c0.17,2.28,0.34,4.46,0.34,6.19c0,3.41-0.55,6.36-1.82,8.33
					c-0.94,1.49-2.45,2.9-3.96,3.86c-0.17,0.12-0.34,0.17-0.48,0.17c-0.17,0-0.31-0.07-0.5-0.26c-0.53-0.46-1.27-0.89-2.04-1.1
					c1.94-1.08,3.12-1.94,4.08-3.22c1.39-1.9,2.02-3.87,2.02-7.66c0-1.71-0.12-4.2-0.29-5.74c-0.12-1.18-0.24-1.78-0.5-2.62
					C309.59,39.57,310.58,39.61,311.27,39.81z"/>
				<path class="st1" d="M326.66,42.23c0.12-0.72,0.24-1.66,0.24-2.66c1.25,0.26,1.92,0.43,2.88,0.79c0.24,0.07,0.38,0.26,0.38,0.48
					c0,0.12-0.05,0.24-0.17,0.36c-0.24,0.31-0.36,0.58-0.48,0.91c-0.31,0.98-0.55,1.87-0.86,2.88c0.65-0.07,1.37-0.1,1.92-0.1
					c2.23,0,3.43,1.56,3.43,4.63c0,2.59-0.48,5.78-1.3,7.51c-0.7,1.54-1.85,2.26-3.24,2.26c-1.15,0-1.97-0.12-2.5-0.36
					c-0.29-0.12-0.43-0.31-0.43-0.67c-0.07-0.77-0.12-1.44-0.46-2.23c1.08,0.5,2.02,0.62,2.76,0.62c0.79,0,1.15-0.29,1.54-1.27
					c0.5-1.34,0.94-3.62,0.94-5.98c0-1.68-0.31-2.21-1.37-2.21c-0.58,0-1.32,0.07-2.02,0.17c-1.58,4.61-2.95,7.92-4.82,11.28
					c-0.14,0.31-0.34,0.36-0.62,0.22c-0.43-0.22-1.37-0.79-1.66-1.06c-0.12-0.12-0.19-0.21-0.19-0.36c0-0.07,0.02-0.17,0.1-0.26
					c1.92-3.34,3.17-5.88,4.39-9.41c-0.94,0.14-1.7,0.29-2.35,0.41c-0.62,0.12-1.01,0.26-1.32,0.38c-0.34,0.12-0.62,0.07-0.77-0.31
					c-0.22-0.55-0.48-1.42-0.74-2.47c1.06,0,2.11-0.07,3.17-0.17c1.01-0.1,1.9-0.22,2.83-0.36
					C326.32,43.89,326.49,43.05,326.66,42.23z M336.16,43.84c0.17-0.1,0.29-0.05,0.46,0.12c1.63,1.54,3.1,3.53,3.98,5.83
					c0.1,0.22,0.07,0.34-0.1,0.48c-0.41,0.38-1.32,0.96-1.8,1.2c-0.24,0.12-0.48,0.1-0.55-0.19c-0.96-2.52-2.21-4.58-3.94-6.22
					C334.82,44.65,335.51,44.17,336.16,43.84z M336.81,40.48c0.12-0.1,0.22-0.07,0.36,0.05c0.74,0.58,1.61,1.54,2.28,2.57
					c0.1,0.14,0.1,0.26-0.07,0.38l-1.01,0.74c-0.17,0.12-0.29,0.1-0.41-0.07c-0.72-1.1-1.49-2.02-2.42-2.79L336.81,40.48z
					 M338.95,38.92c0.14-0.1,0.22-0.07,0.36,0.05c0.89,0.67,1.75,1.63,2.28,2.47c0.1,0.14,0.12,0.29-0.07,0.43l-0.96,0.74
					c-0.19,0.14-0.31,0.07-0.41-0.07c-0.65-1.03-1.42-1.94-2.4-2.76L338.95,38.92z"/>
				<path class="st1" d="M348.09,42.78c0.22,0.1,0.38,0.26,0.38,0.43c0,0.14-0.07,0.38-0.19,0.67c-0.1,0.29-0.22,1.32-0.22,2.35
					c0,1.54,0.05,3.26,0.43,5.47c0.34,1.9,0.96,3.53,1.97,3.53c0.77,0,1.37-0.84,2.3-3.34c0.53,0.84,1.06,1.39,1.54,1.85
					c0.29,0.26,0.29,0.55,0.17,0.89c-0.91,2.45-2.4,3.74-4.08,3.74c-1.87,0-3.84-2.21-4.49-6.26c-0.38-2.28-0.58-4.78-0.58-6.98
					c0-1.32-0.05-2.04-0.29-3.14C346.19,42.13,347.37,42.42,348.09,42.78z M359.23,44.29c0.1-0.05,0.19-0.1,0.26-0.1
					c0.1,0,0.17,0.05,0.26,0.14c2.18,1.9,4.1,5.21,4.7,8.21c0.07,0.31-0.07,0.41-0.26,0.53c-0.62,0.41-1.22,0.74-1.87,0.96
					c-0.29,0.1-0.46,0.02-0.5-0.26c-0.82-3.43-2.04-5.93-4.49-8.38C358.24,44.82,358.84,44.49,359.23,44.29z"/>
				<path class="st1" d="M374.66,42.23c0.12-0.72,0.24-1.66,0.24-2.66c1.25,0.26,1.92,0.43,2.88,0.79c0.24,0.07,0.38,0.26,0.38,0.48
					c0,0.12-0.05,0.24-0.17,0.36c-0.24,0.31-0.36,0.58-0.48,0.91c-0.31,0.98-0.55,1.87-0.86,2.88c0.65-0.07,1.37-0.1,1.92-0.1
					c2.23,0,3.43,1.56,3.43,4.63c0,2.59-0.48,5.78-1.3,7.51c-0.7,1.54-1.85,2.26-3.24,2.26c-1.15,0-1.97-0.12-2.5-0.36
					c-0.29-0.12-0.43-0.31-0.43-0.67c-0.07-0.77-0.12-1.44-0.46-2.23c1.08,0.5,2.02,0.62,2.76,0.62c0.79,0,1.15-0.29,1.54-1.27
					c0.5-1.34,0.94-3.62,0.94-5.98c0-1.68-0.31-2.21-1.37-2.21c-0.58,0-1.32,0.07-2.02,0.17c-1.58,4.61-2.95,7.92-4.82,11.28
					c-0.14,0.31-0.34,0.36-0.62,0.22c-0.43-0.22-1.37-0.79-1.66-1.06c-0.12-0.12-0.19-0.21-0.19-0.36c0-0.07,0.02-0.17,0.1-0.26
					c1.92-3.34,3.17-5.88,4.39-9.41c-0.94,0.14-1.7,0.29-2.35,0.41c-0.62,0.12-1.01,0.26-1.32,0.38c-0.34,0.12-0.62,0.07-0.77-0.31
					c-0.22-0.55-0.48-1.42-0.74-2.47c1.06,0,2.11-0.07,3.17-0.17c1.01-0.1,1.9-0.22,2.83-0.36
					C374.32,43.89,374.49,43.05,374.66,42.23z M384.16,43.84c0.17-0.1,0.29-0.05,0.46,0.12c1.63,1.54,3.1,3.53,3.98,5.83
					c0.1,0.22,0.07,0.34-0.1,0.48c-0.41,0.38-1.32,0.96-1.8,1.2c-0.24,0.12-0.48,0.1-0.55-0.19c-0.96-2.52-2.21-4.58-3.94-6.22
					C382.82,44.65,383.51,44.17,384.16,43.84z M384.81,40.48c0.12-0.1,0.22-0.07,0.36,0.05c0.74,0.58,1.61,1.54,2.28,2.57
					c0.1,0.14,0.1,0.26-0.07,0.38l-1.01,0.74c-0.17,0.12-0.29,0.1-0.41-0.07c-0.72-1.1-1.49-2.02-2.42-2.79L384.81,40.48z
					 M386.95,38.92c0.14-0.1,0.22-0.07,0.36,0.05c0.89,0.67,1.75,1.63,2.28,2.47c0.1,0.14,0.12,0.29-0.07,0.43l-0.96,0.74
					c-0.19,0.14-0.31,0.07-0.41-0.07c-0.65-1.03-1.42-1.94-2.4-2.76L386.95,38.92z"/>
				<path class="st1" d="M401.54,39.71c0.29,0.1,0.43,0.24,0.43,0.43c0,0.17-0.02,0.26-0.12,0.38c-0.22,0.26-0.29,0.6-0.34,0.87
					c-0.07,0.43-0.12,0.79-0.19,1.2c2.21-0.22,3.91-0.48,6.24-1.01c0.29-0.07,0.36,0.02,0.41,0.24c0.12,0.5,0.24,1.1,0.24,1.63
					c0,0.31-0.24,0.43-0.5,0.48c-3.17,0.65-4.63,0.82-6.82,1.01c-0.1,1.01-0.14,1.58-0.17,2.42c0.94-0.31,2.5-0.5,3.67-0.53
					c0.14-0.38,0.38-1.08,0.41-1.75c0.86,0.26,1.8,0.65,2.14,0.89c0.29,0.19,0.43,0.38,0.43,0.53c0,0.1-0.05,0.19-0.14,0.29
					c-0.12,0.12-0.19,0.26-0.31,0.48c3.1,0.82,4.92,2.86,4.92,5.86c0,3.48-2.86,5.74-6.67,6.77c-0.53,0.14-0.79,0.07-1.06-0.46
					c-0.17-0.34-0.65-0.84-1.42-1.49c1.73-0.36,3.58-1.13,4.46-1.75c1.15-0.84,1.92-1.87,1.92-3.6c0-1.92-1.37-3.07-2.98-3.48
					c-1.39,2.64-2.81,4.54-4.54,6.29c0.12,0.43,0.26,0.7,0.43,1.08c0.14,0.31,0.05,0.43-0.19,0.6c-0.55,0.41-1.1,0.7-1.44,0.84
					c-0.24,0.12-0.34,0.12-0.48-0.12c-0.17-0.29-0.29-0.58-0.41-0.94c-1.7,1.18-2.95,1.73-4.18,1.73c-1.63,0-2.66-1.1-2.66-2.98
					c0-3.07,2.66-6,5.62-7.46c0.02-1.03,0.07-2.09,0.12-3c-1.42,0.05-2.06,0.02-2.47,0.02c-0.7,0-1.08,0-1.37-0.05
					c-0.26-0.02-0.41-0.14-0.43-0.55c-0.07-0.53-0.07-1.15-0.12-1.82c1.54,0.17,2.86,0.12,4.66,0.1c0.1-0.86,0.19-1.94,0.19-2.62
					c0-0.36-0.02-0.7-0.1-1.08C400.12,39.33,400.94,39.49,401.54,39.71z M395.15,55.12c0,0.58,0.36,0.91,0.79,0.91
					c0.67,0,1.56-0.43,2.78-1.39c-0.24-1.44-0.43-2.74-0.48-4.13C396.4,51.83,395.15,53.56,395.15,55.12z M403.68,48.88
					c-0.86,0.02-1.97,0.19-3.07,0.55c0.02,1.25,0.1,2.38,0.29,3.6C401.87,51.9,403,50.22,403.68,48.88z"/>
				<path class="st1" d="M424.75,48.62c1.34-0.77,2.47-1.08,3.82-1.08c3.5,0,5.95,2.3,5.95,5.76c0,4.01-3.24,6.58-8.38,6.58
					c-3.02,0-4.85-1.3-4.85-3.53c0-1.61,1.51-2.93,3.38-2.93c2.26,0,3.91,1.2,4.51,3.5c1.68-0.77,2.45-1.82,2.45-3.65
					c0-2.18-1.54-3.63-3.77-3.63c-1.99,0-4.2,0.89-6.14,2.54c-0.7,0.62-1.37,1.32-2.09,2.04c-0.17,0.17-0.29,0.26-0.41,0.26
					c-0.1,0-0.22-0.07-0.36-0.22c-0.5-0.43-1.03-1.06-1.42-1.56c-0.14-0.19-0.07-0.36,0.12-0.55c1.87-1.51,3.53-3.05,5.69-5.3
					c1.49-1.54,2.62-2.74,3.72-4.1c-1.44,0.26-3.14,0.6-4.63,0.91c-0.31,0.07-0.62,0.14-1.01,0.29c-0.12,0.05-0.36,0.12-0.48,0.12
					c-0.24,0-0.41-0.12-0.53-0.41c-0.29-0.55-0.5-1.22-0.84-2.59c0.72,0.1,1.51,0.1,2.23,0.05c1.46-0.14,3.58-0.46,5.45-0.82
					c0.6-0.12,1.08-0.24,1.32-0.36c0.12-0.07,0.34-0.19,0.46-0.19c0.24,0,0.38,0.07,0.55,0.19c0.72,0.55,1.2,1.03,1.61,1.54
					c0.19,0.22,0.26,0.38,0.26,0.58c0,0.24-0.14,0.46-0.41,0.58c-0.41,0.19-0.6,0.36-1.06,0.77c-1.75,1.7-3.36,3.38-5.18,5.14
					L424.75,48.62z M424.77,55.46c-0.7,0-1.15,0.41-1.15,0.91c0,0.74,0.65,1.25,2.09,1.25c0.43,0,0.74-0.02,1.1-0.1
					C426.5,56.2,425.78,55.46,424.77,55.46z"/>
			</g>
		</g>
	</g>
	<g>
		<path class="st1" d="M118.19,99.88c-5.87-2.14-12.22-3.31-18.83-3.31c-19.68,0-36.95,10.33-46.68,25.87
			c-5.3,8.46-8.36,18.45-8.36,29.17c0,18.65,9.28,35.13,23.47,45.09c5.19,3.64,11.03,6.41,17.32,8.09
			c4.54,1.21,9.32,1.87,14.25,1.87c6.61,0,12.96-1.17,18.83-3.31c21.12-7.69,36.21-27.95,36.21-51.73S139.32,107.57,118.19,99.88z"
			/>
		<g>
			<g>
				<path class="st1" d="M76.15,273.52h3.71v3.67h-3.71v6.75h-4.49v-6.75H60.31v-3.43l9.67-19.77h6.16V273.52z M71.66,266.97
					c0-3.16,0.12-6.12,0.23-9.13h-0.55c-0.98,2.57-2.11,5.19-3.31,7.8l-3.67,7.88h7.29V266.97z"/>
				<path class="st1" d="M96.37,260.3c-0.47-2.18-1.72-2.93-3.12-2.93c-3.55,0-5.23,3.71-5.38,10.53c1.37-2.34,3.59-3.51,6.08-3.51
					c4.6,0,7.76,3.63,7.76,9.63c0,6.43-3.74,10.45-9.09,10.45c-5.73,0-9.56-4.21-9.56-14.27c0-11.78,3.98-16.54,10.3-16.54
					c3.94,0,6.44,1.72,7.76,4.88L96.37,260.3z M92.59,280.73c2.73,0,4.21-2.22,4.21-6.55c0-3.98-1.4-6.05-4.02-6.05
					c-1.95,0-3.67,1.33-4.88,3.78C87.91,278.2,89.78,280.73,92.59,280.73z"/>
				<path class="st1" d="M111.27,283.93h-5.58v-5.38h5.58V283.93z"/>
				<path class="st1" d="M131.84,257.65c-4.95,8-7.37,15.8-8.07,26.29h-5.5c0.86-10.41,4.1-18.14,8.85-25.78h-13.38v-3.98h18.1
					V257.65z"/>
				<path class="st1" d="M136.02,276.35c0,1.68-0.9,2.61-2.21,2.61c-1.3,0-2.18-0.94-2.18-2.6c0-1.68,0.88-2.57,2.18-2.57
					C135.13,273.79,136.02,274.68,136.02,276.35z M132.88,276.37c0,1.13,0.31,1.72,0.94,1.72s0.95-0.58,0.95-1.72
					c0-1.12-0.31-1.68-0.95-1.68C133.19,274.69,132.88,275.25,132.88,276.37z M133.78,284.06h-0.79l6.12-10.27h0.78L133.78,284.06z
					 M141.28,281.45c0,1.68-0.9,2.61-2.18,2.61c-1.33,0-2.21-0.94-2.21-2.61c0-1.66,0.88-2.56,2.21-2.56
					C140.38,278.89,141.28,279.77,141.28,281.45z M138.14,281.46c0,1.13,0.31,1.72,0.95,1.72c0.61,0,0.94-0.58,0.94-1.72
					c0-1.12-0.31-1.69-0.94-1.69C138.46,279.77,138.14,280.34,138.14,281.46z"/>
			</g>
			
				<rect x="85.19" y="228.23" transform="matrix(1.624328e-10 -1 1 1.624328e-10 -129.7198 328.4478)" class="st2" width="28.34" height="1.71"/>
		</g>
		<g>
			<path class="st3" d="M77.49,141.82c-0.79,2.72-2.34,4.29-4.57,5.46c-0.25,0.13-0.4,0.19-0.51,0.19c-0.15,0-0.25-0.13-0.47-0.45
				c-0.34-0.53-0.72-0.91-1.21-1.25c2.66-0.93,3.84-2.1,4.52-4.21c-1.15,0.3-2.29,0.57-3.44,0.85c-0.42,0.11-0.74,0.17-0.96,0.3
				c-0.13,0.06-0.25,0.15-0.4,0.15c-0.13,0-0.25-0.15-0.32-0.34c-0.17-0.59-0.32-1.36-0.42-2.02c0.7-0.04,1.3-0.11,1.95-0.21
				c1.32-0.23,2.7-0.51,4.1-0.85c0.08-0.55,0.13-1.15,0.17-1.91h-2.57c-1.66,0-2.19,0.04-2.31,0.04c-0.23,0-0.25-0.02-0.25-0.23
				v-1.63c0-0.21,0.02-0.23,0.25-0.23c0.13,0,0.66,0.04,2.31,0.04h2.61v-2.1h-2.93c-1.78,0-2.38,0.04-2.51,0.04
				c-0.21,0-0.23-0.02-0.23-0.23v-1.66c0-0.21,0.02-0.23,0.23-0.23c0.13,0,0.72,0.04,2.51,0.04h2.93c-0.02-1.29-0.06-2.27-0.21-3.23
				c0.85,0.02,1.61,0.06,2.29,0.13c0.3,0.04,0.38,0.15,0.38,0.28c0,0.19-0.06,0.28-0.15,0.47c-0.08,0.28-0.13,0.72-0.13,2.36v3.5
				c0,1.42-0.02,2.74-0.13,3.97c0.53-0.15,1.04-0.32,1.57-0.49c-0.08,0.36-0.11,0.81-0.13,1.27c-0.02,0.72-0.02,0.72-0.66,0.91
				c-0.36,0.13-0.72,0.23-1.08,0.34L77.49,141.82z M80.59,131.3c0-1.51-0.02-2.17-0.17-3.21c0.83,0.02,1.57,0.06,2.27,0.15
				c0.21,0.02,0.34,0.13,0.34,0.21c0,0.15-0.04,0.28-0.11,0.42c-0.11,0.28-0.15,0.81-0.15,2.36v0.13h3.04
				c1.78,0,2.38-0.04,2.51-0.04c0.21,0,0.23,0.02,0.23,0.23v1.66c0,0.21-0.02,0.23-0.23,0.23c-0.13,0-0.72-0.04-2.51-0.04h-3.04
				v2.49h2.65c1.64,0,2.17-0.04,2.32-0.04c0.21,0,0.23,0.02,0.23,0.25v1.61c0,0.21-0.02,0.23-0.23,0.23c-0.15,0-0.68-0.04-2.32-0.04
				h-2.65v2.76h3.27c1.85,0,2.46-0.04,2.59-0.04c0.19,0,0.21,0.02,0.21,0.23v1.66c0,0.21-0.02,0.23-0.21,0.23
				c-0.13,0-0.74-0.04-2.59-0.04h-3.27v0.74c0,2.36,0.04,3.55,0.04,3.67c0,0.21-0.02,0.23-0.23,0.23h-1.81
				c-0.21,0-0.23-0.02-0.23-0.23c0-0.13,0.04-1.32,0.04-3.65V131.3z"/>
			<path class="st3" d="M95.19,131.16h3.63v-0.87c0-1.04-0.04-1.66-0.17-2.36c0.79,0.02,1.55,0.06,2.27,0.15
				c0.19,0.02,0.34,0.15,0.34,0.23c0,0.17-0.08,0.3-0.15,0.45c-0.11,0.25-0.11,0.55-0.11,1.49v0.91h1.66
				c0.38-0.62,0.64-1.13,0.89-1.72c0.15-0.3,0.25-0.64,0.36-1.15c0.7,0.13,1.49,0.3,2.1,0.49c0.19,0.06,0.32,0.15,0.32,0.3
				c0,0.15-0.11,0.25-0.23,0.36c-0.15,0.15-0.28,0.28-0.38,0.45c-0.32,0.51-0.53,0.87-0.83,1.27h1.1c1.98,0,2.68-0.04,2.8-0.04
				c0.21,0,0.23,0.02,0.23,0.23c0,0.13-0.04,0.51-0.04,1.08v0.83c0,1.87,0.04,2.23,0.04,2.36c0,0.21-0.02,0.23-0.23,0.23h-1.66
				c-0.23,0-0.25-0.02-0.25-0.23v-2.65H93.24v2.63c0,0.23-0.02,0.25-0.23,0.25h-1.68c-0.21,0-0.23-0.02-0.23-0.25
				c0-0.13,0.04-0.47,0.04-2.34v-0.66c0-0.74-0.04-1.13-0.04-1.25c0-0.21,0.02-0.23,0.23-0.23c0.15,0,0.85,0.04,2.8,0.04h0.53
				c-0.28-0.64-0.72-1.38-1.13-1.91c-0.08-0.11-0.13-0.15-0.13-0.19c0-0.06,0.08-0.08,0.25-0.15l1.53-0.55
				c0.25-0.08,0.25-0.06,0.4,0.13c0.42,0.55,0.85,1.28,1.13,1.85c0.11,0.19,0.08,0.23-0.19,0.34L95.19,131.16z M104.58,140.44
				c2.08,0,2.83-0.04,2.93-0.04c0.23,0,0.25,0.02,0.25,0.23c0,0.13-0.04,0.72-0.04,1.97v0.59c0,0.55,0.02,1.04,0.02,1.49
				c0,0.55-0.13,1.06-0.51,1.38c-0.4,0.32-0.93,0.49-2.83,0.49c-0.66,0.02-0.66,0.02-0.79-0.68c-0.08-0.42-0.21-0.83-0.4-1.19
				c0.68,0.06,1.21,0.08,1.7,0.08c0.42,0,0.62-0.15,0.62-0.62v-1.81h-4.55v2.51c0,1.55,0.04,2.27,0.04,2.38
				c0,0.21-0.02,0.23-0.23,0.23H99c-0.21,0-0.23-0.02-0.23-0.23c0-0.13,0.04-0.83,0.04-2.38v-2.51h-4.16v2.19
				c0,1.15,0.04,1.68,0.04,1.8c0,0.23-0.02,0.25-0.23,0.25h-1.81c-0.21,0-0.23-0.02-0.23-0.25c0-0.13,0.04-0.68,0.04-1.93v-2
				c0-1.19-0.04-1.66-0.04-1.78c0-0.21,0.02-0.23,0.23-0.23c0.13,0,0.87,0.04,2.95,0.04h3.21v-1.42h-1.02
				c-1.89,0-2.55,0.04-2.68,0.04c-0.21,0-0.23-0.02-0.23-0.23c0-0.13,0.04-0.49,0.04-1.44v-1.66c0-0.98-0.04-1.3-0.04-1.44
				c0-0.21,0.02-0.23,0.23-0.23c0.13,0,0.79,0.04,2.68,0.04h4.5c1.89,0,2.55-0.04,2.7-0.04c0.21,0,0.23,0.02,0.23,0.23
				c0,0.13-0.04,0.47-0.04,1.44v1.66c0,0.96,0.04,1.32,0.04,1.44c0,0.21-0.02,0.23-0.23,0.23c-0.15,0-0.81-0.04-2.7-0.04h-1.3v1.42
				H104.58z M103.14,135.77h-6.2v1.57h6.2V135.77z"/>
			<path class="st3" d="M115.54,130.37c0.36,0.19,0.49,0.32,0.49,0.51c0,0.15-0.04,0.21-0.32,0.64c-0.21,0.38-0.32,0.68-0.51,1.51
				c-0.59,2.63-0.89,5.25-0.89,6.86c0,1.04,0.04,1.74,0.13,2.49c0.45-0.98,0.83-1.68,1.44-3.17c0.17,0.53,0.45,0.87,0.74,1.34
				c0.06,0.11,0.15,0.23,0.15,0.32c0,0.15-0.04,0.23-0.11,0.34c-0.49,1.1-0.89,2.02-1.21,3.21c-0.04,0.13-0.06,0.36-0.06,0.66
				c0,0.25,0.04,0.42,0.04,0.59c0,0.15-0.08,0.23-0.28,0.28c-0.53,0.15-1.13,0.28-1.74,0.34c-0.15,0.02-0.23-0.08-0.28-0.23
				c-0.59-1.49-0.98-4.18-0.98-6.33c0-1.91,0.23-4.23,0.72-6.97c0.28-1.57,0.38-2.27,0.38-3.16
				C114.22,129.82,114.9,130.03,115.54,130.37z M120.08,140.37c0.17-0.02,0.21,0.09,0.21,0.32c0.13,1.47,1.15,2,3.46,2
				c1.59,0,2.63-0.11,4.06-0.28c0.21-0.02,0.25,0,0.3,0.28c0.06,0.45,0.13,1.27,0.13,1.83c0,0.25,0,0.28-0.36,0.32
				c-1.44,0.17-2.46,0.23-3.46,0.23c-3.14,0-4.61-0.51-5.52-1.76c-0.53-0.68-0.74-1.76-0.74-2.76L120.08,140.37z M118.89,132.43
				c0.02-0.25,0.08-0.32,0.3-0.36c1.25-0.23,3.63-0.38,4.61-0.38c1.27,0,2.25,0.04,3.14,0.13c0.45,0.02,0.49,0.06,0.49,0.28
				c0,0.64,0,1.21-0.04,1.81c-0.02,0.19-0.08,0.28-0.28,0.25c-1.27-0.08-2.38-0.13-3.46-0.13c-1.42,0-2.8,0.13-4.82,0.49
				C118.85,133.32,118.85,132.79,118.89,132.43z"/>
			<path class="st3" d="M72.27,163.95c-3.17,0.83-5.18,1.59-6.99,2.23c-0.15,0.06-0.47,0.23-0.62,0.23c-0.11,0-0.32-0.15-0.42-0.42
				c-0.21-0.42-0.45-1.02-0.7-1.74c0.47-0.13,0.66-0.19,1.1-0.34c0.4-0.17,1.1-0.55,2.04-1.25c1.83-1.42,3.82-3.33,6.05-5.57
				c-1.3,0.36-2.44,0.57-3.78,0.83c-0.32,0.06-0.49,0.08-0.81,0.17c-0.19,0.06-0.4,0.21-0.59,0.21s-0.36-0.19-0.51-0.47
				c-0.19-0.34-0.49-1.15-0.76-2.1c0.7,0.06,1.4,0.08,2.1,0.04c1.42-0.11,2.97-0.36,4.84-0.64c0.57-0.08,0.83-0.19,1.13-0.36
				c0.15-0.11,0.28-0.15,0.4-0.15c0.19,0,0.32,0.11,0.57,0.32c0.32,0.25,0.72,0.66,1.04,1.06c0.17,0.21,0.25,0.4,0.25,0.59
				c0,0.21-0.13,0.36-0.38,0.49c-0.32,0.19-0.59,0.38-0.87,0.64c-2.21,1.95-4.01,3.53-6.44,5.35l0.04,0.06
				c3.5-1.02,6.41-1.7,10.24-2.34c0.28-0.04,0.36,0.11,0.4,0.34c0.08,0.32,0.19,0.93,0.23,1.72c0.02,0.21-0.11,0.28-0.34,0.3
				c-1.57,0.11-2.66,0.25-3.95,0.68c-2.46,0.85-3.63,2.36-3.63,3.89c0,2.04,2.23,2.65,5.31,2.65c0.21,0,0.34,0.11,0.32,0.38
				c-0.04,0.53-0.21,1.4-0.28,1.78c-0.04,0.34-0.17,0.47-0.47,0.47c-0.4,0-0.89-0.06-1.4-0.13c-3.99-0.4-5.73-2.23-5.73-4.8
				c0-1.36,0.85-3.12,2.59-4.1V163.95z"/>
			<path class="st3" d="M86.78,160.68c1.78-0.59,3.25-1.06,4.86-1.06c2.85,0,4.48,1.93,4.48,5.06c0,2.08-0.74,3.78-1.72,5.08
				c-1,1.36-2.42,2.49-4.1,3.38c-0.15,0.06-0.25,0.11-0.36,0.11c-0.19,0-0.32-0.08-0.51-0.28c-0.47-0.45-1.04-0.85-1.76-1.13
				c2.34-1.11,3.78-2.29,4.67-3.55c0.62-0.87,1.17-2.04,1.17-3.76c0-1.76-0.74-2.68-1.98-2.68c-1.19,0-2.12,0.32-3.33,0.91
				c-1.25,0.62-1.55,0.83-1.81,1.02c-0.17,0.13-0.3,0.21-0.47,0.21c-0.28,0-0.47-0.28-0.59-0.47c-0.3-0.45-0.74-1.38-1.08-2.23
				C85.12,161.21,85.63,161.04,86.78,160.68z M94.53,155.8c0.23,0.04,0.32,0.21,0.28,0.38c-0.08,0.45-0.32,1.46-0.47,1.87
				c-0.06,0.21-0.13,0.32-0.3,0.3c-2.31-0.38-3.97-0.79-6.16-1.63c-0.11-0.04-0.21-0.15-0.15-0.43c0.15-0.79,0.38-1.36,0.64-2
				C90.35,155.08,92.34,155.48,94.53,155.8z"/>
			<path class="st3" d="M102.91,166.93c0.28,0.08,0.32,0.17,0.25,0.34c-0.51,1.78-1.19,3.31-2.1,4.67
				c-0.06,0.11-0.11,0.15-0.17,0.15s-0.13-0.04-0.23-0.11l-1.38-0.89c-0.28-0.17-0.3-0.25-0.15-0.45c0.89-1.25,1.57-2.46,2-4.08
				c0.06-0.23,0.08-0.21,0.36-0.11L102.91,166.93z M112.92,155.03c2.06,0,2.8-0.04,2.95-0.04c0.21,0,0.23,0.02,0.23,0.23
				c0,0.13-0.04,0.79-0.04,2.25v4.55c0,1.47,0.04,2.12,0.04,2.25c0,0.23-0.02,0.26-0.23,0.26c-0.15,0-0.89-0.04-2.95-0.04h-8.16
				c-2.06,0-2.8,0.04-2.95,0.04c-0.21,0-0.23-0.02-0.23-0.26c0-0.13,0.04-0.79,0.04-2.25v-4.55c0-1.46-0.04-2.12-0.04-2.25
				c0-0.21,0.02-0.23,0.23-0.23c0.15,0,0.89,0.04,2.95,0.04H112.92z M107.67,158.9v-2.02h-3.87v2.02H107.67z M107.67,162.68v-2.08
				h-3.87v2.08H107.67z M106.65,169.97c0,0.49,0.06,0.72,0.32,0.87c0.3,0.17,0.91,0.23,1.93,0.23c1.38,0,2.21-0.06,2.68-0.42
				c0.36-0.28,0.55-0.98,0.57-2.13c0.45,0.26,1.02,0.47,1.64,0.64c0.53,0.15,0.55,0.17,0.49,0.72c-0.21,1.53-0.59,2.25-1.25,2.63
				c-0.81,0.47-2.02,0.57-4.29,0.57c-1.93,0-2.97-0.15-3.55-0.49c-0.42-0.28-0.74-0.74-0.74-1.8v-3.12c0-0.62-0.02-1.15-0.11-1.76
				c0.7,0,1.53,0.06,2.17,0.13c0.28,0.04,0.38,0.15,0.38,0.25c0,0.13-0.02,0.21-0.11,0.36c-0.08,0.17-0.13,0.45-0.13,0.91V169.97z
				 M108.58,164.78c0.19-0.15,0.28-0.13,0.45,0c0.89,0.66,1.81,1.62,2.57,2.53c0.13,0.17,0.08,0.25-0.13,0.42l-1.17,0.93
				c-0.23,0.17-0.3,0.19-0.42,0.02c-0.68-1.02-1.61-2.02-2.42-2.72c-0.08-0.08-0.11-0.13-0.11-0.19s0.04-0.13,0.17-0.21
				L108.58,164.78z M109.82,156.88v2.02h4.06v-2.02H109.82z M113.87,160.6h-4.06v2.08h4.06V160.6z M115.59,166.21
				c0.23-0.13,0.3-0.11,0.42,0.06c1.02,1.32,1.81,2.61,2.49,4.04c0.08,0.19,0.06,0.28-0.17,0.4l-1.42,0.76
				c-0.13,0.06-0.21,0.11-0.28,0.11c-0.06,0-0.11-0.04-0.15-0.15c-0.64-1.57-1.38-2.8-2.38-4.18c-0.11-0.17-0.11-0.19,0.15-0.34
				L115.59,166.21z"/>
			<path class="st3" d="M123.3,160.68c1.78-0.59,3.25-1.06,4.86-1.06c2.85,0,4.48,1.93,4.48,5.06c0,2.08-0.74,3.78-1.72,5.08
				c-1,1.36-2.42,2.49-4.1,3.38c-0.15,0.06-0.25,0.11-0.36,0.11c-0.19,0-0.32-0.08-0.51-0.28c-0.47-0.45-1.04-0.85-1.76-1.13
				c2.34-1.11,3.78-2.29,4.67-3.55c0.62-0.87,1.17-2.04,1.17-3.76c0-1.76-0.74-2.68-1.98-2.68c-1.19,0-2.12,0.32-3.33,0.91
				c-1.25,0.62-1.55,0.83-1.81,1.02c-0.17,0.13-0.3,0.21-0.47,0.21c-0.28,0-0.47-0.28-0.59-0.47c-0.3-0.45-0.74-1.38-1.08-2.23
				C121.64,161.21,122.15,161.04,123.3,160.68z M131.05,155.8c0.23,0.04,0.32,0.21,0.28,0.38c-0.08,0.45-0.32,1.46-0.47,1.87
				c-0.06,0.21-0.13,0.32-0.3,0.3c-2.31-0.38-3.97-0.79-6.16-1.63c-0.11-0.04-0.21-0.15-0.15-0.43c0.15-0.79,0.38-1.36,0.64-2
				C126.87,155.08,128.86,155.48,131.05,155.8z"/>
		</g>
	</g>
	<g>
		<path class="st4" d="M263.58,99.88c-5.87-2.14-12.22-3.31-18.83-3.31c-19.68,0-36.95,10.33-46.68,25.87
			c-5.3,8.46-8.36,18.45-8.36,29.17c0,18.65,9.28,35.13,23.47,45.09c5.19,3.64,11.03,6.41,17.32,8.09
			c4.54,1.21,9.32,1.87,14.25,1.87c6.61,0,12.96-1.17,18.83-3.31c21.12-7.69,36.21-27.95,36.21-51.73S284.71,107.57,263.58,99.88z"
			/>
		<g>
			<g>
				<path class="st1" d="M206.72,261.9c0.66-5.34,4.29-8.23,9.17-8.23c5.34,0,8.89,2.89,8.89,8.04c0,3.31-1.44,5.81-6.01,10.06
					c-4.1,3.67-6.05,5.85-7.25,8.27h13.38v3.9h-18.45v-3.47c1.76-3.67,4.25-6.94,8.5-11.04c3.9-3.74,4.76-5.3,4.76-7.76
					c0-2.61-1.52-4.13-3.9-4.13c-2.46,0-3.98,1.83-4.21,5.38L206.72,261.9z"/>
				<path class="st1" d="M241.44,260.3c-0.47-2.18-1.72-2.93-3.12-2.93c-3.55,0-5.23,3.71-5.38,10.53c1.37-2.34,3.59-3.51,6.08-3.51
					c4.6,0,7.76,3.63,7.76,9.63c0,6.43-3.74,10.45-9.09,10.45c-5.73,0-9.56-4.21-9.56-14.27c0-11.78,3.98-16.54,10.3-16.54
					c3.94,0,6.44,1.72,7.76,4.88L241.44,260.3z M237.66,280.73c2.73,0,4.21-2.22,4.21-6.55c0-3.98-1.4-6.05-4.02-6.05
					c-1.95,0-3.67,1.33-4.88,3.78C232.98,278.2,234.85,280.73,237.66,280.73z"/>
				<path class="st1" d="M256.34,283.93h-5.58v-5.38h5.58V283.93z"/>
				<path class="st1" d="M276.91,257.65c-4.95,8-7.37,15.8-8.07,26.29h-5.5c0.86-10.41,4.1-18.14,8.85-25.78h-13.38v-3.98h18.1
					V257.65z"/>
				<path class="st1" d="M281.1,276.35c0,1.68-0.9,2.61-2.21,2.61c-1.3,0-2.18-0.94-2.18-2.6c0-1.68,0.88-2.57,2.18-2.57
					C280.2,273.79,281.1,274.68,281.1,276.35z M277.95,276.37c0,1.13,0.31,1.72,0.94,1.72s0.95-0.58,0.95-1.72
					c0-1.12-0.31-1.68-0.95-1.68C278.26,274.69,277.95,275.25,277.95,276.37z M278.85,284.06h-0.79l6.12-10.27h0.78L278.85,284.06z
					 M286.35,281.45c0,1.68-0.9,2.61-2.18,2.61c-1.33,0-2.21-0.94-2.21-2.61c0-1.66,0.88-2.56,2.21-2.56
					C285.45,278.89,286.35,279.77,286.35,281.45z M283.21,281.46c0,1.13,0.31,1.72,0.95,1.72c0.61,0,0.94-0.58,0.94-1.72
					c0-1.12-0.31-1.69-0.94-1.69C283.53,279.77,283.21,280.34,283.21,281.46z"/>
			</g>
			
				<rect x="230.58" y="228.23" transform="matrix(1.622401e-10 -1 1 1.622401e-10 15.6666 473.8343)" class="st2" width="28.34" height="1.71"/>
		</g>
		<g>
			<path class="st3" d="M235.71,134.86c1.19-0.38,2.11-0.5,3.17-0.5c2.32,0,3.8,1.35,3.8,3.33c0,2.32-1.71,3.75-4.65,3.75
				c-0.36,0-0.56,0-0.79-0.02c-0.32-0.02-0.41-0.11-0.49-0.32c-0.22-0.67-0.41-1.17-0.88-1.73c0.79,0.13,1.31,0.18,2,0.18
				c1.66,0,2.7-0.74,2.7-2c0-0.95-0.72-1.48-1.87-1.48c-0.95,0-1.71,0.2-2.67,0.5c-1.04,0.36-1.87,0.68-2.97,1.19
				c0.95,2.7,1.85,5.22,2.79,8.01c0.07,0.23,0.09,0.31-0.16,0.43c-0.45,0.23-0.97,0.41-1.55,0.58c-0.13,0.02-0.18-0.02-0.23-0.2
				c-0.85-2.86-1.62-5.29-2.59-8c-0.68,0.32-1.26,0.59-1.71,0.81s-0.65,0.34-0.94,0.56c-0.13,0.11-0.25,0.18-0.34,0.18
				c-0.11,0-0.29-0.09-0.43-0.27c-0.45-0.54-0.76-1.17-1.1-1.76c0.81-0.14,1.12-0.23,1.76-0.47c0.4-0.14,1.01-0.36,2.09-0.83
				c-0.22-0.65-0.47-1.37-0.83-2.32c-0.13-0.32-0.36-0.86-0.83-1.5c0.77-0.16,1.71-0.27,2.41-0.27c0.16,0,0.27,0.13,0.27,0.38
				c0,0.23,0.04,0.36,0.07,0.59c0.11,0.4,0.16,0.67,0.36,1.39c0.13,0.45,0.23,0.72,0.32,0.95
				C233.59,135.58,234.7,135.16,235.71,134.86z M235.26,131.2c0.09-0.05,0.14-0.07,0.2-0.07c0.05,0,0.11,0.02,0.2,0.07
				c0.58,0.38,1.4,0.99,1.94,1.64c0.05,0.07,0.09,0.13,0.09,0.2c0,0.07-0.04,0.13-0.09,0.2c-0.32,0.36-0.74,0.7-1.19,0.99
				c-0.05,0.04-0.11,0.07-0.16,0.07c-0.04,0-0.09-0.04-0.14-0.09c-0.63-0.72-1.3-1.4-2.23-1.98
				C234.38,131.83,234.88,131.44,235.26,131.2z"/>
			<path class="st3" d="M253.52,134.86c1.19-0.38,2.11-0.5,3.17-0.5c2.32,0,3.8,1.35,3.8,3.33c0,2.32-1.71,3.75-4.65,3.75
				c-0.36,0-0.56,0-0.79-0.02c-0.32-0.02-0.41-0.11-0.49-0.32c-0.22-0.67-0.41-1.17-0.88-1.73c0.79,0.13,1.31,0.18,2,0.18
				c1.66,0,2.7-0.74,2.7-2c0-0.95-0.72-1.48-1.87-1.48c-0.95,0-1.71,0.2-2.67,0.5c-1.04,0.36-1.87,0.68-2.97,1.19
				c0.95,2.7,1.85,5.22,2.79,8.01c0.07,0.23,0.09,0.31-0.16,0.43c-0.45,0.23-0.97,0.41-1.55,0.58c-0.13,0.02-0.18-0.02-0.23-0.2
				c-0.85-2.86-1.62-5.29-2.59-8c-0.68,0.32-1.26,0.59-1.71,0.81s-0.65,0.34-0.94,0.56c-0.13,0.11-0.25,0.18-0.34,0.18
				c-0.11,0-0.29-0.09-0.43-0.27c-0.45-0.54-0.76-1.17-1.1-1.76c0.81-0.14,1.12-0.23,1.76-0.47c0.4-0.14,1.01-0.36,2.09-0.83
				c-0.22-0.65-0.47-1.37-0.83-2.32c-0.13-0.32-0.36-0.86-0.83-1.5c0.77-0.16,1.71-0.27,2.41-0.27c0.16,0,0.27,0.13,0.27,0.38
				c0,0.23,0.04,0.36,0.07,0.59c0.11,0.4,0.16,0.67,0.36,1.39c0.13,0.45,0.23,0.72,0.32,0.95
				C251.39,135.58,252.51,135.16,253.52,134.86z M253.07,131.2c0.09-0.05,0.14-0.07,0.2-0.07c0.05,0,0.11,0.02,0.2,0.07
				c0.58,0.38,1.4,0.99,1.94,1.64c0.05,0.07,0.09,0.13,0.09,0.2c0,0.07-0.04,0.13-0.09,0.2c-0.32,0.36-0.74,0.7-1.19,0.99
				c-0.05,0.04-0.11,0.07-0.16,0.07c-0.04,0-0.09-0.04-0.14-0.09c-0.63-0.72-1.3-1.4-2.23-1.98
				C252.18,131.83,252.69,131.44,253.07,131.2z"/>
			<path class="st3" d="M220.5,159.48c-2.68,0.7-4.39,1.35-5.92,1.89c-0.13,0.05-0.4,0.2-0.52,0.2c-0.09,0-0.27-0.13-0.36-0.36
				c-0.18-0.36-0.38-0.86-0.59-1.48c0.4-0.11,0.56-0.16,0.94-0.29c0.34-0.14,0.94-0.47,1.73-1.06c1.55-1.21,3.24-2.83,5.13-4.72
				c-1.1,0.31-2.07,0.49-3.21,0.7c-0.27,0.05-0.41,0.07-0.68,0.14c-0.16,0.05-0.34,0.18-0.5,0.18s-0.31-0.16-0.43-0.4
				c-0.16-0.29-0.41-0.97-0.65-1.78c0.59,0.05,1.19,0.07,1.78,0.04c1.21-0.09,2.52-0.31,4.11-0.54c0.49-0.07,0.7-0.16,0.95-0.31
				c0.13-0.09,0.23-0.13,0.34-0.13c0.16,0,0.27,0.09,0.49,0.27c0.27,0.22,0.61,0.56,0.88,0.9c0.14,0.18,0.22,0.34,0.22,0.5
				c0,0.18-0.11,0.31-0.32,0.41c-0.27,0.16-0.5,0.32-0.74,0.54c-1.87,1.66-3.4,2.99-5.46,4.54l0.04,0.05
				c2.97-0.86,5.44-1.44,8.68-1.98c0.23-0.04,0.31,0.09,0.34,0.29c0.07,0.27,0.16,0.79,0.2,1.46c0.02,0.18-0.09,0.23-0.29,0.25
				c-1.33,0.09-2.25,0.22-3.35,0.58c-2.09,0.72-3.08,2-3.08,3.29c0,1.73,1.89,2.25,4.5,2.25c0.18,0,0.29,0.09,0.27,0.32
				c-0.04,0.45-0.18,1.19-0.23,1.51c-0.04,0.29-0.14,0.4-0.4,0.4c-0.34,0-0.76-0.05-1.19-0.11c-3.38-0.34-4.86-1.89-4.86-4.07
				c0-1.15,0.72-2.65,2.2-3.47V159.48z"/>
			<path class="st3" d="M232.82,156.71c1.51-0.5,2.75-0.9,4.12-0.9c2.41,0,3.8,1.64,3.8,4.29c0,1.76-0.63,3.21-1.46,4.3
				c-0.85,1.15-2.05,2.11-3.48,2.86c-0.13,0.05-0.22,0.09-0.31,0.09c-0.16,0-0.27-0.07-0.43-0.23c-0.4-0.38-0.88-0.72-1.49-0.95
				c1.98-0.94,3.2-1.94,3.96-3.01c0.52-0.74,0.99-1.73,0.99-3.19c0-1.5-0.63-2.27-1.67-2.27c-1.01,0-1.8,0.27-2.83,0.77
				c-1.06,0.52-1.31,0.7-1.53,0.86c-0.14,0.11-0.25,0.18-0.4,0.18c-0.23,0-0.4-0.23-0.5-0.4c-0.25-0.38-0.63-1.17-0.92-1.89
				C231.41,157.16,231.85,157.02,232.82,156.71z M239.39,152.57c0.2,0.04,0.27,0.18,0.23,0.32c-0.07,0.38-0.27,1.24-0.4,1.58
				c-0.05,0.18-0.11,0.27-0.25,0.25c-1.96-0.32-3.37-0.67-5.22-1.39c-0.09-0.04-0.18-0.13-0.13-0.36c0.13-0.67,0.32-1.15,0.54-1.69
				C235.84,151.96,237.54,152.3,239.39,152.57z"/>
			<path class="st3" d="M246.52,162c0.23,0.07,0.27,0.14,0.22,0.29c-0.43,1.51-1.01,2.81-1.78,3.96c-0.05,0.09-0.09,0.13-0.14,0.13
				c-0.05,0-0.11-0.04-0.2-0.09l-1.17-0.76c-0.23-0.14-0.25-0.22-0.13-0.38c0.76-1.06,1.33-2.09,1.69-3.46
				c0.05-0.2,0.07-0.18,0.31-0.09L246.52,162z M255,151.92c1.75,0,2.38-0.04,2.5-0.04c0.18,0,0.2,0.02,0.2,0.2
				c0,0.11-0.04,0.67-0.04,1.91v3.85c0,1.24,0.04,1.8,0.04,1.91c0,0.2-0.02,0.22-0.2,0.22c-0.13,0-0.76-0.04-2.5-0.04h-6.91
				c-1.75,0-2.38,0.04-2.5,0.04c-0.18,0-0.2-0.02-0.2-0.22c0-0.11,0.04-0.67,0.04-1.91v-3.85c0-1.24-0.04-1.8-0.04-1.91
				c0-0.18,0.02-0.2,0.2-0.2c0.13,0,0.76,0.04,2.5,0.04H255z M250.56,155.2v-1.71h-3.28v1.71H250.56z M250.56,158.4v-1.76h-3.28
				v1.76H250.56z M249.69,164.58c0,0.41,0.05,0.61,0.27,0.74c0.25,0.14,0.77,0.2,1.64,0.2c1.17,0,1.87-0.05,2.27-0.36
				c0.31-0.23,0.47-0.83,0.49-1.8c0.38,0.22,0.86,0.4,1.39,0.54c0.45,0.13,0.47,0.14,0.41,0.61c-0.18,1.3-0.5,1.91-1.06,2.23
				c-0.68,0.4-1.71,0.49-3.64,0.49c-1.64,0-2.52-0.13-3.01-0.41c-0.36-0.23-0.63-0.63-0.63-1.53v-2.65c0-0.52-0.02-0.97-0.09-1.49
				c0.59,0,1.3,0.05,1.84,0.11c0.23,0.04,0.32,0.13,0.32,0.22c0,0.11-0.02,0.18-0.09,0.31c-0.07,0.14-0.11,0.38-0.11,0.77V164.58z
				 M251.33,160.19c0.16-0.13,0.23-0.11,0.38,0c0.76,0.56,1.53,1.37,2.18,2.14c0.11,0.14,0.07,0.22-0.11,0.36l-0.99,0.79
				c-0.2,0.14-0.25,0.16-0.36,0.02c-0.58-0.86-1.37-1.71-2.05-2.3c-0.07-0.07-0.09-0.11-0.09-0.16c0-0.05,0.04-0.11,0.14-0.18
				L251.33,160.19z M252.38,153.49v1.71h3.44v-1.71H252.38z M255.81,156.64h-3.44v1.76h3.44V156.64z M257.27,161.39
				c0.2-0.11,0.25-0.09,0.36,0.05c0.86,1.12,1.53,2.21,2.11,3.42c0.07,0.16,0.05,0.23-0.14,0.34l-1.21,0.65
				c-0.11,0.05-0.18,0.09-0.23,0.09c-0.05,0-0.09-0.04-0.13-0.13c-0.54-1.33-1.17-2.38-2.02-3.55c-0.09-0.14-0.09-0.16,0.13-0.29
				L257.27,161.39z"/>
			<path class="st3" d="M263.83,156.71c1.51-0.5,2.75-0.9,4.12-0.9c2.41,0,3.8,1.64,3.8,4.29c0,1.76-0.63,3.21-1.46,4.3
				c-0.85,1.15-2.05,2.11-3.48,2.86c-0.13,0.05-0.22,0.09-0.31,0.09c-0.16,0-0.27-0.07-0.43-0.23c-0.4-0.38-0.88-0.72-1.49-0.95
				c1.98-0.94,3.21-1.94,3.96-3.01c0.52-0.74,0.99-1.73,0.99-3.19c0-1.5-0.63-2.27-1.67-2.27c-1.01,0-1.8,0.27-2.83,0.77
				c-1.06,0.52-1.31,0.7-1.53,0.86c-0.14,0.11-0.25,0.18-0.4,0.18c-0.23,0-0.4-0.23-0.5-0.4c-0.25-0.38-0.63-1.17-0.92-1.89
				C262.43,157.16,262.86,157.02,263.83,156.71z M270.4,152.57c0.2,0.04,0.27,0.18,0.23,0.32c-0.07,0.38-0.27,1.24-0.4,1.58
				c-0.05,0.18-0.11,0.27-0.25,0.25c-1.96-0.32-3.37-0.67-5.22-1.39c-0.09-0.04-0.18-0.13-0.13-0.36c0.13-0.67,0.32-1.15,0.54-1.69
				C266.86,151.96,268.55,152.3,270.4,152.57z"/>
		</g>
	</g>
	<g>
		<path class="st5" d="M408.97,99.88c-5.87-2.14-12.22-3.31-18.83-3.31c-19.68,0-36.95,10.33-46.68,25.87
			c-5.3,8.46-8.36,18.45-8.36,29.17c0,18.65,9.28,35.13,23.47,45.09c5.19,3.64,11.03,6.41,17.32,8.09
			c4.54,1.21,9.32,1.87,14.25,1.87c6.61,0,12.96-1.17,18.83-3.31c21.12-7.69,36.21-27.95,36.21-51.73S430.09,107.57,408.97,99.88z"
			/>
		<g>
			<g>
				<path class="st1" d="M364.49,280.15h5.58v3.78H354v-3.78h5.85v-21.22c-1.48,1.01-3.35,1.95-5.5,2.65l-0.78-4.1
					c2.57-0.74,4.88-1.99,6.94-3.51h3.98V280.15z"/>
				<path class="st1" d="M386.38,260.3c-0.47-2.18-1.72-2.93-3.12-2.93c-3.55,0-5.23,3.71-5.38,10.53c1.37-2.34,3.59-3.51,6.08-3.51
					c4.6,0,7.76,3.63,7.76,9.63c0,6.43-3.74,10.45-9.09,10.45c-5.73,0-9.56-4.21-9.56-14.27c0-11.78,3.98-16.54,10.3-16.54
					c3.94,0,6.44,1.72,7.76,4.88L386.38,260.3z M382.6,280.73c2.73,0,4.21-2.22,4.21-6.55c0-3.98-1.4-6.05-4.02-6.05
					c-1.95,0-3.67,1.33-4.88,3.78C377.92,278.2,379.79,280.73,382.6,280.73z"/>
				<path class="st1" d="M401.28,283.93h-5.58v-5.38h5.58V283.93z"/>
				<path class="st1" d="M421.84,257.65c-4.95,8-7.37,15.8-8.07,26.29h-5.5c0.86-10.41,4.1-18.14,8.85-25.78h-13.38v-3.98h18.1
					V257.65z"/>
				<path class="st1" d="M426.03,276.35c0,1.68-0.9,2.61-2.21,2.61c-1.3,0-2.18-0.94-2.18-2.6c0-1.68,0.88-2.57,2.18-2.57
					C425.14,273.79,426.03,274.68,426.03,276.35z M422.89,276.37c0,1.13,0.31,1.72,0.94,1.72s0.95-0.58,0.95-1.72
					c0-1.12-0.31-1.68-0.95-1.68C423.2,274.69,422.89,275.25,422.89,276.37z M423.78,284.06h-0.79l6.12-10.27h0.78L423.78,284.06z
					 M431.29,281.45c0,1.68-0.9,2.61-2.18,2.61c-1.33,0-2.21-0.94-2.21-2.61c0-1.66,0.88-2.56,2.21-2.56
					C430.39,278.89,431.29,279.77,431.29,281.45z M428.15,281.46c0,1.13,0.31,1.72,0.95,1.72c0.61,0,0.94-0.58,0.94-1.72
					c0-1.12-0.31-1.69-0.94-1.69C428.46,279.77,428.15,280.34,428.15,281.46z"/>
			</g>
			
				<rect x="375.97" y="228.23" transform="matrix(1.622401e-10 -1 1 1.622401e-10 161.0531 619.2207)" class="st2" width="28.34" height="1.71"/>
		</g>
		<g>
			<path class="st3" d="M354.76,149.12c1.62-1.33,3.28-2.11,5.17-2.11c2.72,0,4.48,1.85,4.48,4.57c0,2.77-1.69,4.68-4.79,5.8
				c-0.11,0.05-0.22,0.07-0.31,0.07c-0.18,0-0.34-0.09-0.47-0.25c-0.38-0.45-0.79-0.81-1.42-1.19c1.75-0.47,2.67-0.97,3.62-1.78
				c0.83-0.74,1.22-1.64,1.22-2.72c0-1.69-0.95-2.79-2.68-2.79c-1.66,0-3.06,0.79-4.83,2.3c0.02,2.3,0.07,4.48,0.11,6.91
				c0,0.14-0.09,0.22-0.23,0.22c-0.2,0.02-1.01,0.07-1.6,0.07c-0.16,0-0.22-0.07-0.2-0.25c0.02-1.84,0.05-3.73,0.09-5.56
				c-0.86,1.3-1.76,2.61-2.43,3.57c-0.09,0.11-0.16,0.18-0.25,0.18c-0.05,0-0.13-0.04-0.2-0.11c-0.41-0.36-0.76-0.7-1.1-1.08
				c-0.07-0.05-0.11-0.13-0.11-0.2c0-0.07,0.04-0.14,0.11-0.22c1.58-1.93,2.61-3.21,3.96-5.06c0-0.45,0-0.94,0.02-1.28
				c-0.52,0.16-1.37,0.41-2.05,0.67c-0.31,0.13-0.49,0.31-0.59,0.31c-0.13,0-0.25-0.11-0.36-0.32c-0.22-0.41-0.49-0.97-0.72-1.58
				c0.43-0.04,0.7-0.07,1.22-0.18c0.47-0.11,1.17-0.27,2.56-0.65c0.04-0.77,0.04-1.57,0.04-2.34c0-0.45-0.04-0.97-0.18-1.57
				c1.04,0.11,1.64,0.18,2.09,0.31c0.38,0.11,0.45,0.31,0.32,0.63c-0.09,0.22-0.14,0.49-0.18,0.77c-0.02,0.43-0.05,0.85-0.09,1.62
				c0.05-0.02,0.09-0.04,0.14-0.05c0.04-0.02,0.09-0.04,0.13-0.04c0.13,0,0.32,0.18,0.49,0.41c0.22,0.29,0.29,0.43,0.29,0.56
				s-0.04,0.2-0.31,0.5c-0.25,0.32-0.52,0.67-0.95,1.3V149.12z"/>
			<path class="st3" d="M371.33,144.89c0.09-0.54,0.18-1.24,0.18-2c0.94,0.2,1.44,0.32,2.16,0.59c0.18,0.05,0.29,0.2,0.29,0.36
				c0,0.09-0.04,0.18-0.13,0.27c-0.18,0.23-0.27,0.43-0.36,0.68c-0.23,0.74-0.41,1.4-0.65,2.16c0.49-0.05,1.03-0.07,1.4-0.07
				c1.69,0,2.61,1.15,2.61,3.33c0,2.12-0.36,4.48-0.97,5.78c-0.52,1.15-1.39,1.69-2.43,1.69c-0.86,0-1.39-0.07-1.78-0.2
				c-0.22-0.07-0.32-0.23-0.32-0.5c-0.05-0.58-0.09-1.08-0.34-1.67c0.81,0.31,1.42,0.4,1.98,0.4c0.59,0,0.86-0.22,1.15-0.95
				c0.38-1.01,0.7-2.72,0.7-4.46c0-1.28-0.23-1.67-1.03-1.67c-0.43,0-0.99,0.05-1.51,0.13c-1.19,3.46-2.21,5.94-3.62,8.46
				c-0.11,0.23-0.25,0.27-0.47,0.16c-0.32-0.16-1.03-0.59-1.24-0.79c-0.09-0.09-0.14-0.16-0.14-0.27c0-0.05,0.02-0.13,0.07-0.2
				c1.44-2.5,2.38-4.41,3.3-7.06c-0.7,0.11-1.28,0.22-1.76,0.31c-0.47,0.09-0.76,0.2-0.99,0.29c-0.25,0.09-0.47,0.05-0.58-0.23
				c-0.16-0.41-0.36-1.06-0.56-1.85c0.79,0,1.58-0.05,2.38-0.13c0.76-0.07,1.42-0.16,2.12-0.27
				C371.08,146.14,371.21,145.5,371.33,144.89z M378.66,146.1c0.13-0.07,0.22-0.04,0.34,0.09c1.22,1.15,2.32,2.65,2.99,4.38
				c0.07,0.16,0.05,0.25-0.07,0.36c-0.31,0.29-0.99,0.72-1.35,0.9c-0.18,0.09-0.36,0.07-0.41-0.14c-0.72-1.89-1.66-3.44-2.95-4.66
				C377.65,146.71,378.18,146.35,378.66,146.1z"/>
			<path class="st3" d="M387.42,147.13c0.2,0.09,0.29,0.2,0.29,0.34c0,0.09-0.04,0.18-0.09,0.27c-0.16,0.29-0.29,0.61-0.36,0.96
				c-0.18,0.92-0.36,2.25-0.43,3.28c1.66-1.67,3.82-2.84,6.01-2.84c2.63,0,4.2,1.53,4.2,3.85c0,1.96-1.17,3.26-2.72,4.03
				c-1.21,0.61-3.06,1.04-4.61,1.24c-0.4,0.05-0.56,0.04-0.72-0.23c-0.34-0.61-0.67-1.1-1.22-1.53c2.02-0.13,3.75-0.47,4.95-1.01
				c1.46-0.63,2.12-1.57,2.12-2.72c0-0.97-0.61-1.85-2.16-1.85c-1.58,0-3.49,1.03-5.19,2.74c-0.32,0.32-0.56,0.63-0.77,0.99
				c-0.11,0.18-0.18,0.18-0.41,0.13c-0.41-0.14-0.85-0.31-1.22-0.49c-0.18-0.07-0.25-0.11-0.25-0.36c0.11-2.09,0.34-4.21,0.56-5.82
				c0.07-0.54,0.16-1.01,0.16-1.62C386.25,146.68,387,146.89,387.42,147.13z M387.87,142.57c0.09-0.09,0.2-0.14,0.34-0.09
				c1.33,0.52,2.45,1.21,3.53,2.14c0.09,0.07,0.13,0.13,0.13,0.2c0,0.05-0.04,0.13-0.09,0.22c-0.23,0.38-0.61,0.9-0.92,1.26
				c-0.07,0.09-0.14,0.14-0.2,0.14c-0.07,0-0.13-0.04-0.22-0.13c-1.01-0.88-2.21-1.71-3.64-2.34
				C387.24,143.33,387.58,142.86,387.87,142.57z"/>
			<path class="st3" d="M408.02,145.29c0.16-0.05,0.23-0.05,0.27,0.14c0.09,0.45,0.14,0.99,0.16,1.46c0,0.16-0.07,0.2-0.22,0.22
				c-0.97,0.2-1.85,0.32-2.97,0.49c-1.15,3.04-2.21,5.53-3.51,7.72c-0.07,0.13-0.13,0.18-0.2,0.18c-0.05,0-0.13-0.04-0.22-0.09
				c-0.41-0.25-0.94-0.63-1.24-0.92c-0.09-0.07-0.13-0.13-0.13-0.2c0-0.05,0.02-0.13,0.09-0.22c1.35-2.23,2.3-4.12,3.11-6.28
				c-0.68,0.04-1.24,0.04-1.8,0.04c-0.4,0-0.54,0-0.99-0.02c-0.18,0-0.22-0.05-0.25-0.29c-0.09-0.34-0.14-0.94-0.18-1.53
				c0.74,0.05,1.15,0.07,1.67,0.07c0.7,0,1.24-0.02,2.07-0.09c0.22-0.76,0.34-1.37,0.47-2.02c0.11-0.63,0.11-0.9,0.11-1.46
				c0.77,0.11,1.55,0.22,2.11,0.38c0.18,0.04,0.29,0.14,0.29,0.27c0,0.14-0.05,0.23-0.16,0.34c-0.11,0.14-0.18,0.31-0.29,0.67
				c-0.13,0.43-0.27,0.99-0.43,1.53C406.49,145.61,407.32,145.45,408.02,145.29z M408.53,150.11c-0.02-0.49-0.04-0.77-0.14-1.28
				c0.88,0.09,1.35,0.16,1.96,0.34c0.16,0.04,0.25,0.13,0.25,0.29c0,0.04-0.04,0.16-0.11,0.38c-0.07,0.22-0.09,0.43-0.07,0.74
				c0,1.06,0.05,1.84,0.2,3.06c1.3,0.52,2.18,0.92,3.24,1.67c0.18,0.13,0.2,0.2,0.11,0.38c-0.27,0.56-0.52,1.01-0.83,1.46
				c-0.05,0.09-0.11,0.13-0.16,0.13s-0.11-0.04-0.18-0.11c-0.79-0.68-1.46-1.08-2.2-1.51c0,1.8-1.3,2.63-3.35,2.63
				c-1.98,0-3.31-1.01-3.31-2.56c0-1.57,1.3-2.63,3.33-2.63c0.34,0,0.85,0.02,1.42,0.11C408.58,152.06,408.55,150.96,408.53,150.11z
				 M407.25,154.65c-0.9,0-1.6,0.36-1.6,1.04c0,0.58,0.5,0.86,1.53,0.86c0.97,0,1.57-0.52,1.57-1.28c0-0.16,0-0.25-0.02-0.36
				C408.29,154.78,407.81,154.65,407.25,154.65z M410.6,145.99c0.11-0.18,0.2-0.2,0.38-0.13c1.06,0.29,2.48,1.01,3.53,1.69
				c0.11,0.07,0.16,0.13,0.16,0.2c0,0.05-0.02,0.13-0.07,0.22c-0.18,0.4-0.5,0.95-0.76,1.33c-0.05,0.09-0.11,0.13-0.16,0.13
				c-0.05,0-0.09-0.02-0.16-0.07c-1.06-0.72-2.36-1.51-3.73-1.96C410.09,146.86,410.36,146.31,410.6,145.99z"/>
			<path class="st3" d="M419.48,145.31c0.16,0.07,0.29,0.2,0.29,0.32c0,0.11-0.05,0.29-0.14,0.5c-0.07,0.22-0.16,0.99-0.16,1.76
				c0,1.15,0.04,2.45,0.32,4.11c0.25,1.42,0.72,2.65,1.48,2.65c0.58,0,1.03-0.63,1.73-2.5c0.4,0.63,0.79,1.04,1.15,1.39
				c0.22,0.2,0.22,0.41,0.13,0.67c-0.68,1.84-1.8,2.81-3.06,2.81c-1.4,0-2.88-1.66-3.37-4.7c-0.29-1.71-0.43-3.58-0.43-5.24
				c0-0.99-0.04-1.53-0.22-2.36C418.06,144.82,418.94,145.04,419.48,145.31z M427.84,146.44c0.07-0.04,0.14-0.07,0.2-0.07
				c0.07,0,0.13,0.04,0.2,0.11c1.64,1.42,3.08,3.91,3.53,6.16c0.05,0.23-0.05,0.31-0.2,0.4c-0.47,0.31-0.92,0.56-1.4,0.72
				c-0.22,0.07-0.34,0.02-0.38-0.2c-0.61-2.58-1.53-4.45-3.37-6.28C427.1,146.84,427.55,146.58,427.84,146.44z"/>
		</g>
	</g>
	<g>
		<path class="st6" d="M190.89,323.22c-5.87-2.14-12.22-3.31-18.83-3.31c-19.68,0-36.95,10.33-46.68,25.87
			c-5.3,8.46-8.36,18.45-8.36,29.17c0,18.65,9.28,35.13,23.47,45.09c5.19,3.64,11.03,6.41,17.32,8.09
			c4.54,1.21,9.32,1.87,14.25,1.87c6.61,0,12.96-1.17,18.83-3.31c21.12-7.69,36.21-27.95,36.21-51.73
			C227.1,351.17,212.01,330.91,190.89,323.22z"/>
		<g>
			<g>
				<path class="st7" d="M149.74,492.3c0,11.04-3.35,15.52-9.44,15.52c-6.12,0-9.32-4.41-9.32-15.44c0-11.04,3.39-15.37,9.4-15.37
					S149.74,481.3,149.74,492.3z M136.01,492.34c0,8.78,1.21,11.62,4.29,11.62c3.16,0,4.41-2.89,4.41-11.62
					c0-8.78-1.21-11.47-4.33-11.47C137.34,480.87,136.01,483.53,136.01,492.34z"/>
				<path class="st7" d="M172.37,492.3c0,11.04-3.35,15.52-9.44,15.52c-6.12,0-9.32-4.41-9.32-15.44c0-11.04,3.39-15.37,9.4-15.37
					S172.37,481.3,172.37,492.3z M158.64,492.34c0,8.78,1.21,11.62,4.29,11.62c3.16,0,4.41-2.89,4.41-11.62
					c0-8.78-1.21-11.47-4.33-11.47C159.97,480.87,158.64,483.53,158.64,492.34z"/>
				<path class="st7" d="M181.69,507.28h-5.58v-5.38h5.58V507.28z"/>
				<path class="st7" d="M204.15,492.3c0,11.04-3.35,15.52-9.44,15.52c-6.12,0-9.32-4.41-9.32-15.44c0-11.04,3.39-15.37,9.4-15.37
					S204.15,481.3,204.15,492.3z M190.42,492.34c0,8.78,1.21,11.62,4.29,11.62c3.16,0,4.41-2.89,4.41-11.62
					c0-8.78-1.21-11.47-4.33-11.47C191.75,480.87,190.42,483.53,190.42,492.34z"/>
				<path class="st7" d="M211.17,499.7c0,1.68-0.9,2.61-2.21,2.61c-1.3,0-2.18-0.94-2.18-2.6c0-1.68,0.88-2.57,2.18-2.57
					C210.27,497.14,211.17,498.02,211.17,499.7z M208.02,499.71c0,1.13,0.31,1.72,0.94,1.72s0.95-0.58,0.95-1.72
					c0-1.12-0.31-1.68-0.95-1.68C208.34,498.03,208.02,498.59,208.02,499.71z M208.92,507.41h-0.79l6.12-10.27h0.78L208.92,507.41z
					 M216.42,504.79c0,1.68-0.9,2.61-2.18,2.61c-1.33,0-2.21-0.94-2.21-2.61c0-1.66,0.88-2.56,2.21-2.56
					C215.53,502.23,216.42,503.12,216.42,504.79z M213.29,504.81c0,1.13,0.31,1.72,0.95,1.72c0.61,0,0.94-0.58,0.94-1.72
					c0-1.12-0.31-1.69-0.94-1.69C213.6,503.12,213.29,503.69,213.29,504.81z"/>
			</g>
			
				<rect x="157.89" y="451.58" transform="matrix(1.622401e-10 -1 1 1.622401e-10 -280.3724 624.4869)" class="st2" width="28.34" height="1.71"/>
		</g>
		<g>
			<path class="st3" d="M163.02,358.2c1.19-0.38,2.11-0.5,3.17-0.5c2.32,0,3.8,1.35,3.8,3.33c0,2.32-1.71,3.75-4.65,3.75
				c-0.36,0-0.56,0-0.79-0.02c-0.32-0.02-0.41-0.11-0.49-0.32c-0.22-0.67-0.41-1.17-0.88-1.73c0.79,0.13,1.31,0.18,2,0.18
				c1.66,0,2.7-0.74,2.7-2c0-0.95-0.72-1.48-1.87-1.48c-0.95,0-1.71,0.2-2.67,0.5c-1.04,0.36-1.87,0.68-2.97,1.19
				c0.95,2.7,1.85,5.22,2.79,8.01c0.07,0.23,0.09,0.31-0.16,0.43c-0.45,0.23-0.97,0.41-1.55,0.58c-0.13,0.02-0.18-0.02-0.23-0.2
				c-0.85-2.86-1.62-5.29-2.59-8c-0.68,0.32-1.26,0.59-1.71,0.81s-0.65,0.34-0.94,0.56c-0.13,0.11-0.25,0.18-0.34,0.18
				c-0.11,0-0.29-0.09-0.43-0.27c-0.45-0.54-0.76-1.17-1.1-1.76c0.81-0.14,1.12-0.23,1.76-0.47c0.4-0.14,1.01-0.36,2.09-0.83
				c-0.22-0.65-0.47-1.37-0.83-2.32c-0.13-0.32-0.36-0.86-0.83-1.5c0.77-0.16,1.71-0.27,2.41-0.27c0.16,0,0.27,0.13,0.27,0.38
				c0,0.23,0.04,0.36,0.07,0.59c0.11,0.4,0.16,0.67,0.36,1.39c0.13,0.45,0.23,0.72,0.32,0.95
				C160.89,358.92,162.01,358.51,163.02,358.2z M162.57,354.55c0.09-0.05,0.14-0.07,0.2-0.07c0.05,0,0.11,0.02,0.2,0.07
				c0.58,0.38,1.4,0.99,1.94,1.64c0.05,0.07,0.09,0.13,0.09,0.2c0,0.07-0.04,0.13-0.09,0.2c-0.32,0.36-0.74,0.7-1.19,0.99
				c-0.05,0.04-0.11,0.07-0.16,0.07c-0.04,0-0.09-0.04-0.14-0.09c-0.63-0.72-1.3-1.4-2.23-1.98
				C161.68,355.18,162.19,354.78,162.57,354.55z"/>
			<path class="st3" d="M180.82,358.2c1.19-0.38,2.11-0.5,3.17-0.5c2.32,0,3.8,1.35,3.8,3.33c0,2.32-1.71,3.75-4.65,3.75
				c-0.36,0-0.56,0-0.79-0.02c-0.32-0.02-0.41-0.11-0.49-0.32c-0.22-0.67-0.41-1.17-0.88-1.73c0.79,0.13,1.31,0.18,2,0.18
				c1.66,0,2.7-0.74,2.7-2c0-0.95-0.72-1.48-1.87-1.48c-0.95,0-1.71,0.2-2.67,0.5c-1.04,0.36-1.87,0.68-2.97,1.19
				c0.95,2.7,1.85,5.22,2.79,8.01c0.07,0.23,0.09,0.31-0.16,0.43c-0.45,0.23-0.97,0.41-1.55,0.58c-0.13,0.02-0.18-0.02-0.23-0.2
				c-0.85-2.86-1.62-5.29-2.59-8c-0.68,0.32-1.26,0.59-1.71,0.81s-0.65,0.34-0.94,0.56c-0.13,0.11-0.25,0.18-0.34,0.18
				c-0.11,0-0.29-0.09-0.43-0.27c-0.45-0.54-0.76-1.17-1.1-1.76c0.81-0.14,1.12-0.23,1.76-0.47c0.4-0.14,1.01-0.36,2.09-0.83
				c-0.22-0.65-0.47-1.37-0.83-2.32c-0.13-0.32-0.36-0.86-0.83-1.5c0.77-0.16,1.71-0.27,2.41-0.27c0.16,0,0.27,0.13,0.27,0.38
				c0,0.23,0.04,0.36,0.07,0.59c0.11,0.4,0.16,0.67,0.36,1.39c0.13,0.45,0.23,0.72,0.32,0.95
				C178.7,358.92,179.81,358.51,180.82,358.2z M180.37,354.55c0.09-0.05,0.14-0.07,0.2-0.07c0.05,0,0.11,0.02,0.2,0.07
				c0.58,0.38,1.4,0.99,1.94,1.64c0.05,0.07,0.09,0.13,0.09,0.2c0,0.07-0.04,0.13-0.09,0.2c-0.32,0.36-0.74,0.7-1.19,0.99
				c-0.05,0.04-0.11,0.07-0.16,0.07c-0.04,0-0.09-0.04-0.14-0.09c-0.63-0.72-1.3-1.4-2.23-1.98
				C179.49,355.18,179.99,354.78,180.37,354.55z"/>
			<path class="st3" d="M140.18,385.35c0.23,0.07,0.27,0.14,0.22,0.29c-0.43,1.51-1.01,2.81-1.78,3.96
				c-0.05,0.09-0.09,0.13-0.14,0.13c-0.05,0-0.11-0.04-0.2-0.09l-1.17-0.76c-0.23-0.14-0.25-0.22-0.13-0.38
				c0.76-1.06,1.33-2.09,1.69-3.46c0.05-0.2,0.07-0.18,0.31-0.09L140.18,385.35z M148.66,375.27c1.75,0,2.38-0.04,2.5-0.04
				c0.18,0,0.2,0.02,0.2,0.2c0,0.11-0.04,0.67-0.04,1.91v3.85c0,1.24,0.04,1.8,0.04,1.91c0,0.2-0.02,0.22-0.2,0.22
				c-0.13,0-0.76-0.04-2.5-0.04h-6.91c-1.75,0-2.38,0.04-2.5,0.04c-0.18,0-0.2-0.02-0.2-0.22c0-0.11,0.04-0.67,0.04-1.91v-3.85
				c0-1.24-0.04-1.8-0.04-1.91c0-0.18,0.02-0.2,0.2-0.2c0.13,0,0.76,0.04,2.5,0.04H148.66z M144.21,378.54v-1.71h-3.28v1.71H144.21z
				 M144.21,381.75v-1.76h-3.28v1.76H144.21z M143.35,387.92c0,0.41,0.05,0.61,0.27,0.74c0.25,0.14,0.77,0.2,1.64,0.2
				c1.17,0,1.87-0.05,2.27-0.36c0.31-0.23,0.47-0.83,0.49-1.8c0.38,0.22,0.86,0.4,1.39,0.54c0.45,0.13,0.47,0.14,0.41,0.61
				c-0.18,1.3-0.5,1.91-1.06,2.23c-0.68,0.4-1.71,0.49-3.64,0.49c-1.64,0-2.52-0.13-3.01-0.41c-0.36-0.23-0.63-0.63-0.63-1.53v-2.65
				c0-0.52-0.02-0.97-0.09-1.49c0.59,0,1.3,0.05,1.84,0.11c0.23,0.04,0.32,0.13,0.32,0.22c0,0.11-0.02,0.18-0.09,0.31
				c-0.07,0.14-0.11,0.38-0.11,0.77V387.92z M144.99,383.53c0.16-0.13,0.23-0.11,0.38,0c0.76,0.56,1.53,1.37,2.18,2.14
				c0.11,0.14,0.07,0.22-0.11,0.36l-0.99,0.79c-0.2,0.14-0.25,0.16-0.36,0.02c-0.58-0.86-1.37-1.71-2.05-2.3
				c-0.07-0.07-0.09-0.11-0.09-0.16c0-0.05,0.04-0.11,0.14-0.18L144.99,383.53z M146.03,376.83v1.71h3.44v-1.71H146.03z
				 M149.47,379.98h-3.44v1.76h3.44V379.98z M150.93,384.74c0.2-0.11,0.25-0.09,0.36,0.05c0.86,1.12,1.53,2.21,2.11,3.42
				c0.07,0.16,0.05,0.23-0.14,0.34l-1.21,0.65c-0.11,0.05-0.18,0.09-0.23,0.09c-0.05,0-0.09-0.04-0.13-0.13
				c-0.54-1.33-1.17-2.38-2.02-3.55c-0.09-0.14-0.09-0.16,0.13-0.29L150.93,384.74z"/>
			<path class="st3" d="M160.93,381.44c1.62-1.33,3.28-2.11,5.17-2.11c2.72,0,4.48,1.85,4.48,4.57c0,2.77-1.69,4.68-4.79,5.8
				c-0.11,0.05-0.22,0.07-0.31,0.07c-0.18,0-0.34-0.09-0.47-0.25c-0.38-0.45-0.79-0.81-1.42-1.19c1.75-0.47,2.67-0.97,3.62-1.78
				c0.83-0.74,1.22-1.64,1.22-2.72c0-1.69-0.95-2.79-2.68-2.79c-1.66,0-3.06,0.79-4.83,2.3c0.02,2.3,0.07,4.48,0.11,6.91
				c0,0.14-0.09,0.22-0.23,0.22c-0.2,0.02-1.01,0.07-1.6,0.07c-0.16,0-0.22-0.07-0.2-0.25c0.02-1.84,0.05-3.73,0.09-5.56
				c-0.86,1.3-1.76,2.61-2.43,3.57c-0.09,0.11-0.16,0.18-0.25,0.18c-0.05,0-0.13-0.04-0.2-0.11c-0.41-0.36-0.76-0.7-1.1-1.08
				c-0.07-0.05-0.11-0.13-0.11-0.2c0-0.07,0.04-0.14,0.11-0.22c1.58-1.93,2.61-3.21,3.96-5.06c0-0.45,0-0.94,0.02-1.28
				c-0.52,0.16-1.37,0.41-2.05,0.67c-0.31,0.13-0.49,0.31-0.59,0.31c-0.13,0-0.25-0.11-0.36-0.32c-0.22-0.41-0.49-0.97-0.72-1.58
				c0.43-0.04,0.7-0.07,1.22-0.18c0.47-0.11,1.17-0.27,2.56-0.65c0.04-0.77,0.04-1.57,0.04-2.34c0-0.45-0.04-0.97-0.18-1.57
				c1.04,0.11,1.64,0.18,2.09,0.31c0.38,0.11,0.45,0.31,0.32,0.63c-0.09,0.22-0.14,0.49-0.18,0.77c-0.02,0.43-0.05,0.85-0.09,1.62
				c0.05-0.02,0.09-0.04,0.14-0.05c0.04-0.02,0.09-0.04,0.13-0.04c0.13,0,0.32,0.18,0.49,0.41c0.22,0.29,0.29,0.43,0.29,0.56
				s-0.04,0.2-0.31,0.5c-0.25,0.32-0.52,0.67-0.95,1.3V381.44z"/>
			<path class="st3" d="M180.88,377.61c0.16-0.05,0.23-0.05,0.27,0.14c0.09,0.45,0.14,0.99,0.16,1.46c0,0.16-0.07,0.2-0.22,0.22
				c-0.97,0.2-1.85,0.32-2.97,0.49c-1.15,3.04-2.21,5.53-3.51,7.72c-0.07,0.13-0.13,0.18-0.2,0.18c-0.05,0-0.13-0.04-0.22-0.09
				c-0.41-0.25-0.94-0.63-1.24-0.92c-0.09-0.07-0.13-0.13-0.13-0.2c0-0.05,0.02-0.13,0.09-0.22c1.35-2.23,2.3-4.12,3.11-6.28
				c-0.68,0.04-1.24,0.04-1.8,0.04c-0.4,0-0.54,0-0.99-0.02c-0.18,0-0.22-0.05-0.25-0.29c-0.09-0.34-0.14-0.94-0.18-1.53
				c0.74,0.05,1.15,0.07,1.67,0.07c0.7,0,1.24-0.02,2.07-0.09c0.22-0.76,0.34-1.37,0.47-2.02c0.11-0.63,0.11-0.9,0.11-1.46
				c0.77,0.11,1.55,0.22,2.11,0.38c0.18,0.04,0.29,0.14,0.29,0.27c0,0.14-0.05,0.23-0.16,0.34c-0.11,0.14-0.18,0.31-0.29,0.67
				c-0.13,0.43-0.27,0.99-0.43,1.53C179.35,377.93,180.18,377.77,180.88,377.61z M181.38,382.43c-0.02-0.49-0.04-0.77-0.14-1.28
				c0.88,0.09,1.35,0.16,1.96,0.34c0.16,0.04,0.25,0.13,0.25,0.29c0,0.04-0.04,0.16-0.11,0.38c-0.07,0.22-0.09,0.43-0.07,0.74
				c0,1.06,0.05,1.84,0.2,3.06c1.3,0.52,2.18,0.92,3.24,1.67c0.18,0.13,0.2,0.2,0.11,0.38c-0.27,0.56-0.52,1.01-0.83,1.46
				c-0.05,0.09-0.11,0.13-0.16,0.13s-0.11-0.04-0.18-0.11c-0.79-0.68-1.46-1.08-2.2-1.51c0,1.8-1.3,2.63-3.35,2.63
				c-1.98,0-3.31-1.01-3.31-2.56c0-1.57,1.3-2.63,3.33-2.63c0.34,0,0.85,0.02,1.42,0.11C181.44,384.38,181.4,383.28,181.38,382.43z
				 M180.1,386.97c-0.9,0-1.6,0.36-1.6,1.04c0,0.58,0.5,0.86,1.53,0.86c0.97,0,1.57-0.52,1.57-1.28c0-0.16,0-0.25-0.02-0.36
				C181.15,387.1,180.66,386.97,180.1,386.97z M183.45,378.31c0.11-0.18,0.2-0.2,0.38-0.13c1.06,0.29,2.48,1.01,3.53,1.69
				c0.11,0.07,0.16,0.13,0.16,0.2c0,0.05-0.02,0.13-0.07,0.22c-0.18,0.4-0.5,0.95-0.76,1.33c-0.05,0.09-0.11,0.13-0.16,0.13
				s-0.09-0.02-0.16-0.07c-1.06-0.72-2.36-1.51-3.73-1.96C182.95,379.17,183.22,378.63,183.45,378.31z"/>
			<path class="st3" d="M192.34,377.62c0.16,0.07,0.29,0.2,0.29,0.32c0,0.11-0.05,0.29-0.14,0.5c-0.07,0.22-0.16,0.99-0.16,1.76
				c0,1.15,0.04,2.45,0.32,4.11c0.25,1.42,0.72,2.65,1.48,2.65c0.58,0,1.03-0.63,1.73-2.5c0.4,0.63,0.79,1.04,1.15,1.39
				c0.22,0.2,0.22,0.41,0.13,0.67c-0.68,1.84-1.8,2.81-3.06,2.81c-1.4,0-2.88-1.66-3.37-4.7c-0.29-1.71-0.43-3.58-0.43-5.24
				c0-0.99-0.04-1.53-0.22-2.36C190.91,377.14,191.8,377.36,192.34,377.62z M200.69,378.76c0.07-0.04,0.14-0.07,0.2-0.07
				c0.07,0,0.13,0.04,0.2,0.11c1.64,1.42,3.08,3.91,3.53,6.16c0.05,0.23-0.05,0.31-0.2,0.4c-0.47,0.31-0.92,0.56-1.4,0.72
				c-0.22,0.07-0.34,0.02-0.38-0.2c-0.61-2.58-1.53-4.45-3.37-6.28C199.95,379.16,200.4,378.9,200.69,378.76z"/>
		</g>
	</g>
	<g>
		<path class="st8" d="M336.27,323.22c-5.87-2.14-12.22-3.31-18.83-3.31c-19.68,0-36.95,10.33-46.68,25.87
			c-5.3,8.46-8.36,18.45-8.36,29.17c0,18.65,9.28,35.13,23.47,45.09c5.19,3.64,11.03,6.41,17.32,8.09
			c4.54,1.21,9.32,1.87,14.25,1.87c6.61,0,12.96-1.17,18.83-3.31c21.12-7.69,36.21-27.95,36.21-51.73
			C372.48,351.17,357.4,330.91,336.27,323.22z"/>
		<g>
			<g>
				<path class="st7" d="M295.13,492.3c0,11.04-3.35,15.52-9.44,15.52c-6.12,0-9.32-4.41-9.32-15.44c0-11.04,3.39-15.37,9.4-15.37
					S295.13,481.3,295.13,492.3z M281.4,492.34c0,8.78,1.21,11.62,4.29,11.62c3.16,0,4.41-2.89,4.41-11.62
					c0-8.78-1.21-11.47-4.33-11.47C282.73,480.87,281.4,483.53,281.4,492.34z"/>
				<path class="st7" d="M317.76,492.3c0,11.04-3.35,15.52-9.44,15.52c-6.12,0-9.32-4.41-9.32-15.44c0-11.04,3.39-15.37,9.4-15.37
					S317.76,481.3,317.76,492.3z M304.03,492.34c0,8.78,1.21,11.62,4.29,11.62c3.16,0,4.41-2.89,4.41-11.62
					c0-8.78-1.21-11.47-4.33-11.47C305.35,480.87,304.03,483.53,304.03,492.34z"/>
				<path class="st7" d="M327.08,507.28h-5.58v-5.38h5.58V507.28z"/>
				<path class="st7" d="M349.54,492.3c0,11.04-3.35,15.52-9.44,15.52c-6.12,0-9.32-4.41-9.32-15.44c0-11.04,3.39-15.37,9.4-15.37
					S349.54,481.3,349.54,492.3z M335.81,492.34c0,8.78,1.21,11.62,4.29,11.62c3.16,0,4.41-2.89,4.41-11.62
					c0-8.78-1.21-11.47-4.33-11.47C337.13,480.87,335.81,483.53,335.81,492.34z"/>
				<path class="st7" d="M356.56,499.7c0,1.68-0.9,2.61-2.21,2.61c-1.3,0-2.18-0.94-2.18-2.6c0-1.68,0.88-2.57,2.18-2.57
					C355.66,497.14,356.56,498.02,356.56,499.7z M353.41,499.71c0,1.13,0.31,1.72,0.94,1.72s0.95-0.58,0.95-1.72
					c0-1.12-0.31-1.68-0.95-1.68C353.72,498.03,353.41,498.59,353.41,499.71z M354.31,507.41h-0.79l6.12-10.27h0.78L354.31,507.41z
					 M361.81,504.79c0,1.68-0.9,2.61-2.18,2.61c-1.33,0-2.21-0.94-2.21-2.61c0-1.66,0.88-2.56,2.21-2.56
					C360.91,502.23,361.81,503.12,361.81,504.79z M358.68,504.81c0,1.13,0.31,1.72,0.95,1.72c0.61,0,0.94-0.58,0.94-1.72
					c0-1.12-0.31-1.69-0.94-1.69C358.99,503.12,358.68,503.69,358.68,504.81z"/>
			</g>
			
				<rect x="303.27" y="451.58" transform="matrix(1.622401e-10 -1 1 1.622401e-10 -134.986 769.8734)" class="st2" width="28.34" height="1.71"/>
		</g>
		<g>
			<path class="st3" d="M286.86,376.38c0.23,0.07,0.27,0.14,0.22,0.29c-0.43,1.51-1.01,2.81-1.78,3.96
				c-0.05,0.09-0.09,0.13-0.14,0.13c-0.05,0-0.11-0.04-0.2-0.09l-1.17-0.76c-0.23-0.14-0.25-0.22-0.13-0.38
				c0.76-1.06,1.33-2.09,1.69-3.46c0.05-0.2,0.07-0.18,0.31-0.09L286.86,376.38z M295.34,366.29c1.75,0,2.38-0.04,2.5-0.04
				c0.18,0,0.2,0.02,0.2,0.2c0,0.11-0.04,0.67-0.04,1.91v3.85c0,1.24,0.04,1.8,0.04,1.91c0,0.2-0.02,0.22-0.2,0.22
				c-0.13,0-0.76-0.04-2.5-0.04h-6.91c-1.75,0-2.38,0.04-2.5,0.04c-0.18,0-0.2-0.02-0.2-0.22c0-0.11,0.04-0.67,0.04-1.91v-3.85
				c0-1.24-0.04-1.8-0.04-1.91c0-0.18,0.02-0.2,0.2-0.2c0.13,0,0.76,0.04,2.5,0.04H295.34z M290.9,369.57v-1.71h-3.28v1.71H290.9z
				 M290.9,372.78v-1.76h-3.28v1.76H290.9z M290.03,378.95c0,0.41,0.05,0.61,0.27,0.74c0.25,0.14,0.77,0.2,1.64,0.2
				c1.17,0,1.87-0.05,2.27-0.36c0.31-0.23,0.47-0.83,0.49-1.8c0.38,0.22,0.86,0.4,1.39,0.54c0.45,0.13,0.47,0.14,0.41,0.61
				c-0.18,1.3-0.5,1.91-1.06,2.23c-0.68,0.4-1.71,0.49-3.64,0.49c-1.64,0-2.52-0.13-3.01-0.41c-0.36-0.23-0.63-0.63-0.63-1.53v-2.65
				c0-0.52-0.02-0.97-0.09-1.49c0.59,0,1.3,0.05,1.84,0.11c0.23,0.04,0.32,0.13,0.32,0.22c0,0.11-0.02,0.18-0.09,0.31
				c-0.07,0.14-0.11,0.38-0.11,0.77V378.95z M291.67,374.56c0.16-0.13,0.23-0.11,0.38,0c0.76,0.56,1.53,1.37,2.18,2.14
				c0.11,0.14,0.07,0.22-0.11,0.36l-0.99,0.79c-0.2,0.14-0.25,0.16-0.36,0.02c-0.58-0.86-1.37-1.71-2.05-2.3
				c-0.07-0.07-0.09-0.11-0.09-0.16c0-0.05,0.04-0.11,0.14-0.18L291.67,374.56z M292.72,367.86v1.71h3.44v-1.71H292.72z
				 M296.16,371.01h-3.44v1.76h3.44V371.01z M297.61,375.76c0.2-0.11,0.25-0.09,0.36,0.05c0.86,1.12,1.53,2.21,2.11,3.42
				c0.07,0.16,0.05,0.23-0.14,0.34l-1.21,0.65c-0.11,0.05-0.18,0.09-0.23,0.09c-0.05,0-0.09-0.04-0.13-0.13
				c-0.54-1.33-1.17-2.38-2.02-3.55c-0.09-0.14-0.09-0.16,0.13-0.29L297.61,375.76z"/>
			<path class="st3" d="M307.61,372.47c1.62-1.33,3.28-2.11,5.17-2.11c2.72,0,4.48,1.85,4.48,4.57c0,2.77-1.69,4.68-4.79,5.8
				c-0.11,0.05-0.22,0.07-0.31,0.07c-0.18,0-0.34-0.09-0.47-0.25c-0.38-0.45-0.79-0.81-1.42-1.19c1.75-0.47,2.67-0.97,3.62-1.78
				c0.83-0.74,1.22-1.64,1.22-2.72c0-1.69-0.95-2.79-2.68-2.79c-1.66,0-3.06,0.79-4.83,2.3c0.02,2.3,0.07,4.48,0.11,6.91
				c0,0.14-0.09,0.22-0.23,0.22c-0.2,0.02-1.01,0.07-1.6,0.07c-0.16,0-0.22-0.07-0.2-0.25c0.02-1.84,0.05-3.73,0.09-5.56
				c-0.86,1.3-1.76,2.61-2.43,3.57c-0.09,0.11-0.16,0.18-0.25,0.18c-0.05,0-0.13-0.04-0.2-0.11c-0.41-0.36-0.76-0.7-1.1-1.08
				c-0.07-0.05-0.11-0.13-0.11-0.2c0-0.07,0.04-0.14,0.11-0.22c1.58-1.93,2.61-3.21,3.96-5.06c0-0.45,0-0.94,0.02-1.28
				c-0.52,0.16-1.37,0.41-2.05,0.67c-0.31,0.13-0.49,0.31-0.59,0.31c-0.13,0-0.25-0.11-0.36-0.32c-0.22-0.41-0.49-0.97-0.72-1.58
				c0.43-0.04,0.7-0.07,1.22-0.18c0.47-0.11,1.17-0.27,2.56-0.65c0.04-0.77,0.04-1.57,0.04-2.34c0-0.45-0.04-0.97-0.18-1.57
				c1.04,0.11,1.64,0.18,2.09,0.31c0.38,0.11,0.45,0.31,0.32,0.63c-0.09,0.22-0.14,0.49-0.18,0.77c-0.02,0.43-0.05,0.85-0.09,1.62
				c0.05-0.02,0.09-0.04,0.14-0.05c0.04-0.02,0.09-0.04,0.13-0.04c0.13,0,0.32,0.18,0.49,0.41c0.22,0.29,0.29,0.43,0.29,0.56
				s-0.04,0.2-0.31,0.5c-0.25,0.32-0.52,0.67-0.95,1.3V372.47z"/>
			<path class="st3" d="M327.56,368.63c0.16-0.05,0.23-0.05,0.27,0.14c0.09,0.45,0.14,0.99,0.16,1.46c0,0.16-0.07,0.2-0.22,0.22
				c-0.97,0.2-1.85,0.32-2.97,0.49c-1.15,3.04-2.21,5.53-3.51,7.72c-0.07,0.13-0.13,0.18-0.2,0.18c-0.05,0-0.13-0.04-0.22-0.09
				c-0.41-0.25-0.94-0.63-1.24-0.92c-0.09-0.07-0.13-0.13-0.13-0.2c0-0.05,0.02-0.13,0.09-0.22c1.35-2.23,2.3-4.12,3.11-6.28
				c-0.68,0.04-1.24,0.04-1.8,0.04c-0.4,0-0.54,0-0.99-0.02c-0.18,0-0.22-0.05-0.25-0.29c-0.09-0.34-0.14-0.94-0.18-1.53
				c0.74,0.05,1.15,0.07,1.67,0.07c0.7,0,1.24-0.02,2.07-0.09c0.22-0.76,0.34-1.37,0.47-2.02c0.11-0.63,0.11-0.9,0.11-1.46
				c0.77,0.11,1.55,0.22,2.11,0.38c0.18,0.04,0.29,0.14,0.29,0.27c0,0.14-0.05,0.23-0.16,0.34c-0.11,0.14-0.18,0.31-0.29,0.67
				c-0.13,0.43-0.27,0.99-0.43,1.53C326.03,368.96,326.86,368.8,327.56,368.63z M328.07,373.46c-0.02-0.49-0.04-0.77-0.14-1.28
				c0.88,0.09,1.35,0.16,1.96,0.34c0.16,0.04,0.25,0.13,0.25,0.29c0,0.04-0.04,0.16-0.11,0.38c-0.07,0.22-0.09,0.43-0.07,0.74
				c0,1.06,0.05,1.84,0.2,3.06c1.3,0.52,2.18,0.92,3.24,1.67c0.18,0.13,0.2,0.2,0.11,0.38c-0.27,0.56-0.52,1.01-0.83,1.46
				c-0.05,0.09-0.11,0.13-0.16,0.13s-0.11-0.04-0.18-0.11c-0.79-0.68-1.46-1.08-2.2-1.51c0,1.8-1.3,2.63-3.35,2.63
				c-1.98,0-3.31-1.01-3.31-2.56c0-1.57,1.3-2.63,3.33-2.63c0.34,0,0.85,0.02,1.42,0.11C328.12,375.4,328.09,374.31,328.07,373.46z
				 M326.79,378c-0.9,0-1.6,0.36-1.6,1.04c0,0.58,0.5,0.86,1.53,0.86c0.97,0,1.57-0.52,1.57-1.28c0-0.16,0-0.25-0.02-0.36
				C327.83,378.12,327.35,378,326.79,378z M330.14,369.34c0.11-0.18,0.2-0.2,0.38-0.13c1.06,0.29,2.48,1.01,3.53,1.69
				c0.11,0.07,0.16,0.13,0.16,0.2c0,0.05-0.02,0.13-0.07,0.22c-0.18,0.4-0.5,0.95-0.76,1.33c-0.05,0.09-0.11,0.13-0.16,0.13
				c-0.05,0-0.09-0.02-0.16-0.07c-1.06-0.72-2.36-1.51-3.73-1.96C329.63,370.2,329.9,369.66,330.14,369.34z"/>
			<path class="st3" d="M339.02,368.65c0.16,0.07,0.29,0.2,0.29,0.32c0,0.11-0.05,0.29-0.14,0.5c-0.07,0.22-0.16,0.99-0.16,1.76
				c0,1.15,0.04,2.45,0.32,4.11c0.25,1.42,0.72,2.65,1.48,2.65c0.58,0,1.03-0.63,1.73-2.5c0.4,0.63,0.79,1.04,1.15,1.39
				c0.22,0.2,0.22,0.41,0.13,0.67c-0.68,1.84-1.8,2.81-3.06,2.81c-1.4,0-2.88-1.66-3.37-4.7c-0.29-1.71-0.43-3.58-0.43-5.24
				c0-0.99-0.04-1.53-0.22-2.36C337.6,368.17,338.48,368.38,339.02,368.65z M347.38,369.79c0.07-0.04,0.14-0.07,0.2-0.07
				c0.07,0,0.13,0.04,0.2,0.11c1.64,1.42,3.08,3.91,3.53,6.16c0.05,0.23-0.05,0.31-0.2,0.4c-0.47,0.31-0.92,0.56-1.4,0.72
				c-0.22,0.07-0.34,0.02-0.38-0.2c-0.61-2.58-1.53-4.45-3.37-6.28C346.64,370.18,347.09,369.93,347.38,369.79z"/>
		</g>
	</g>
</g>
</svg>
