<?xml version="1.0" encoding="utf-8"?>
<!-- Generator: Adobe Illustrator 23.0.6, SVG Export Plug-In . SVG Version: 6.00 Build 0)  -->
<svg version="1.1" id="レイヤー_1" xmlns="http://www.w3.org/2000/svg" xmlns:xlink="http://www.w3.org/1999/xlink" x="0px"
	 y="0px" viewBox="0 0 489.5 550" style="enable-background:new 0 0 489.5 550;" xml:space="preserve">
<style type="text/css">
	.st0{fill:#35AEE9;}
	.st1{fill:#FFFFFF;}
	.st2{fill:#E8C31F;}
	.st3{fill:#029AE4;}
	.st4{fill:#E6F5FC;}
</style>
<g>
	<g>
		<rect class="st0" width="489.5" height="550"/>
	</g>
	<g>
		<g>
			<path class="st1" d="M81.02,56.86c2.68,0.84,4.82,1.69,7,2.99c0.24,0.13,0.35,0.29,0.24,0.57c-0.29,0.73-0.64,1.41-0.95,1.91
				c-0.09,0.15-0.18,0.24-0.29,0.24c-0.07,0-0.15-0.02-0.24-0.11c-2.02-1.3-4-2.27-5.79-2.82v4.86c0,1.43,0.04,2.73,0.09,4.31
				c0.02,0.26-0.09,0.33-0.4,0.33c-0.64,0.04-1.32,0.04-1.96,0c-0.31,0-0.42-0.07-0.42-0.33c0.07-1.63,0.09-2.93,0.09-4.33V53.67
				c0-1.65-0.07-2.38-0.22-3.26c1.01,0.07,2.11,0.18,2.75,0.35c0.31,0.07,0.42,0.2,0.42,0.37c0,0.13-0.07,0.31-0.18,0.51
				c-0.15,0.29-0.15,0.84-0.15,2.07V56.86z M86.15,51.45c0.11-0.09,0.2-0.07,0.33,0.04c0.68,0.53,1.47,1.41,2.09,2.35
				c0.09,0.13,0.09,0.24-0.07,0.35l-0.92,0.68c-0.15,0.11-0.26,0.09-0.37-0.07c-0.66-1.01-1.36-1.85-2.22-2.55L86.15,51.45z
				 M88.11,50.02c0.13-0.09,0.2-0.07,0.33,0.04c0.81,0.62,1.61,1.5,2.09,2.27c0.09,0.13,0.11,0.26-0.07,0.4l-0.88,0.68
				c-0.18,0.13-0.29,0.07-0.37-0.07c-0.59-0.95-1.3-1.78-2.2-2.53L88.11,50.02z"/>
			<path class="st1" d="M99.04,54.4c0-1.52-0.07-2.35-0.24-3.21c0.92,0.11,2.09,0.24,2.73,0.46c0.26,0.07,0.37,0.2,0.37,0.35
				c0,0.11-0.04,0.22-0.09,0.33c-0.2,0.42-0.24,0.97-0.24,2.09v4.44c0,1.14,0.04,2,0.07,2.77c0,0.33-0.13,0.44-0.48,0.44h-1.76
				c-0.31,0-0.44-0.11-0.42-0.37c0-0.77,0.07-2.05,0.07-2.99V54.4z M109.41,58.51c0,3.26-0.48,5.43-1.78,7.17
				c-1.08,1.43-2.99,2.77-4.84,3.45c-0.18,0.07-0.33,0.11-0.46,0.11c-0.18,0-0.33-0.07-0.53-0.26c-0.53-0.53-1.1-0.95-1.87-1.34
				c2.35-0.73,4.2-1.76,5.37-3.21c1.01-1.25,1.47-3.08,1.47-5.87V54.4c0-1.89-0.04-2.6-0.24-3.59c1.06,0.09,2.11,0.24,2.86,0.48
				c0.22,0.07,0.31,0.2,0.31,0.37c0,0.11-0.02,0.24-0.09,0.35c-0.2,0.46-0.2,1.03-0.2,2.4V58.51z"/>
			<path class="st1" d="M121.61,61.37c-2.18,0-3.01,0.26-3.23,0.26c-0.26,0-0.44-0.13-0.51-0.46c-0.11-0.51-0.24-1.54-0.33-2.66
				c1.43,0.22,2.53,0.26,4.75,0.26h7.08c1.67,0,3.37-0.04,5.06-0.07c0.33-0.02,0.4,0.04,0.4,0.31c0.04,0.66,0.04,1.41,0,2.07
				c0,0.26-0.09,0.35-0.4,0.33c-1.65-0.02-3.28-0.04-4.91-0.04H121.61z"/>
			<path class="st1" d="M149.47,52.02c0.15,0.11,0.26,0.22,0.26,0.35c0,0.11-0.07,0.26-0.22,0.44c-0.4,0.51-0.66,1.19-0.9,1.83
				c-1.23,3.37-2.4,6.6-3.78,9.9c3.39-0.29,5.24-0.46,7.7-0.84c-0.68-1.21-1.5-2.42-2.44-3.52c0.66-0.35,1.3-0.73,1.91-1.06
				c0.24-0.13,0.37-0.04,0.53,0.13c1.72,2,3.37,4.75,4.44,7.19c0.07,0.11,0.09,0.2,0.09,0.29c0,0.13-0.09,0.26-0.29,0.37
				c-0.53,0.35-1.08,0.64-1.67,0.9c-0.09,0.04-0.18,0.07-0.26,0.07c-0.13,0-0.24-0.11-0.31-0.31c-0.26-0.62-0.51-1.19-0.77-1.76
				c-3.52,0.53-6.87,0.9-10.45,1.28c-1.45,0.15-2.05,0.26-2.57,0.53c-0.29,0.13-0.53,0.09-0.64-0.22c-0.18-0.37-0.46-1.47-0.77-2.84
				c0.88,0.07,1.8,0.04,2.68,0.02c1.56-3.94,2.71-7.2,3.85-10.89c0.35-1.14,0.57-1.91,0.64-3.01
				C147.84,51.27,148.78,51.58,149.47,52.02z"/>
			<path class="st1" d="M166.65,58.16c1.94-0.64,3.61-1.28,5.37-2.13c1.19-0.57,1.74-0.92,2.35-1.58c0.77,0.64,1.5,1.54,1.83,1.98
				c0.11,0.13,0.18,0.26,0.18,0.4c0,0.18-0.11,0.33-0.37,0.4c-0.62,0.15-1.23,0.46-1.83,0.73c-2.18,0.99-4.64,1.87-7.55,2.73v2.93
				c0,1.03,0.15,1.39,0.73,1.56c0.57,0.15,1.43,0.24,2.77,0.24c2.07,0,3.92-0.15,6.21-0.51c0.33-0.04,0.37,0.04,0.4,0.31
				c0.07,0.62,0.13,1.45,0.13,1.91c0,0.29-0.13,0.37-0.46,0.4c-2.49,0.31-3.76,0.4-6.54,0.4c-1.96,0-3.26-0.2-4.18-0.59
				c-1.1-0.46-1.56-1.5-1.56-3.3v-8.12c0-2.09-0.04-2.93-0.22-4.03c1.03,0.11,2.07,0.24,2.77,0.44c0.26,0.07,0.35,0.2,0.35,0.35
				c0,0.15-0.07,0.31-0.15,0.46c-0.18,0.35-0.22,0.95-0.22,1.98V58.16z M175.85,51.8c0.11-0.09,0.2-0.07,0.33,0.04
				c0.68,0.53,1.47,1.41,2.09,2.35c0.09,0.13,0.09,0.24-0.07,0.35l-0.92,0.68c-0.15,0.11-0.26,0.09-0.37-0.07
				c-0.66-1.01-1.36-1.85-2.22-2.55L175.85,51.8z M177.8,50.37c0.13-0.09,0.2-0.07,0.33,0.04c0.81,0.62,1.61,1.5,2.09,2.27
				c0.09,0.13,0.11,0.26-0.07,0.4l-0.88,0.68c-0.18,0.13-0.29,0.07-0.37-0.07c-0.59-0.95-1.3-1.78-2.2-2.53L177.8,50.37z"/>
			<path class="st1" d="M184.58,56.95c0.11-0.15,0.22-0.26,0.42-0.22c1.65,0.55,2.97,1.25,4.22,2.16c0.15,0.11,0.24,0.2,0.24,0.33
				c0,0.07-0.04,0.15-0.09,0.24c-0.24,0.59-0.62,1.17-0.97,1.67c-0.11,0.13-0.2,0.22-0.29,0.22c-0.09,0-0.15-0.04-0.26-0.13
				c-1.41-1.03-2.84-1.76-4.44-2.4C183.96,57.94,184.31,57.3,184.58,56.95z M188.14,65.11c2.09-1.1,3.89-2.13,6.03-3.81
				c1.76-1.34,4.11-3.45,6.34-6.14c0.13,0.97,0.31,1.52,0.64,2.46c0.07,0.15,0.11,0.29,0.11,0.42c0,0.18-0.07,0.33-0.24,0.51
				c-2.05,2.2-3.43,3.41-5.59,5.08c-1.91,1.45-3.96,2.71-6.58,4.14c-0.53,0.29-1.06,0.53-1.28,0.75c-0.13,0.13-0.24,0.18-0.35,0.18
				c-0.15,0-0.31-0.09-0.44-0.26c-0.46-0.46-1.06-1.32-1.63-2.24C186.07,66.02,186.84,65.77,188.14,65.11z M187.24,51.89
				c0.15-0.26,0.29-0.31,0.55-0.18c1.41,0.57,2.93,1.39,4.14,2.44c0.13,0.09,0.18,0.2,0.18,0.29s-0.02,0.18-0.09,0.29
				c-0.31,0.55-0.75,1.25-1.12,1.65c-0.07,0.11-0.15,0.13-0.22,0.13c-0.11,0-0.22-0.07-0.33-0.15c-1.14-0.95-2.86-2.07-4.27-2.71
				C186.45,53.08,186.87,52.46,187.24,51.89z M197.32,51.21c0.11-0.09,0.2-0.07,0.33,0.04c0.68,0.53,1.47,1.41,2.09,2.35
				c0.09,0.13,0.09,0.24-0.07,0.35l-0.92,0.68c-0.15,0.11-0.26,0.09-0.37-0.07c-0.66-1.01-1.36-1.85-2.22-2.55L197.32,51.21z
				 M199.28,49.78c0.13-0.09,0.2-0.07,0.33,0.04c0.81,0.62,1.61,1.5,2.09,2.27c0.09,0.13,0.11,0.26-0.07,0.4l-0.88,0.68
				c-0.18,0.13-0.29,0.07-0.37-0.07c-0.59-0.95-1.3-1.78-2.2-2.53L199.28,49.78z"/>
			<path class="st1" d="M217.25,59.02h-5.08c-1.03,0-2.09,0.11-3.08,0.13c-0.2,0.02-0.31-0.15-0.33-0.51
				c-0.04-0.55-0.07-0.97-0.11-1.8c1.25,0.11,1.94,0.11,3.52,0.11h3.83c1.08,0,2.29,0,3.26-0.04c0.26,0,0.35,0.13,0.33,0.35
				c0,0.99-0.04,1.91-0.04,2.88v5.08c0,0.99,0.04,2,0.09,3.12c0,0.33-0.11,0.4-0.48,0.42c-0.35,0.02-1.06,0.04-1.5,0.04
				c-0.35,0-0.4-0.07-0.4-0.33v-0.66h-5.21c-1.03,0-2.02,0.04-3.04,0.11c-0.22,0-0.29-0.11-0.31-0.44
				c-0.07-0.44-0.11-1.08-0.11-1.83c1.19,0.09,2.27,0.09,3.54,0.09h5.13v-2.46h-4.66c-0.99,0-2.07,0.04-3.01,0.09
				c-0.26,0-0.35-0.13-0.37-0.48c-0.07-0.44-0.09-1.01-0.09-1.76c1.19,0.09,2,0.11,3.43,0.11h4.71V59.02z"/>
			<path class="st1" d="M229.72,52.75c0.09-0.11,0.2-0.18,0.31-0.18c0.09,0,0.18,0.04,0.29,0.11c1.12,0.59,2.95,1.94,4.2,3.12
				c0.13,0.13,0.2,0.22,0.2,0.31s-0.04,0.18-0.13,0.29c-0.33,0.44-1.06,1.32-1.36,1.65c-0.11,0.11-0.18,0.18-0.26,0.18
				s-0.18-0.07-0.29-0.18c-1.32-1.36-2.9-2.62-4.49-3.59C228.67,53.87,229.3,53.19,229.72,52.75z M231.64,64.34
				c2.68-1.39,4.11-2.31,6.34-4.09c2.68-2.18,4.16-3.59,6.03-5.99c0.13,1.1,0.33,1.85,0.62,2.57c0.07,0.15,0.11,0.29,0.11,0.42
				c0,0.2-0.11,0.37-0.35,0.66c-1.17,1.36-3.06,3.13-5.06,4.67c-1.83,1.43-3.67,2.66-6.65,4.31c-0.99,0.59-1.28,0.81-1.47,1.01
				c-0.13,0.13-0.26,0.22-0.4,0.22c-0.11,0-0.24-0.09-0.37-0.24c-0.55-0.62-1.23-1.52-1.76-2.44
				C229.79,65.14,230.47,64.94,231.64,64.34z"/>
			<path class="st1" d="M260.61,65c0,0.24-0.13,0.35-0.42,0.4s-0.95,0.11-1.56,0.11c-0.2,0-0.29-0.13-0.29-0.35
				c0-0.79,0-1.89,0.02-2.68c-1.96,1.01-2.66,1.87-2.66,2.93c0,0.92,0.75,1.52,3.06,1.52c2.02,0,3.78-0.2,5.48-0.44
				c0.2-0.02,0.29,0.04,0.31,0.24c0.11,0.51,0.2,1.28,0.2,1.8c0.02,0.26-0.07,0.42-0.24,0.42c-1.89,0.24-3.32,0.29-5.46,0.29
				c-3.61,0-5.52-1.08-5.52-3.63c0-2.11,1.32-3.65,4.64-5.37c-0.07-1.12-0.33-1.56-1.32-1.52c-1.03,0.04-2.02,0.7-3.04,1.58
				c-0.95,0.92-1.5,1.56-2.2,2.4c-0.11,0.13-0.18,0.2-0.26,0.2c-0.07,0-0.15-0.07-0.24-0.15c-0.31-0.31-0.97-0.99-1.25-1.45
				c-0.07-0.09-0.09-0.15-0.09-0.2c0-0.09,0.04-0.15,0.15-0.24c1.69-1.52,3.32-3.26,4.6-5.46c-1.03,0.04-2.22,0.07-3.52,0.07
				c-0.2,0-0.26-0.11-0.31-0.35c-0.07-0.35-0.15-1.17-0.22-1.83c1.67,0.09,3.39,0.07,5.06-0.02c0.24-0.59,0.44-1.12,0.66-1.89
				c0.09-0.37,0.15-0.75,0.15-1.34c0.97,0.15,1.94,0.4,2.51,0.62c0.18,0.07,0.26,0.22,0.26,0.37c0,0.11-0.04,0.24-0.15,0.33
				c-0.13,0.11-0.26,0.31-0.37,0.53c-0.13,0.31-0.24,0.59-0.51,1.19c1.34-0.15,2.68-0.37,4-0.68c0.24-0.04,0.31,0.02,0.35,0.22
				c0.11,0.44,0.2,0.95,0.22,1.58c0.02,0.22-0.07,0.31-0.37,0.35c-1.65,0.24-3.54,0.48-5.15,0.66c-0.51,0.81-0.99,1.63-1.65,2.44
				l0.02,0.04c0.7-0.46,1.61-0.68,2.2-0.68c1.45,0,2.46,0.66,2.68,2.38c0.86-0.4,2.11-0.97,3.23-1.54c0.42-0.22,1.12-0.62,1.67-1.19
				c0.73,0.77,1.3,1.54,1.54,1.94c0.13,0.2,0.18,0.35,0.18,0.48c0,0.18-0.11,0.26-0.33,0.31c-0.46,0.07-0.9,0.18-1.34,0.33
				c-1.43,0.51-2.86,0.99-4.73,1.76V65z"/>
			<path class="st1" d="M273.59,60.8c-1.98,0-2.66,0.04-2.79,0.04c-0.22,0-0.24-0.02-0.24-0.22v-2.13c0-0.2,0.02-0.22,0.24-0.22
				c0.13,0,0.81,0.04,2.79,0.04h13.27c1.98,0,2.66-0.04,2.79-0.04c0.22,0,0.24,0.02,0.24,0.22v2.13c0,0.2-0.02,0.22-0.24,0.22
				c-0.13,0-0.81-0.04-2.79-0.04H273.59z"/>
			<path class="st1" d="M295.48,55.74c-1.94,0-2.62,0.04-2.75,0.04c-0.22,0-0.24-0.02-0.24-0.24v-1.67c0-0.22,0.02-0.24,0.24-0.24
				c0.13,0,0.81,0.04,2.75,0.04h13.58c1.94,0,2.62-0.04,2.75-0.04c0.22,0,0.24,0.02,0.24,0.24v1.67c0,0.22-0.02,0.24-0.24,0.24
				c-0.13,0-0.81-0.04-2.75-0.04H295.48z M295.5,69.89c-0.24,0-0.26-0.02-0.26-0.24c0-0.15,0.04-0.62,0.04-3.15v-1.23
				c0-1.28-0.04-1.78-0.04-1.89c0-0.24,0.02-0.26,0.26-0.26c0.13,0,0.9,0.04,3.04,0.04h7.42c2.16,0,2.9-0.04,3.06-0.04
				c0.22,0,0.24,0.02,0.24,0.26c0,0.11-0.04,0.62-0.04,1.61v1.45c0,2.49,0.04,2.97,0.04,3.1c0,0.22-0.02,0.24-0.24,0.24h-1.83
				c-0.24,0-0.26-0.02-0.26-0.24V68.9h-9.35v0.75c0,0.22-0.02,0.24-0.26,0.24H295.5z M298.6,52.46c-2.13,0-2.88,0.04-3.01,0.04
				c-0.22,0-0.24-0.02-0.24-0.24v-1.5c0-0.24,0.02-0.26,0.24-0.26c0.13,0,0.88,0.04,3.01,0.04h7.33c2.13,0,2.88-0.04,3.01-0.04
				c0.22,0,0.24,0.02,0.24,0.26v1.5c0,0.22-0.02,0.24-0.24,0.24c-0.13,0-0.88-0.04-3.01-0.04H298.6z M298.91,58.84
				c-2.11,0-2.84,0.04-2.97,0.04c-0.22,0-0.24-0.02-0.24-0.24v-1.47c0-0.2,0.02-0.22,0.24-0.22c0.13,0,0.86,0.02,2.97,0.02h6.71
				c2.11,0,2.84-0.02,2.97-0.02c0.24,0,0.26,0.02,0.26,0.22v1.47c0,0.22-0.02,0.24-0.26,0.24c-0.13,0-0.86-0.04-2.97-0.04H298.91z
				 M298.91,61.92c-2.11,0-2.84,0.04-2.97,0.04c-0.22,0-0.24-0.02-0.24-0.24v-1.45c0-0.22,0.02-0.24,0.24-0.24
				c0.13,0,0.86,0.04,2.97,0.04h6.71c2.11,0,2.84-0.04,2.97-0.04c0.24,0,0.26,0.02,0.26,0.24v1.45c0,0.22-0.02,0.24-0.26,0.24
				c-0.13,0-0.86-0.04-2.97-0.04H298.91z M297.57,67.03h9.35v-2h-9.35V67.03z"/>
			<path class="st1" d="M325.58,54.97c-2.68,0.51-5.04,0.97-7.39,1.45c-0.84,0.2-1.06,0.24-1.39,0.35
				c-0.15,0.07-0.31,0.18-0.48,0.18c-0.15,0-0.33-0.13-0.42-0.33c-0.29-0.59-0.53-1.36-0.81-2.38c1.12-0.04,1.78-0.13,3.5-0.37
				c2.71-0.4,7.55-1.12,13.22-1.87c0.33-0.04,0.44,0.09,0.46,0.24c0.11,0.51,0.22,1.32,0.24,1.94c0,0.26-0.13,0.33-0.42,0.33
				c-1.03,0.07-1.74,0.18-2.68,0.48c-3.74,1.28-5.61,3.85-5.61,6.49c0,2.84,2.02,4.38,5.85,4.62c0.35,0,0.48,0.09,0.48,0.33
				c0,0.57-0.09,1.34-0.24,1.89c-0.07,0.33-0.15,0.46-0.42,0.46c-3.87,0-8.12-2.22-8.12-6.8c0-3.12,1.56-5.24,4.22-6.97V54.97z
				 M329.93,57.35c0.11-0.09,0.2-0.07,0.33,0.04c0.68,0.53,1.47,1.41,2.09,2.35c0.09,0.13,0.09,0.24-0.07,0.35l-0.92,0.68
				c-0.15,0.11-0.26,0.09-0.37-0.07c-0.66-1.01-1.36-1.85-2.22-2.55L329.93,57.35z M331.89,55.92c0.13-0.09,0.2-0.07,0.33,0.04
				c0.81,0.62,1.61,1.5,2.09,2.27c0.09,0.13,0.11,0.26-0.07,0.4l-0.88,0.68c-0.18,0.13-0.29,0.07-0.37-0.07
				c-0.59-0.95-1.3-1.78-2.2-2.53L331.89,55.92z"/>
			<path class="st1" d="M340.6,53.61c0.2,0.09,0.35,0.24,0.35,0.4c0,0.13-0.07,0.35-0.18,0.62c-0.09,0.26-0.2,1.21-0.2,2.16
				c0,1.41,0.04,2.99,0.4,5.02c0.31,1.74,0.88,3.23,1.8,3.23c0.7,0,1.25-0.77,2.11-3.06c0.48,0.77,0.97,1.28,1.41,1.69
				c0.26,0.24,0.26,0.51,0.15,0.81c-0.84,2.24-2.2,3.43-3.74,3.43c-1.72,0-3.52-2.02-4.11-5.74c-0.35-2.09-0.53-4.38-0.53-6.4
				c0-1.21-0.04-1.87-0.26-2.88C338.86,53.01,339.94,53.28,340.6,53.61z M350.81,54.99c0.09-0.04,0.18-0.09,0.24-0.09
				c0.09,0,0.15,0.04,0.24,0.13c2,1.74,3.76,4.77,4.31,7.52c0.07,0.29-0.07,0.37-0.24,0.48c-0.57,0.37-1.12,0.68-1.72,0.88
				c-0.26,0.09-0.42,0.02-0.46-0.24c-0.75-3.15-1.87-5.43-4.11-7.68C349.91,55.48,350.46,55.17,350.81,54.99z"/>
			<path class="st1" d="M364.14,56.58c1.85-0.62,3.37-1.1,5.04-1.1c2.95,0,4.64,2,4.64,5.24c0,2.16-0.77,3.92-1.78,5.26
				c-1.03,1.41-2.51,2.57-4.25,3.5c-0.15,0.07-0.26,0.11-0.37,0.11c-0.2,0-0.33-0.09-0.53-0.29c-0.48-0.46-1.08-0.88-1.83-1.17
				c2.42-1.14,3.92-2.38,4.84-3.67c0.64-0.9,1.21-2.11,1.21-3.89c0-1.83-0.77-2.77-2.05-2.77c-1.23,0-2.2,0.33-3.45,0.95
				c-1.3,0.64-1.61,0.86-1.87,1.06c-0.18,0.13-0.31,0.22-0.48,0.22c-0.29,0-0.48-0.29-0.62-0.48c-0.31-0.46-0.77-1.43-1.12-2.31
				C362.43,57.13,362.95,56.95,364.14,56.58z M372.17,51.52c0.24,0.04,0.33,0.22,0.29,0.4c-0.09,0.46-0.33,1.52-0.48,1.94
				c-0.07,0.22-0.13,0.33-0.31,0.31c-2.4-0.4-4.11-0.81-6.38-1.69c-0.11-0.04-0.22-0.15-0.15-0.44c0.15-0.81,0.4-1.41,0.66-2.07
				C367.84,50.77,369.91,51.19,372.17,51.52z"/>
			<path class="st1" d="M388.89,50.99c0.26,0.07,0.4,0.18,0.4,0.35c0,0.31-0.15,0.62-0.15,0.92c0,0.44,0.07,0.97,0.11,1.47
				c0.2,1.54,0.42,2.64,0.7,3.79c1.1-0.59,1.89-1.01,3.12-1.67c0.64-0.37,1.17-0.75,1.52-1.19c0.7,0.73,1.28,1.5,1.61,2.07
				c0.09,0.13,0.15,0.31,0.15,0.46c0,0.22-0.13,0.4-0.44,0.44c-0.66,0.11-1.41,0.37-2.11,0.66c-1.89,0.77-3.65,1.58-5.17,2.57
				c-1.91,1.25-2.6,2.29-2.6,3.32c0,1.3,0.97,1.85,3.5,1.85c2.77,0,5.02-0.2,6.71-0.51c0.24-0.04,0.35,0,0.4,0.26
				c0.11,0.59,0.18,1.39,0.22,2.05c0.02,0.24-0.13,0.35-0.4,0.37c-2,0.26-3.76,0.33-6.56,0.33c-4.16,0-6.36-1.36-6.36-4.22
				c0-2.44,1.61-4.05,4.18-5.68c-0.53-1.69-0.92-3.67-1.14-5.37c-0.15-1.17-0.31-1.94-0.57-2.55
				C387.07,50.72,388.08,50.79,388.89,50.99z"/>
			<path class="st1" d="M406.36,55.17c0.42-2.95,2.53-4.71,5.79-4.71c3.43,0,5.65,1.83,5.65,4.64c0,1.54-0.66,2.82-2.62,4.47
				c-1.83,1.52-2.09,2.22-2.11,4.27h-2.27v-0.53c0-2.18,0.46-3.17,2.02-4.73c1.58-1.58,2-2.35,2-3.48c0-1.5-1.03-2.44-2.66-2.44
				c-1.74,0-2.84,1.17-2.97,3.17L406.36,55.17z M413.49,65.97v2.97h-3.12v-2.97H413.49z"/>
		</g>
	</g>
	<g>
		<circle class="st1" cx="111.44" cy="225.52" r="88"/>
		<g>
			<path class="st2" d="M40.66,202.58c0-1.01,0-2.22,0.03-3.39c-0.7,0.98-1.43,1.9-2.15,2.76c-0.22,0.25-0.41,0.38-0.57,0.38
				c-0.16,0-0.29-0.19-0.35-0.54c-0.22-1.11-0.7-2.28-1.08-2.88c2.69-3.01,5.13-6.97,6.3-10.74c0.25-0.73,0.41-1.46,0.48-2.22
				c1.11,0.29,2.28,0.63,3.17,1.01c0.35,0.13,0.51,0.25,0.51,0.48s-0.13,0.38-0.35,0.57c-0.19,0.19-0.32,0.44-0.6,1.24
				c-0.57,1.52-1.27,3.1-2.09,4.66v15.97c0,3.1,0.06,4.66,0.06,4.81c0,0.32-0.03,0.35-0.38,0.35h-2.66c-0.35,0-0.38-0.03-0.38-0.35
				c0-0.19,0.06-1.71,0.06-4.81V202.58z M50.86,213.48c-3.07,0-4.12,0.06-4.31,0.06c-0.29,0-0.32-0.03-0.32-0.38v-2.47
				c0-0.32,0.03-0.35,0.32-0.35c0.19,0,1.24,0.06,4.31,0.06h2.72v-11.15h-3.23c-3.1,0-4.15,0.06-4.34,0.06
				c-0.32,0-0.35-0.03-0.35-0.38v-2.47c0-0.32,0.03-0.35,0.35-0.35c0.19,0,1.24,0.06,4.34,0.06h3.23v-4.94c0-2.25,0-3.39-0.22-4.82
				c1.24,0.03,2.5,0.09,3.58,0.22c0.32,0.03,0.51,0.19,0.51,0.35c0,0.22-0.1,0.41-0.19,0.63c-0.16,0.41-0.22,1.2-0.22,3.55v5h4.09
				c3.1,0,4.18-0.06,4.34-0.06c0.32,0,0.35,0.03,0.35,0.35v2.47c0,0.35-0.03,0.38-0.35,0.38c-0.16,0-1.24-0.06-4.34-0.06h-4.09
				v11.15h3.36c3.04,0,4.09-0.06,4.28-0.06c0.35,0,0.38,0.03,0.38,0.35v2.47c0,0.35-0.03,0.38-0.38,0.38
				c-0.19,0-1.24-0.06-4.28-0.06H50.86z"/>
			<path class="st2" d="M71.8,206.03c-2.76,0-3.71,0.06-3.9,0.06c-0.29,0-0.32-0.03-0.32-0.35v-1.9c0-0.32,0.03-0.35,0.32-0.35
				c0.19,0,1.14,0.06,3.9,0.06h8.49v-1.49h-5.23c-3.07,0-4.12,0.06-4.31,0.06c-0.32,0-0.35-0.03-0.35-0.32v-1.74
				c0-0.32,0.03-0.35,0.35-0.35c0.19,0,1.24,0.06,4.31,0.06h5.23v-1.39H76.2c-3.1,0-4.21,0.06-4.4,0.06c-0.35,0-0.38-0.03-0.38-0.38
				c0-0.19,0.06-0.6,0.06-1.65v-1.71c0-1.05-0.06-1.46-0.06-1.65c0-0.35,0.03-0.38,0.38-0.38c0.19,0,1.3,0.06,4.4,0.06h4.09v-1.39
				h-7.98c-2.85,0-3.83,0.06-4.02,0.06c-0.32,0-0.35-0.03-0.35-0.35v-2c0-0.32,0.03-0.35,0.35-0.35c0.19,0,1.17,0.06,4.02,0.06h7.98
				c0-1.27-0.06-2.03-0.22-2.91c1.17,0.03,2.19,0.06,3.29,0.19c0.28,0.03,0.51,0.16,0.51,0.35c0,0.25-0.1,0.41-0.19,0.6
				c-0.13,0.35-0.19,0.73-0.19,1.77h8.05c2.85,0,3.83-0.06,4.02-0.06c0.32,0,0.35,0.03,0.35,0.35v2c0,0.32-0.03,0.35-0.35,0.35
				c-0.19,0-1.17-0.06-4.02-0.06h-8.05v1.39h4.21c3.1,0,4.21-0.06,4.44-0.06c0.32,0,0.35,0.03,0.35,0.38c0,0.19-0.06,0.6-0.06,1.65
				v1.71c0,1.05,0.06,1.46,0.06,1.65c0,0.35-0.03,0.38-0.35,0.38c-0.22,0-1.33-0.06-4.44-0.06h-4.21v1.39h5.13
				c3.1,0,4.21-0.06,4.37-0.06c0.32,0,0.35,0.03,0.35,0.35c0,0.19-0.06,0.95-0.06,2.76v0.73c1.87,0,2.6-0.06,2.76-0.06
				c0.28,0,0.32,0.03,0.32,0.35v1.9c0,0.32-0.03,0.35-0.32,0.35c-0.16,0-0.89-0.03-2.76-0.06v1.62c0,1.9,0.06,2.72,0.06,2.91
				c0,0.32-0.03,0.35-0.35,0.35h-2.44c-0.32,0-0.35-0.03-0.35-0.35v-0.7h-6.68c0.03,0.57,0.03,1.11,0.03,1.58
				c0,1.46-0.29,2.31-1.14,2.82c-0.79,0.44-2.19,0.67-4.47,0.7c-0.95,0-0.95-0.03-1.27-0.92c-0.29-0.79-0.7-1.65-1.24-2.41
				c1.17,0.13,2.03,0.16,3.2,0.13c1.36-0.03,1.65-0.25,1.65-1.17v-0.73h-5.2c-3.1,0-4.15,0.06-4.34,0.06
				c-0.32,0-0.35-0.03-0.35-0.38v-1.71c0-0.35,0.03-0.38,0.35-0.38c0.19,0,1.24,0.06,4.34,0.06h5.2v-1.49H71.8z M80.29,196.37v-1.58
				h-5.73v1.58H80.29z M89.35,194.79h-5.86v1.58h5.86V194.79z M83.49,202.07v1.49h6.72v-1.49H83.49z M90.2,207.52v-1.49h-6.72v1.49
				H90.2z"/>
			<path class="st3" d="M104.17,198.82c0.21,0.05,0.32,0.14,0.32,0.28c0,0.25-0.12,0.49-0.12,0.74c0,0.35,0.05,0.77,0.09,1.18
				c0.16,1.23,0.33,2.11,0.56,3.03c0.88-0.47,1.51-0.81,2.5-1.34c0.51-0.3,0.93-0.6,1.21-0.95c0.56,0.58,1.02,1.2,1.28,1.65
				c0.07,0.11,0.12,0.25,0.12,0.37c0,0.18-0.11,0.32-0.35,0.35c-0.53,0.09-1.13,0.3-1.69,0.53c-1.51,0.62-2.92,1.27-4.13,2.06
				c-1.53,1-2.08,1.83-2.08,2.66c0,1.04,0.77,1.48,2.8,1.48c2.22,0,4.01-0.16,5.37-0.4c0.19-0.04,0.28,0,0.32,0.21
				c0.09,0.48,0.14,1.11,0.18,1.64c0.02,0.19-0.11,0.28-0.32,0.3c-1.6,0.21-3.01,0.26-5.24,0.26c-3.33,0-5.08-1.09-5.08-3.38
				c0-1.95,1.28-3.24,3.34-4.54c-0.42-1.35-0.74-2.94-0.92-4.29c-0.12-0.93-0.25-1.55-0.46-2.04
				C102.71,198.61,103.52,198.66,104.17,198.82z"/>
			<path class="st2" d="M120.84,208.15c0.67,1.36,1.43,2.03,2.72,2.6c1.11,0.44,3.48,0.63,6.27,0.63c4.05,0,8.96-0.19,13.68-0.67
				c-0.44,0.6-0.73,1.36-0.86,2.31c-0.16,1.01-0.16,1.01-1.14,1.08c-4.09,0.22-7.89,0.29-11.21,0.29c-3.26,0-5.99-0.22-7.51-0.85
				c-1.46-0.6-2.57-1.52-3.36-2.85c-0.92,0.92-1.71,1.68-2.91,2.69c-0.32,0.25-0.57,0.48-0.7,0.67c-0.09,0.16-0.22,0.32-0.44,0.32
				c-0.19,0-0.35-0.19-0.48-0.44c-0.44-0.82-0.79-1.68-1.24-2.82c0.67-0.25,1.14-0.54,1.71-0.95c0.82-0.63,1.62-1.27,2.38-2.09V201
				h-1.14c-1.58,0-2,0.06-2.15,0.06c-0.32,0-0.35-0.03-0.35-0.38v-2.41c0-0.32,0.03-0.35,0.35-0.35c0.16,0,0.57,0.06,2.15,0.06h1.71
				c1.58,0,2.06-0.06,2.25-0.06c0.28,0,0.32,0.03,0.32,0.35c0,0.19-0.06,1.11-0.06,3.07V208.15z M119.39,193.9
				c-0.16,0.13-0.28,0.19-0.38,0.19s-0.19-0.06-0.29-0.22c-1.17-1.9-2.44-3.55-3.9-4.94c-0.25-0.22-0.22-0.32,0.16-0.57l1.68-1.17
				c0.35-0.22,0.44-0.25,0.7-0.03c1.46,1.36,2.82,2.91,3.99,4.72c0.16,0.25,0.16,0.32-0.19,0.57L119.39,193.9z M133.01,195.48
				c-0.29,0.25-0.48,0.1-1.08-0.35c-0.54-0.41-1.01-0.67-1.58-0.85c0.38-0.48,0.73-0.95,1.05-1.46h-0.13
				c-0.19,0-0.86-0.06-3.01-0.06h-1.49c0,0.98-0.03,1.93-0.06,2.85h2.31c1.36,0,1.71-0.06,1.9-0.06c0.32,0,0.38,0.06,0.38,0.38
				c-0.06,1.05-0.09,2.31-0.09,3.1c-0.03,4.28-0.35,7.79-0.86,9.12c-0.48,1.36-1.55,1.84-2.72,1.84c-0.38,0-0.63,0-0.98-0.03
				c-0.7-0.06-0.73-0.06-0.82-0.79c-0.13-0.95-0.38-1.68-0.63-2.38c0.79,0.13,1.27,0.19,1.68,0.19c0.54,0,0.82-0.22,1.01-1.08
				c0.29-1.3,0.44-3.07,0.48-7.48h-1.81c-0.35,4.05-1.17,7.54-2.82,10.33c-0.19,0.32-0.35,0.51-0.54,0.51
				c-0.16,0-0.32-0.19-0.54-0.51c-0.44-0.7-0.95-1.24-1.55-1.74c2.31-3.71,2.79-7.51,2.72-14.25c-1.36,0.03-1.84,0.06-2,0.06
				c-0.32,0-0.35-0.03-0.35-0.38v-2.15c0-0.32,0.03-0.35,0.35-0.35c0.19,0,0.85,0.06,3.01,0.06h0.57v-1.01c0-1.11-0.03-2-0.19-2.88
				c1.17,0,2,0.06,3.17,0.16c0.32,0.03,0.51,0.16,0.51,0.35c0,0.22-0.1,0.38-0.19,0.6c-0.13,0.29-0.16,0.76-0.16,1.77V190
				c1.93,0,2.53-0.06,2.72-0.06c0.32,0,0.35,0.03,0.35,0.35v2.22c0.95-1.55,1.62-3.1,2.09-4.56c0.19-0.6,0.32-1.27,0.38-1.87
				c1.05,0.16,1.81,0.35,2.53,0.57c0.48,0.16,0.67,0.25,0.67,0.44c0,0.19-0.1,0.32-0.25,0.48c-0.19,0.19-0.35,0.54-0.48,0.92
				c-0.13,0.44-0.29,0.89-0.44,1.3h2.95c2.47,0,3.29-0.06,3.48-0.06c0.29,0,0.32,0.03,0.32,0.35v2.22c0,0.29-0.03,0.32-0.32,0.32
				c-0.19,0-1.01-0.06-3.48-0.06h-4.15c-0.35,0.63-0.7,1.24-1.11,1.84c0.41,0.03,1.11,0.03,2.41,0.03h3.39
				c0.35,0,0.51-0.03,0.67-0.09c0.1-0.03,0.25-0.13,0.41-0.13c0.25,0,0.54,0.13,1.11,0.86c0.57,0.7,0.7,0.89,0.7,1.17
				c0,0.25-0.22,0.44-0.44,0.54c-0.29,0.13-0.57,0.41-1.08,0.95l-1.65,1.65c-0.03,0.13-0.1,0.25-0.19,0.41
				c-0.13,0.22-0.16,0.38-0.16,0.79h0.41c2.25,0,2.98-0.06,3.17-0.06c0.29,0,0.32,0.03,0.32,0.35v2.19c0,0.32-0.03,0.35-0.32,0.35
				c-0.19,0-0.92-0.06-3.17-0.06h-0.41c0,0.98,0.06,2.38,0.06,3.58c0,1.24-0.22,1.87-1.01,2.44c-0.67,0.48-1.58,0.67-3.36,0.63
				c-1.01-0.03-1.01-0.03-1.14-0.76c-0.13-0.86-0.32-1.62-0.6-2.22c0.95,0.13,1.43,0.16,2.03,0.16c0.86,0,1.08-0.19,1.08-1.04v-2.79
				h-0.44c-2.28,0-3.01,0.06-3.2,0.06c-0.32,0-0.35-0.03-0.35-0.35v-2.19c0-0.32,0.03-0.35,0.35-0.35c0.19,0,0.92,0.06,3.2,0.06
				h0.44c-0.03-0.67-0.1-1.33-0.19-2c0.38,0.03,0.73,0.06,1.04,0.06c0.48-0.44,0.89-0.89,1.36-1.49h-2.03
				c-2.06,0-2.66,0.06-2.85,0.06c-0.32,0-0.35-0.03-0.35-0.38V195.48z"/>
			<path class="st2" d="M165.7,196.97c0.32,2,0.44,3.45,0.44,4.85c0,3.52-1.05,7.13-2.85,9.15c-2.03,2.28-4.09,3.29-7.7,3.29
				c-4.94,0-8.24-3.52-8.24-9c0-3.26,1.27-7.03,2.91-9.38c0.7-1.05,1.3-1.74,1.9-2.31c-1.05,0.16-2.15,0.25-3.55,0.51
				c-0.54,0.09-1.01,0.32-1.27,0.32s-0.44-0.22-0.54-0.47c-0.25-0.63-0.6-1.93-0.85-3.23c1.08,0.16,2.19,0.13,3.26,0.06
				c1.39-0.09,2.63-0.29,4.15-0.54c1.27-0.22,1.9-0.41,2.22-0.67c0.22-0.16,0.38-0.25,0.51-0.25c0.16,0,0.28,0.09,0.44,0.25
				c0.54,0.54,0.98,1.08,1.33,1.68c0.19,0.32,0.29,0.54,0.29,0.73c0,0.25-0.16,0.44-0.51,0.63c-1.24,0.67-2.09,1.74-3.01,2.76
				c-2.47,2.82-3.9,6.27-3.9,9.5c0,4.05,2.03,5.89,4.75,5.89c2.57,0,4.28-0.86,5.67-2.88c1.2-1.74,1.96-4.85,1.96-8.62
				c0-2.28-0.06-3.55-0.19-4.75c-0.06-0.67-0.16-1.27-0.22-1.65c-0.09-0.38-0.19-0.79-0.35-1.3c-0.16-0.54-0.16-0.7,0.32-0.86
				c0.7-0.22,1.62-0.47,2.38-0.6c0.25-0.06,0.41,0.13,0.48,0.35c0.67,1.84,1.3,3.14,2.12,4.75c1.49,2.72,2.95,4.82,5.19,7.19
				c0.13,0.13,0.19,0.29,0.19,0.41c0,0.16-0.1,0.32-0.22,0.51c-0.51,0.73-1.05,1.3-1.74,2c-0.13,0.13-0.25,0.16-0.35,0.16
				c-0.19,0-0.38-0.13-0.51-0.38c-1.77-2.47-3.04-4.82-4.37-8.17L165.7,196.97z M167.57,187.53c0.16-0.13,0.29-0.09,0.48,0.06
				c0.98,0.76,2.12,2.03,3.01,3.39c0.13,0.19,0.13,0.35-0.09,0.51l-1.33,0.98c-0.22,0.16-0.38,0.13-0.54-0.1
				c-0.95-1.46-1.96-2.66-3.2-3.67L167.57,187.53z M170.39,185.47c0.19-0.13,0.29-0.09,0.48,0.06c1.17,0.89,2.31,2.15,3.01,3.26
				c0.13,0.19,0.16,0.38-0.09,0.57l-1.27,0.98c-0.25,0.19-0.41,0.1-0.54-0.09c-0.86-1.36-1.87-2.57-3.17-3.64L170.39,185.47z"/>
			<path class="st3" d="M183.39,201.77c-0.4,2.99-1.14,5.74-2.2,7.58c-0.76,1.32-1.67,2.02-2.99,2.02c-1.55,0-3.11-1.65-3.11-4.52
				c0-1.69,0.72-3.31,1.99-4.57c1.48-1.48,3.34-2.25,5.72-2.25c4.22,0,6.7,2.6,6.7,6.1c0,3.27-1.85,5.33-5.42,6.4
				c-0.37,0.11-0.53,0.04-0.76-0.32c-0.19-0.3-0.56-0.7-1.23-1.11c2.97-0.7,5.31-1.94,5.31-5.26c0-2.09-1.58-4.08-3.94-4.08H183.39z
				 M178.34,203.48c-0.84,0.95-1.37,2.13-1.37,3.25c0,1.62,0.65,2.52,1.2,2.52c0.46,0,0.84-0.23,1.32-1.07
				c0.77-1.42,1.57-3.96,1.86-6.3C180.12,202.13,179.13,202.62,178.34,203.48z"/>
			<path class="st2" d="M71.74,227.93c0.74-1.65,1-2.41,1.27-3.9c1.67,0.57,3.41,1.36,4.21,2c0.23,0.16,0.33,0.35,0.33,0.54
				c0,0.25-0.13,0.51-0.37,0.7c-0.47,0.38-0.74,0.79-1.51,2.12c-1.27,2.31-2.51,4.47-3.81,6.27c1.87,1.39,2.78,2.19,4.92,4.31
				c0.13,0.16,0.2,0.29,0.2,0.44c0,0.13-0.07,0.25-0.17,0.41c-0.67,0.82-1.34,1.52-2.04,2.25c-0.13,0.16-0.27,0.22-0.4,0.22
				c-0.17,0-0.3-0.1-0.47-0.29c-1.57-1.77-2.91-3.01-4.38-4.18c-3.81,4.53-7.56,7.63-11.44,9.88c-0.27,0.16-0.54,0.25-0.77,0.25
				s-0.43-0.06-0.64-0.22c-0.97-0.76-2.04-1.46-3.01-1.74c5.22-2.88,8.86-5.83,12.61-10.39c-2.11-1.49-3.78-2.5-6.52-3.77
				c0.97-1.17,1.77-2.15,2.21-2.6c0.1-0.09,0.2-0.16,0.33-0.16s0.27,0.06,0.4,0.13c1.74,0.82,3.85,2.03,5.82,3.33
				C69.97,231.45,70.74,230.02,71.74,227.93z"/>
			<path class="st2" d="M85.62,228.63c0-2.19-0.1-3.39-0.37-4.63c1.4,0.16,3.18,0.35,4.15,0.67c0.4,0.1,0.57,0.29,0.57,0.51
				c0,0.16-0.07,0.32-0.13,0.48c-0.3,0.6-0.37,1.39-0.37,3.01v6.4c0,1.65,0.07,2.88,0.1,3.99c0,0.48-0.2,0.63-0.74,0.63h-2.68
				c-0.47,0-0.67-0.16-0.64-0.54c0-1.11,0.1-2.95,0.1-4.31V228.63z M101.37,234.55c0,4.69-0.74,7.82-2.71,10.33
				c-1.64,2.06-4.55,3.99-7.36,4.97c-0.27,0.1-0.5,0.16-0.7,0.16c-0.27,0-0.5-0.09-0.8-0.38c-0.8-0.76-1.67-1.36-2.84-1.93
				c3.58-1.05,6.39-2.54,8.16-4.63c1.54-1.81,2.24-4.44,2.24-8.46v-5.99c0-2.72-0.07-3.74-0.37-5.16c1.61,0.13,3.21,0.35,4.35,0.7
				c0.33,0.1,0.47,0.29,0.47,0.54c0,0.16-0.03,0.35-0.13,0.51c-0.3,0.67-0.3,1.49-0.3,3.45V234.55z"/>
			<path class="st2" d="M112.37,233.6c0.9-1.93,1.4-3.55,1.51-4.69c1.71,0.57,3.21,1.14,4.15,1.62c0.3,0.13,0.4,0.32,0.4,0.51
				c0,0.22-0.13,0.44-0.33,0.63c-0.37,0.35-0.64,0.79-1.17,1.93c-1.97,4.21-3.95,7.44-7.16,10.64c-0.3,0.32-0.6,0.47-0.94,0.47
				c-0.27,0-0.5-0.09-0.77-0.32c-0.67-0.51-1.74-1.01-2.94-1.36C108.62,240.1,111.03,236.48,112.37,233.6z M124.88,229.29
				c0.17-0.13,0.33-0.19,0.47-0.19c0.17,0,0.3,0.06,0.5,0.25c3.65,3.45,6.46,7.57,8.4,11.63c0.1,0.16,0.13,0.29,0.13,0.44
				c0,0.19-0.1,0.35-0.33,0.51c-0.64,0.47-1.71,1.14-2.78,1.68c-0.44,0.19-0.67,0.13-0.8-0.29c-2.48-5.29-4.95-9-8.26-12.32
				C123.41,230.24,124.31,229.64,124.88,229.29z"/>
			<path class="st2" d="M140.46,228.63c0-2.19-0.1-3.39-0.37-4.63c1.4,0.16,3.18,0.35,4.15,0.67c0.4,0.1,0.57,0.29,0.57,0.51
				c0,0.16-0.07,0.32-0.13,0.48c-0.3,0.6-0.37,1.39-0.37,3.01v6.4c0,1.65,0.07,2.88,0.1,3.99c0,0.48-0.2,0.63-0.74,0.63h-2.68
				c-0.47,0-0.67-0.16-0.64-0.54c0-1.11,0.1-2.95,0.1-4.31V228.63z M156.21,234.55c0,4.69-0.74,7.82-2.71,10.33
				c-1.64,2.06-4.55,3.99-7.36,4.97c-0.27,0.1-0.5,0.16-0.7,0.16c-0.27,0-0.5-0.09-0.8-0.38c-0.8-0.76-1.67-1.36-2.84-1.93
				c3.58-1.05,6.39-2.54,8.16-4.63c1.54-1.81,2.24-4.44,2.24-8.46v-5.99c0-2.72-0.07-3.74-0.37-5.16c1.61,0.13,3.21,0.35,4.35,0.7
				c0.33,0.1,0.47,0.29,0.47,0.54c0,0.16-0.03,0.35-0.13,0.51c-0.3,0.67-0.3,1.49-0.3,3.45V234.55z"/>
			<path class="st3" d="M163.55,235.35c0.19,0.11,0.26,0.21,0.26,0.35c0,0.12-0.05,0.25-0.12,0.39c-0.12,0.21-0.19,0.46-0.32,0.97
				c-0.58,2.66-0.88,5.12-0.88,6.4c0,0.7,0,1.51,0.05,2.25c0.35-0.81,0.72-1.57,1.09-2.45c0.25,0.56,0.39,0.81,0.62,1.11
				c0.07,0.09,0.11,0.16,0.11,0.25s-0.04,0.18-0.11,0.28c-0.62,1.39-0.83,2.16-0.9,2.67c-0.07,0.49-0.04,0.76-0.02,0.93
				c0.02,0.12-0.05,0.18-0.21,0.23c-0.33,0.12-0.84,0.23-1.32,0.3c-0.19,0.05-0.26,0.04-0.35-0.21c-0.49-1.25-0.76-3.34-0.76-5.37
				c0-1.69,0.14-3.1,0.72-6.67c0.09-0.62,0.19-1.37,0.12-2.08C162.25,234.89,163.2,235.18,163.55,235.35z M169.61,240.05
				c-1.2,0.04-2.43,0.07-3.62-0.02c-0.23,0-0.3-0.05-0.32-0.23c-0.07-0.42-0.12-1.06-0.12-1.6c1.32,0.12,2.69,0.14,4.01,0.05
				c0-0.63-0.02-1.2-0.02-1.85c-0.02-0.63-0.07-1.09-0.23-1.72c1.02,0.09,1.55,0.16,2.13,0.33c0.19,0.05,0.32,0.14,0.32,0.3
				c0,0.09-0.04,0.14-0.11,0.3c-0.07,0.16-0.12,0.39-0.14,0.62c-0.04,0.6-0.04,1.06-0.04,1.87c0.83-0.07,1.74-0.19,2.5-0.32
				c0.21-0.05,0.25,0.02,0.28,0.21c0.07,0.32,0.11,0.88,0.11,1.25c0,0.16-0.07,0.25-0.19,0.26c-0.63,0.16-1.79,0.3-2.71,0.37
				c0,1.97,0.04,3.2,0.12,4.72c1.04,0.42,1.94,0.91,2.92,1.69c0.16,0.11,0.18,0.16,0.09,0.35c-0.23,0.46-0.51,0.95-0.81,1.36
				c-0.05,0.07-0.11,0.11-0.16,0.11s-0.11-0.04-0.16-0.09c-0.55-0.51-1.13-0.95-1.9-1.41c-0.14,1.48-1.14,2.29-3.22,2.29
				c-2.02,0-3.15-0.95-3.15-2.46c0-1.44,1.3-2.48,3.08-2.48c0.46,0,0.98,0.05,1.41,0.14C169.64,242.72,169.62,241.44,169.61,240.05z
				 M168.18,245.52c-0.83,0-1.32,0.3-1.32,0.84c0,0.55,0.39,0.88,1.43,0.88c0.88,0,1.44-0.51,1.44-1.14c0-0.12,0-0.21-0.02-0.35
				C169.15,245.57,168.67,245.52,168.18,245.52z"/>
			<path class="st3" d="M54.94,258.93c-0.16-0.39-0.32-0.74-0.62-1.13c0.7-0.12,1.43-0.19,2.13-0.19c0.25,0,0.39,0.14,0.39,0.32
				c0,0.11-0.04,0.23-0.04,0.33c0,0.16,0.04,0.33,0.07,0.53c0.12,0.46,0.18,0.62,0.28,0.92c1.37-0.26,2.34-0.53,3.59-0.93
				c0.16-0.07,0.25-0.05,0.3,0.09c0.11,0.33,0.23,0.83,0.3,1.18c0.04,0.18-0.09,0.28-0.21,0.32c-1.18,0.37-2.25,0.63-3.45,0.9
				c0.16,0.44,0.39,0.99,0.62,1.48c1.43-0.3,2.36-0.6,3.2-0.92c0.18-0.09,0.26-0.05,0.32,0.11c0.16,0.41,0.23,0.74,0.32,1.16
				c0.04,0.16,0.04,0.25-0.14,0.32c-0.88,0.33-1.99,0.65-2.97,0.86c0.76,1.27,1.44,2.25,2.3,3.04c0.18,0.16,0.18,0.23,0.09,0.42
				c-0.19,0.41-0.44,0.76-0.72,1.09c-0.11,0.12-0.18,0.18-0.28,0.18c-0.07,0-0.14-0.04-0.25-0.11c-0.28-0.23-0.63-0.39-1.04-0.56
				c-0.9-0.39-2.06-0.56-3.31-0.56c-1.65,0-2.62,0.51-2.62,1.34c0,1.14,1.5,1.51,4.19,1.51c0.65,0,1.3-0.07,1.94-0.11
				c0.18,0,0.23,0.09,0.21,0.23c-0.07,0.44-0.19,1.13-0.35,1.6c-0.05,0.18-0.12,0.25-0.37,0.26c-0.4,0.04-0.83,0.05-1.27,0.05
				c-4.05,0-6.19-1.14-6.19-3.31c0-1.88,1.62-3.06,4.36-3.06c1.28,0,2.32,0.14,3.03,0.44c-0.4-0.48-0.99-1.32-1.46-2.08
				c-1.81,0.28-3.54,0.49-4.82,0.53c-0.19,0-0.26-0.07-0.32-0.25c-0.11-0.35-0.26-0.95-0.32-1.44c1.76-0.04,3.17-0.18,4.73-0.44
				c-0.18-0.37-0.44-0.97-0.67-1.46c-1.62,0.25-2.92,0.4-4.28,0.42c-0.21,0-0.32-0.07-0.35-0.25c-0.05-0.19-0.18-0.84-0.28-1.41
				c1.72,0.02,3.13-0.12,4.38-0.28C55.23,259.67,55.12,259.37,54.94,258.93z"/>
			<path class="st3" d="M69.73,259.16c0.07-0.77,0.05-1.23-0.04-1.71c1,0.11,1.65,0.23,2.11,0.37c0.23,0.07,0.35,0.18,0.35,0.32
				c0,0.09-0.07,0.21-0.12,0.28c-0.12,0.16-0.26,0.46-0.3,0.65c-0.09,0.47-0.16,0.83-0.25,1.44c0.88-0.12,2.32-0.39,3.31-0.65
				c0.25-0.07,0.33-0.05,0.37,0.18c0.07,0.4,0.12,0.88,0.12,1.3c0,0.19-0.05,0.25-0.21,0.28c-1.51,0.33-2.46,0.53-3.94,0.72
				c-0.25,1.46-0.49,2.64-0.81,3.87c1.37-1.2,3.13-1.87,5.05-1.87c2.34,0,3.92,1.51,3.92,3.33c0,1.55-0.65,2.69-2.01,3.55
				c-1.06,0.69-2.57,1.11-4.49,1.41c-0.44,0.07-0.86,0.12-1.3,0.12c-0.18,0-0.3-0.09-0.44-0.42c-0.28-0.58-0.55-0.92-0.95-1.25
				c2.57-0.16,3.64-0.39,5.05-0.97c1.35-0.56,2.01-1.37,2.01-2.48c0-0.91-0.67-1.67-2.01-1.67c-1.9,0-3.64,0.88-4.63,2.18
				c-0.16,0.23-0.33,0.44-0.49,0.67c-0.12,0.21-0.18,0.28-0.33,0.26c-0.39-0.04-0.97-0.23-1.32-0.39c-0.28-0.12-0.39-0.19-0.39-0.35
				c0-0.07,0.02-0.19,0.07-0.35c0.09-0.3,0.16-0.56,0.23-0.83c0.39-1.55,0.63-2.85,0.93-4.61c-0.95,0.07-2.06,0.16-2.96,0.16
				c-0.19,0-0.3-0.09-0.33-0.25c-0.05-0.21-0.18-0.95-0.25-1.53c1.37,0,2.46-0.05,3.82-0.16C69.61,260.16,69.68,259.58,69.73,259.16
				z"/>
			<path class="st3" d="M86.33,265.83c0.7-0.58,1.46-0.9,2.15-0.9c1.9,0,2.38,1.64,2.57,3.33c0.14,1.28,0.35,1.87,1.02,1.87
				c0.63,0,1.16-0.32,1.65-0.84c0.62-0.65,1.34-1.67,1.78-2.87c0.35,0.79,0.7,1.14,1.02,1.46c0.14,0.12,0.19,0.25,0.19,0.37
				c0,0.11-0.02,0.19-0.07,0.3c-0.35,0.74-0.93,1.55-1.51,2.18c-0.88,0.95-2.02,1.48-3.24,1.48c-1.78,0-2.53-0.93-2.76-3.41
				c-0.16-1.76-0.55-2.27-1.16-2.27c-0.76,0-1.51,0.56-2.22,1.5c-0.63,0.84-1.37,2.29-2.06,3.91c-0.11,0.25-0.19,0.28-0.42,0.21
				c-0.48-0.19-0.95-0.44-1.35-0.76c-0.11-0.07-0.16-0.16-0.16-0.23c0-0.07,0.04-0.16,0.09-0.25c2.57-5.03,4.19-8.39,5.15-10.59
				c0.51-1.16,0.74-1.78,0.88-2.57c0.83,0.33,1.5,0.65,1.97,0.98c0.16,0.11,0.25,0.23,0.25,0.37c0,0.11-0.07,0.23-0.19,0.35
				c-0.21,0.23-0.39,0.49-0.55,0.76c-1.13,2.16-2.08,4.01-3.04,5.59L86.33,265.83z"/>
			<path class="st3" d="M104.44,258.02c0.21,0.05,0.32,0.14,0.32,0.28c0,0.25-0.12,0.49-0.12,0.74c0,0.35,0.05,0.77,0.09,1.18
				c0.16,1.23,0.33,2.11,0.56,3.03c0.88-0.47,1.51-0.81,2.5-1.34c0.51-0.3,0.93-0.6,1.21-0.95c0.56,0.58,1.02,1.2,1.28,1.65
				c0.07,0.11,0.12,0.25,0.12,0.37c0,0.18-0.11,0.32-0.35,0.35c-0.53,0.09-1.13,0.3-1.69,0.53c-1.51,0.62-2.92,1.27-4.13,2.06
				c-1.53,1-2.08,1.83-2.08,2.66c0,1.04,0.77,1.48,2.8,1.48c2.22,0,4.01-0.16,5.37-0.4c0.19-0.04,0.28,0,0.32,0.21
				c0.09,0.48,0.14,1.11,0.18,1.64c0.02,0.19-0.11,0.28-0.32,0.3c-1.6,0.21-3.01,0.26-5.24,0.26c-3.33,0-5.08-1.09-5.08-3.38
				c0-1.95,1.28-3.24,3.34-4.54c-0.42-1.35-0.74-2.94-0.92-4.29c-0.12-0.93-0.25-1.55-0.46-2.04
				C102.97,257.81,103.78,257.86,104.44,258.02z"/>
			<path class="st3" d="M118.92,258.19c0.3,0.07,0.42,0.16,0.42,0.33c0,0.19-0.11,0.41-0.18,0.58c-0.09,0.25-0.16,0.79-0.25,2.15
				c-0.18,2.71-0.26,4.5-0.26,6.81c0,1.78,0.21,2.18,1.62,2.18c1.57,0,4.01-0.95,6.16-3.24c0.07,0.67,0.23,1.25,0.4,1.67
				c0.09,0.19,0.14,0.32,0.14,0.42c0,0.16-0.07,0.3-0.35,0.54c-1.9,1.74-4.38,2.64-6.67,2.64c-2.25,0-3.31-0.9-3.31-3.59
				c0-2.96,0.16-5.49,0.25-7.6c0.04-1.04,0.09-2.16-0.18-3.22C117.53,257.97,118.37,258.05,118.92,258.19z"/>
			<path class="st3" d="M138.44,261.11c-2.15,0.4-4.03,0.77-5.91,1.16c-0.67,0.16-0.84,0.19-1.11,0.28
				c-0.12,0.05-0.25,0.14-0.39,0.14c-0.12,0-0.26-0.11-0.33-0.26c-0.23-0.48-0.42-1.09-0.65-1.9c0.9-0.04,1.42-0.11,2.8-0.3
				c2.16-0.32,6.03-0.9,10.57-1.5c0.26-0.04,0.35,0.07,0.37,0.19c0.09,0.4,0.18,1.06,0.19,1.55c0,0.21-0.11,0.26-0.33,0.26
				c-0.83,0.05-1.39,0.14-2.15,0.39c-2.99,1.02-4.49,3.08-4.49,5.19c0,2.27,1.62,3.5,4.68,3.69c0.28,0,0.39,0.07,0.39,0.26
				c0,0.46-0.07,1.07-0.19,1.51c-0.05,0.26-0.12,0.37-0.33,0.37c-3.1,0-6.49-1.78-6.49-5.44c0-2.5,1.25-4.19,3.38-5.58V261.11z"/>
			<path class="st3" d="M149.05,260.11c0.16,0.07,0.28,0.19,0.28,0.32c0,0.11-0.05,0.28-0.14,0.49c-0.07,0.21-0.16,0.97-0.16,1.72
				c0,1.13,0.04,2.39,0.32,4.01c0.25,1.39,0.7,2.59,1.44,2.59c0.56,0,1-0.62,1.69-2.45c0.39,0.62,0.77,1.02,1.13,1.35
				c0.21,0.19,0.21,0.4,0.12,0.65c-0.67,1.79-1.76,2.75-2.99,2.75c-1.37,0-2.81-1.62-3.29-4.59c-0.28-1.67-0.42-3.5-0.42-5.12
				c0-0.97-0.04-1.5-0.21-2.3C147.66,259.64,148.53,259.85,149.05,260.11z M157.22,261.22c0.07-0.04,0.14-0.07,0.19-0.07
				c0.07,0,0.12,0.04,0.19,0.11c1.6,1.39,3.01,3.82,3.45,6.02c0.05,0.23-0.05,0.3-0.19,0.39c-0.46,0.3-0.9,0.55-1.37,0.7
				c-0.21,0.07-0.33,0.02-0.37-0.19c-0.6-2.52-1.5-4.35-3.29-6.14C156.49,261.61,156.93,261.36,157.22,261.22z"/>
			<path class="st3" d="M168.83,264.39c0.98-0.56,1.81-0.79,2.8-0.79c2.57,0,4.36,1.69,4.36,4.22c0,2.94-2.38,4.82-6.14,4.82
				c-2.22,0-3.55-0.95-3.55-2.59c0-1.18,1.11-2.15,2.48-2.15c1.65,0,2.87,0.88,3.31,2.57c1.23-0.56,1.79-1.34,1.79-2.67
				c0-1.6-1.13-2.66-2.76-2.66c-1.46,0-3.08,0.65-4.5,1.87c-0.51,0.46-1,0.97-1.53,1.5c-0.12,0.12-0.21,0.19-0.3,0.19
				c-0.07,0-0.16-0.05-0.26-0.16c-0.37-0.32-0.76-0.77-1.04-1.14c-0.11-0.14-0.05-0.26,0.09-0.4c1.37-1.11,2.59-2.23,4.17-3.89
				c1.09-1.13,1.92-2,2.73-3.01c-1.06,0.19-2.3,0.44-3.4,0.67c-0.23,0.05-0.46,0.11-0.74,0.21c-0.09,0.04-0.26,0.09-0.35,0.09
				c-0.18,0-0.3-0.09-0.39-0.3c-0.21-0.4-0.37-0.9-0.62-1.9c0.53,0.07,1.11,0.07,1.64,0.04c1.07-0.11,2.62-0.33,3.99-0.6
				c0.44-0.09,0.79-0.18,0.97-0.26c0.09-0.05,0.25-0.14,0.33-0.14c0.18,0,0.28,0.05,0.4,0.14c0.53,0.4,0.88,0.76,1.18,1.13
				c0.14,0.16,0.19,0.28,0.19,0.42c0,0.18-0.11,0.33-0.3,0.42c-0.3,0.14-0.44,0.26-0.77,0.56c-1.28,1.25-2.46,2.48-3.8,3.76
				L168.83,264.39z M168.85,269.4c-0.51,0-0.84,0.3-0.84,0.67c0,0.54,0.48,0.91,1.53,0.91c0.32,0,0.55-0.02,0.81-0.07
				C170.12,269.95,169.59,269.4,168.85,269.4z"/>
		</g>
	</g>
	<g>
		<circle class="st4" cx="379.44" cy="427.82" r="88"/>
		<g>
			<path class="st2" d="M348.34,396.91c-0.92,0.89-1.84,1.72-2.82,2.46c-0.3,0.24-0.48,0.39-0.62,0.39c-0.18,0-0.3-0.24-0.48-0.68
				c-0.3-0.83-0.65-1.6-1.04-2.11c3.47-2.2,6.27-5.4,7.75-8.79h-3.35c-2.26,0-2.97,0.06-3.15,0.06c-0.3,0-0.33-0.03-0.33-0.33v-2.2
				c0-0.3,0.03-0.33,0.33-0.33c0.18,0,0.89,0.06,3.15,0.06h0.56v-1.22c0-1.57-0.03-2.52-0.24-3.62c1.13,0.03,2.02,0.09,3.09,0.21
				c0.3,0.03,0.48,0.18,0.48,0.3c0,0.27-0.09,0.42-0.18,0.62c-0.18,0.36-0.18,0.86-0.18,2.38v1.34h1.25c0.27,0,0.42-0.03,0.56-0.12
				c0.12-0.06,0.24-0.12,0.33-0.12c0.18,0,0.48,0.18,1.1,0.77c0.56,0.56,0.8,0.86,0.8,1.07c0,0.15-0.06,0.3-0.3,0.48
				c-0.27,0.27-0.45,0.42-0.68,0.86c-0.71,1.51-1.57,2.97-2.52,4.34c1.16,1.34,2.55,2.41,4.36,3.47c-0.45,0.48-0.86,1.19-1.19,1.93
				c-0.21,0.45-0.36,0.65-0.56,0.65c-0.15,0-0.33-0.12-0.59-0.36c-0.95-0.86-1.81-1.81-2.55-2.76V404c0,2.2,0.06,3.36,0.06,3.5
				c0,0.3-0.03,0.33-0.36,0.33h-2.38c-0.33,0-0.36-0.03-0.36-0.33c0-0.18,0.06-1.31,0.06-3.5V396.91z M358.26,406.7
				c-2.82,0-3.8,0.06-3.98,0.06c-0.3,0-0.33-0.03-0.33-0.33v-2.35c0-0.3,0.03-0.33,0.33-0.33c0.18,0,1.16,0.06,3.98,0.06h2.49
				v-11.11h-1.34c-2.64,0-3.56,0.03-3.74,0.03c-0.27,0-0.3,0-0.3-0.3v-2.35c0-0.3,0.03-0.3,0.3-0.3c0.18,0,1.1,0.03,3.74,0.03h1.34
				v-4.72c0-2.11-0.03-3.12-0.24-4.48c1.13,0.03,2.26,0.09,3.3,0.21c0.27,0.03,0.48,0.15,0.48,0.3c0,0.24-0.03,0.39-0.15,0.62
				c-0.18,0.36-0.24,1.1-0.24,3.27v4.81h1.87c2.64,0,3.56-0.03,3.74-0.03c0.3,0,0.33,0,0.33,0.3v2.35c0,0.3-0.03,0.3-0.33,0.3
				c-0.18,0-1.1-0.03-3.74-0.03h-1.87v11.11h2.7c2.82,0,3.77-0.06,3.95-0.06c0.33,0,0.36,0.03,0.36,0.33v2.35
				c0,0.3-0.03,0.33-0.36,0.33c-0.18,0-1.13-0.06-3.95-0.06H358.26z"/>
			<path class="st2" d="M382.17,402.49c0.98,0.45,1.72,0.95,2.29,1.34c0.3,0.21,0.39,0.3,0.39,0.47c0,0.21-0.18,0.36-0.48,0.42
				s-0.59,0.24-1.16,0.53c-1.54,0.92-4.04,1.96-6.62,2.55c-0.3,0.06-0.48,0.12-0.62,0.12c-0.33,0-0.42-0.21-0.71-0.8
				c-0.36-0.68-0.92-1.43-1.37-1.87c2.55-0.33,5.02-1.04,6.62-1.84c0.42-0.18,1.07-0.53,1.48-0.92h-0.71
				c-2.91,0-3.95,0.06-4.13,0.06c-0.33,0-0.36-0.03-0.36-0.33c0-0.18,0.06-1.07,0.06-3.12v-6.18c0-2.08-0.06-2.97-0.06-3.15
				c0-0.3,0.03-0.33,0.36-0.33c0.18,0,1.22,0.06,4.13,0.06h11.46c2.91,0,3.95-0.06,4.13-0.06c0.3,0,0.33,0.03,0.33,0.33
				c0,0.18-0.06,1.07-0.06,3.15v6.18c0,2.05,0.06,2.97,0.06,3.12c0,0.3-0.03,0.33-0.33,0.33c-0.18,0-1.22-0.06-4.13-0.06H382.17z
				 M391.25,381.58c2.82,0,3.8-0.06,3.98-0.06c0.3,0,0.33,0.03,0.33,0.33c0,0.18-0.06,0.68-0.06,1.99v1.93
				c0,1.28,0.06,1.78,0.06,1.96c0,0.3-0.03,0.33-0.33,0.33c-0.18,0-1.16-0.06-3.98-0.06h-8.46c-2.82,0-3.77,0.06-3.98,0.06
				c-0.3,0-0.33-0.03-0.33-0.33c0-0.21,0.06-0.68,0.06-1.96v-1.93c0-1.31-0.06-1.81-0.06-1.99c0-0.3,0.03-0.33,0.33-0.33
				c0.21,0,1.16,0.06,3.98,0.06H391.25z M379.91,393.22h14.16v-1.46h-14.16V393.22z M394.07,396.67v-1.49h-14.16v1.49H394.07z
				 M394.07,398.66h-14.16v1.54h14.16V398.66z M392.41,383.9h-10.78v1.87h10.78V383.9z M391.37,402.73
				c0.15-0.12,0.27-0.18,0.39-0.18c0.06,0,0.12,0.03,0.24,0.09c2.23,1.31,4.96,2.2,8.17,2.61c-0.5,0.48-1.04,1.16-1.45,1.81
				c-0.36,0.56-0.48,0.77-0.77,0.77c-0.15,0-0.33-0.06-0.62-0.12c-2.97-0.68-5.76-1.87-7.87-3.3c-0.12-0.09-0.18-0.15-0.18-0.24
				c0-0.09,0.09-0.18,0.3-0.3L391.37,402.73z"/>
			<path class="st3" d="M411.19,395.35c-0.38,2.8-1.07,5.38-2.06,7.11c-0.71,1.24-1.57,1.9-2.8,1.9c-1.45,0-2.92-1.55-2.92-4.24
				c0-1.58,0.68-3.1,1.86-4.29c1.39-1.39,3.13-2.11,5.36-2.11c3.96,0,6.28,2.44,6.28,5.72c0,3.07-1.73,5-5.08,6
				c-0.35,0.1-0.49,0.03-0.71-0.3c-0.18-0.28-0.53-0.66-1.15-1.04c2.79-0.66,4.98-1.81,4.98-4.93c0-1.96-1.48-3.83-3.69-3.83H411.19
				z M406.46,396.95c-0.79,0.89-1.29,2-1.29,3.05c0,1.52,0.61,2.36,1.12,2.36c0.43,0,0.79-0.21,1.24-1.01
				c0.73-1.34,1.47-3.71,1.75-5.91C408.13,395.68,407.2,396.14,406.46,396.95z"/>
			<path class="st2" d="M322.05,423.23c0,4.1-0.15,7.9-0.8,10.3c-0.77,2.76-2.11,4.87-4.22,7.22c-0.3,0.33-0.48,0.5-0.62,0.5
				s-0.3-0.18-0.56-0.56c-0.53-0.74-1.1-1.28-1.69-1.69c2.44-2.14,3.68-4.13,4.28-6.27c0.59-2.08,0.71-4.57,0.71-9.5v-3.98
				c0-1.9-0.06-3.3-0.24-4.72c1.1,0.03,2.05,0.09,3.03,0.18c0.27,0.03,0.48,0.18,0.48,0.3c0,0.27-0.15,0.5-0.21,0.77
				c-0.09,0.45-0.15,1.07-0.15,3.5V423.23z M314.72,421.72c0-1.9-0.03-2.82-0.18-4.07c0.98,0.03,1.96,0.09,2.79,0.18
				c0.24,0.03,0.39,0.18,0.39,0.36c0,0.24-0.09,0.39-0.15,0.68c-0.09,0.39-0.15,1.16-0.15,2.82v5.67c0,2.14,0.06,3.12,0.06,3.3
				c0,0.3-0.03,0.33-0.3,0.33h-2.17c-0.33,0-0.36-0.03-0.36-0.33c0-0.18,0.06-1.16,0.06-3.3V421.72z M336.58,426.59
				c2.88,0,3.92-0.06,4.13-0.06c0.27,0,0.3,0.03,0.3,0.3c0,0.18-0.06,0.62-0.06,1.22v0.89c0,2.17,0.06,2.52,0.06,2.7
				c0,0.3-0.03,0.33-0.3,0.33h-1.72c-0.03,0.36-0.03,0.95-0.03,1.78v0.71c0,1.25,0.06,1.96,0.06,2.73c0,0.8-0.09,1.37-0.68,1.9
				c-0.45,0.39-1.22,0.54-2.76,0.54c-0.89,0-0.89,0-1.04-0.77c-0.12-0.68-0.36-1.34-0.62-1.78c0.65,0.06,1.07,0.12,1.54,0.12
				c0.62,0.03,0.77-0.24,0.77-0.86v-2.73h-3.27v4.42c0,2.2,0.06,3.24,0.06,3.38c0,0.3-0.03,0.33-0.33,0.33h-2.26
				c-0.3,0-0.33-0.03-0.33-0.33c0-0.18,0.06-1.19,0.06-3.38v-4.42h-3v3.56c0,1.4,0.06,1.99,0.06,2.17c0,0.33-0.03,0.36-0.33,0.36
				h-2.14c-0.33,0-0.36-0.03-0.36-0.36c0-0.18,0.06-0.77,0.06-2.38v-3c0-0.95-0.03-1.57-0.03-1.96h-1.28c-0.3,0-0.33-0.03-0.33-0.36
				c0-0.18,0.06-0.53,0.06-2.7v-0.71c0-0.77-0.06-1.19-0.06-1.4c0-0.27,0.03-0.3,0.33-0.3c0.18,0,1.22,0.06,4.1,0.06H336.58z
				 M328.44,417.89c-2.64,0-3.53,0.06-3.71,0.06c-0.3,0-0.33-0.03-0.33-0.3v-1.78c0-0.3,0.03-0.33,0.33-0.33
				c0.18,0,1.07,0.06,3.71,0.06h5.82c2.76,0,4.07-0.06,4.25-0.06c0.33,0,0.36,0.03,0.36,0.33c0,0.18-0.06,1.01-0.06,2.76v3.3
				c0,1.9,0.06,2.7,0.06,2.88c0,0.33-0.03,0.36-0.36,0.36c-0.18,0-1.48-0.06-4.25-0.06h-6.38c-2.29,0-3.03,0.06-3.21,0.06
				c-0.3,0-0.33-0.03-0.33-0.36v-1.66c0-0.3,0.03-0.33,0.33-0.33c0.18,0,0.92,0.06,3.21,0.06h7.99v-1.43h-6.38
				c-2.85,0-3.83,0.06-4.01,0.06c-0.3,0-0.33-0.03-0.33-0.33v-1.66c0-0.3,0.03-0.33,0.33-0.33c0.18,0,1.16,0.06,4.01,0.06h6.38
				v-1.37H328.44z M325.62,431.19c0.59,0.03,1.48,0.03,2.88,0.03h1.66v-2.23h-4.54V431.19z M332.95,428.99v2.23h1.99
				c1.72,0,2.7,0,3.24-0.03v-2.2H332.95z"/>
			<path class="st2" d="M349.47,423.15c0,4.04-0.3,7.36-0.65,9.74c-0.48,2.91-1.13,5.29-2.61,7.75c-0.24,0.39-0.33,0.56-0.48,0.56
				c-0.09,0-0.24-0.15-0.5-0.47c-0.62-0.74-1.34-1.4-1.93-1.72c1.48-2.05,2.17-4.37,2.58-7.01c0.39-2.46,0.59-5.58,0.59-9.74
				c0-4.37-0.06-6.35-0.06-6.53c0-0.3,0.03-0.33,0.36-0.33c0.18,0,1.22,0.06,4.07,0.06h14.1c2.85,0,3.89-0.06,4.07-0.06
				c0.33,0,0.36,0.03,0.36,0.33c0,0.18-0.06,0.62-0.06,1.93v1.93c0,1.31,0.06,1.72,0.06,1.9c0,0.33-0.03,0.36-0.36,0.36
				c-0.18,0-1.22-0.06-4.07-0.06h-15.47V423.15z M366.25,417.83h-16.78v1.66h16.78V417.83z M363.51,438.68
				c-2.46,0.45-5.05,0.83-7.6,1.13c-0.48,0.06-0.83,0.15-0.98,0.24c-0.15,0.09-0.27,0.18-0.42,0.18c-0.18,0-0.33-0.15-0.42-0.45
				c-0.18-0.59-0.36-1.34-0.53-2.29c1.19,0.06,1.96,0,3.09-0.09l1.31-0.09v-2.17h-5.43v3.95c0,1.51,0.06,2.17,0.06,2.35
				c0,0.3-0.03,0.33-0.33,0.33H350c-0.33,0-0.36-0.03-0.36-0.33c0-0.21,0.06-0.8,0.06-2.46v-3.24c0-1.63-0.06-2.32-0.06-2.52
				c0-0.27,0.03-0.3,0.36-0.3c0.18,0,1.22,0.06,4.16,0.06h3.8v-1.4h-2.17c-2.79,0-3.74,0.06-3.92,0.06c-0.3,0-0.33-0.03-0.33-0.33
				c0-0.21,0.06-0.56,0.06-1.57v-1.48c0-1.04-0.06-1.37-0.06-1.54c0-0.33,0.03-0.36,0.33-0.36c0.18,0,1.13,0.06,3.92,0.06h2.17
				v-1.31c-1.96,0.12-3.98,0.18-5.85,0.21c-0.56,0-0.65,0.03-0.8-0.5c-0.21-0.71-0.5-1.34-0.77-1.72
				c4.81,0.06,10.66-0.24,13.51-0.65c0.56-0.09,1.31-0.27,1.75-0.45c0.71,0.56,1.19,1.01,1.72,1.57c0.21,0.21,0.27,0.33,0.27,0.5
				c0,0.18-0.21,0.27-0.48,0.27c-0.39-0.03-0.74-0.03-1.16,0.03c-1.54,0.24-3.39,0.42-5.35,0.56v1.48h2.61
				c2.79,0,3.74-0.06,3.92-0.06c0.3,0,0.33,0.03,0.33,0.36c0,0.18-0.06,0.5-0.06,1.54v1.48c0,1.01,0.06,1.4,0.06,1.57
				c0,0.3-0.03,0.33-0.33,0.33c-0.18,0-1.13-0.06-3.92-0.06h-2.61v1.4h4.4c2.91,0,3.95-0.06,4.16-0.06c0.3,0,0.33,0.03,0.33,0.3
				c0,0.18-0.06,1.04-0.06,2.64v0.89c0,0.8,0.06,1.43,0.06,2.29c0,0.8-0.15,1.37-0.71,1.84c-0.53,0.45-1.19,0.65-3.09,0.65
				c-0.71,0-0.71,0-0.86-0.95c-0.06-0.33-0.15-0.59-0.24-0.86l-0.53,0.12c-0.39,0.09-0.42,0.15-0.48-0.18L363.51,438.68z
				 M357.96,429.83v-1.63h-3.65v1.63H357.96z M362.56,435.94c-0.12-0.27-0.09-0.36,0.3-0.45l1.16-0.3c0.36-0.09,0.36-0.06,0.5,0.21
				c0.62,1.25,1.01,2.35,1.34,3.59h0.39c0.33,0,0.56-0.15,0.56-0.8v-3.06h-6.03v1.87l2.08-0.27L362.56,435.94z M364.85,428.19h-4.04
				v1.63h4.04V428.19z"/>
			<path class="st2" d="M374.06,439.54c-0.36-0.27-0.36-0.39-0.15-0.62c1.34-1.25,2.32-2.7,3-4.37c0.15-0.3,0.21-0.24,0.59-0.09
				l1.81,0.74c0.36,0.12,0.42,0.18,0.3,0.48c-0.8,2.02-1.87,3.47-3.24,5.05c-0.09,0.12-0.18,0.18-0.27,0.18
				c-0.09,0-0.21-0.06-0.36-0.18L374.06,439.54z M377.98,423.83c-2.64,0-3.53,0.06-3.71,0.06c-0.3,0-0.33-0.03-0.33-0.33v-1.9
				c0-0.3,0.03-0.33,0.33-0.33c0.18,0,1.07,0.06,3.71,0.06h3.36c-0.27-0.74-0.56-1.46-0.92-2.17c-2.85,0-3.83,0.06-4.01,0.06
				c-0.33,0-0.36-0.03-0.36-0.36v-1.78c0-0.3,0.03-0.33,0.36-0.33c0.18,0,1.16,0.06,4.04,0.06h4.87v-0.21c0-0.95-0.06-1.6-0.21-2.32
				c1.07,0,2.26,0.06,3.3,0.15c0.27,0.03,0.45,0.15,0.45,0.3c0,0.21-0.09,0.36-0.18,0.56c-0.09,0.27-0.12,0.56-0.12,1.31v0.21h5.26
				c2.88,0,3.86-0.06,4.04-0.06c0.3,0,0.33,0.03,0.33,0.33v1.78c0,0.33-0.03,0.36-0.33,0.36c-0.18,0-1.16-0.06-4.07-0.06h-0.39
				c-0.09,0.15-0.21,0.33-0.27,0.5c-0.18,0.39-0.42,1.07-0.71,1.66h3.68c2.64,0,3.53-0.06,3.71-0.06c0.33,0,0.36,0.03,0.36,0.33v1.9
				c0,0.3-0.03,0.33-0.36,0.33c-0.18,0-1.07-0.06-3.71-0.06H377.98z M391.97,425.11c2.88,0,3.89-0.06,4.1-0.06
				c0.3,0,0.33,0.03,0.33,0.33c0,0.18-0.06,0.83-0.06,2.38v3.06c0,1.54,0.06,2.2,0.06,2.38c0,0.3-0.03,0.33-0.33,0.33
				c-0.21,0-1.22-0.06-4.1-0.06h-9.86c-2.88,0-3.89,0.06-4.1,0.06c-0.3,0-0.33-0.03-0.33-0.33c0-0.21,0.06-0.83,0.06-2.38v-3.06
				c0-1.54-0.06-2.17-0.06-2.38c0-0.3,0.03-0.33,0.33-0.33c0.21,0,1.22,0.06,4.1,0.06H391.97z M383.98,437.43
				c0,0.62,0.12,0.95,0.48,1.1c0.48,0.18,1.48,0.21,2.7,0.21c1.9,0,3.09-0.03,3.74-0.36c0.5-0.24,0.74-1.1,0.77-2.38
				c0.59,0.36,1.31,0.65,2.17,0.89c0.74,0.21,0.74,0.21,0.65,1.01c-0.27,1.57-0.77,2.43-1.51,2.82c-1.1,0.53-2.82,0.68-5.91,0.68
				c-2.58,0-4.25-0.12-5.08-0.5c-0.65-0.36-1.1-0.83-1.1-2.43v-1.87c0-0.89-0.03-1.6-0.15-2.46c0.98,0.03,2.14,0.09,3.03,0.21
				c0.39,0.06,0.53,0.15,0.53,0.27c0,0.15-0.03,0.27-0.15,0.45c-0.15,0.24-0.18,0.59-0.18,1.25V437.43z M380.8,427.09v1.28h12.44
				v-1.28H380.8z M393.24,430.15H380.8v1.34h12.44V430.15z M383.56,419.23c0.3,0.62,0.56,1.34,0.83,2.17h4.9
				c0.33-0.71,0.65-1.54,0.83-2.17H383.56z M386.83,433.83c0.33-0.24,0.42-0.24,0.68-0.06c0.83,0.56,1.75,1.4,2.55,2.35
				c0.18,0.24,0.18,0.3-0.12,0.53l-1.34,1.13c-0.18,0.15-0.3,0.21-0.39,0.21c-0.12,0-0.18-0.06-0.3-0.21
				c-0.71-0.95-1.46-1.69-2.35-2.49c-0.33-0.21-0.3-0.18,0.09-0.5L386.83,433.83z M395.83,434.1c0.33-0.21,0.39-0.18,0.62,0.03
				c1.57,1.37,2.88,2.88,3.98,4.45c0.18,0.27,0.15,0.36-0.15,0.56l-1.84,1.22c-0.18,0.12-0.3,0.18-0.39,0.18
				c-0.09,0-0.15-0.09-0.24-0.24c-1.07-1.99-2.14-3.24-3.65-4.75c-0.24-0.24-0.21-0.24,0.15-0.48L395.83,434.1z"/>
			<path class="st2" d="M408.45,419.64c2.08,0,2.79-0.06,2.94-0.06c0.27,0,0.3,0.03,0.3,0.33v2.11c0,0.33-0.03,0.36-0.3,0.36
				c-0.15,0-0.86-0.06-2.94-0.06h-2.14c-2.11,0-2.76,0.06-2.94,0.06c-0.27,0-0.3-0.03-0.3-0.36v-2.11c0-0.3,0.03-0.33,0.3-0.33
				c0.18,0,0.83,0.06,2.94,0.06H408.45z M411.07,436.6c0,3.3,0.06,3.95,0.06,4.13c0,0.3-0.03,0.33-0.33,0.33h-1.9
				c-0.3,0-0.33-0.03-0.33-0.33v-0.98h-2.05v1.54c0,0.27-0.03,0.3-0.33,0.3h-1.93c-0.33,0-0.36-0.03-0.36-0.3
				c0-0.21,0.06-0.89,0.06-4.33v-2.11c0-1.87-0.06-2.58-0.06-2.79c0-0.3,0.03-0.33,0.36-0.33c0.18,0,0.8,0.06,2.7,0.06h1.1
				c1.9,0,2.52-0.06,2.73-0.06c0.3,0,0.33,0.03,0.33,0.33c0,0.18-0.06,0.89-0.06,2.29V436.6z M408.36,415.66
				c1.75,0,2.32-0.06,2.49-0.06c0.3,0,0.33,0.03,0.33,0.33v1.96c0,0.3-0.03,0.33-0.33,0.33c-0.18,0-0.74-0.06-2.49-0.06h-1.6
				c-1.78,0-2.35,0.06-2.52,0.06c-0.27,0-0.3-0.03-0.3-0.33v-1.96c0-0.3,0.03-0.33,0.3-0.33c0.18,0,0.74,0.06,2.52,0.06H408.36z
				 M408.1,423.8c1.66,0,2.17-0.06,2.32-0.06c0.33,0,0.36,0.03,0.36,0.33V426c0,0.3-0.03,0.33-0.36,0.33
				c-0.15,0-0.65-0.06-2.32-0.06h-1.22c-1.69,0-2.2,0.06-2.35,0.06c-0.3,0-0.3-0.03-0.3-0.33v-1.93c0-0.3,0-0.33,0.3-0.33
				c0.15,0,0.65,0.06,2.35,0.06H408.1z M408.1,427.81c1.66,0,2.17-0.06,2.32-0.06c0.33,0,0.36,0.03,0.36,0.33v1.9
				c0,0.3-0.03,0.33-0.36,0.33c-0.15,0-0.65-0.06-2.32-0.06h-1.22c-1.69,0-2.2,0.06-2.35,0.06c-0.3,0-0.3-0.03-0.3-0.33v-1.9
				c0-0.3,0-0.33,0.3-0.33c0.15,0,0.65,0.06,2.35,0.06H408.1z M406.52,434.22v3.09h2.05v-3.09H406.52z M416.06,426.32
				c-2.88,0-3.86,0.06-4.04,0.06c-0.33,0-0.36-0.03-0.36-0.33v-1.96c0-0.33,0.03-0.36,0.36-0.36c0.12,0,0.65,0.03,1.93,0.06
				c-0.21-0.83-0.5-1.81-0.77-2.46c-0.12-0.3-0.06-0.33,0.33-0.45l1.43-0.42c0.33-0.09,0.36-0.06,0.5,0.24
				c0.33,0.74,0.68,1.99,0.89,3.09h1.43c0.21-0.71,0.39-1.48,0.5-2.14c0.06-0.36,0.12-0.74,0.15-1.28c0.83,0.18,1.75,0.42,2.35,0.62
				c0.21,0.09,0.36,0.15,0.36,0.33c0,0.21-0.09,0.3-0.18,0.36c-0.12,0.09-0.24,0.24-0.3,0.45l-0.53,1.66h2.61l-0.09-4.99
				c-0.03-1.99-0.06-2.88-0.21-4.13c1.1,0.03,1.75,0.06,2.79,0.21c0.27,0.03,0.5,0.15,0.5,0.3c0,0.24-0.12,0.42-0.18,0.62
				c-0.15,0.36-0.21,0.89-0.18,2.91c0,1.84,0,3.53,0.06,5.08h0.53c2.88,0,3.89-0.06,4.07-0.06c0.3,0,0.33,0.03,0.33,0.36v1.96
				c0,0.3-0.03,0.33-0.33,0.33c-0.18,0-1.19-0.06-4.07-0.06h-0.45c0.09,2.02,0.24,3.74,0.48,5.23c0.27-0.5,0.53-1.07,0.77-1.66
				c0.3-0.74,0.53-1.48,0.68-2.38c0.68,0.33,1.66,0.68,2.26,1.13c0.27,0.21,0.39,0.33,0.39,0.5c0,0.24-0.12,0.36-0.36,0.59
				c-0.18,0.21-0.5,0.86-0.77,1.46c-0.68,1.46-1.4,2.76-2.2,3.95c0.53,1.81,1.1,2.7,1.4,2.7c0.33,0,0.59-0.71,0.71-3.47
				c0.42,0.39,0.98,0.77,1.51,1.07c0.53,0.3,0.5,0.39,0.45,0.98c-0.39,3.53-1.22,4.78-2.64,4.78c-1.22,0-2.44-1.13-3.41-3.5
				c-1.19,1.31-2.55,2.49-4.13,3.62c-0.3,0.21-0.48,0.33-0.62,0.33c-0.21,0-0.33-0.21-0.59-0.59c-0.36-0.56-0.92-1.13-1.25-1.4
				c0.74-0.47,1.46-0.92,2.11-1.42h-1.37c-0.3,0-0.33-0.03-0.33-0.33v-0.33h-3.18v1.66c0,0.3-0.03,0.33-0.33,0.33h-1.93
				c-0.3,0-0.33-0.03-0.33-0.33c0-0.18,0.06-0.98,0.06-5.31v-2.35c0-2.58-0.06-3.45-0.06-3.65c0-0.3,0.03-0.33,0.33-0.33
				c0.21,0,0.77,0.06,2.55,0.06h2.58c1.78,0,2.38-0.06,2.55-0.06c0.3,0,0.33,0.03,0.33,0.33c0,0.18-0.06,1.01-0.06,2.91v2.67
				c0,2.35,0.03,3.5,0.03,4.04c1.04-0.83,1.93-1.72,2.73-2.7c-0.09-0.3-0.15-0.62-0.21-0.95c-0.45-2.02-0.68-4.54-0.83-7.57H416.06z
				 M415.43,420.03c-2.05,0-2.67,0.06-2.85,0.06c-0.27,0-0.3-0.03-0.3-0.36v-1.93c0-0.3,0.03-0.33,0.3-0.33
				c0.18,0,0.8,0.06,2.85,0.06h0.21v-0.83c0-0.83-0.06-1.51-0.18-2.2c1.07,0,1.84,0.03,2.82,0.15c0.3,0.03,0.47,0.15,0.47,0.27
				c0,0.21-0.12,0.36-0.21,0.56c-0.09,0.24-0.09,0.59-0.09,1.22v0.83h0.24c2.05,0,2.67-0.06,2.82-0.06c0.3,0,0.33,0.03,0.33,0.33
				v1.93c0,0.33-0.03,0.36-0.33,0.36c-0.15,0-0.77-0.06-2.82-0.06H415.43z M415.4,431.46h3.18v-1.57h-3.18V431.46z M418.58,435.32
				v-1.69h-3.18v1.69H418.58z M428.11,421.45c-0.36,0.15-0.48,0.15-0.56-0.21c-0.36-1.54-0.86-2.91-1.46-3.98
				c-0.15-0.27-0.12-0.39,0.24-0.54l1.34-0.53c0.36-0.15,0.39-0.18,0.56,0.09c0.71,1.19,1.28,2.7,1.6,3.92
				c0.09,0.3,0.03,0.47-0.27,0.59L428.11,421.45z"/>
			<path class="st3" d="M437.38,428.06c0.08-0.5,0.17-1.14,0.17-1.83c0.86,0.18,1.32,0.3,1.98,0.54c0.17,0.05,0.26,0.18,0.26,0.33
				c0,0.08-0.03,0.17-0.12,0.25c-0.17,0.21-0.25,0.4-0.33,0.63c-0.21,0.68-0.38,1.29-0.59,1.98c0.45-0.05,0.94-0.07,1.32-0.07
				c1.53,0,2.36,1.07,2.36,3.18c0,1.78-0.33,3.97-0.89,5.16c-0.48,1.06-1.27,1.55-2.23,1.55c-0.79,0-1.35-0.08-1.72-0.25
				c-0.2-0.08-0.3-0.21-0.3-0.46c-0.05-0.53-0.08-0.99-0.31-1.53c0.74,0.35,1.39,0.43,1.9,0.43c0.54,0,0.79-0.2,1.06-0.87
				c0.35-0.92,0.64-2.49,0.64-4.11c0-1.15-0.21-1.52-0.94-1.52c-0.4,0-0.91,0.05-1.39,0.12c-1.09,3.17-2.03,5.44-3.32,7.75
				c-0.1,0.21-0.23,0.25-0.43,0.15c-0.3-0.15-0.94-0.54-1.14-0.73c-0.08-0.08-0.13-0.15-0.13-0.25c0-0.05,0.02-0.12,0.07-0.18
				c1.32-2.29,2.18-4.04,3.02-6.47c-0.64,0.1-1.17,0.2-1.62,0.28c-0.43,0.08-0.69,0.18-0.91,0.26c-0.23,0.08-0.43,0.05-0.53-0.21
				c-0.15-0.38-0.33-0.97-0.51-1.7c0.73,0,1.45-0.05,2.18-0.12c0.69-0.07,1.3-0.15,1.95-0.25
				C437.15,429.2,437.27,428.62,437.38,428.06z M443.91,429.16c0.12-0.07,0.2-0.03,0.31,0.08c1.12,1.06,2.13,2.42,2.74,4.01
				c0.07,0.15,0.05,0.23-0.07,0.33c-0.28,0.26-0.91,0.66-1.24,0.83c-0.16,0.08-0.33,0.07-0.38-0.13c-0.66-1.73-1.52-3.15-2.71-4.27
				C442.99,429.73,443.47,429.4,443.91,429.16z M444.36,426.86c0.08-0.07,0.15-0.05,0.25,0.03c0.51,0.4,1.11,1.06,1.57,1.76
				c0.07,0.1,0.07,0.18-0.05,0.26l-0.69,0.51c-0.12,0.08-0.2,0.07-0.28-0.05c-0.49-0.76-1.02-1.39-1.67-1.91L444.36,426.86z
				 M445.83,425.78c0.1-0.07,0.15-0.05,0.25,0.03c0.61,0.46,1.2,1.12,1.57,1.7c0.07,0.1,0.08,0.2-0.05,0.3l-0.66,0.51
				c-0.13,0.1-0.21,0.05-0.28-0.05c-0.45-0.71-0.97-1.34-1.65-1.9L445.83,425.78z"/>
			<path class="st2" d="M359,462.15c1.37,0,1.72-0.06,1.9-0.06c0.3,0,0.39,0.09,0.36,0.39c-0.06,0.59-0.09,1.42-0.12,2.08
				c-0.27,5.17-0.8,7.57-1.28,8.73c-0.53,1.34-1.57,1.96-3.77,1.96c-0.39,0-0.89,0-1.43-0.03c-0.62-0.06-0.62-0.06-0.8-0.98
				c-0.15-0.83-0.45-1.72-0.68-2.2c1.16,0.18,1.87,0.27,2.61,0.27c0.53,0,1.04-0.09,1.34-0.45c0.42-0.53,0.89-2.46,1.16-7.07h-2.85
				l-0.21,1.1c-0.09,0.36-0.09,0.36-1.63,0.18c-1.37-0.18-1.37-0.21-1.28-0.62c0.53-2.49,0.89-4.78,1.07-6.86
				c0.09-0.74,0.12-1.37,0.09-2.11c0-0.3,0.09-0.39,0.39-0.39c0.18,0,0.86,0.06,1.96,0.06h2.61v-3.74h-2.85
				c-1.84,0-2.38,0.06-2.55,0.06c-0.33,0-0.36-0.03-0.36-0.33v-2.14c0-0.33,0.03-0.36,0.36-0.36c0.18,0,0.71,0.06,2.55,0.06h3.27
				c1.37,0,1.87-0.06,2.05-0.06c0.33,0,0.36,0.03,0.36,0.36c0,0.18-0.06,0.95-0.06,2.67v3.06c0,1.69,0.06,2.49,0.06,2.67
				c0,0.3-0.03,0.33-0.36,0.33c-0.18,0-0.68-0.06-2.05-0.06h-2.61c-0.12,1.25-0.27,2.4-0.42,3.47H359z M373.87,469.13
				c-0.15-0.24-0.09-0.33,0.27-0.48l1.51-0.65c0.33-0.15,0.39-0.09,0.53,0.18c1.16,1.54,2.35,3.59,3.18,5.58
				c0.09,0.27,0.06,0.36-0.27,0.5l-1.69,0.77c-0.36,0.12-0.48,0.09-0.59-0.21c-0.27-0.68-0.53-1.37-0.86-2.05
				c-3.83,0.71-7.96,1.31-11.58,1.75c-0.5,0.06-1.01,0.21-1.25,0.33c-0.21,0.09-0.36,0.15-0.53,0.15c-0.24,0-0.42-0.15-0.5-0.48
				c-0.27-0.92-0.45-1.93-0.62-2.91c1.19,0.06,2.14,0.03,3.44-0.06c1.07-0.06,2.38-0.18,3.74-0.36v-3.65h-1.72
				c-2.64,0-3.59,0.06-3.8,0.06c-0.3,0-0.33-0.03-0.33-0.33c0-0.21,0.06-0.83,0.06-2.38v-3.15c0-1.54-0.06-2.17-0.06-2.38
				c0-0.3,0.03-0.33,0.33-0.33c0.21,0,1.16,0.06,3.8,0.06h1.72v-2.5c-1.43,0.12-2.79,0.21-4.07,0.27c-0.53,0.03-0.86,0.12-1.1,0.24
				c-0.15,0.09-0.27,0.15-0.48,0.15c-0.18,0-0.33-0.12-0.42-0.47c-0.15-0.8-0.3-1.78-0.39-2.64c0.77,0.06,1.6,0.03,2.35,0.03
				c0.8-1.37,1.48-2.88,1.84-3.83c0.27-0.68,0.45-1.19,0.56-2.02c1.13,0.15,2.02,0.3,2.88,0.53c0.27,0.09,0.45,0.24,0.45,0.45
				c0,0.21-0.12,0.39-0.3,0.53c-0.18,0.15-0.33,0.36-0.56,0.83c-0.48,0.98-1.16,2.29-1.81,3.42c2.2-0.09,4.39-0.27,6.24-0.42
				c-0.56-0.74-1.19-1.46-1.81-2.11c-0.21-0.21-0.18-0.3,0.15-0.47l1.48-0.86c0.3-0.18,0.39-0.18,0.59,0.03
				c1.63,1.63,3.44,3.83,4.72,5.7c0.15,0.27,0.18,0.36-0.18,0.59l-1.78,1.07c-0.18,0.12-0.3,0.18-0.36,0.18
				c-0.12,0-0.18-0.09-0.27-0.27c-0.3-0.53-0.59-1.07-0.92-1.6c-1.22,0.15-2.58,0.3-4.04,0.42v2.76h2.02c2.67,0,3.62-0.06,3.8-0.06
				c0.3,0,0.33,0.03,0.33,0.33c0,0.18-0.06,0.83-0.06,2.38v3.15c0,1.54,0.06,2.2,0.06,2.38c0,0.3-0.03,0.33-0.33,0.33
				c-0.18,0-1.13-0.06-3.8-0.06h-2.02v3.3l3.21-0.45L373.87,469.13z M368.65,465.09v-3.5h-3.03v3.5H368.65z M374.73,461.59h-3.3v3.5
				h3.3V461.59z"/>
			<path class="st2" d="M387.69,453.6c0.27,0.12,0.48,0.33,0.48,0.53c0,0.18-0.09,0.48-0.24,0.83c-0.12,0.36-0.27,1.63-0.27,2.91
				c0,1.9,0.06,4.04,0.53,6.77c0.42,2.35,1.19,4.37,2.44,4.37c0.95,0,1.69-1.04,2.85-4.13c0.65,1.04,1.31,1.72,1.9,2.29
				c0.36,0.33,0.36,0.68,0.21,1.1c-1.13,3.03-2.97,4.63-5.05,4.63c-2.32,0-4.75-2.73-5.55-7.75c-0.48-2.82-0.71-5.91-0.71-8.64
				c0-1.63-0.06-2.52-0.36-3.89C385.34,452.8,386.8,453.15,387.69,453.6z M401.46,455.47c0.12-0.06,0.24-0.12,0.33-0.12
				c0.12,0,0.21,0.06,0.33,0.18c2.7,2.35,5.08,6.44,5.82,10.16c0.09,0.39-0.09,0.5-0.33,0.65c-0.77,0.5-1.51,0.92-2.32,1.19
				c-0.36,0.12-0.56,0.03-0.62-0.33c-1.01-4.25-2.52-7.33-5.55-10.36C400.25,456.12,400.99,455.71,401.46,455.47z"/>
		</g>
	</g>
	<g>
		<circle class="st4" cx="112.14" cy="389.29" r="56.32"/>
		<g>
			<path class="st2" d="M71.48,373.01c0,4.22-0.15,7.48-0.56,10.57c-0.36,2.43-1.22,4.93-2.55,6.92c-0.21,0.33-0.33,0.53-0.48,0.53
				s-0.3-0.15-0.59-0.48c-0.62-0.74-1.25-1.25-1.84-1.6c1.34-1.72,2.29-4.07,2.58-6.12c0.39-2.64,0.53-5.61,0.53-9.86
				c0-4.96-0.06-7.22-0.06-7.39c0-0.33,0.03-0.36,0.33-0.36c0.21,0,1.16,0.06,4.07,0.06h11.94c2.88,0,3.92-0.06,4.13-0.06
				c0.3,0,0.33,0.03,0.33,0.36c0,0.18-0.09,1.54-0.09,4.19v1.13c0,5.61,0.12,10.19,0.5,12.56c0.39,2.26,0.65,3.74,1.16,3.74
				c0.42,0,0.65-1.75,0.71-4.25c0.39,0.54,1.1,1.13,1.75,1.51c0.48,0.27,0.36,0.36,0.3,1.25c-0.27,3.77-1.34,5.08-2.88,5.08
				c-1.93,0-3-2.23-3.77-6.41c-0.45-2.61-0.65-6.98-0.68-13.42v-2.97H71.48V373.01z M84.4,383.37c0.36-0.12,0.39-0.06,0.53,0.21
				c0.86,1.54,1.69,3.59,2.2,5.32c0.09,0.33,0.03,0.36-0.3,0.5l-1.6,0.71c-0.42,0.18-0.48,0.12-0.53-0.21
				c-0.18-0.65-0.36-1.37-0.59-2.05c-3.15,0.62-6.89,1.16-10.39,1.57c-0.48,0.06-0.98,0.15-1.13,0.24c-0.18,0.12-0.3,0.21-0.45,0.21
				c-0.18,0-0.36-0.15-0.45-0.47c-0.24-0.83-0.45-1.78-0.56-2.7c1.19,0.06,2.11,0,3.24-0.09c0.98-0.06,2.05-0.18,3.18-0.33v-3.47
				h-0.95c-2.32,0-3.12,0.06-3.33,0.06c-0.3,0-0.33-0.03-0.33-0.3c0-0.21,0.06-0.8,0.06-2.29v-2.91c0-1.48-0.06-2.05-0.06-2.26
				c0-0.3,0.03-0.33,0.33-0.33c0.21,0,1.01,0.06,3.33,0.06h0.95v-2.11c-1.04,0.15-2.14,0.24-3.27,0.33
				c-0.95,0.06-0.95,0.03-1.13-0.59c-0.27-0.89-0.45-1.37-0.77-1.81c3.53-0.15,6.92-0.65,8.97-1.13c0.83-0.21,1.51-0.42,2.08-0.71
				c0.56,0.47,1.19,1.22,1.63,1.78c0.18,0.21,0.27,0.36,0.27,0.56s-0.3,0.33-0.65,0.33c-0.3,0-0.83,0.12-1.37,0.27
				c-0.89,0.21-1.9,0.42-3.03,0.59v2.49h0.92c2.35,0,3.12-0.06,3.3-0.06c0.33,0,0.36,0.03,0.36,0.33c0,0.18-0.06,0.77-0.06,2.26
				v2.91c0,1.48,0.06,2.11,0.06,2.29c0,0.27-0.03,0.3-0.36,0.3c-0.18,0-0.95-0.06-3.3-0.06h-0.95v3.15l2.94-0.45l-0.53-1.1
				c-0.12-0.33-0.09-0.33,0.3-0.47L84.4,383.37z M77.57,380.58v-3.59h-2.11v3.59H77.57z M82.29,376.99h-2.05v3.59h2.05V376.99z"/>
			<path class="st2" d="M100.47,384.68c0.62,1.22,1.28,1.93,2.52,2.46c1.01,0.42,3,0.62,5.58,0.62c3.8,0,8.46-0.21,12.89-0.74
				c-0.42,0.59-0.68,1.51-0.8,2.35c-0.15,0.95-0.15,0.95-1.1,0.98c-3.8,0.24-7.42,0.33-10.54,0.33c-3.03,0-5.91-0.3-6.98-0.83
				c-1.34-0.65-2.29-1.46-3-2.7c-0.92,0.89-1.9,1.78-2.82,2.64c-0.33,0.3-0.48,0.45-0.59,0.59c-0.12,0.21-0.24,0.3-0.42,0.3
				c-0.12,0-0.3-0.15-0.42-0.39c-0.42-0.77-0.8-1.72-1.22-2.79c0.74-0.36,1.16-0.59,1.72-0.95c0.8-0.5,1.54-1.13,2.29-1.84v-6.62
				h-1.25c-1.54,0-1.93,0.06-2.08,0.06c-0.33,0-0.36-0.03-0.36-0.36v-2.26c0-0.3,0.03-0.33,0.36-0.33c0.15,0,0.53,0.06,2.08,0.06
				h1.72c1.54,0,1.99-0.06,2.14-0.06c0.3,0,0.33,0.03,0.33,0.33c0,0.18-0.06,1.01-0.06,2.82V384.68z M96.25,365.11
				c0.15-0.09,0.27-0.15,0.36-0.15c0.09,0,0.18,0.06,0.3,0.18c1.37,1.25,2.58,2.7,3.65,4.36c0.18,0.27,0.18,0.33-0.18,0.59
				l-1.66,1.28c-0.18,0.12-0.3,0.21-0.39,0.21c-0.09,0-0.15-0.09-0.24-0.24c-1.07-1.81-2.29-3.38-3.56-4.63
				c-0.24-0.21-0.21-0.3,0.12-0.5L96.25,365.11z M119.14,379.22c0,1.81,0.06,3.21,0.06,4.22c0,1.13-0.15,1.81-0.74,2.35
				c-0.48,0.39-1.13,0.68-3.03,0.71c-0.89,0-0.86,0-1.01-0.68c-0.18-0.89-0.39-1.6-0.77-2.05c0.71,0.06,1.37,0.09,1.87,0.09
				c0.59,0,0.8-0.21,0.8-0.86v-1.43h-4.28v0.8c0,2.26,0.06,3.27,0.06,3.44c0,0.33-0.03,0.36-0.3,0.36h-2.2
				c-0.3,0-0.33-0.03-0.33-0.36c0-0.18,0.06-1.19,0.06-3.44v-0.8h-3.86v1.13c0,2.26,0.06,3.33,0.06,3.5c0,0.3-0.03,0.33-0.33,0.33
				h-2.17c-0.33,0-0.36-0.03-0.36-0.33c0-0.21,0.06-1.19,0.06-3.47v-8.34c0-2.32-0.06-3.33-0.06-3.53c0-0.3,0.03-0.33,0.36-0.33
				c0.15,0,1.16,0.06,3.95,0.06h1.6c-0.77-0.62-1.63-1.16-2.55-1.72c-0.12-0.09-0.18-0.15-0.18-0.24s0.09-0.18,0.24-0.3l1.45-0.98
				h-1.1c-2.79,0-3.71,0.06-3.89,0.06c-0.3,0-0.33-0.03-0.33-0.3v-1.99c0-0.33,0.03-0.36,0.33-0.36c0.18,0,1.1,0.06,3.89,0.06h8.82
				c0.39,0,0.62-0.03,0.77-0.09c0.21-0.09,0.3-0.12,0.45-0.12c0.24,0,0.5,0.21,1.22,0.86c0.71,0.68,0.92,0.98,0.92,1.28
				c0,0.27-0.18,0.45-0.5,0.56c-0.3,0.09-0.59,0.27-1.13,0.74c-1.04,0.89-2.02,1.66-3.24,2.52h1.1c2.82,0,3.8-0.06,4.01-0.06
				c0.3,0,0.33,0.03,0.33,0.33c0,0.18-0.06,1.4-0.06,3.8V379.22z M109.34,374.97v-2.11h-3.86v2.11H109.34z M109.34,379.31v-2.11
				h-3.86v2.11H109.34z M108.13,367.34c1.04,0.68,2.02,1.46,3,2.35c1.04-0.71,1.96-1.43,2.97-2.35H108.13z M112.05,372.86v2.11h4.28
				v-2.11H112.05z M116.32,379.31v-2.11h-4.28v2.11H116.32z"/>
			<path class="st2" d="M129.01,366.03c0.5,0.12,0.71,0.27,0.71,0.56c0,0.33-0.18,0.68-0.3,0.98c-0.15,0.42-0.27,1.34-0.42,3.62
				c-0.3,4.57-0.45,7.6-0.45,11.49c0,3,0.36,3.68,2.73,3.68c2.64,0,6.77-1.6,10.39-5.46c0.12,1.13,0.39,2.11,0.68,2.82
				c0.15,0.33,0.24,0.53,0.24,0.71c0,0.27-0.12,0.5-0.59,0.92c-3.21,2.94-7.39,4.45-11.25,4.45c-3.8,0-5.58-1.51-5.58-6.06
				c0-4.99,0.27-9.26,0.42-12.83c0.06-1.75,0.15-3.65-0.3-5.43C126.66,365.65,128.09,365.8,129.01,366.03z"/>
			<path class="st3" d="M151.08,377.63c0.08-0.5,0.17-1.14,0.17-1.83c0.86,0.18,1.32,0.3,1.98,0.54c0.17,0.05,0.26,0.18,0.26,0.33
				c0,0.08-0.03,0.17-0.12,0.25c-0.17,0.21-0.25,0.4-0.33,0.63c-0.21,0.68-0.38,1.29-0.59,1.98c0.45-0.05,0.94-0.07,1.32-0.07
				c1.53,0,2.36,1.07,2.36,3.18c0,1.78-0.33,3.97-0.89,5.16c-0.48,1.06-1.27,1.55-2.23,1.55c-0.79,0-1.35-0.08-1.72-0.25
				c-0.2-0.08-0.3-0.21-0.3-0.46c-0.05-0.53-0.08-0.99-0.31-1.53c0.74,0.35,1.39,0.43,1.9,0.43c0.54,0,0.79-0.2,1.06-0.87
				c0.35-0.92,0.64-2.49,0.64-4.11c0-1.15-0.21-1.52-0.94-1.52c-0.4,0-0.91,0.05-1.39,0.12c-1.09,3.17-2.03,5.44-3.32,7.75
				c-0.1,0.21-0.23,0.25-0.43,0.15c-0.3-0.15-0.94-0.54-1.14-0.73c-0.08-0.08-0.13-0.15-0.13-0.25c0-0.05,0.02-0.12,0.07-0.18
				c1.32-2.29,2.18-4.04,3.02-6.47c-0.64,0.1-1.17,0.2-1.62,0.28c-0.43,0.08-0.69,0.18-0.91,0.26c-0.23,0.08-0.43,0.05-0.53-0.21
				c-0.15-0.38-0.33-0.97-0.51-1.7c0.73,0,1.45-0.05,2.18-0.12c0.69-0.07,1.3-0.15,1.95-0.25
				C150.84,378.77,150.96,378.19,151.08,377.63z M157.61,378.73c0.12-0.07,0.2-0.03,0.31,0.08c1.12,1.06,2.13,2.42,2.74,4.01
				c0.07,0.15,0.05,0.23-0.07,0.33c-0.28,0.26-0.91,0.66-1.24,0.83c-0.16,0.08-0.33,0.07-0.38-0.13c-0.66-1.73-1.52-3.15-2.71-4.27
				C156.68,379.29,157.16,378.96,157.61,378.73z M158.05,376.42c0.08-0.07,0.15-0.05,0.25,0.03c0.51,0.4,1.11,1.06,1.57,1.76
				c0.07,0.1,0.07,0.18-0.05,0.26l-0.69,0.51c-0.12,0.08-0.2,0.07-0.28-0.05c-0.49-0.76-1.02-1.39-1.67-1.91L158.05,376.42z
				 M159.52,375.35c0.1-0.07,0.15-0.05,0.25,0.03c0.61,0.46,1.2,1.12,1.57,1.7c0.07,0.1,0.08,0.2-0.05,0.3l-0.66,0.51
				c-0.13,0.1-0.21,0.05-0.28-0.05c-0.45-0.71-0.97-1.34-1.65-1.9L159.52,375.35z"/>
			<path class="st2" d="M99.83,411.1c0.68,1.4,1.6,2.61,2.76,3.68c1.51-0.89,2.7-1.63,3.59-2.32c0.42-0.33,0.68-0.65,1.01-1.13
				c1.04,0.53,1.72,0.95,2.52,1.51c0.21,0.18,0.3,0.3,0.3,0.48c0,0.21-0.18,0.3-0.45,0.36c-0.33,0.06-0.56,0.18-1.04,0.5
				c-0.98,0.65-2.17,1.4-3.83,2.26c2.26,1.45,5.05,2.46,8.25,3.06c-0.48,0.54-0.98,1.28-1.34,2.14c-0.36,0.86-0.39,0.83-1.31,0.65
				c-6.74-1.81-11.19-5.46-13.57-11.2h-3.8v7.19c2.08-0.45,4.13-1.01,6.38-1.66c-0.09,0.56-0.12,1.22-0.15,1.87
				c0,0.95,0,0.95-0.89,1.19c-3.5,1.1-6.98,1.93-9.56,2.46c-0.5,0.09-0.92,0.21-1.1,0.36c-0.15,0.12-0.33,0.18-0.48,0.18
				c-0.21,0-0.39-0.12-0.48-0.36c-0.3-0.86-0.53-1.99-0.74-2.94c1.28-0.09,2.08-0.18,3.21-0.36l0.65-0.09V403.8
				c0-3.06-0.06-4.63-0.06-4.84c0-0.27,0.03-0.3,0.36-0.3c0.18,0,1.63,0.06,4.39,0.06h3.09v-0.15c0-1.16-0.03-1.93-0.21-3
				c1.1,0.03,2.14,0.09,3.18,0.21c0.3,0.03,0.48,0.15,0.48,0.33c0,0.24-0.06,0.39-0.18,0.56c-0.15,0.27-0.18,0.65-0.18,1.57v0.47
				h2.97c2.91,0,4.31-0.06,4.48-0.06c0.3,0,0.33,0.03,0.33,0.3c0,0.18-0.06,1.16-0.06,3.24v5.43c0,2.08,0.06,3.03,0.06,3.21
				c0,0.3-0.03,0.33-0.33,0.33c-0.18,0-1.57-0.06-4.48-0.06H99.83z M92.95,401.39v2.14h12.32v-2.14H92.95z M105.27,406.11H92.95
				v2.35h12.32V406.11z"/>
			<path class="st2" d="M119.5,400.77c0.27,0.12,0.48,0.33,0.48,0.53c0,0.18-0.09,0.48-0.24,0.83c-0.12,0.36-0.27,1.63-0.27,2.91
				c0,1.9,0.06,4.04,0.53,6.77c0.42,2.35,1.19,4.37,2.44,4.37c0.95,0,1.69-1.04,2.85-4.13c0.65,1.04,1.31,1.72,1.9,2.29
				c0.36,0.33,0.36,0.68,0.21,1.1c-1.13,3.03-2.97,4.63-5.05,4.63c-2.32,0-4.75-2.73-5.55-7.75c-0.48-2.82-0.71-5.91-0.71-8.64
				c0-1.63-0.06-2.52-0.36-3.89C117.15,399.97,118.61,400.32,119.5,400.77z M133.28,402.64c0.12-0.06,0.24-0.12,0.33-0.12
				c0.12,0,0.21,0.06,0.33,0.18c2.7,2.35,5.08,6.44,5.82,10.16c0.09,0.39-0.09,0.5-0.33,0.65c-0.77,0.5-1.51,0.92-2.32,1.19
				c-0.36,0.12-0.56,0.03-0.62-0.33c-1.01-4.25-2.52-7.33-5.55-10.36C132.06,403.29,132.8,402.88,133.28,402.64z"/>
		</g>
	</g>
	<g>
		<circle class="st1" cx="240.97" cy="333.37" r="56.32"/>
		<g>
			<path class="st2" d="M219.01,322.8c0.38-0.17,0.45-0.14,0.63,0.17c1.08,2.15,2.33,3.96,3.82,5.56c0.83-0.97,1.6-1.98,2.26-3.09
				c0.66-1.08,1.08-1.98,1.46-3.02c1.32,0.56,2.22,1.04,3.06,1.42c0.31,0.17,0.52,0.42,0.52,0.63c0,0.24-0.14,0.45-0.42,0.7
				c-0.35,0.28-0.76,0.8-1.29,1.56c-1.04,1.53-2.02,2.88-3.06,4.1c3.27,2.43,7.5,4.07,13.27,5.11c-0.63,0.76-1.08,1.74-1.42,2.71
				c-0.24,0.66-0.35,0.94-0.66,0.94c-0.17,0-0.49-0.07-0.8-0.14c-5.7-1.53-9.73-3.47-12.89-6.04c-2.92,2.54-6.6,4.34-12.54,6.08
				c-0.38,0.1-0.63,0.17-0.8,0.17c-0.35,0-0.42-0.21-0.69-0.87c-0.38-0.87-1.01-1.7-1.56-2.29c5.52-1.18,9.76-3.02,12.99-5.56
				c-1.67-1.84-3.09-3.96-4.41-6.39c-0.17-0.31-0.1-0.42,0.31-0.63L219.01,322.8z M215.16,318.07c0.49-0.56,0.97-1.32,1.32-2.12
				c1.04,0.49,2.02,0.97,2.74,1.49c0.49,0.35,0.63,0.49,0.63,0.69c0,0.21-0.14,0.35-0.45,0.56c-0.35,0.21-0.76,0.63-1.22,1.25
				c-1.56,1.95-3.68,4-6.71,5.98c-0.42,0.28-0.66,0.42-0.83,0.42c-0.17,0-0.31-0.17-0.59-0.59c-0.66-0.97-1.29-1.67-1.88-2.08
				C211.41,321.93,213.49,320.05,215.16,318.07z M213.21,315.32c-3.16,0-4.2,0.07-4.41,0.07c-0.35,0-0.38-0.03-0.38-0.35v-2.81
				c0-0.35,0.03-0.35,0.38-0.35c0.21,0,1.25,0.04,4.41,0.04h8.3v-0.63c0-1.46-0.07-2.36-0.24-3.2c1.25,0,2.47,0.07,3.72,0.17
				c0.31,0.03,0.52,0.17,0.52,0.35c0,0.21-0.1,0.42-0.21,0.66c-0.1,0.31-0.14,0.76-0.14,2.05v0.59h8.72c3.13,0,4.2-0.04,4.41-0.04
				c0.35,0,0.38,0,0.38,0.35v2.81c0,0.31-0.03,0.35-0.38,0.35c-0.21,0-1.29-0.07-4.41-0.07H213.21z M229.23,316.26
				c0.17-0.1,0.31-0.17,0.42-0.17c0.1,0,0.17,0.07,0.31,0.21c2.26,2.71,5.32,5.25,8.89,6.67c-0.59,0.63-1.32,1.46-1.74,2.22
				c-0.31,0.56-0.45,0.8-0.73,0.8c-0.17,0-0.45-0.14-0.83-0.35c-3.34-1.91-6.15-4.38-8.41-7.54c-0.24-0.31-0.17-0.42,0.21-0.66
				L229.23,316.26z"/>
			<path class="st2" d="M243.93,317.44c0.28-0.35,0.38-0.35,0.69-0.17c1.7,0.94,3.37,2.12,4.97,3.54c0.14,0.14,0.21,0.21,0.21,0.28
				c0,0.1-0.07,0.21-0.21,0.42l-1.6,2.22c-0.1,0.17-0.17,0.24-0.28,0.24c-0.07,0-0.17-0.07-0.31-0.21
				c-1.46-1.46-3.16-2.75-4.86-3.79c-0.17-0.1-0.28-0.17-0.28-0.24c0-0.1,0.1-0.24,0.24-0.42L243.93,317.44z M244.42,334.4
				c0.97-1.98,2.22-4.69,3.37-8.06c0.49,0.49,1.25,1.22,1.91,1.77c0.56,0.42,0.76,0.59,0.76,0.87c0,0.21-0.07,0.42-0.21,0.8
				c-1.01,2.81-2.15,5.42-3.3,7.68c-0.31,0.59-0.52,1.04-0.59,1.35c-0.07,0.28-0.17,0.45-0.42,0.45c-0.17,0-0.38-0.04-0.66-0.21
				c-0.83-0.52-1.7-1.11-2.68-1.91C243.37,336.21,243.83,335.51,244.42,334.4z M245.29,308.72c0.28-0.35,0.38-0.35,0.69-0.17
				c1.7,1.01,3.27,2.22,4.79,3.61c0.14,0.1,0.21,0.21,0.21,0.31s-0.07,0.21-0.21,0.42l-1.56,2.19c-0.28,0.35-0.35,0.31-0.63,0.1
				c-1.53-1.49-3.23-2.92-4.9-3.93c-0.17-0.1-0.24-0.17-0.24-0.24c0-0.1,0.07-0.21,0.24-0.42L245.29,308.72z M253.55,327.35
				c0-0.9-0.03-1.7-0.17-2.78c1.11,0.04,2.15,0.1,3.2,0.24c0.42,0.07,0.66,0.17,0.66,0.42c0,0.28-0.14,0.52-0.21,0.76
				c-0.07,0.35-0.14,0.87-0.14,1.7c-0.03,5.52-1.56,8.72-4.97,11.33c-0.42,0.31-0.66,0.49-0.87,0.49c-0.24,0-0.42-0.17-0.8-0.59
				c-0.63-0.7-1.35-1.22-2.08-1.63C252.09,335.02,253.52,332.45,253.55,327.35z M267.1,315.6c0.35-0.24,0.45-0.21,0.76,0.07
				c1.98,1.7,4,3.96,5.56,6.12c0.21,0.31,0.21,0.35-0.21,0.63l-1.95,1.53c-0.21,0.17-0.35,0.24-0.45,0.24
				c-0.07,0-0.17-0.07-0.28-0.24c-0.49-0.76-1.01-1.53-1.6-2.29c-4.83,0.59-10.01,1.15-14.42,1.49c-0.76,0.07-1.25,0.17-1.49,0.31
				c-0.21,0.1-0.42,0.17-0.63,0.17c-0.17,0-0.35-0.21-0.45-0.52c-0.28-0.97-0.49-2.08-0.66-3.2c1.46,0.07,2.36,0.03,3.44,0
				c0.35,0,0.69-0.04,1.08-0.04c0.9-1.77,1.6-3.37,2.08-4.83h-0.97c-3.37,0-4.52,0.07-4.76,0.07c-0.35,0-0.38-0.04-0.38-0.38v-2.5
				c0-0.35,0.03-0.38,0.38-0.38c0.24,0,1.39,0.07,4.76,0.07h3.09v-0.59c0-1.18,0-2.08-0.21-3.34c1.29,0.04,2.47,0.1,3.68,0.24
				c0.35,0.04,0.56,0.21,0.56,0.38c0,0.28-0.1,0.49-0.21,0.73c-0.14,0.31-0.17,0.63-0.17,1.91v0.66h4.48c3.4,0,4.59-0.07,4.79-0.07
				c0.35,0,0.38,0.04,0.38,0.38v2.5c0,0.35-0.03,0.38-0.38,0.38c-0.21,0-1.39-0.07-4.79-0.07h-6.43c-0.63,1.6-1.32,3.16-2.05,4.55
				c2.43-0.21,4.86-0.42,6.95-0.63c-0.45-0.52-0.94-1.01-1.42-1.46c-0.28-0.28-0.24-0.31,0.14-0.59L267.1,315.6z M259.5,329.26
				c0-1.74-0.03-3.02-0.24-4.66c1.01,0.03,2.4,0.1,3.37,0.28c0.35,0.04,0.52,0.17,0.52,0.38c0,0.28-0.14,0.52-0.21,0.83
				c-0.1,0.49-0.17,1.29-0.17,3.13v4.69c0,2.71,0.07,3.86,0.07,4.06c0,0.35-0.03,0.38-0.38,0.38h-2.64c-0.35,0-0.38-0.04-0.38-0.38
				c0-0.24,0.07-1.35,0.07-4.06V329.26z M269.09,334.96c0,0.49,0.03,0.69,0.24,0.83c0.21,0.1,0.42,0.14,0.94,0.14
				c0.49,0,0.69-0.07,0.9-0.42c0.28-0.45,0.38-1.15,0.42-3.61c0.56,0.38,1.25,0.7,1.95,0.9c0.87,0.28,0.87,0.35,0.83,1.25
				c-0.1,2.57-0.45,3.51-1.04,4.13c-0.63,0.63-1.46,1.04-3.68,1.04c-1.6,0-2.26-0.14-2.88-0.52c-0.63-0.35-0.97-1.04-0.97-2.33
				v-8.48c0-1.63-0.03-2.54-0.17-3.54c0.97,0.03,2.19,0.1,3.27,0.24c0.42,0.07,0.59,0.21,0.59,0.42c0,0.28-0.1,0.45-0.21,0.73
				c-0.14,0.38-0.17,0.66-0.17,2.64V334.96z"/>
			<path class="st3" d="M218.69,349.38c0.1-0.58,0.19-1.33,0.19-2.14c1,0.21,1.54,0.35,2.32,0.64c0.19,0.06,0.31,0.21,0.31,0.39
				c0,0.1-0.04,0.19-0.14,0.29c-0.19,0.25-0.29,0.46-0.39,0.73c-0.25,0.79-0.44,1.5-0.69,2.32c0.52-0.06,1.1-0.08,1.54-0.08
				c1.79,0,2.76,1.25,2.76,3.72c0,2.08-0.39,4.65-1.04,6.04c-0.56,1.24-1.49,1.81-2.61,1.81c-0.93,0-1.58-0.1-2.01-0.29
				c-0.23-0.1-0.35-0.25-0.35-0.54c-0.06-0.62-0.1-1.16-0.37-1.79c0.87,0.41,1.62,0.5,2.22,0.5c0.64,0,0.93-0.23,1.24-1.02
				c0.41-1.08,0.75-2.92,0.75-4.81c0-1.35-0.25-1.78-1.1-1.78c-0.46,0-1.06,0.06-1.62,0.13c-1.27,3.71-2.37,6.37-3.88,9.07
				c-0.12,0.25-0.27,0.29-0.5,0.17c-0.35-0.17-1.1-0.64-1.33-0.85c-0.1-0.1-0.15-0.17-0.15-0.29c0-0.06,0.02-0.13,0.08-0.21
				c1.54-2.68,2.55-4.73,3.53-7.57c-0.75,0.12-1.37,0.23-1.89,0.33c-0.5,0.1-0.81,0.21-1.06,0.31c-0.27,0.1-0.5,0.06-0.62-0.25
				c-0.17-0.44-0.39-1.14-0.6-1.99c0.85,0,1.7-0.06,2.55-0.14c0.81-0.08,1.52-0.17,2.28-0.29
				C218.42,350.72,218.56,350.04,218.69,349.38z M226.33,350.68c0.14-0.08,0.23-0.04,0.37,0.1c1.31,1.24,2.49,2.84,3.2,4.69
				c0.08,0.17,0.06,0.27-0.08,0.39c-0.33,0.31-1.06,0.77-1.45,0.96c-0.19,0.1-0.39,0.08-0.44-0.15c-0.77-2.03-1.78-3.69-3.17-5
				C225.25,351.33,225.81,350.95,226.33,350.68z M226.86,347.98c0.1-0.08,0.17-0.06,0.29,0.04c0.6,0.46,1.29,1.24,1.83,2.07
				c0.08,0.12,0.08,0.21-0.06,0.31l-0.81,0.6c-0.14,0.1-0.23,0.08-0.33-0.06c-0.58-0.89-1.2-1.62-1.95-2.24L226.86,347.98z
				 M228.57,346.72c0.12-0.08,0.17-0.06,0.29,0.04c0.71,0.54,1.41,1.31,1.83,1.99c0.08,0.12,0.1,0.23-0.06,0.35l-0.77,0.6
				c-0.15,0.12-0.25,0.06-0.33-0.06c-0.52-0.83-1.14-1.56-1.93-2.22L228.57,346.72z"/>
			<path class="st3" d="M239.15,349.67c-1.18,1.08-2.57,2.05-4.52,2.9c-0.19,0.1-0.33,0.15-0.42,0.15c-0.12,0-0.19-0.1-0.37-0.35
				c-0.33-0.48-0.66-0.77-1.04-1.08c2.8-1.14,4.71-2.43,6.14-4.01c0.25-0.25,0.52-0.64,0.71-1c0.71,0.12,1.29,0.25,1.87,0.42
				c0.19,0.04,0.27,0.12,0.27,0.25c0,0.12-0.06,0.19-0.23,0.29c-0.15,0.08-0.33,0.23-0.54,0.48l-0.29,0.33h3.3
				c0.37,0,0.56-0.04,0.69-0.1c0.12-0.04,0.21-0.08,0.35-0.08c0.17,0,0.33,0.06,0.75,0.42c0.54,0.44,0.66,0.6,0.66,0.77
				c0,0.14-0.1,0.25-0.23,0.33c-0.17,0.12-0.35,0.25-0.62,0.6c-2.32,2.74-5.4,5.21-11.39,6.87c-0.56,0.13-0.56,0.13-0.83-0.39
				c-0.27-0.48-0.52-0.83-0.87-1.16c2.51-0.56,4.52-1.29,6.18-2.12c-0.5-0.44-0.93-0.79-1.39-1.08c-0.1-0.08-0.15-0.12-0.15-0.17
				c0-0.06,0.06-0.12,0.15-0.19l0.97-0.75c0.17-0.13,0.25-0.12,0.44,0c0.54,0.35,1.08,0.73,1.66,1.22c1.2-0.79,2.14-1.64,2.93-2.55
				H239.15z M242.15,356.68c-1.45,1.2-3.07,2.16-5.42,3.17c-0.23,0.08-0.37,0.13-0.46,0.13c-0.14,0-0.19-0.12-0.35-0.41
				c-0.29-0.5-0.62-0.93-0.98-1.24c3.69-1.25,5.75-2.57,7.47-4.32c0.25-0.27,0.5-0.62,0.69-0.96c0.64,0.17,1.04,0.31,1.66,0.56
				c0.19,0.08,0.29,0.17,0.29,0.31c0,0.12-0.06,0.19-0.23,0.29c-0.15,0.08-0.29,0.19-0.52,0.44l-0.41,0.41h3.07
				c0.37,0,0.5-0.02,0.68-0.1c0.1-0.04,0.21-0.1,0.31-0.1c0.19,0,0.33,0.06,0.85,0.52c0.42,0.37,0.54,0.52,0.54,0.67
				c0,0.14-0.12,0.25-0.23,0.33c-0.15,0.12-0.35,0.29-0.58,0.58c-3.05,3.96-6.41,6.04-12.7,7.3c-0.21,0.04-0.37,0.06-0.44,0.06
				c-0.17,0-0.27-0.13-0.41-0.46c-0.21-0.5-0.52-0.97-0.83-1.29c3.15-0.5,5.56-1.22,7.45-2.16c-0.52-0.48-0.98-0.87-1.51-1.24
				c-0.08-0.08-0.14-0.14-0.14-0.19s0.06-0.12,0.14-0.17l1.04-0.75c0.17-0.12,0.25-0.12,0.44,0c0.58,0.37,1.14,0.81,1.74,1.35
				c1.18-0.79,2.12-1.7,2.97-2.72H242.15z"/>
			<path class="st3" d="M255.24,349.83c0.17,0.08,0.31,0.21,0.31,0.35c0,0.12-0.06,0.31-0.15,0.54c-0.08,0.23-0.17,1.06-0.17,1.89
				c0,1.24,0.04,2.63,0.35,4.4c0.27,1.52,0.77,2.84,1.58,2.84c0.62,0,1.1-0.68,1.85-2.68c0.42,0.68,0.85,1.12,1.24,1.49
				c0.23,0.21,0.23,0.44,0.14,0.71c-0.73,1.97-1.93,3.01-3.28,3.01c-1.51,0-3.09-1.78-3.61-5.04c-0.31-1.83-0.46-3.84-0.46-5.62
				c0-1.06-0.04-1.64-0.23-2.53C253.71,349.31,254.66,349.54,255.24,349.83z M264.19,351.04c0.08-0.04,0.15-0.08,0.21-0.08
				c0.08,0,0.14,0.04,0.21,0.12c1.76,1.52,3.3,4.19,3.78,6.6c0.06,0.25-0.06,0.33-0.21,0.42c-0.5,0.33-0.98,0.6-1.51,0.77
				c-0.23,0.08-0.37,0.02-0.41-0.21c-0.66-2.76-1.64-4.77-3.61-6.74C263.4,351.47,263.88,351.2,264.19,351.04z"/>
		</g>
	</g>
	<g>
		<circle class="st1" cx="217.64" cy="467.05" r="56.32"/>
		<g>
			<path class="st2" d="M179.44,451.05c-0.39-0.12-0.42-0.3-0.33-0.59c0.5-1.69,0.65-3.74,0.71-5.97c0-0.36,0.03-0.39,0.53-0.27
				l1.37,0.3c0.36,0.06,0.42,0.12,0.39,0.45c-0.09,2.41-0.24,4.31-0.68,6.35c-0.09,0.36-0.15,0.36-0.5,0.24L179.44,451.05z
				 M182.83,442.92c0-2.11-0.03-3.03-0.24-4.48c1.13,0.03,1.96,0.09,2.97,0.21c0.27,0.03,0.45,0.15,0.45,0.3
				c0,0.24-0.06,0.39-0.18,0.62c-0.09,0.33-0.15,0.86-0.15,3.3v17.25c0,3.35,0.06,5.05,0.06,5.2c0,0.3-0.03,0.33-0.33,0.33h-2.32
				c-0.3,0-0.33-0.03-0.33-0.33c0-0.15,0.06-1.84,0.06-5.17V442.92z M187.43,442.62c0.27-0.12,0.39-0.15,0.56,0.09
				c0.5,0.8,0.89,1.63,1.25,2.46c1.93-1.54,3.71-3.44,4.99-5.4c0.36-0.59,0.5-0.98,0.65-1.51c0.98,0.09,2.02,0.21,2.94,0.39
				c0.24,0.03,0.39,0.18,0.39,0.33s-0.12,0.33-0.33,0.45c2.32,2.82,5.82,5.67,9.29,7.07c-0.39,0.48-0.83,1.28-1.1,2.02
				c-0.18,0.53-0.27,0.74-0.48,0.74c-0.15,0-0.36-0.09-0.68-0.3c-1.34-0.74-2.61-1.6-3.8-2.58v1.54c0,0.3-0.03,0.33-0.33,0.33
				c-0.18,0-0.74-0.06-2.67-0.06h-2.88c-1.9,0-2.49,0.06-2.67,0.06c-0.33,0-0.36-0.03-0.36-0.33v-1.66
				c-1.13,1.04-2.32,1.96-3.47,2.73c-0.3,0.21-0.5,0.33-0.65,0.33c-0.18,0-0.3-0.21-0.53-0.71c-0.33-0.71-0.65-1.16-1.04-1.6
				c0.3-0.15,0.59-0.33,0.89-0.53c-0.33-0.98-0.71-1.9-1.31-2.82c-0.18-0.3-0.09-0.39,0.27-0.53L187.43,442.62z M196.37,460.23
				c0,1.13,0.03,2.46,0.03,2.94c0,0.65-0.09,1.34-0.68,1.78c-0.45,0.3-1.19,0.45-2.61,0.45c-0.53,0-0.59-0.06-0.68-0.56
				c-0.15-0.83-0.39-1.42-0.77-1.93c0.59,0.09,1.01,0.09,1.46,0.09c0.53,0,0.74-0.21,0.74-0.83v-1.9h-3.27v1.57
				c0,2.26,0.06,3.3,0.06,3.44c0,0.3-0.03,0.33-0.33,0.33h-1.96c-0.3,0-0.33-0.03-0.33-0.33c0-0.18,0.06-1.16,0.06-3.44v-8.05
				c0-2.29-0.06-3.33-0.06-3.5c0-0.3,0.03-0.33,0.33-0.33c0.21,0,0.71,0.06,2.49,0.06h2.76c1.75,0,2.29-0.06,2.49-0.06
				c0.3,0,0.33,0.03,0.33,0.33c0,0.18-0.06,1.37-0.06,3.74V460.23z M190.58,452.3v1.84h3.27v-1.84H190.58z M193.85,458.15v-1.87
				h-3.27v1.87H193.85z M198.12,445.89c1.4,0,2.11-0.03,2.38-0.03c-1.54-1.31-2.88-2.76-4.13-4.4c-1.07,1.6-2.32,3.03-3.74,4.4
				c0.21,0,0.71,0.03,2.61,0.03H198.12z M198.12,453.4c0-0.98,0-1.81-0.18-2.94c0.92,0.03,1.9,0.06,2.58,0.18
				c0.3,0.03,0.45,0.12,0.45,0.27c0,0.21-0.12,0.39-0.18,0.56c-0.12,0.3-0.15,0.71-0.15,1.93v3.77c0,1.87,0.06,2.7,0.06,2.88
				c0,0.33-0.03,0.36-0.3,0.36h-2.02c-0.3,0-0.33-0.03-0.33-0.36c0-0.18,0.06-1.01,0.06-2.88V453.4z M205.13,457.68
				c0,1.01,0.03,4.04,0.03,4.72c0,0.8-0.24,1.72-0.77,2.26c-0.48,0.47-1.22,0.77-3.68,0.8c-0.92,0-0.95,0-1.07-0.92
				c-0.09-0.65-0.33-1.31-0.62-1.81c0.89,0.12,1.54,0.15,2.29,0.15c0.95,0,1.19-0.33,1.19-0.95v-8.61c0-1.63-0.03-2.7-0.24-3.77
				c1.13,0.03,1.75,0.09,2.76,0.24c0.3,0.03,0.5,0.18,0.5,0.33c0,0.24-0.12,0.39-0.21,0.59c-0.18,0.36-0.18,0.98-0.18,2.55V457.68z"
				/>
			<path class="st2" d="M211.7,444.94c0.39,0.09,0.45,0.15,0.42,0.47c-0.12,2.44-0.36,4.66-0.95,6.5c-0.09,0.3-0.15,0.24-0.48,0.12
				l-1.48-0.59c-0.39-0.15-0.42-0.3-0.33-0.59c0.53-1.6,0.83-3.65,0.95-6.03c0-0.3,0.06-0.27,0.48-0.18L211.7,444.94z M212.8,442.89
				c0-2.11-0.03-3.06-0.24-4.48c1.13,0.03,2.14,0.09,3.12,0.21c0.3,0.03,0.48,0.15,0.48,0.3c0,0.21-0.06,0.39-0.15,0.59
				c-0.15,0.39-0.21,1.13-0.21,3.3v17.25c0,3.36,0.06,5.05,0.06,5.23c0,0.3-0.03,0.33-0.33,0.33h-2.46c-0.3,0-0.33-0.03-0.33-0.33
				c0-0.18,0.06-1.87,0.06-5.2V442.89z M217.58,444.28c0.33-0.09,0.42-0.09,0.53,0.18c0.45,1.16,0.92,2.55,1.19,3.77
				c0.09,0.33,0.06,0.42-0.33,0.53l-1.22,0.42c-0.39,0.12-0.48,0.15-0.53-0.18c-0.24-1.37-0.62-2.73-1.07-3.89
				c-0.12-0.33-0.09-0.36,0.3-0.47L217.58,444.28z M221.85,454.17c-2.91,0-3.89,0.06-4.07,0.06c-0.3,0-0.33-0.03-0.33-0.36v-2.17
				c0-0.3,0.03-0.33,0.33-0.33c0.18,0,1.16,0.06,4.07,0.06h1.96c0.12-1.48,0.18-3.18,0.21-5.11h-0.74c-2.67,0-3.56,0.06-3.74,0.06
				c-0.3,0-0.33-0.03-0.33-0.33v-2.2c0-0.3,0.03-0.33,0.33-0.33c0.18,0,1.07,0.06,3.74,0.06h0.77v-1.69c0-1.69-0.06-2.46-0.21-3.47
				c1.04,0.03,2.11,0.09,3.15,0.21c0.3,0.03,0.5,0.18,0.5,0.36c0,0.21-0.09,0.33-0.24,0.59c-0.12,0.3-0.15,0.77-0.15,1.81
				c0,0.77-0.03,1.51-0.03,2.2h2.55c2.64,0,3.56-0.06,3.74-0.06c0.33,0,0.36,0.03,0.36,0.33c0,0.18-0.06,0.92-0.06,2.61v4.96
				c1.51,0,2.14-0.06,2.29-0.06c0.27,0,0.3,0.03,0.3,0.33v2.17c0,0.33-0.03,0.36-0.3,0.36c-0.18,0-1.19-0.06-4.1-0.06h-4.01
				c1.45,3.65,4.48,6.68,8.91,8.43c-0.5,0.62-0.98,1.4-1.34,2.23c-0.24,0.5-0.36,0.71-0.56,0.71c-0.15,0-0.33-0.09-0.62-0.24
				c-3.68-1.9-6.65-5.17-8.28-9.26c-0.92,3.68-3,6.8-6.77,9.29c-0.33,0.21-0.53,0.33-0.68,0.33c-0.21,0-0.33-0.21-0.59-0.65
				c-0.45-0.74-0.92-1.31-1.51-1.72c4.04-1.99,6.41-5.23,7.07-9.12H221.85z M230.67,451.44v-5.11h-3.62
				c-0.03,2.05-0.09,3.71-0.21,5.11H230.67z"/>
			<path class="st2" d="M248.41,450.16c0.18-0.06,0.26-0.06,0.3,0.16c0.1,0.5,0.16,1.09,0.18,1.6c0,0.18-0.08,0.22-0.24,0.24
				c-1.07,0.22-2.04,0.36-3.27,0.54c-1.27,3.35-2.44,6.08-3.86,8.5c-0.08,0.14-0.14,0.2-0.22,0.2c-0.06,0-0.14-0.04-0.24-0.1
				c-0.46-0.28-1.03-0.69-1.37-1.01c-0.1-0.08-0.14-0.14-0.14-0.22c0-0.06,0.02-0.14,0.1-0.24c1.49-2.46,2.54-4.54,3.43-6.91
				c-0.75,0.04-1.37,0.04-1.98,0.04c-0.44,0-0.59,0-1.09-0.02c-0.2,0-0.24-0.06-0.28-0.32c-0.1-0.38-0.16-1.03-0.2-1.68
				c0.81,0.06,1.27,0.08,1.84,0.08c0.77,0,1.37-0.02,2.28-0.1c0.24-0.83,0.38-1.5,0.51-2.22c0.12-0.69,0.12-0.99,0.12-1.6
				c0.85,0.12,1.7,0.24,2.32,0.42c0.2,0.04,0.32,0.16,0.32,0.3c0,0.16-0.06,0.26-0.18,0.38c-0.12,0.16-0.2,0.34-0.32,0.73
				c-0.14,0.48-0.3,1.09-0.48,1.68C246.73,450.51,247.64,450.33,248.41,450.16z M248.97,455.46c-0.02-0.54-0.04-0.85-0.16-1.41
				c0.97,0.1,1.49,0.18,2.16,0.38c0.18,0.04,0.28,0.14,0.28,0.32c0,0.04-0.04,0.18-0.12,0.42c-0.08,0.24-0.1,0.47-0.08,0.81
				c0,1.17,0.06,2.02,0.22,3.37c1.43,0.57,2.4,1.01,3.56,1.84c0.2,0.14,0.22,0.22,0.12,0.42c-0.3,0.61-0.57,1.11-0.91,1.6
				c-0.06,0.1-0.12,0.14-0.18,0.14c-0.06,0-0.12-0.04-0.2-0.12c-0.87-0.75-1.6-1.19-2.42-1.66c0,1.98-1.43,2.89-3.68,2.89
				c-2.18,0-3.64-1.11-3.64-2.81c0-1.72,1.43-2.89,3.66-2.89c0.38,0,0.93,0.02,1.56,0.12C249.03,457.6,248.99,456.4,248.97,455.46z
				 M247.56,460.46c-0.99,0-1.76,0.4-1.76,1.15c0,0.63,0.55,0.95,1.68,0.95c1.07,0,1.72-0.58,1.72-1.41c0-0.18,0-0.28-0.02-0.4
				C248.71,460.59,248.17,460.46,247.56,460.46z M251.24,450.93c0.12-0.2,0.22-0.22,0.42-0.14c1.17,0.32,2.73,1.11,3.88,1.86
				c0.12,0.08,0.18,0.14,0.18,0.22c0,0.06-0.02,0.14-0.08,0.24c-0.2,0.44-0.55,1.05-0.83,1.47c-0.06,0.1-0.12,0.14-0.18,0.14
				c-0.06,0-0.1-0.02-0.18-0.08c-1.17-0.79-2.59-1.66-4.1-2.16C250.69,451.88,250.99,451.29,251.24,450.93z"/>
			<path class="st2" d="M188.44,481.35c-1.66,1.22-3.47,2.29-5.37,3.21c-0.36,0.18-0.56,0.27-0.71,0.27c-0.21,0-0.3-0.21-0.53-0.74
				c-0.36-0.74-0.77-1.4-1.34-1.96c5.17-2.05,9.03-5.2,11.4-8.64c0.5-0.74,0.77-1.25,1.04-1.93c1.16,0.15,2.26,0.36,3.21,0.62
				c0.36,0.09,0.53,0.21,0.53,0.42c0,0.18-0.06,0.36-0.3,0.47c-0.18,0.09-0.3,0.18-0.42,0.27c3.36,4.1,7.36,6.68,12.56,8.49
				c-0.56,0.71-0.95,1.43-1.28,2.23c-0.21,0.53-0.3,0.74-0.5,0.74c-0.15,0-0.36-0.09-0.68-0.24c-2.02-0.89-3.95-1.93-5.67-3.15v2.2
				c0,0.3-0.03,0.33-0.33,0.33c-0.18,0-0.98-0.06-3.36-0.06h-4.57c-2.38,0-3.18,0.06-3.35,0.06c-0.3,0-0.33-0.03-0.33-0.33V481.35z
				 M186.54,489.39c-2.79,0-3.74,0.06-3.92,0.06c-0.33,0-0.36-0.03-0.36-0.33v-2.23c0-0.3,0.03-0.33,0.36-0.33
				c0.18,0,1.13,0.06,3.92,0.06h15.83c2.79,0,3.74-0.06,3.92-0.06c0.33,0,0.36,0.03,0.36,0.33v2.23c0,0.3-0.03,0.33-0.36,0.33
				c-0.18,0-1.13-0.06-3.92-0.06h-9.18c-0.74,1.84-1.63,3.71-2.64,5.58c3.09-0.18,6.32-0.45,9.15-0.74
				c-0.68-0.83-1.37-1.66-2.17-2.52c-0.21-0.24-0.18-0.36,0.18-0.54l1.9-0.98c0.33-0.18,0.42-0.15,0.62,0.06
				c2.02,2.11,3.71,4.25,5.52,6.89c0.15,0.24,0.15,0.36-0.15,0.56l-2.05,1.34c-0.18,0.12-0.27,0.18-0.36,0.18
				c-0.09,0-0.15-0.06-0.24-0.21c-0.5-0.83-1.01-1.6-1.48-2.32c-4.93,0.62-10.99,1.13-16.03,1.51c-0.47,0.03-0.86,0.15-1.07,0.27
				c-0.15,0.12-0.3,0.18-0.5,0.18c-0.21,0-0.36-0.15-0.42-0.42c-0.27-0.98-0.45-2.02-0.62-3.06c1.1,0.09,2.08,0.06,3.24,0
				c0.3,0,0.62-0.03,0.95-0.03c1.07-2.02,1.93-3.92,2.61-5.76H186.54z M196.69,481.11c1.99,0,2.88-0.03,3.21-0.06
				c-2.14-1.54-4.01-3.36-5.61-5.43c-1.57,2.08-3.39,3.89-5.43,5.43c0.27,0.03,1.1,0.06,3.27,0.06H196.69z"/>
			<path class="st2" d="M215.05,488.24c-0.92,0.89-1.84,1.72-2.82,2.46c-0.3,0.24-0.48,0.39-0.62,0.39c-0.18,0-0.3-0.24-0.48-0.68
				c-0.3-0.83-0.65-1.6-1.04-2.11c3.47-2.2,6.27-5.4,7.75-8.79h-3.35c-2.26,0-2.97,0.06-3.15,0.06c-0.3,0-0.33-0.03-0.33-0.33v-2.2
				c0-0.3,0.03-0.33,0.33-0.33c0.18,0,0.89,0.06,3.15,0.06h0.56v-1.22c0-1.57-0.03-2.52-0.24-3.62c1.13,0.03,2.02,0.09,3.09,0.21
				c0.3,0.03,0.48,0.18,0.48,0.3c0,0.27-0.09,0.42-0.18,0.62c-0.18,0.36-0.18,0.86-0.18,2.38v1.34h1.25c0.27,0,0.42-0.03,0.56-0.12
				c0.12-0.06,0.24-0.12,0.33-0.12c0.18,0,0.48,0.18,1.1,0.77c0.56,0.56,0.8,0.86,0.8,1.07c0,0.15-0.06,0.3-0.3,0.48
				c-0.27,0.27-0.45,0.42-0.68,0.86c-0.71,1.51-1.57,2.97-2.52,4.34c1.16,1.34,2.55,2.41,4.36,3.47c-0.45,0.48-0.86,1.19-1.19,1.93
				c-0.21,0.45-0.36,0.65-0.56,0.65c-0.15,0-0.33-0.12-0.59-0.36c-0.95-0.86-1.81-1.81-2.55-2.76v8.34c0,2.2,0.06,3.36,0.06,3.5
				c0,0.3-0.03,0.33-0.36,0.33h-2.38c-0.33,0-0.36-0.03-0.36-0.33c0-0.18,0.06-1.31,0.06-3.5V488.24z M224.97,498.03
				c-2.82,0-3.8,0.06-3.98,0.06c-0.3,0-0.33-0.03-0.33-0.33v-2.35c0-0.3,0.03-0.33,0.33-0.33c0.18,0,1.16,0.06,3.98,0.06h2.49
				v-11.11h-1.34c-2.64,0-3.56,0.03-3.74,0.03c-0.27,0-0.3,0-0.3-0.3v-2.35c0-0.3,0.03-0.3,0.3-0.3c0.18,0,1.1,0.03,3.74,0.03h1.34
				v-4.72c0-2.11-0.03-3.12-0.24-4.48c1.13,0.03,2.26,0.09,3.3,0.21c0.27,0.03,0.48,0.15,0.48,0.3c0,0.24-0.03,0.39-0.15,0.62
				c-0.18,0.36-0.24,1.1-0.24,3.27v4.81h1.87c2.64,0,3.56-0.03,3.74-0.03c0.3,0,0.33,0,0.33,0.3v2.35c0,0.3-0.03,0.3-0.33,0.3
				c-0.18,0-1.1-0.03-3.74-0.03h-1.87v11.11h2.7c2.82,0,3.77-0.06,3.95-0.06c0.33,0,0.36,0.03,0.36,0.33v2.35
				c0,0.3-0.03,0.33-0.36,0.33c-0.18,0-1.13-0.06-3.95-0.06H224.97z"/>
			<path class="st2" d="M251.07,490.94h-3l-0.83-17.67h4.63L251.07,490.94z M251.64,493.82v4.01h-4.22v-4.01H251.64z"/>
		</g>
	</g>
	<g>
		<circle class="st1" cx="398.17" cy="267.12" r="56.32"/>
		<g>
			<path class="st3" d="M372.57,263.35c0-0.75-0.02-1.7-0.05-2.38c-0.02-0.31-0.05-0.61-0.12-1.08c-1.55,0.28-3.77,0.64-5.58,0.75
				c-0.35,0.05-0.49-0.26-0.59-0.52c-0.24-0.47-0.57-0.97-1.2-1.63c2.94-0.14,4.78-0.45,7-0.87c1.63-0.35,2.8-0.61,3.89-1.01
				c1.11-0.42,1.51-0.66,2.03-1.06c0.8,0.59,1.55,1.18,1.93,1.65c0.19,0.19,0.31,0.4,0.31,0.66c0,0.26-0.24,0.31-0.61,0.33
				c-0.49,0.07-0.99,0.28-1.48,0.4c-1.44,0.4-2.87,0.75-4.26,1.04c0.61,0.07,1.15,0.17,1.53,0.31c0.19,0.05,0.31,0.17,0.31,0.33
				c0,0.12-0.07,0.24-0.14,0.4c-0.09,0.21-0.14,0.45-0.17,0.8c-0.02,0.52-0.02,1.06-0.02,1.86h2.92c1.48,0,3.49-0.12,4.55-0.16
				c0.24,0,0.24,0.12,0.26,0.38c0.05,0.61,0.02,1.34,0,1.88c-0.02,0.33-0.02,0.42-0.31,0.42c-1.48-0.05-2.85-0.07-4.57-0.07h-2.9
				c-0.19,2-0.52,3.42-1.18,4.74c-0.82,1.74-2.21,3.39-3.75,4.41c-0.14,0.09-0.26,0.17-0.4,0.17c-0.12,0-0.26-0.05-0.42-0.14
				c-0.85-0.45-1.72-0.73-2.5-0.9c2.36-1.39,3.44-2.59,4.41-4.36c0.61-1.2,0.94-2.45,1.04-3.91h-4.19c-0.85,0-2.59,0-3.75,0.09
				c-0.31,0.02-0.38-0.17-0.45-0.54c-0.12-0.45-0.24-1.41-0.24-2.14c1.67,0.14,3.42,0.17,4.57,0.17H372.57z"/>
			<path class="st3" d="M392.13,266.88c-2.33,0-3.23,0.28-3.46,0.28c-0.28,0-0.47-0.14-0.54-0.5c-0.12-0.54-0.26-1.65-0.35-2.85
				c1.53,0.24,2.71,0.28,5.09,0.28h7.59c1.79,0,3.6-0.05,5.42-0.07c0.35-0.02,0.42,0.05,0.42,0.33c0.05,0.71,0.05,1.51,0,2.21
				c0,0.28-0.09,0.38-0.42,0.35c-1.77-0.02-3.51-0.05-5.25-0.05H392.13z"/>
			<path class="st3" d="M421.96,256.87c0.17,0.12,0.28,0.24,0.28,0.38c0,0.12-0.07,0.28-0.24,0.47c-0.42,0.54-0.71,1.27-0.97,1.96
				c-1.32,3.6-2.57,7.07-4.05,10.6c3.63-0.31,5.61-0.49,8.25-0.89c-0.73-1.3-1.6-2.59-2.62-3.77c0.71-0.38,1.39-0.78,2.05-1.13
				c0.26-0.14,0.4-0.05,0.57,0.14c1.84,2.14,3.6,5.09,4.76,7.7c0.07,0.12,0.09,0.21,0.09,0.31c0,0.14-0.09,0.28-0.31,0.4
				c-0.57,0.38-1.15,0.68-1.79,0.97c-0.09,0.05-0.19,0.07-0.28,0.07c-0.14,0-0.26-0.12-0.33-0.33c-0.28-0.66-0.54-1.27-0.82-1.88
				c-3.77,0.57-7.35,0.97-11.19,1.37c-1.56,0.17-2.19,0.28-2.76,0.57c-0.31,0.14-0.57,0.09-0.68-0.24c-0.19-0.4-0.49-1.58-0.82-3.04
				c0.94,0.07,1.93,0.05,2.87,0.02c1.67-4.22,2.9-7.7,4.12-11.66c0.38-1.23,0.61-2.05,0.68-3.23
				C420.21,256.06,421.23,256.4,421.96,256.87z"/>
		</g>
	</g>
	<g>
		<circle class="st4" cx="280.41" cy="190.29" r="67.58"/>
		<g>
			<path class="st3" d="M229.16,182.8c-1.26,0-2.6,0.09-3.91,0.18c-0.26,0.02-0.35-0.13-0.4-0.33c-0.18-0.62-0.31-1.72-0.4-2.38
				c1.5,0.11,2.71,0.15,4.48,0.15h9.47c0.93,0,1.3-0.04,1.52-0.13c0.11-0.04,0.31-0.15,0.42-0.15c0.18,0,0.35,0.13,0.51,0.31
				c0.49,0.42,0.9,0.88,1.32,1.39c0.11,0.13,0.18,0.26,0.18,0.4c0,0.18-0.11,0.33-0.31,0.46c-0.24,0.18-0.42,0.4-0.6,0.64
				c-1.04,1.57-2.41,3.09-3.88,4.26c-0.13,0.13-0.29,0.2-0.46,0.2c-0.18,0-0.38-0.09-0.53-0.22c-0.55-0.44-1.1-0.68-1.83-0.9
				c1.77-1.32,2.85-2.27,3.95-3.86H229.16z M230.4,191.4c0.84-1.57,1.08-3.07,1.08-5.21c0-0.82-0.04-1.32-0.22-2.07
				c1.08,0.11,2.23,0.26,2.85,0.42c0.29,0.07,0.38,0.22,0.38,0.42c0,0.13-0.04,0.26-0.11,0.4c-0.15,0.31-0.18,0.53-0.2,0.9
				c-0.07,2.14-0.29,4.1-1.3,6.07c-0.86,1.65-2.18,3.22-4.02,4.39c-0.2,0.13-0.4,0.22-0.62,0.22c-0.15,0-0.31-0.07-0.44-0.2
				c-0.53-0.46-1.17-0.82-2.01-1.13C228.19,194.36,229.45,193.17,230.4,191.4z"/>
			<path class="st3" d="M246.37,185.05c0.24-0.11,0.4-0.09,0.57,0.15c0.77,0.97,1.48,2.1,1.9,3.27c0.04,0.15,0.09,0.24,0.09,0.33
				c0,0.13-0.09,0.2-0.26,0.31c-0.53,0.31-0.9,0.49-1.41,0.68c-0.31,0.11-0.44,0-0.55-0.31c-0.51-1.28-1.19-2.49-2.07-3.55
				C245.38,185.51,245.91,185.27,246.37,185.05z M258.49,185.33c0.18,0.13,0.29,0.24,0.29,0.38c0,0.13-0.07,0.24-0.24,0.4
				c-0.33,0.29-0.49,0.73-0.66,1.13c-0.95,2.25-2.1,4.26-3.33,5.87c-1.46,1.85-2.67,3.02-4.54,4.26c-0.18,0.13-0.35,0.24-0.53,0.24
				c-0.11,0-0.24-0.04-0.35-0.15c-0.55-0.44-1.06-0.68-1.88-0.93c2.65-1.74,3.97-2.87,5.3-4.59c1.1-1.43,2.34-3.6,2.98-5.32
				c0.29-0.82,0.42-1.3,0.51-2.34C256.94,184.56,257.93,184.96,258.49,185.33z M250.83,183.99c0.24-0.11,0.4-0.09,0.57,0.18
				c0.6,0.77,1.35,2.16,1.7,3.22c0.11,0.33,0.07,0.44-0.22,0.6c-0.42,0.24-0.9,0.46-1.52,0.68c-0.24,0.09-0.33-0.02-0.44-0.33
				c-0.51-1.3-1.02-2.36-1.85-3.53C249.95,184.39,250.45,184.14,250.83,183.99z"/>
			<path class="st3" d="M266.12,184.98c2.69,0.84,4.83,1.7,7.02,3c0.24,0.13,0.35,0.29,0.24,0.57c-0.29,0.73-0.64,1.41-0.95,1.92
				c-0.09,0.15-0.18,0.24-0.29,0.24c-0.07,0-0.15-0.02-0.24-0.11c-2.03-1.3-4.02-2.27-5.8-2.82v4.88c0,1.43,0.04,2.74,0.09,4.33
				c0.02,0.26-0.09,0.33-0.4,0.33c-0.64,0.04-1.32,0.04-1.96,0c-0.31,0-0.42-0.07-0.42-0.33c0.07-1.63,0.09-2.93,0.09-4.35v-10.86
				c0-1.66-0.07-2.38-0.22-3.27c1.02,0.07,2.12,0.18,2.76,0.35c0.31,0.07,0.42,0.2,0.42,0.38c0,0.13-0.07,0.31-0.18,0.51
				c-0.15,0.29-0.15,0.84-0.15,2.07V184.98z"/>
			<path class="st3" d="M283.02,188.49c0.2,0.13,0.33,0.26,0.33,0.42c0,0.11-0.07,0.22-0.24,0.35c-0.22,0.18-0.38,0.4-0.55,0.75
				c-0.57,1.17-1.54,2.71-2.45,3.68c-0.15,0.18-0.29,0.26-0.44,0.26c-0.09,0-0.2-0.04-0.33-0.13c-0.64-0.42-1.26-0.77-1.88-0.93
				c1.28-1.32,2.07-2.47,2.67-3.64c0.33-0.6,0.49-1.08,0.6-1.79C281.63,187.76,282.46,188.14,283.02,188.49z M285.95,182.42
				c0-1.39-0.04-2.41-0.24-3.4c1.04,0.09,2.18,0.22,2.74,0.33c0.26,0.04,0.4,0.16,0.4,0.33c0,0.11-0.04,0.24-0.13,0.4
				c-0.2,0.38-0.22,0.88-0.22,2.21v1.17h2.71c1.92,0,3.42-0.09,4.5-0.13c0.2-0.02,0.29,0.11,0.29,0.35
				c0.02,0.57,0.02,1.15-0.02,1.72c-0.02,0.29-0.09,0.44-0.31,0.42c-1.37-0.04-3.04-0.11-4.54-0.11h-2.6l0.02,4.46
				c0,1.17,0.04,2.12,0.04,3.84c0,1.08-0.4,1.81-1.3,2.27c-0.71,0.4-1.9,0.71-2.82,0.73c-0.26,0-0.4-0.13-0.53-0.46
				c-0.33-0.77-0.79-1.41-1.48-1.99c1.5,0,2.47-0.09,3-0.26c0.35-0.15,0.51-0.4,0.51-0.97v-7.61h-3.46c-1.26,0-2.78,0.07-3.82,0.16
				c-0.2,0-0.29-0.18-0.29-0.44c-0.02-0.4-0.09-1.39-0.09-2.12c1.68,0.13,3.02,0.15,4.15,0.15h3.51V182.42z M292.44,187.7
				c0.11-0.09,0.2-0.11,0.29-0.11c0.13,0,0.22,0.07,0.33,0.2c1.08,0.93,2.14,2.36,3.16,4.04c0.09,0.13,0.11,0.24,0.11,0.33
				c0,0.13-0.07,0.24-0.22,0.35c-0.35,0.33-0.97,0.77-1.48,1.1c-0.11,0.07-0.2,0.13-0.26,0.13c-0.09,0-0.15-0.07-0.24-0.22
				c-0.79-1.48-2.01-3.27-3.35-4.63C291.36,188.45,291.93,188.07,292.44,187.7z"/>
			<path class="st3" d="M302.8,189.51c-2.18,0-3.02,0.26-3.24,0.26c-0.26,0-0.44-0.13-0.51-0.46c-0.11-0.51-0.24-1.54-0.33-2.67
				c1.43,0.22,2.54,0.26,4.77,0.26h7.1c1.68,0,3.38-0.04,5.07-0.07c0.33-0.02,0.4,0.04,0.4,0.31c0.04,0.66,0.04,1.41,0,2.07
				c0,0.26-0.09,0.35-0.4,0.33c-1.65-0.02-3.29-0.04-4.92-0.04H302.8z"/>
			<path class="st3" d="M328.97,180.13c0.15,0.11,0.27,0.22,0.27,0.35c0,0.11-0.07,0.26-0.22,0.44c-0.4,0.51-0.66,1.19-0.9,1.83
				c-1.24,3.38-2.4,6.62-3.79,9.93c3.4-0.29,5.25-0.46,7.72-0.84c-0.68-1.21-1.5-2.43-2.45-3.53c0.66-0.35,1.3-0.73,1.92-1.06
				c0.24-0.13,0.38-0.04,0.53,0.13c1.72,2.01,3.38,4.77,4.46,7.21c0.07,0.11,0.09,0.2,0.09,0.29c0,0.13-0.09,0.27-0.29,0.38
				c-0.53,0.35-1.08,0.64-1.68,0.9c-0.09,0.04-0.18,0.07-0.26,0.07c-0.13,0-0.24-0.11-0.31-0.31c-0.26-0.62-0.51-1.19-0.77-1.76
				c-3.53,0.53-6.88,0.9-10.48,1.28c-1.46,0.15-2.05,0.26-2.58,0.53c-0.29,0.13-0.53,0.09-0.64-0.22c-0.18-0.38-0.46-1.48-0.77-2.85
				c0.88,0.07,1.81,0.04,2.69,0.02c1.57-3.95,2.71-7.22,3.86-10.92c0.35-1.15,0.57-1.92,0.64-3.02
				C327.34,179.38,328.29,179.69,328.97,180.13z"/>
		</g>
	</g>
</g>
</svg>
