<?xml version="1.0" encoding="utf-8"?>
<!-- Generator: Adobe Illustrator 23.0.6, SVG Export Plug-In . SVG Version: 6.00 Build 0)  -->
<svg version="1.1" id="レイヤー_1" xmlns="http://www.w3.org/2000/svg" xmlns:xlink="http://www.w3.org/1999/xlink" x="0px"
	 y="0px" viewBox="0 0 489.5 550" style="enable-background:new 0 0 489.5 550;" xml:space="preserve">
<style type="text/css">
	.st0{fill:#029AE4;}
	.st1{fill:#FFFFFF;}
	.st2{fill:#CCEBFA;}
	.st3{fill:#F58A00;}
	.st4{fill:none;stroke:#CCEBFA;stroke-width:4;stroke-miterlimit:10;}
</style>
<g>
	<g>
		<g>
			<rect x="0" y="0" class="st0" width="489.5" height="550"/>
		</g>
		<g>
			<path class="st1" d="M109.56,205.63c-0.46,0.34-0.92,0.64-1.36,0.9c1.78,2.18,2.62,4.62,2.62,7.08c0,2.8-0.68,3.74-3.02,3.74
				c-0.34,0-0.68,0-1.04-0.04c-0.54-0.04-0.54-0.04-0.64-0.54c-0.14-0.58-0.32-1.08-0.58-1.44c0.88,0.1,1.66,0.12,2.08,0.12
				c0.84,0,1.22-0.24,1.22-1.92c0-0.36-0.02-0.74-0.06-1.08c-2.36,1.8-4.68,3.02-7.46,4.06c-0.24,0.08-0.38,0.14-0.48,0.14
				c-0.16,0-0.24-0.12-0.4-0.44c-0.3-0.56-0.52-0.8-0.94-1.16c3.58-1.04,6.32-2.4,8.88-4.42c-0.12-0.32-0.24-0.64-0.4-0.96
				c-1.94,1.28-3.98,2.2-6.32,3.02c-0.24,0.08-0.38,0.14-0.48,0.14c-0.14,0-0.22-0.12-0.38-0.42c-0.26-0.46-0.56-0.82-0.88-1.12
				c3.06-0.68,5.12-1.62,7.28-3c-0.18-0.28-0.36-0.56-0.58-0.84c-1.38,0.72-2.74,1.26-4.3,1.74c-0.58,0.16-0.6,0.14-0.82-0.24
				c-0.32-0.6-0.52-0.82-0.92-1.18c2.64-0.56,4.58-1.24,6.26-2.14h-1.04c-1.9,0-2.56,0.04-2.68,0.04c-0.22,0-0.24-0.02-0.24-0.24
				v-1.26c0-0.22,0.02-0.24,0.24-0.24c0.12,0,0.78,0.04,2.68,0.04h5.68c1.92,0,2.58-0.04,2.7-0.04c0.2,0,0.22,0.02,0.22,0.24v1.26
				c0,0.22-0.02,0.24-0.22,0.24c-0.12,0-0.78-0.04-2.64-0.04c0.26,1.08,0.58,2.06,0.98,2.94c0.38-0.36,0.76-0.74,1.24-1.3
				c0.34-0.38,0.64-0.84,0.86-1.2c0.62,0.42,1.06,0.76,1.46,1.12c0.22,0.16,0.3,0.28,0.3,0.4c0,0.16-0.14,0.26-0.26,0.3
				c-0.26,0.1-0.46,0.38-0.88,0.8c-0.6,0.58-1.22,1.14-1.8,1.6c1.08,1.66,2.54,3,4.5,4.14c-0.42,0.42-0.78,0.82-1.08,1.38
				c-0.18,0.32-0.26,0.46-0.4,0.46c-0.08,0-0.2-0.1-0.42-0.24c-3.38-2.48-5.22-5.86-6.38-10.4H109.56z M114.22,200.78
				c1.84,0,2.5-0.04,2.64-0.04c0.2,0,0.22,0.02,0.22,0.22c0,0.12-0.04,0.46-0.04,0.96v0.82c0,1.7,0.04,2.02,0.04,2.14
				c0,0.2-0.02,0.22-0.22,0.22h-1.64c-0.2,0-0.22-0.02-0.22-0.22v-2.36h-12.72v2.36c0,0.2-0.02,0.22-0.22,0.22h-1.64
				c-0.2,0-0.22-0.02-0.22-0.22c0-0.12,0.04-0.44,0.04-2.14v-0.66c0-0.66-0.04-0.98-0.04-1.12c0-0.2,0.02-0.22,0.22-0.22
				c0.14,0,0.8,0.04,2.64,0.04h4.38v-0.04c0-0.66-0.02-1.2-0.14-1.7c0.72,0.02,1.46,0.06,2.16,0.12c0.2,0.02,0.3,0.1,0.3,0.18
				c0,0.14-0.06,0.24-0.12,0.4c-0.06,0.16-0.1,0.42-0.1,1v0.04H114.22z"/>
			<path class="st1" d="M123.49,203.85c-0.02,0.78-0.02,1.54-0.06,2.24h2.02c0.86,0,1.08-0.04,1.2-0.04c0.2,0,0.24,0.04,0.24,0.24
				c-0.04,0.62-0.04,1.26-0.06,2.16c-0.02,4.32-0.2,5.9-0.56,7.04c-0.34,1.12-1.06,1.56-2.08,1.56c-0.3,0-0.56,0-0.84-0.02
				c-0.32-0.02-0.36-0.06-0.42-0.56c-0.08-0.58-0.28-1.18-0.46-1.52c0.52,0.1,0.86,0.14,1.32,0.14c0.56,0,0.68-0.22,0.86-1.14
				c0.18-0.9,0.26-2.42,0.3-6.04h-1.6c-0.24,3.7-0.8,6.46-2.22,8.82c-0.14,0.22-0.24,0.34-0.34,0.34s-0.2-0.12-0.36-0.34
				c-0.38-0.58-0.7-0.96-1.12-1.26c2.06-2.88,2.24-6.4,2.28-11.62c-1.12,0.02-1.54,0.04-1.64,0.04c-0.2,0-0.22-0.02-0.22-0.22v-1.44
				c0-0.22,0.02-0.24,0.22-0.24c0.12,0,0.62,0.04,2.16,0.04h0.7v-0.96c0-0.88-0.02-1.4-0.14-1.94c0.76,0.02,1.38,0.04,2.12,0.12
				c0.2,0,0.32,0.08,0.32,0.2c0,0.14-0.06,0.24-0.12,0.4s-0.12,0.46-0.12,1.22v0.96c1.54,0,2.04-0.04,2.16-0.04
				c0.2,0,0.22,0.02,0.22,0.24v1.3c0.86-1.02,1.38-2.04,1.8-3.24c0.16-0.48,0.26-0.9,0.3-1.28c0.68,0.1,1.36,0.24,1.8,0.38
				c0.24,0.06,0.34,0.14,0.34,0.26c0,0.1-0.08,0.2-0.16,0.28c-0.12,0.14-0.2,0.34-0.34,0.7c-0.12,0.3-0.24,0.6-0.38,0.9h4.7
				c1.7,0,2.28-0.04,2.38-0.04c0.2,0,0.22,0.02,0.22,0.22v1.46c0,0.2-0.02,0.22-0.22,0.22c-0.1,0-0.68-0.04-2.38-0.04h-5.66
				c-0.44,0.72-0.94,1.44-1.56,2.14c-0.2,0.22-0.3,0.34-0.4,0.34s-0.22-0.14-0.46-0.38c-0.34-0.34-0.72-0.56-1.12-0.74
				c0.3-0.28,0.56-0.54,0.82-0.82c-0.22,0-0.78-0.04-2.06-0.04H123.49z M133.81,211.21c0.82,1.7,2.36,3.3,4.42,4.04
				c-0.46,0.54-0.68,0.88-0.92,1.42c-0.16,0.36-0.24,0.52-0.4,0.52c-0.1,0-0.22-0.06-0.42-0.18c-1.58-1.02-2.9-2.5-3.78-4.14
				c-0.8,1.78-2.2,3.12-4.54,4.2c-0.22,0.1-0.36,0.16-0.46,0.16c-0.16,0-0.24-0.14-0.38-0.5c-0.2-0.5-0.44-0.86-0.82-1.18
				c2.82-1.06,4.18-2.3,4.76-4.34h-0.94c-1.82,0-2.46,0.04-2.56,0.04c-0.2,0-0.22-0.02-0.22-0.2v-1.4c0-0.2,0.02-0.22,0.22-0.22
				c0.1,0,0.74,0.04,2.56,0.04h1.24c0.06-0.66,0.1-1.4,0.08-2.22h-1.24c-0.3,0.46-0.64,0.92-1.06,1.4
				c-0.22,0.24-0.32,0.36-0.44,0.36s-0.22-0.12-0.46-0.36c-0.3-0.3-0.66-0.54-0.98-0.72c1.04-0.96,1.76-2.02,2.28-3.04
				c0.18-0.4,0.34-0.82,0.42-1.22c0.56,0.1,1.32,0.3,1.64,0.42c0.16,0.06,0.26,0.16,0.26,0.26c0,0.14-0.06,0.18-0.16,0.28
				c-0.14,0.12-0.22,0.28-0.4,0.66l-0.12,0.22h2.66c1.98,0,2.66-0.04,2.78-0.04c0.22,0,0.24,0.02,0.24,0.22v1.4
				c0,0.18-0.02,0.2-0.24,0.2c-0.12,0-0.8-0.04-2.78-0.04h-0.4c0,0.8-0.04,1.54-0.1,2.22h1.38c1.82,0,2.46-0.04,2.58-0.04
				c0.18,0,0.2,0.02,0.2,0.22v1.4c0,0.18-0.02,0.2-0.2,0.2c-0.12,0-0.76-0.04-2.58-0.04H133.81z"/>
			<path class="st1" d="M145.96,200.24c0.24,0.06,0.36,0.16,0.36,0.32c0,0.28-0.14,0.56-0.14,0.84c0,0.4,0.06,0.88,0.1,1.34
				c0.18,1.4,0.38,2.4,0.64,3.44c1-0.54,1.72-0.92,2.84-1.52c0.58-0.34,1.06-0.68,1.38-1.08c0.64,0.66,1.16,1.36,1.46,1.88
				c0.08,0.12,0.14,0.28,0.14,0.42c0,0.2-0.12,0.36-0.4,0.4c-0.6,0.1-1.28,0.34-1.92,0.6c-1.72,0.7-3.32,1.44-4.7,2.34
				c-1.74,1.14-2.36,2.08-2.36,3.02c0,1.18,0.88,1.68,3.18,1.68c2.52,0,4.56-0.18,6.1-0.46c0.22-0.04,0.32,0,0.36,0.24
				c0.1,0.54,0.16,1.26,0.2,1.86c0.02,0.22-0.12,0.32-0.36,0.34c-1.82,0.24-3.42,0.3-5.96,0.3c-3.78,0-5.78-1.24-5.78-3.84
				c0-2.22,1.46-3.68,3.8-5.16c-0.48-1.54-0.84-3.34-1.04-4.88c-0.14-1.06-0.28-1.76-0.52-2.32
				C144.3,200,145.22,200.06,145.96,200.24z"/>
			<path class="st1" d="M161.15,213.11c0.42,0.82,0.98,1.3,1.78,1.64c0.72,0.26,2.02,0.38,3.76,0.38c2.58,0,5.58-0.1,8.58-0.4
				c-0.3,0.42-0.46,0.92-0.52,1.44c-0.1,0.64-0.1,0.64-0.74,0.68c-2.54,0.14-4.92,0.2-7,0.2c-2.06,0-3.72-0.2-4.68-0.6
				c-0.92-0.38-1.56-0.9-2.08-1.72c-0.6,0.56-1.28,1.12-1.94,1.64c-0.22,0.16-0.34,0.28-0.44,0.44c-0.08,0.12-0.18,0.18-0.28,0.18
				s-0.2-0.08-0.3-0.26c-0.28-0.56-0.5-1.08-0.78-1.8c0.5-0.24,0.78-0.38,1.2-0.64c0.52-0.32,1.04-0.76,1.5-1.22v-4.5h-0.86
				c-1.04,0-1.3,0.04-1.4,0.04c-0.22,0-0.24-0.02-0.24-0.24v-1.52c0-0.2,0.02-0.22,0.24-0.22c0.1,0,0.36,0.04,1.4,0.04h1.18
				c1.04,0,1.34-0.04,1.44-0.04c0.2,0,0.22,0.02,0.22,0.22c0,0.12-0.04,0.7-0.04,1.94V213.11z M160.09,204.05
				c-0.1,0.08-0.18,0.14-0.24,0.14c-0.06,0-0.12-0.06-0.18-0.16c-0.72-1.2-1.56-2.28-2.46-3.12c-0.16-0.14-0.12-0.18,0.1-0.34
				l1.04-0.74c0.12-0.08,0.18-0.12,0.24-0.12c0.06,0,0.12,0.04,0.2,0.1c0.92,0.86,1.78,1.84,2.52,2.96c0.12,0.18,0.1,0.22-0.12,0.4
				L160.09,204.05z M168.99,208.49c1.12,0,1.44-0.04,1.58-0.04c0.2,0,0.22,0.02,0.22,0.24c0,0.12-0.04,0.46-0.04,1.32v1.3
				c0,0.52,0,0.84,0.02,1.06c0.28,0.02,0.48,0.02,0.78,0.02c0.34,0,0.52-0.14,0.52-0.58v-4.42h-7.58v4.42
				c0,1.48,0.04,2.06,0.04,2.18c0,0.2-0.02,0.22-0.22,0.22h-1.56c-0.22,0-0.24-0.02-0.24-0.22c0-0.14,0.04-0.68,0.04-2.2v-3.72
				c0-1.32-0.04-1.92-0.04-2.04c0-0.2,0.02-0.22,0.24-0.22c0.06,0,0.36,0.02,1.04,0.04v-3.8c0-1.24-0.04-1.86-0.04-2
				c0-0.2,0.02-0.22,0.24-0.22c0.12,0,0.72,0.04,2.42,0.04h3.78c1.7,0,2.28-0.04,2.42-0.04c0.2,0,0.22,0.02,0.22,0.22
				c0,0.12-0.04,0.76-0.04,2v3.8c0.62-0.02,0.92-0.04,1-0.04c0.2,0,0.22,0.02,0.22,0.22c0,0.12-0.04,0.72-0.04,1.94v1.26
				c0,1.68,0.04,2.32,0.04,3.14c0,0.54-0.04,1.04-0.46,1.4c-0.38,0.32-0.82,0.46-2.16,0.46c-0.6,0-0.62,0.02-0.68-0.42
				c-0.06-0.38-0.12-0.68-0.22-0.96c-0.18,0-0.54-0.04-1.5-0.04h-1.54c-1.1,0-1.42,0.04-1.56,0.04c-0.2,0-0.22-0.02-0.22-0.22
				c0-0.14,0.04-0.48,0.04-1.32v-1.3c0-0.86-0.04-1.2-0.04-1.32c0-0.22,0.02-0.24,0.22-0.24c0.14,0,0.46,0.04,1.56,0.04H168.99z
				 M165.69,201.52v4.32h1.54v-1.54c0-0.88-0.04-1.28-0.04-1.4c0-0.2,0.02-0.22,0.22-0.22c0.14,0,0.58,0.04,1.5,0.04h2v-1.2H165.69z
				 M167.29,211.43h1.86v-1.58h-1.86V211.43z M170.91,205.85v-1.72h-1.9v1.72H170.91z"/>
			<path class="st1" d="M180.2,210.21c0.18,0.1,0.2,0.2,0.1,0.36c-0.3,0.46-0.52,1.12-0.52,1.52c0,1.26,1.3,1.88,4.74,1.88
				c1.94,0,3.78-0.22,5.42-0.58c0.28-0.06,0.38,0,0.42,0.18c0.1,0.38,0.28,1.46,0.32,1.96c0.02,0.18-0.1,0.26-0.34,0.3
				c-1.86,0.34-3.7,0.48-5.86,0.48c-4.62,0-6.88-1.44-6.88-4.04c0-0.82,0.3-1.68,1.06-2.86
				C179.18,209.67,179.68,209.93,180.2,210.21z M184.72,202.36c1.46,0,2.88-0.08,4.16-0.18c0.2-0.02,0.28,0.06,0.3,0.22
				c0.08,0.46,0.16,1.02,0.18,1.7c0,0.28-0.1,0.4-0.34,0.42c-1.9,0.28-3.28,0.94-4.9,1.98c-0.16,0.12-0.34,0.18-0.5,0.18
				c-0.14,0-0.28-0.04-0.42-0.12c-0.4-0.26-0.82-0.48-1.4-0.64c1.04-0.68,1.92-1.24,2.62-1.66c-0.44,0.06-1.06,0.06-1.46,0.06
				c-0.82,0-2.54-0.12-3.68-0.34c-0.18-0.04-0.26-0.12-0.26-0.36c0-0.48,0.04-1.06,0.08-1.78
				C180.62,202.2,182.54,202.36,184.72,202.36z M190.16,200.14c0.1-0.08,0.18-0.06,0.3,0.04c0.62,0.48,1.34,1.28,1.9,2.14
				c0.08,0.12,0.08,0.22-0.06,0.32l-0.84,0.62c-0.14,0.1-0.24,0.08-0.34-0.06c-0.6-0.92-1.24-1.68-2.02-2.32L190.16,200.14z
				 M191.94,198.84c0.12-0.08,0.18-0.06,0.3,0.04c0.74,0.56,1.46,1.36,1.9,2.06c0.08,0.12,0.1,0.24-0.06,0.36l-0.8,0.62
				c-0.16,0.12-0.26,0.06-0.34-0.06c-0.54-0.86-1.18-1.62-2-2.3L191.94,198.84z"/>
			<path class="st1" d="M203.73,201.11c-0.04-0.58-0.08-0.86-0.24-1.46c0.9,0.06,1.86,0.18,2.34,0.28c0.34,0.06,0.56,0.2,0.56,0.38
				c0,0.16-0.06,0.26-0.18,0.46c-0.06,0.12-0.12,0.32-0.16,0.58c-0.02,0.26-0.02,0.52-0.04,1.28c2.16-0.08,4.22-0.1,6.14-0.1
				c0.24,0,0.28,0.04,0.3,0.3c0.02,0.5,0.02,1.02,0,1.52c0,0.22-0.1,0.28-0.34,0.26c-2.08-0.06-4.02-0.06-6.1-0.04
				c0,1.22,0,2.5,0.02,3.72c0.2,0.54,0.3,1.32,0.3,1.98c0,2.32-0.94,4.74-3.56,6.46c-0.34,0.22-0.6,0.38-0.78,0.38
				c-0.18,0-0.4-0.14-0.6-0.3c-0.46-0.38-1-0.64-1.52-0.8c2.34-1.04,3.74-2.72,4.1-4.4c-0.4,0.58-1.22,0.8-1.88,0.8
				c-1.58,0-2.78-1.14-2.78-3.06c0-1.86,1.4-3,3.02-3c0.6,0,1.2,0.12,1.52,0.4c0-0.7-0.02-1.38-0.02-2.04
				c-2.52,0.14-5.34,0.38-6.92,0.6c-0.44,0.06-0.76,0.24-0.94,0.24c-0.2,0-0.28-0.08-0.34-0.28c-0.16-0.4-0.34-1.2-0.5-2.02
				c0.74,0.08,1.38,0,2.44-0.08c1.22-0.1,3.8-0.26,6.2-0.4C203.75,202.15,203.75,201.65,203.73,201.11z M201.17,209.21
				c0,0.88,0.56,1.36,1.28,1.36c0.74,0,1.36-0.46,1.36-1.38c0-0.82-0.52-1.28-1.32-1.28C201.87,207.91,201.17,208.33,201.17,209.21z
				"/>
		</g>
		<g>
			<path class="st1" d="M90.32,385.12c1.6,0.82,3.52,1.32,5.7,1.62c-0.28,0.34-0.54,0.8-0.72,1.24c-0.16,0.42-0.24,0.54-0.5,0.54
				c-0.1,0-0.24-0.02-0.42-0.06c-1.82-0.4-4.18-1.24-5.66-2.18c-0.18-0.12-0.16-0.16,0.06-0.34l1.02-0.82h-5.76
				c0.42,0.26,0.78,0.48,1.16,0.76c0.22,0.14,0.26,0.22,0.26,0.34c0,0.12-0.06,0.22-0.3,0.28c-0.22,0.06-0.44,0.18-0.76,0.32
				c-1.1,0.58-2.84,1.2-4.7,1.62c-0.2,0.04-0.36,0.06-0.44,0.06c-0.2,0-0.28-0.14-0.46-0.52c-0.22-0.46-0.5-0.9-0.78-1.22
				c1.88-0.2,3.84-0.7,5-1.24c0.24-0.12,0.46-0.22,0.68-0.4c-1.94,0-2.64,0.04-2.76,0.04c-0.22,0-0.24-0.02-0.24-0.22
				c0-0.14,0.04-0.72,0.04-2.1v-4.12c0-1.38-0.04-1.96-0.04-2.1c0-0.2,0.02-0.22,0.24-0.22c0.12,0,0.82,0.04,2.76,0.04h6.88
				c1.96,0,2.66-0.04,2.78-0.04c0.2,0,0.22,0.02,0.22,0.22c0,0.12-0.04,0.72-0.04,2.1v4.12c0,1.38,0.04,1.96,0.04,2.1
				c0,0.2-0.02,0.22-0.22,0.22c-0.12,0-0.82-0.04-2.78-0.04H90.32z M92.39,371.05c1.88,0,2.56-0.04,2.68-0.04
				c0.2,0,0.22,0.02,0.22,0.22c0,0.12-0.04,0.46-0.04,1.38v1.4c0,0.9,0.04,1.24,0.04,1.36c0,0.2-0.02,0.22-0.22,0.22
				c-0.12,0-0.8-0.04-2.68-0.04H81.86c-1.88,0-2.56,0.04-2.68,0.04c-0.2,0-0.22-0.02-0.22-0.22c0-0.14,0.04-0.46,0.04-1.36v-1.4
				c0-0.92-0.04-1.26-0.04-1.38c0-0.2,0.02-0.22,0.22-0.22c0.12,0,0.8,0.04,2.68,0.04H92.39z M83.78,374.09v-1.56h-2.76v1.56H83.78z
				 M82.74,377.93v0.96h8.76v-0.96H82.74z M91.51,381.27v-0.96h-8.76v0.96H91.51z M91.51,382.68h-8.76v0.94h8.76V382.68z
				 M88.38,374.09v-1.56h-2.66v1.56H88.38z M93.23,372.53h-2.88v1.56h2.88V372.53z"/>
			<path class="st1" d="M100.82,373.69c0.18,0.08,0.32,0.22,0.32,0.36c0,0.12-0.06,0.32-0.16,0.56c-0.08,0.24-0.18,1.1-0.18,1.96
				c0,1.28,0.04,2.72,0.36,4.56c0.28,1.58,0.8,2.94,1.64,2.94c0.64,0,1.14-0.7,1.92-2.78c0.44,0.7,0.88,1.16,1.28,1.54
				c0.24,0.22,0.24,0.46,0.14,0.74c-0.76,2.04-2,3.12-3.4,3.12c-1.56,0-3.2-1.84-3.74-5.22c-0.32-1.9-0.48-3.98-0.48-5.82
				c0-1.1-0.04-1.7-0.24-2.62C99.24,373.15,100.22,373.39,100.82,373.69z M110.11,374.95c0.08-0.04,0.16-0.08,0.22-0.08
				c0.08,0,0.14,0.04,0.22,0.12c1.82,1.58,3.42,4.34,3.92,6.84c0.06,0.26-0.06,0.34-0.22,0.44c-0.52,0.34-1.02,0.62-1.56,0.8
				c-0.24,0.08-0.38,0.02-0.42-0.22c-0.68-2.86-1.7-4.94-3.74-6.98C109.28,375.39,109.78,375.11,110.11,374.95z"/>
			<path class="st1" d="M118.8,376.19c-0.1,0.82-0.24,1.64-0.42,2.34c-0.1,0.34-0.14,0.48-0.26,0.48c-0.08,0-0.22-0.08-0.44-0.2
				c-0.32-0.16-0.84-0.32-1.18-0.4c0.56-1.86,0.78-3.68,0.84-5.24c0.02-0.38,0.02-0.78-0.04-1.28c0.54,0.06,1.2,0.14,1.68,0.22
				c0.22,0.04,0.3,0.12,0.3,0.24s-0.02,0.18-0.08,0.32c-0.08,0.16-0.1,0.36-0.12,0.68s-0.04,0.64-0.08,0.98h0.96v-1.1
				c0-1.42-0.04-2.02-0.16-3.02c0.74,0.02,1.38,0.06,2.06,0.14c0.2,0.02,0.32,0.1,0.32,0.2c0,0.16-0.06,0.26-0.12,0.42
				c-0.1,0.24-0.12,0.74-0.12,2.22v1.14c1.06,0,1.46-0.04,1.56-0.04c0.2,0,0.22,0.02,0.22,0.2v1.36c1.06-1.26,1.72-2.58,2.22-4.06
				c0.16-0.52,0.28-1,0.36-1.6c0.54,0.08,1.3,0.2,1.88,0.34c0.22,0.06,0.34,0.14,0.34,0.28c0,0.14-0.06,0.24-0.2,0.4
				s-0.24,0.42-0.4,0.92c-0.18,0.54-0.4,1.08-0.64,1.64h4.66c1.52,0,2-0.04,2.12-0.04c0.22,0,0.28,0.06,0.28,0.26
				c-0.02,0.54-0.04,1.08-0.04,1.56c-0.04,4.78-0.2,7.32-0.58,9.62c-0.32,2.14-1.2,3.16-2.98,3.16c-0.36,0-0.92,0-1.44-0.04
				c-0.62-0.04-0.62-0.04-0.74-0.7c-0.12-0.64-0.28-1.12-0.48-1.5c0.92,0.16,1.62,0.2,2.34,0.2c0.9,0,1.2-0.6,1.36-1.66
				c0.3-2.16,0.54-4.38,0.62-8.64c-1.42,5.04-3.4,8.6-6.86,11.28c-0.24,0.18-0.38,0.28-0.5,0.28c-0.14,0-0.24-0.12-0.42-0.38
				c-0.34-0.5-0.74-0.86-1.1-1.1c3.78-2.56,5.82-5.98,7.12-10.5h-1.32c-0.94,3.1-2.4,5.44-4.42,7.28c-0.22,0.22-0.36,0.32-0.48,0.32
				c-0.12,0-0.22-0.1-0.4-0.34c-0.34-0.42-0.76-0.78-1.12-1.02c2.1-1.54,3.62-3.56,4.5-6.24h-1.06c-0.42,0.7-0.92,1.38-1.48,2.02
				c-0.22,0.24-0.32,0.34-0.42,0.34c-0.12,0-0.22-0.1-0.44-0.32c-0.38-0.36-0.8-0.64-1.14-0.84l0.52-0.54
				c-0.2,0-0.64-0.02-1.44-0.04v3.22c0.58-0.28,1.2-0.58,1.86-0.94c0,0.36,0,0.9,0.04,1.34c0.04,0.6,0.04,0.62-0.5,0.9
				c-0.48,0.26-0.94,0.5-1.4,0.72v3.38c0,2.28,0.04,3.42,0.04,3.52c0,0.2-0.02,0.22-0.22,0.22h-1.62c-0.2,0-0.22-0.02-0.22-0.22
				c0-0.12,0.04-1.24,0.04-3.5v-2.48c-0.46,0.2-0.94,0.38-1.4,0.56c-0.3,0.14-0.54,0.26-0.64,0.36c-0.12,0.12-0.22,0.2-0.34,0.2
				c-0.14,0-0.24-0.06-0.32-0.22c-0.24-0.58-0.48-1.32-0.68-1.94c0.66-0.14,1.22-0.3,1.88-0.52c0.5-0.16,1-0.34,1.5-0.52v-4.08
				H118.8z"/>
			<path class="st1" d="M147.67,379.33c0,1.1-0.9,2-2,2c-1.1,0-2-0.9-2-2s0.9-2,2-2C146.77,377.33,147.67,378.23,147.67,379.33z"/>
			<path class="st1" d="M162.65,379.69c0,5.06,0.04,5.94,0.04,6.06c0,0.2-0.02,0.22-0.22,0.22h-1.4c-0.22,0-0.24-0.02-0.24-0.22
				v-0.64h-1.72v1.56c0,0.2-0.02,0.22-0.22,0.22h-1.44c-0.18,0-0.2-0.02-0.2-0.22c0-0.12,0.04-1.2,0.04-6.58v-3.74
				c0-3.74-0.04-4.86-0.04-4.98c0-0.22,0.02-0.24,0.2-0.24c0.14,0,0.5,0.04,1.7,0.04h1.64c1.18,0,1.54-0.04,1.68-0.04
				c0.2,0,0.22,0.02,0.22,0.24c0,0.12-0.04,1.14-0.04,4.24V379.69z M159.11,372.99v4.16h1.72v-4.16H159.11z M160.83,383.31v-4.36
				h-1.72v4.36H160.83z M169.89,381.21c1.2,2.58,3.06,4.16,5.4,5.24c-0.3,0.42-0.6,1.02-0.78,1.52c-0.12,0.34-0.18,0.48-0.32,0.48
				c-0.1,0-0.24-0.06-0.46-0.2c-2.1-1.34-3.84-3.24-4.86-5.42c-0.94,2.2-2.74,4.06-5.42,5.48c-0.22,0.1-0.36,0.16-0.46,0.16
				c-0.14,0-0.22-0.12-0.42-0.44c-0.28-0.46-0.66-0.9-1.02-1.18c3.2-1.14,4.88-3.04,5.7-5.14l0.16-0.5h-1.66
				c-1.96,0-2.36,0.04-2.46,0.04c-0.2,0-0.22-0.02-0.22-0.22v-1.38c0-0.2,0.02-0.22,0.22-0.22c0.06,0,0.22,0.02,0.74,0.04v-3.82
				c0-1.22-0.04-1.84-0.04-1.96c0-0.2,0.02-0.22,0.22-0.22c0.14,0,0.8,0.04,2.58,0.04h0.96v-0.72c0-1.12-0.04-1.78-0.14-2.56
				c0.72,0.02,1.42,0.06,2.04,0.14c0.22,0.04,0.32,0.12,0.32,0.24s-0.04,0.22-0.12,0.38c-0.08,0.2-0.12,0.48-0.12,1.76v0.76h1.24
				c1.8,0,2.42-0.04,2.54-0.04c0.22,0,0.24,0.02,0.24,0.22c0,0.12-0.04,0.74-0.04,1.96v3.82c0.7-0.02,1.02-0.04,1.1-0.04
				c0.22,0,0.24,0.02,0.24,0.22v1.38c0,0.2-0.02,0.22-0.24,0.22c-0.12,0-0.8-0.04-2.74-0.04H169.89z M167.77,375.27h-1.86v4.2h1.78
				c0.08-0.96,0.08-2.12,0.08-3.6V375.27z M171.77,379.47v-4.2h-2.04v0.62c0,1.2-0.04,2.44-0.14,3.58H171.77z"/>
			<path class="st1" d="M179.62,372.87c-1.8,0-2.42,0.04-2.54,0.04c-0.2,0-0.22-0.02-0.22-0.2v-1.54c0-0.22,0.02-0.24,0.22-0.24
				c0.12,0,0.74,0.04,2.54,0.04h12c1.82,0,2.42-0.04,2.54-0.04c0.2,0,0.22,0.02,0.22,0.24v1.54c0,0.18-0.02,0.2-0.22,0.2
				c-0.12,0-0.72-0.04-2.54-0.04h-5.12v1.96h1.22c1.8,0,2.4-0.04,2.52-0.04c0.22,0,0.24,0.02,0.24,0.24c0,0.12-0.04,0.74-0.04,2.16
				v4.54c0,1.4,0.04,2.04,0.04,2.16c0,0.2-0.02,0.22-0.24,0.22c-0.12,0-0.72-0.04-2.52-0.04h-4.2c-1.78,0-2.38,0.04-2.52,0.04
				c-0.2,0-0.22-0.02-0.22-0.22c0-0.12,0.04-0.76,0.04-2.16v-4.54c0-1.42-0.04-2.04-0.04-2.16c0-0.22,0.02-0.24,0.22-0.24
				c0.14,0,0.74,0.04,2.52,0.04h1.12v-1.96H179.62z M192.02,377.85c0-0.96-0.02-2.14-0.12-2.92c0.76,0.04,1.38,0.08,2.02,0.16
				c0.24,0.04,0.38,0.12,0.38,0.3c0,0.14-0.04,0.26-0.12,0.38c-0.12,0.18-0.16,0.78-0.16,2.1v6.38c0,2.54,0.04,3.86,0.04,3.98
				c0,0.2-0.02,0.22-0.22,0.22h-1.6c-0.2,0-0.22-0.02-0.22-0.22v-0.8h-12.76v0.8c0,0.2-0.02,0.22-0.22,0.22h-1.58
				c-0.2,0-0.22-0.02-0.22-0.22c0-0.14,0.04-1.42,0.04-3.94v-6.54c0-1.02-0.02-2.14-0.12-2.82c0.78,0.04,1.36,0.08,2,0.16
				c0.24,0.04,0.38,0.14,0.38,0.3c0,0.18-0.08,0.3-0.14,0.42c-0.12,0.2-0.14,0.86-0.14,2.08v7.66h12.76V377.85z M184.66,378.59
				v-2.12h-2.04v2.12H184.66z M184.66,382.44v-2.3h-2.04v2.3H184.66z M186.48,376.47v2.12h2.14v-2.12H186.48z M188.62,380.13h-2.14
				v2.3h2.14V380.13z"/>
			<path class="st1" d="M206,388.02c-1.92,0-2.58,0.04-2.7,0.04c-0.22,0-0.24-0.02-0.24-0.24v-1.44l-0.3,0.1
				c-1.42,0.48-2.78,0.86-4.36,1.24c-0.34,0.08-0.72,0.2-0.82,0.26c-0.12,0.08-0.2,0.12-0.32,0.12c-0.14,0-0.26-0.06-0.32-0.24
				c-0.2-0.56-0.34-1.1-0.5-1.72c0.64-0.04,1.26-0.12,2-0.26l0.9-0.18v-5.54h-0.5c-1.38,0-1.8,0.02-1.92,0.02
				c-0.2,0-0.22-0.02-0.22-0.22v-1.3c0-0.22,0.02-0.24,0.22-0.24c0.12,0,0.54,0.04,1.92,0.04h0.5v-1.56c-0.96,0-1.26,0.04-1.38,0.04
				c-0.2,0-0.22-0.02-0.22-0.24v-0.88l-0.42,0.38c-0.18,0.16-0.32,0.24-0.4,0.24c-0.12,0-0.2-0.14-0.28-0.44
				c-0.12-0.48-0.3-0.96-0.5-1.28c1.34-1.02,2.2-2.16,2.84-3.4c0.22-0.42,0.34-0.74,0.4-1.08c0.62,0.06,1.34,0.14,1.86,0.26
				c0.2,0.04,0.3,0.12,0.3,0.26c0,0.12-0.08,0.22-0.2,0.3c-0.04,0.02-0.08,0.04-0.1,0.08c0.64,0.96,1.4,1.82,2.5,2.58v-0.16
				c0-1.48-0.04-2.2-0.04-2.32c0-0.2,0.02-0.22,0.22-0.22c0.14,0,0.66,0.04,1.9,0.04h1.4c1.2,0,1.54-0.04,1.66-0.04
				c0.22,0,0.24,0.02,0.24,0.22v1.18c0,0.22-0.02,0.24-0.24,0.24c-0.1,0-0.38-0.02-1.14-0.04v1.22c0.52,0,0.76-0.04,0.84-0.04
				c0.2,0,0.22,0.02,0.22,0.22c0,0.12-0.04,0.44-0.04,1.24v0.2c0.78-1.14,1.28-2.32,1.66-3.76c0.1-0.42,0.14-0.84,0.16-1.28
				c0.52,0.08,1.36,0.26,1.76,0.38c0.16,0.06,0.28,0.16,0.28,0.3c0,0.12-0.1,0.22-0.16,0.32c-0.1,0.14-0.16,0.3-0.26,0.6l-0.3,0.96
				h0.88c1.28,0,1.66-0.04,1.78-0.04c0.2,0,0.22,0.02,0.22,0.22v1.4c0,0.2-0.02,0.22-0.22,0.22c-0.12,0-0.5-0.04-1.78-0.04h-1.56
				c-0.22,0.52-0.48,1.02-0.76,1.48c-0.16,0.26-0.22,0.38-0.32,0.38s-0.22-0.12-0.44-0.32c-0.32-0.3-0.66-0.5-0.94-0.64v0.5
				c0,0.78,0.04,1.12,0.04,1.26c0,0.2-0.02,0.22-0.22,0.22c-0.08,0-0.32-0.02-0.84-0.04v1.34c0.86,0,1.08-0.04,1.2-0.04
				c0.2,0,0.22,0.02,0.22,0.22v1.12c0,0.2-0.02,0.22-0.22,0.22c-0.12,0-0.34-0.04-1.24-0.04h-1.88c-1.24,0-1.76,0.04-1.9,0.04
				c-0.2,0-0.22-0.02-0.22-0.22c0-0.1,0.04-0.82,0.04-2.3v-4.08c-0.22,0.26-0.46,0.54-0.66,0.92c-0.14,0.28-0.22,0.42-0.34,0.42
				c-0.1,0-0.22-0.1-0.44-0.3c-0.82-0.74-1.42-1.48-1.94-2.3c-0.6,0.98-1.28,1.88-2.06,2.68c0.24,0.02,0.6,0.02,1.2,0.02h1.42
				c1.12,0,1.44-0.04,1.56-0.04c0.18,0,0.2,0.02,0.2,0.22v1.24c0,0.22-0.02,0.24-0.2,0.24c-0.12,0-0.42-0.04-1.4-0.04v1.56
				c1.3,0,1.7-0.04,1.82-0.04c0.2,0,0.22,0.02,0.22,0.24v1.3c0,0.2-0.02,0.22-0.22,0.22c-0.12,0-0.52-0.02-1.82-0.02v5.14
				c0.76-0.2,1.54-0.42,2.4-0.7c-0.04,0.32-0.08,0.72-0.08,1.08c-0.02,0.38-0.02,0.5-0.16,0.6c0.12,0,0.42,0.02,1.1,0.04v-2.98
				c0-1.1-0.04-1.58-0.04-1.72c0-0.2,0.02-0.22,0.22-0.22c0.12,0,0.72,0.04,2.5,0.04h4.04c1.78,0,2.38-0.04,2.52-0.04
				c0.2,0,0.22,0.02,0.22,0.22c0,0.12-0.04,0.62-0.04,1.7v3c0.56-0.02,0.82-0.04,0.9-0.04c0.2,0,0.22,0.02,0.22,0.22v1.32
				c0,0.22-0.02,0.24-0.22,0.24c-0.12,0-0.76-0.04-2.7-0.04H206z M197.82,381.02c0.26-0.1,0.28-0.1,0.36,0.1
				c0.38,1.02,0.56,1.96,0.74,3c0.02,0.22,0.02,0.28-0.26,0.38l-0.78,0.3c-0.28,0.1-0.32,0.12-0.34-0.12
				c-0.14-1.04-0.38-2.04-0.72-3c-0.08-0.2-0.06-0.26,0.2-0.36L197.82,381.02z M202.02,381.69c0.06-0.26,0.1-0.54,0.12-0.82
				c0.5,0.14,0.96,0.3,1.3,0.46c0.16,0.06,0.2,0.12,0.2,0.2c0,0.1-0.04,0.16-0.12,0.24c-0.1,0.1-0.18,0.22-0.24,0.44
				c-0.14,0.5-0.38,1.2-0.62,1.78c-0.1,0.24-0.14,0.34-0.24,0.34c-0.06,0-0.18-0.06-0.36-0.14c-0.22-0.1-0.46-0.16-0.74-0.2
				C201.64,383.15,201.86,382.38,202.02,381.69z M206.32,373.83v-1.22h-1.1v1.22H206.32z M207.34,375.09h-2.12v1.22h2.12V375.09z
				 M206.32,378.91v-1.34h-1.1v1.34H206.32z M207.06,386.32v-3.24h-0.98v3.24H207.06z M209.52,386.32v-3.24h-1v3.24H209.52z
				 M212.72,377.63c1.04,0,1.32-0.04,1.44-0.04c0.22,0,0.24,0.02,0.24,0.22v1.46c0,0.2-0.02,0.22-0.24,0.22
				c-0.12,0-0.4-0.04-1.44-0.04h-1.24c-1.02,0-1.3,0.04-1.42,0.04c-0.2,0-0.22-0.02-0.22-0.22v-1.46c0-0.2,0.02-0.22,0.22-0.22
				c0.12,0,0.4,0.04,1.42,0.04H212.72z M210.98,383.08v3.24h1v-3.24H210.98z"/>
			<path class="st1" d="M222.75,385.66c0.46,0.3,0.74,0.52,1.12,0.84c0.22,0.2,0.22,0.32,0.22,0.44c0,0.1-0.12,0.2-0.34,0.24
				c-0.24,0.04-0.44,0.1-0.84,0.24c-1.14,0.5-2.66,0.88-4.44,1.14c-0.18,0.02-0.34,0.04-0.42,0.04c-0.24,0-0.3-0.12-0.5-0.52
				c-0.2-0.42-0.5-0.86-0.8-1.14c1.86-0.16,3.54-0.4,4.72-0.8c0.26-0.08,0.72-0.28,1.04-0.48h-0.26c-1.92,0-2.62,0.04-2.74,0.04
				c-0.2,0-0.22-0.02-0.22-0.22c0-0.12,0.04-0.64,0.04-1.82v-2.82c0-1.18-0.04-1.7-0.04-1.82c0-0.2,0.02-0.22,0.22-0.22
				c0.12,0,0.82,0.04,2.64,0.04h6.82c1.94,0,2.64-0.04,2.76-0.04c0.22,0,0.24,0.02,0.24,0.22c0,0.12-0.04,0.64-0.04,1.82v2.82
				c0,1.18,0.04,1.7,0.04,1.82c0,0.2-0.02,0.22-0.24,0.22c-0.12,0-0.82-0.04-2.76-0.04H222.75z M221.03,370.45
				c0.26-0.04,0.32-0.04,0.44,0.1c0.44,0.56,0.94,1.3,1.28,1.98h1.74v-0.54c0-0.92-0.02-1.4-0.14-1.92
				c0.74,0.02,1.38,0.08,2.08,0.16c0.18,0.02,0.3,0.12,0.3,0.22c0,0.16-0.04,0.26-0.12,0.4c-0.08,0.2-0.1,0.54-0.1,1.3v0.38h1.9
				c0.2-0.32,0.32-0.64,0.5-1.02c0.12-0.28,0.22-0.58,0.32-1.06c0.66,0.1,1.32,0.26,1.9,0.44c0.16,0.06,0.26,0.16,0.26,0.26
				c0,0.16-0.08,0.24-0.2,0.34c-0.16,0.12-0.26,0.28-0.36,0.44c-0.12,0.22-0.24,0.42-0.36,0.6h0.7c1.86,0,2.52-0.04,2.66-0.04
				c0.2,0,0.22,0.02,0.22,0.22c0,0.12-0.04,0.46-0.04,0.94v0.78c0,1.68,0.04,1.96,0.04,2.06c0,0.22-0.02,0.24-0.22,0.24h-1.56
				c-0.2,0-0.22-0.02-0.22-0.24v-2.44h-12.84v2.44c0,0.2-0.02,0.22-0.22,0.22h-1.54c-0.22,0-0.24-0.02-0.24-0.22
				c0-0.12,0.04-0.4,0.04-2.06v-0.62c0-0.64-0.04-0.96-0.04-1.1c0-0.2,0.02-0.22,0.24-0.22c0.12,0,0.8,0.04,2.64,0.04h0.54
				c-0.28-0.5-0.64-1.08-0.98-1.52c-0.14-0.18-0.12-0.28,0.14-0.32L221.03,370.45z M227.73,374.81c1.78,0,2.4-0.04,2.52-0.04
				c0.22,0,0.24,0.02,0.24,0.22c0,0.12-0.04,0.34-0.04,1.04v0.84c0,0.7,0.04,0.92,0.04,1.04c0,0.22-0.02,0.24-0.24,0.24
				c-0.12,0-0.74-0.04-2.52-0.04h-4.18c-1.76,0-2.38,0.04-2.52,0.04c-0.2,0-0.22-0.02-0.22-0.24c0-0.12,0.04-0.34,0.04-1.04v-0.84
				c0-0.7-0.04-0.9-0.04-1.04c0-0.2,0.02-0.22,0.22-0.22c0.14,0,0.76,0.04,2.52,0.04H227.73z M221.37,380.81h8.52v-0.72h-8.52
				V380.81z M229.89,382.6v-0.72h-8.52v0.72H229.89z M229.89,383.66h-8.52v0.74h8.52V383.66z M222.65,376.89h5.98v-0.86h-5.98
				V376.89z M228.19,385.84c0.2-0.2,0.26-0.2,0.42-0.12c1.62,0.7,3.58,1.08,5.84,1.26c-0.26,0.26-0.54,0.72-0.76,1.14
				c-0.2,0.4-0.28,0.5-0.5,0.5c-0.1,0-0.2,0-0.44-0.04c-2.04-0.28-3.92-0.76-5.38-1.6c-0.18-0.1-0.16-0.18,0.04-0.38L228.19,385.84z
				"/>
		</g>
		<g>
			<path class="st1" d="M371.91,248.85c0.12,0.96,0.28,1.88,0.5,2.74c0.52-0.4,1-0.82,1.4-1.22c0.26-0.26,0.48-0.54,0.72-0.88
				c0.46,0.34,0.96,0.76,1.28,1.14c0.12,0.12,0.16,0.22,0.16,0.34c0,0.14-0.1,0.24-0.28,0.3c-0.18,0.06-0.38,0.2-0.74,0.52
				c-0.58,0.54-1.2,1.04-1.94,1.58c0.64,1.58,1.64,3,3.26,4.34c-0.32,0.28-0.7,0.84-0.98,1.54c-0.12,0.26-0.18,0.38-0.28,0.38
				c-0.08,0-0.18-0.08-0.34-0.24c-2.64-2.64-3.72-5.54-4.3-9.34l-0.8,0.54v6.7c0,1.62,0.04,2.4,0.04,2.5c0,0.2-0.02,0.22-0.22,0.22
				h-1.66c-0.2,0-0.22-0.02-0.22-0.22c0-0.12,0.04-0.88,0.04-2.5v-5.5l-0.98,0.48c-0.22,0.1-0.36,0.14-0.46,0.14
				c-0.16,0-0.22-0.14-0.34-0.52c-0.18-0.42-0.36-0.76-0.62-1.04v0.22c-0.02,4.32-0.2,5.9-0.56,7.04c-0.34,1.12-1.06,1.56-2.08,1.56
				c-0.3,0-0.5,0-0.9-0.02c-0.32-0.02-0.36-0.06-0.42-0.56c-0.08-0.58-0.28-1.18-0.46-1.52c0.52,0.1,0.86,0.14,1.36,0.14
				c0.58,0,0.7-0.22,0.88-1.14c0.18-0.9,0.26-2.42,0.3-6.04h-1.78c-0.24,3.7-0.8,6.44-2.22,8.8c-0.14,0.24-0.26,0.34-0.36,0.34
				s-0.22-0.1-0.34-0.32c-0.38-0.58-0.7-1-1.12-1.28c2.04-2.86,2.22-6.36,2.28-11.54c-1.14,0.02-1.56,0.04-1.66,0.04
				c-0.2,0-0.22-0.02-0.22-0.24v-1.44c0-0.2,0.02-0.22,0.22-0.22c0.12,0,0.64,0.04,2.22,0.04h0.7v-1.02c0-0.88-0.02-1.4-0.14-1.94
				c0.74,0.02,1.36,0.04,2.1,0.12c0.2,0.02,0.34,0.08,0.34,0.2c0,0.16-0.06,0.24-0.12,0.38c-0.08,0.16-0.12,0.46-0.12,1.24v1.02
				h0.24c1.6,0,2.12-0.04,2.24-0.04c0.2,0,0.22,0.02,0.22,0.22v1.44c0,0.22-0.02,0.24-0.22,0.24c-0.12,0-0.64-0.04-2.24-0.04h-1.66
				c-0.02,0.76-0.02,1.5-0.06,2.18h2.2c0.86,0,1.08-0.04,1.2-0.04c0.2,0,0.24,0.04,0.24,0.24c-0.04,0.54-0.04,1.08-0.06,1.78
				c2.48-0.9,4.6-2.36,5.94-3.6c0.28-0.26,0.6-0.64,0.86-1.04h-3.54c-0.4,0.76-0.9,1.54-1.54,2.3c-0.2,0.24-0.32,0.36-0.44,0.36
				s-0.24-0.12-0.48-0.34c-0.36-0.34-0.7-0.56-1.12-0.78c1.5-1.42,2.24-2.82,2.86-4.68c0.16-0.48,0.2-0.86,0.24-1.26
				c0.7,0.1,1.28,0.22,1.86,0.34c0.22,0.06,0.36,0.16,0.36,0.28c0,0.1-0.06,0.2-0.16,0.3c-0.16,0.14-0.26,0.36-0.38,0.72l-0.34,0.94
				h4.28c1.6,0,2.14-0.04,2.24-0.04c0.2,0,0.22,0.02,0.22,0.22v1.46c0,0.2-0.02,0.22-0.22,0.22c-0.1,0-0.64-0.04-2.24-0.04h-1.5
				c0.64,0.4,1.02,0.66,1.46,1.02c0.16,0.14,0.18,0.24,0.18,0.34c0,0.08-0.1,0.2-0.3,0.26c-0.2,0.06-0.46,0.28-0.92,0.68
				L371.91,248.85z"/>
			<path class="st1" d="M380.67,254.47c0-0.7,0.04-1.7,0.06-2.5c-0.5,0.48-1,0.94-1.54,1.38c-0.2,0.16-0.32,0.26-0.42,0.26
				c-0.12,0-0.18-0.12-0.28-0.42c-0.2-0.58-0.38-1-0.72-1.42c1.6-1.2,3.12-2.8,4.16-4.36c0.18-0.3,0.38-0.68,0.54-1.04
				c0.56,0.32,1.04,0.62,1.5,0.98c0.18,0.16,0.24,0.24,0.24,0.36c0,0.08-0.06,0.16-0.14,0.22c-0.12,0.08-0.28,0.22-0.42,0.46
				c-0.3,0.44-0.6,0.88-0.92,1.3v7.72c0,1.6,0.04,2.36,0.04,2.46c0,0.2-0.02,0.22-0.22,0.22h-1.7c-0.2,0-0.22-0.02-0.22-0.22
				c0-0.12,0.04-0.86,0.04-2.46V254.47z M384.05,242.72c0.18,0.14,0.28,0.22,0.28,0.36s-0.12,0.22-0.3,0.32
				c-0.14,0.1-0.3,0.26-0.54,0.56c-0.86,1.02-2.3,2.38-3.86,3.42c-0.2,0.14-0.34,0.2-0.44,0.2c-0.14,0-0.22-0.14-0.38-0.46
				c-0.24-0.48-0.54-0.88-0.9-1.24c1.44-0.86,2.92-2.02,3.92-3.22c0.26-0.34,0.44-0.64,0.58-0.92
				C383.07,242.06,383.51,242.32,384.05,242.72z M387.53,249.82c-1.9,0-2.56,0.04-2.7,0.04c-0.2,0-0.22-0.02-0.22-0.22v-1.58
				c0-0.2,0.02-0.22,0.22-0.22c0.14,0,0.8,0.04,2.7,0.04h5.72c1.9,0,2.56-0.04,2.66-0.04c0.2,0,0.22,0.02,0.22,0.22v1.58
				c0,0.2-0.02,0.22-0.22,0.22c-0.1,0-0.76-0.04-2.66-0.04h-0.42v3.78c0,1.78,0.06,2.9,0.06,3.78c0.02,0.98-0.14,1.56-0.68,2
				c-0.44,0.38-1.2,0.46-3.16,0.48c-0.64,0-0.64,0.02-0.78-0.62c-0.14-0.56-0.32-1.12-0.6-1.54c0.82,0.06,1.42,0.08,2.16,0.08
				c0.68,0,0.88-0.14,0.88-0.64v-7.32H387.53z M388.33,244.88c-1.76,0-2.36,0.04-2.46,0.04c-0.2,0-0.22-0.02-0.22-0.22v-1.6
				c0-0.2,0.02-0.22,0.22-0.22c0.1,0,0.7,0.04,2.46,0.04h4.16c1.78,0,2.36-0.04,2.48-0.04c0.22,0,0.24,0.02,0.24,0.22v1.6
				c0,0.2-0.02,0.22-0.24,0.22c-0.12,0-0.7-0.04-2.48-0.04H388.33z"/>
		</g>
		<g>
			<path class="st1" d="M302.94,428.29c-1.78,0-2.4,0.04-2.52,0.04c-0.2,0-0.22-0.02-0.22-0.24v-1.6c0-0.22,0.02-0.24,0.22-0.24
				c0.12,0,0.74,0.04,2.52,0.04h2.68l0.04-0.42c0.08-0.96,0.12-2.02,0.02-2.62c0.78,0.02,1.52,0.1,2.22,0.2
				c0.28,0.04,0.38,0.16,0.38,0.26c0,0.16-0.06,0.3-0.2,0.48c-0.12,0.2-0.18,0.86-0.26,1.7c-0.02,0.14-0.04,0.28-0.04,0.4h7.26
				c1.78,0,2.4-0.04,2.52-0.04c0.22,0,0.24,0.02,0.24,0.24v1.6c0,0.22-0.02,0.24-0.24,0.24c-0.12,0-0.74-0.04-2.52-0.04h-7.5
				c-0.1,0.74-0.22,1.48-0.36,2.18h5.98c0.22,0,0.38-0.04,0.5-0.08c0.1-0.04,0.18-0.08,0.26-0.08c0.14,0,0.28,0.04,0.9,0.58
				c0.6,0.52,0.64,0.64,0.64,0.78c0,0.18-0.06,0.26-0.16,0.34c-0.2,0.16-0.32,0.36-0.48,0.74c-0.7,1.58-1.56,3.02-2.68,4.3
				c1.7,1.06,3.78,1.78,6.02,2.24c-0.36,0.42-0.66,0.98-0.86,1.54c-0.22,0.6-0.24,0.6-0.84,0.44c-2.22-0.68-4.2-1.56-5.86-2.74
				c-1.4,1.16-3.14,2.12-5.32,2.84c-0.24,0.08-0.38,0.12-0.48,0.12c-0.18,0-0.26-0.12-0.4-0.48c-0.2-0.46-0.54-0.92-0.92-1.28
				c2.3-0.6,4.1-1.48,5.5-2.56c-1.08-1.06-1.96-2.28-2.6-3.72c-0.06,0.16-0.1,0.32-0.16,0.46c-1.1,2.82-2.6,4.96-4.58,6.76
				c-0.24,0.2-0.36,0.3-0.46,0.3c-0.12,0-0.22-0.12-0.4-0.34c-0.4-0.5-0.74-0.8-1.18-1.08c2.12-1.6,3.52-3.64,4.54-6.16
				c0.58-1.42,1-3.12,1.26-5.1H302.94z M308.02,432.31c0.54,1.38,1.38,2.52,2.46,3.5c0.96-1.06,1.66-2.24,2.16-3.5H308.02z"/>
			<path class="st1" d="M324.5,437.2c0.4,0.88,1.02,1.34,1.82,1.66c0.72,0.26,1.96,0.38,3.7,0.38c2.56,0,5.68-0.14,8.66-0.42
				c-0.28,0.42-0.46,0.88-0.54,1.42c-0.1,0.64-0.1,0.64-0.74,0.68c-2.48,0.14-4.92,0.18-7,0.18c-2.06,0-3.76-0.12-4.72-0.52
				c-0.92-0.38-1.62-0.94-2.16-1.78c-0.56,0.56-1.1,1.04-1.82,1.62c-0.22,0.16-0.34,0.28-0.44,0.42c-0.1,0.14-0.18,0.2-0.3,0.2
				c-0.1,0-0.2-0.12-0.28-0.26c-0.28-0.54-0.5-1.08-0.78-1.8c0.5-0.24,0.74-0.38,1.14-0.62c0.48-0.34,1.04-0.8,1.52-1.26v-4.46
				h-0.82c-1.04,0-1.3,0.04-1.4,0.04c-0.22,0-0.24-0.02-0.24-0.24v-1.52c0-0.2,0.02-0.22,0.24-0.22c0.1,0,0.36,0.04,1.4,0.04h1.12
				c1.04,0,1.36-0.04,1.48-0.04c0.18,0,0.2,0.02,0.2,0.22c0,0.12-0.04,0.68-0.04,1.92V437.2z M321.76,423.89
				c0.22-0.14,0.28-0.16,0.42-0.02c0.92,0.86,1.78,1.84,2.52,2.96c0.1,0.16,0.1,0.22-0.12,0.38l-1.08,0.9
				c-0.1,0.08-0.18,0.14-0.24,0.14c-0.06,0-0.12-0.06-0.18-0.16c-0.74-1.2-1.58-2.26-2.46-3.1c-0.14-0.16-0.12-0.22,0.1-0.36
				L321.76,423.89z M328.46,437.14c-1.94,0-2.58,0.04-2.7,0.04c-0.2,0-0.22-0.02-0.22-0.22v-1.22c0-0.2,0.02-0.22,0.22-0.22
				c0.12,0,0.76,0.04,2.7,0.04h2.02v-1.04h-1.18c-1.8,0-2.42,0.04-2.54,0.04c-0.2,0-0.22-0.02-0.22-0.22v-1.18
				c0-0.18,0.02-0.2,0.22-0.2c0.12,0,0.74,0.04,2.54,0.04h1.18v-1.02h-1.74c-1.92,0-2.56,0.04-2.68,0.04c-0.2,0-0.22-0.02-0.22-0.24
				v-1.14c0-0.2,0.02-0.22,0.22-0.22c0.1,0,0.72,0.04,2.38,0.04c-0.2-0.6-0.44-1.18-0.7-1.68c-1.6,0.02-2.22,0.04-2.32,0.04
				c-0.2,0-0.22-0.02-0.22-0.22v-1.2c0-0.2,0.02-0.22,0.22-0.22c0.12,0,0.8,0.02,2.76,0.02h2.3v-1.06h-1.28
				c-1.84,0-2.48,0.04-2.6,0.04c-0.2,0-0.22-0.02-0.22-0.22v-1.18c0-0.2,0.02-0.22,0.22-0.22c0.12,0,0.76,0.04,2.6,0.04h1.28
				c-0.02-0.54-0.04-0.94-0.12-1.4c0.64,0.02,1.5,0.04,2.04,0.1c0.18,0.02,0.26,0.1,0.26,0.2c0,0.12-0.06,0.22-0.1,0.34
				c-0.06,0.14-0.1,0.36-0.1,0.76h1.52c1.84,0,2.44-0.04,2.56-0.04c0.22,0,0.24,0.02,0.24,0.22v1.18c0,0.2-0.02,0.22-0.24,0.22
				c-0.12,0-0.72-0.04-2.56-0.04h-1.52v1.06h2.66c1.96,0,2.64-0.02,2.76-0.02c0.2,0,0.22,0.02,0.22,0.22v1.2
				c0,0.2-0.02,0.22-0.22,0.22c-0.12,0-0.76-0.04-2.52-0.04c-0.06,0.1-0.12,0.2-0.16,0.28c-0.18,0.44-0.4,0.92-0.62,1.4h0.06
				c1.92,0,2.58-0.04,2.7-0.04c0.2,0,0.22,0.02,0.22,0.22v1.14c0,0.22-0.02,0.24-0.22,0.24c-0.12,0-0.78-0.04-2.7-0.04h-2.2V433
				h1.42c1.8,0,2.4-0.04,2.52-0.04c0.2,0,0.22,0.02,0.22,0.2v1.18c0,0.2-0.02,0.22-0.22,0.22c-0.12,0-0.72-0.04-2.52-0.04h-1.42
				v1.04h2.38c1.94,0,2.6-0.04,2.72-0.04c0.22,0,0.24,0.02,0.24,0.22v1.22c0,0.2-0.02,0.22-0.24,0.22c-0.12,0-0.78-0.04-2.72-0.04
				h-2.38c0,0.92,0.04,1.4,0.04,1.5c0,0.2-0.02,0.22-0.22,0.22h-1.6c-0.2,0-0.22-0.02-0.22-0.22c0-0.12,0.02-0.54,0.04-1.5H328.46z
				 M329.72,428.77c0.22,0.52,0.44,1.1,0.62,1.68h2.38c0.26-0.58,0.48-1.12,0.68-1.68H329.72z"/>
			<path class="st1" d="M346.34,424.31c0.24,0.06,0.36,0.16,0.36,0.32c0,0.28-0.14,0.56-0.14,0.84c0,0.4,0.06,0.88,0.1,1.34
				c0.18,1.4,0.38,2.4,0.64,3.44c1-0.54,1.72-0.92,2.84-1.52c0.58-0.34,1.06-0.68,1.38-1.08c0.64,0.66,1.16,1.36,1.46,1.88
				c0.08,0.12,0.14,0.28,0.14,0.42c0,0.2-0.12,0.36-0.4,0.4c-0.6,0.1-1.28,0.34-1.92,0.6c-1.72,0.7-3.32,1.44-4.7,2.34
				c-1.74,1.14-2.36,2.08-2.36,3.02c0,1.18,0.88,1.68,3.18,1.68c2.52,0,4.56-0.18,6.1-0.46c0.22-0.04,0.32,0,0.36,0.24
				c0.1,0.54,0.16,1.26,0.2,1.86c0.02,0.22-0.12,0.32-0.36,0.34c-1.82,0.24-3.42,0.3-5.96,0.3c-3.78,0-5.78-1.24-5.78-3.84
				c0-2.22,1.46-3.68,3.8-5.16c-0.48-1.54-0.84-3.34-1.04-4.88c-0.14-1.06-0.28-1.76-0.52-2.32
				C344.68,424.07,345.6,424.13,346.34,424.31z"/>
			<path class="st1" d="M301.45,455.53c-2.44,0.46-4.58,0.88-6.72,1.32c-0.76,0.18-0.96,0.22-1.26,0.32
				c-0.14,0.06-0.28,0.16-0.44,0.16c-0.14,0-0.3-0.12-0.38-0.3c-0.26-0.54-0.48-1.24-0.74-2.16c1.02-0.04,1.62-0.12,3.18-0.34
				c2.46-0.36,6.86-1.02,12.02-1.7c0.3-0.04,0.4,0.08,0.42,0.22c0.1,0.46,0.2,1.2,0.22,1.76c0,0.24-0.12,0.3-0.38,0.3
				c-0.94,0.06-1.58,0.16-2.44,0.44c-3.4,1.16-5.1,3.5-5.1,5.9c0,2.58,1.84,3.98,5.32,4.2c0.32,0,0.44,0.08,0.44,0.3
				c0,0.52-0.08,1.22-0.22,1.72c-0.06,0.3-0.14,0.42-0.38,0.42c-3.52,0-7.38-2.02-7.38-6.18c0-2.84,1.42-4.76,3.84-6.34V455.53z
				 M305.41,457.69c0.1-0.08,0.18-0.06,0.3,0.04c0.62,0.48,1.34,1.28,1.9,2.14c0.08,0.12,0.08,0.22-0.06,0.32l-0.84,0.62
				c-0.14,0.1-0.24,0.08-0.34-0.06c-0.6-0.92-1.24-1.68-2.02-2.32L305.41,457.69z M307.19,456.39c0.12-0.08,0.18-0.06,0.3,0.04
				c0.74,0.56,1.46,1.36,1.9,2.06c0.08,0.12,0.1,0.24-0.06,0.36l-0.8,0.62c-0.16,0.12-0.26,0.06-0.34-0.06
				c-0.54-0.86-1.18-1.62-2-2.3L307.19,456.39z"/>
			<path class="st1" d="M317.03,453.83c0.1-0.6,0.2-1.38,0.2-2.22c1.04,0.22,1.6,0.36,2.4,0.66c0.2,0.06,0.32,0.22,0.32,0.4
				c0,0.1-0.04,0.2-0.14,0.3c-0.2,0.26-0.3,0.48-0.4,0.76c-0.26,0.82-0.46,1.56-0.72,2.4c0.54-0.06,1.14-0.08,1.56-0.08
				c1.88,0,2.9,1.28,2.9,3.7c0,2.36-0.4,4.98-1.08,6.42c-0.58,1.28-1.54,1.88-2.7,1.88c-0.96,0-1.54-0.08-1.98-0.22
				c-0.24-0.08-0.36-0.26-0.36-0.56c-0.06-0.64-0.1-1.2-0.38-1.86c0.9,0.34,1.58,0.44,2.2,0.44c0.66,0,0.96-0.24,1.28-1.06
				c0.42-1.12,0.78-3.02,0.78-4.96c0-1.42-0.26-1.86-1.14-1.86c-0.48,0-1.1,0.06-1.68,0.14c-1.32,3.84-2.46,6.6-4.02,9.4
				c-0.12,0.26-0.28,0.3-0.52,0.18c-0.36-0.18-1.14-0.66-1.38-0.88c-0.1-0.1-0.16-0.18-0.16-0.3c0-0.06,0.02-0.14,0.08-0.22
				c1.6-2.78,2.64-4.9,3.66-7.84c-0.78,0.12-1.42,0.24-1.96,0.34c-0.52,0.1-0.84,0.22-1.1,0.32c-0.28,0.1-0.52,0.06-0.64-0.26
				c-0.18-0.46-0.4-1.18-0.62-2.06c0.88,0,1.76-0.06,2.64-0.14c0.84-0.08,1.58-0.18,2.36-0.3
				C316.75,455.21,316.89,454.51,317.03,453.83z M325.17,455.17c0.14-0.08,0.24-0.04,0.38,0.1c1.36,1.28,2.58,2.94,3.32,4.86
				c0.08,0.18,0.06,0.28-0.08,0.4c-0.34,0.32-1.1,0.8-1.5,1c-0.2,0.1-0.4,0.08-0.46-0.16c-0.8-2.1-1.84-3.82-3.28-5.18
				C324.05,455.85,324.63,455.45,325.17,455.17z"/>
			<path class="st1" d="M335.03,466.98c0,0.14-0.06,0.2-0.26,0.28c-0.6,0.26-0.96,0.36-1.38,0.42c-0.24,0.04-0.34-0.02-0.46-0.26
				c-0.64-1.28-1.18-4.12-1.18-6.2c0-1.62,0.18-3.46,0.6-6.4c0.12-0.92,0.22-1.82,0.22-2.98c0.92,0.22,1.58,0.44,2.1,0.7
				c0.32,0.16,0.44,0.3,0.44,0.44c0,0.08,0,0.18-0.12,0.4c-0.1,0.26-0.24,0.8-0.38,1.48c-0.38,2.16-0.76,4.24-0.76,6
				c0,1.28,0.04,2.42,0.2,3.16c0.5-1.06,0.86-1.74,1.34-2.86c0.28,0.76,0.46,1.02,0.66,1.34c0.12,0.14,0.18,0.26,0.18,0.38
				c0,0.14-0.04,0.26-0.24,0.66c-0.54,1.2-0.7,1.74-0.9,2.44c-0.04,0.16-0.06,0.38-0.06,0.52V466.98z M341.95,457.91
				c-1.06,0.08-1.82,0.12-2.4,0.12c-0.42,0.02-0.94,0.02-1.68,0c-0.28,0-0.44-0.1-0.46-0.32c-0.08-0.4-0.12-0.94-0.22-1.82
				c0.74,0.08,1.74,0.1,2.48,0.1c0.56,0,1.5-0.02,2.22-0.08c-0.04-1-0.04-1.9-0.12-2.66c-0.08-0.7-0.14-1.1-0.34-1.64
				c1.18,0.04,2.12,0.14,2.58,0.28c0.22,0.06,0.32,0.16,0.32,0.32c0,0.14-0.06,0.26-0.14,0.4c-0.06,0.12-0.1,0.44-0.1,0.84v2.22
				c0.86-0.12,1.72-0.26,2.56-0.44c0.24-0.06,0.34-0.02,0.36,0.18c0.08,0.5,0.12,0.98,0.16,1.5c0.02,0.26-0.08,0.34-0.26,0.36
				c-0.96,0.18-1.84,0.3-2.76,0.4l0.02,3.08c0.02,1.86-0.3,3.46-0.88,4.64c-0.62,1.32-1.62,2.38-2.86,3.1
				c-0.22,0.14-0.36,0.18-0.5,0.18c-0.16,0-0.24,0-0.4-0.18c-0.36-0.32-0.88-0.66-1.56-0.98c1.88-1,2.78-1.92,3.38-3.32
				c0.44-1.02,0.64-2.38,0.62-4.46L341.95,457.91z"/>
			<path class="st1" d="M355.03,459.15c1.12-0.64,2.06-0.9,3.18-0.9c2.92,0,4.96,1.92,4.96,4.8c0,3.34-2.7,5.48-6.98,5.48
				c-2.52,0-4.04-1.08-4.04-2.94c0-1.34,1.26-2.44,2.82-2.44c1.88,0,3.26,1,3.76,2.92c1.4-0.64,2.04-1.52,2.04-3.04
				c0-1.82-1.28-3.02-3.14-3.02c-1.66,0-3.5,0.74-5.12,2.12c-0.58,0.52-1.14,1.1-1.74,1.7c-0.14,0.14-0.24,0.22-0.34,0.22
				c-0.08,0-0.18-0.06-0.3-0.18c-0.42-0.36-0.86-0.88-1.18-1.3c-0.12-0.16-0.06-0.3,0.1-0.46c1.56-1.26,2.94-2.54,4.74-4.42
				c1.24-1.28,2.18-2.28,3.1-3.42c-1.2,0.22-2.62,0.5-3.86,0.76c-0.26,0.06-0.52,0.12-0.84,0.24c-0.1,0.04-0.3,0.1-0.4,0.1
				c-0.2,0-0.34-0.1-0.44-0.34c-0.24-0.46-0.42-1.02-0.7-2.16c0.6,0.08,1.26,0.08,1.86,0.04c1.22-0.12,2.98-0.38,4.54-0.68
				c0.5-0.1,0.9-0.2,1.1-0.3c0.1-0.06,0.28-0.16,0.38-0.16c0.2,0,0.32,0.06,0.46,0.16c0.6,0.46,1,0.86,1.34,1.28
				c0.16,0.18,0.22,0.32,0.22,0.48c0,0.2-0.12,0.38-0.34,0.48c-0.34,0.16-0.5,0.3-0.88,0.64c-1.46,1.42-2.8,2.82-4.32,4.28
				L355.03,459.15z M355.05,464.86c-0.58,0-0.96,0.34-0.96,0.76c0,0.62,0.54,1.04,1.74,1.04c0.36,0,0.62-0.02,0.92-0.08
				C356.49,465.48,355.89,464.86,355.05,464.86z"/>
		</g>
		<g>
			<path class="st1" d="M139.84,523.28c0,0.22-0.02,0.24-0.22,0.24h-1.36c-0.2,0-0.22-0.02-0.22-0.24c0-0.12,0.04-1.3,0.04-7.12
				v-3.86c0-3.88-0.04-5.1-0.04-5.22c0-0.2,0.02-0.22,0.22-0.22c0.14,0,0.48,0.04,1.66,0.04h1.54c1.14,0,1.48-0.04,1.62-0.04
				c0.2,0,0.22,0.02,0.22,0.22c0,0.12-0.04,1.22-0.04,4.44v4.28c0,5.4,0.04,6.48,0.04,6.6c0,0.2-0.02,0.22-0.22,0.22h-1.28
				c-0.2,0-0.22-0.02-0.22-0.22v-0.66h-1.74V523.28z M139.84,508.62v2.72h1.74v-2.72H139.84z M141.58,515.58v-2.64h-1.74v2.64
				H141.58z M141.58,520.02v-2.84h-1.74v2.84H141.58z M146.58,523.9c-1.94,0-2.62,0.04-2.72,0.04c-0.2,0-0.22-0.02-0.22-0.22v-1.42
				c0-0.2,0.02-0.22,0.22-0.22c0.1,0,0.78,0.04,2.72,0.04h2v-2.02h-1.66c-1.88,0-2.54,0.04-2.66,0.04c-0.2,0-0.22-0.02-0.22-0.2
				v-1.32c0-0.22,0.02-0.24,0.22-0.24c0.06,0,0.34,0.02,0.92,0.04v-2.32c-0.86,0-1.24,0.02-1.3,0.02c-0.2,0-0.22-0.02-0.22-0.2
				v-1.34c0-0.2,0.02-0.22,0.22-0.22c0.06,0,0.44,0.02,1.3,0.04v-2.08c-0.5,0-0.76,0.02-0.82,0.02c-0.2,0-0.22-0.02-0.22-0.22v-1.32
				c0-0.2,0.02-0.22,0.22-0.22c0.12,0,0.78,0.04,2.66,0.04h1.56v-1.68c-0.94,0.1-1.94,0.18-3.04,0.24c-0.64,0.04-0.62,0.04-0.84-0.6
				c-0.14-0.4-0.32-0.74-0.54-1.04c3.06-0.1,5.8-0.44,7.94-0.9c0.46-0.1,0.84-0.24,1.12-0.38c0.48,0.36,0.96,0.88,1.26,1.2
				c0.12,0.12,0.2,0.24,0.2,0.4c0,0.14-0.1,0.2-0.42,0.2c-0.24,0-0.56,0.1-0.88,0.14c-1,0.22-1.96,0.38-2.96,0.52v1.9h1.88
				c1.88,0,2.54-0.04,2.66-0.04c0.2,0,0.22,0.02,0.22,0.22v1.32c0,0.2-0.02,0.22-0.22,0.22c-0.08,0-0.38-0.02-1.06-0.02v2.08
				c1.14,0,1.58-0.04,1.68-0.04c0.22,0,0.24,0.02,0.24,0.22v1.34c0,0.18-0.02,0.2-0.24,0.2c-0.1,0-0.54-0.02-1.68-0.04v2.34
				c0.6-0.02,0.86-0.04,0.94-0.04c0.2,0,0.22,0.02,0.22,0.24v1.32c0,0.18-0.02,0.2-0.22,0.2c-0.12,0-0.76-0.04-2.66-0.04h-1.76v2.02
				h2.26c1.94,0,2.62-0.04,2.74-0.04c0.2,0,0.22,0.02,0.22,0.22v1.42c0,0.2-0.02,0.22-0.22,0.22c-0.12,0-0.8-0.04-2.74-0.04H146.58z
				 M146.9,512.3v2.1h1.68v-2.1H146.9z M148.59,518.42v-2.34h-1.68v2.34H148.59z M152.19,514.4v-2.1h-1.76v2.1H152.19z
				 M152.19,516.08h-1.76v2.34h1.76V516.08z"/>
			<path class="st1" d="M167.36,521.54c0.94-0.24,1.9-0.56,2.98-0.94c-0.06,0.34-0.08,0.76-0.1,1.28c0,0.66,0,0.66-0.58,0.84
				c-1.52,0.56-2.58,0.88-4.22,1.34c-0.34,0.1-0.52,0.18-0.66,0.26c-0.1,0.06-0.2,0.14-0.32,0.14c-0.12,0-0.2-0.06-0.26-0.24
				c-0.14-0.46-0.28-1.04-0.38-1.6h-1.42c-0.2,0-0.22-0.02-0.22-0.22v-0.5h-2.12v1.54c0,0.2-0.02,0.22-0.22,0.22h-1.46
				c-0.2,0-0.22-0.02-0.22-0.22c0-0.14,0.04-1.3,0.04-7.08v-3.86c0-3.86-0.04-5.1-0.04-5.22c0-0.22,0.02-0.24,0.22-0.24
				c0.14,0,0.54,0.04,1.8,0.04h1.88c1.26,0,1.66-0.04,1.78-0.04c0.22,0,0.24,0.02,0.24,0.24c0,0.12-0.04,1.24-0.04,4.44V516
				c0,4.58,0.02,5.9,0.04,6.28c0.4-0.06,0.82-0.14,1.34-0.26V510.8c0-2.22-0.04-3.36-0.04-3.5c0-0.2,0.02-0.22,0.22-0.22
				c0.14,0,0.98,0.04,2.66,0.04h3.82c1.6,0,2.32-0.04,2.44-0.04c0.2,0,0.22,0.02,0.22,0.22c0,0.12-0.04,0.66-0.04,1.78v1.96
				c0,1.14,0.04,1.66,0.04,1.76c0,0.2-0.02,0.22-0.22,0.22c-0.12,0-0.84-0.04-2.44-0.04h-0.5c0.04,0.84,0.08,1.62,0.16,2.38
				l1.2-0.04c1.64-0.04,2.24-0.1,2.44-0.12c0.2-0.02,0.2,0.02,0.2,0.22l0.06,1.44c0,0.2-0.02,0.24-0.24,0.24
				c-0.2,0-0.78-0.02-2.44,0.04l-1.02,0.02c0.14,0.9,0.3,1.74,0.52,2.48c0.48,1.62,0.94,2.46,1.38,2.46c0.34,0,0.46-0.8,0.5-2.44
				c0.3,0.3,0.76,0.56,1.2,0.78c0.36,0.18,0.42,0.26,0.36,0.86c-0.24,2.26-0.86,3.08-2,3.08c-1.18,0-2.42-1.1-3.24-4.26
				c-0.24-0.88-0.42-1.86-0.58-2.9l-2.72,0.06V521.54z M160.06,508.82v2.66h2.12v-2.66H160.06z M162.18,515.72v-2.62h-2.12v2.62
				H162.18z M162.18,520.18v-2.84h-2.12v2.84H162.18z M172.7,508.88h-5.34v2.4h5.34V508.88z M167.36,512.98v2.5l2.5-0.08
				c-0.08-0.76-0.14-1.58-0.18-2.42H167.36z"/>
		</g>
		<g>
			<g>
				<g>
					<path class="st2" d="M158.58,151.46c-5.78,0-9.81,4.03-9.81,9.81v1.64c0,7.95,4.49,13.08,11.45,13.08
						c6.95,0,11.45-5.14,11.45-13.08v-1.64c0-5.78-4.04-9.81-9.81-9.81H158.58z M168.39,161.27v1.64c0,2.95-0.8,9.81-8.18,9.81
						c-7.38,0-8.18-6.86-8.18-9.81v-1.64c0-3.97,2.57-6.54,6.54-6.54h3.27C165.82,154.73,168.39,157.29,168.39,161.27z"/>
					<path class="st2" d="M164.99,140c0.91,0.06,1.69-0.61,1.76-1.5l1.63-21.23c0.36-3.89,5.59-8.33,9.82-8.33h3.27
						c4.3,0,9.53,4.42,9.82,8.3l1.64,21.26c0.07,0.86,0.78,1.51,1.63,1.51c0.04,0,0.09,0,0.13,0c0.9-0.07,1.57-0.86,1.5-1.76
						l-1.64-21.25c-0.44-5.99-7.68-11.33-13.08-11.33h-3.27c-5.95,0-12.55,5.7-13.08,11.32l-1.64,21.26
						C163.42,139.15,164.09,139.94,164.99,140z"/>
					<path class="st3" d="M179.75,116.6c-0.22-0.67-0.85-1.12-1.55-1.12c-0.7,0-1.33,0.45-1.55,1.12c-1.23,3.69-4.85,3.79-4.99,3.79
						c-0.9,0-1.64,0.73-1.64,1.64v6.54c0,5.46,3.73,13.08,9.81,13.08c6.08,0,9.81-7.62,9.81-13.08v-6.54c0-0.9-0.73-1.64-1.64-1.64
						C187.94,120.38,180.98,120.28,179.75,116.6z"/>
					<path class="st2" d="M124.3,121.62c0.31,3.14,1.68,5.91,1.74,6.04c1.48,2.96,3.72,7.45,11.28,7.45s9.79-4.48,11.27-7.45
						c0.07-0.13,1.43-2.9,1.75-6.04c1.01-0.56,1.7-1.63,1.7-2.87v-3.27c0-1.21-0.66-2.27-1.64-2.83v-0.44c0-5.41-4.4-9.81-9.81-9.81
						h-6.54c-5.41,0-9.81,4.4-9.81,9.81v0.44c-0.98,0.57-1.64,1.62-1.64,2.83v3.27C122.6,119.98,123.29,121.06,124.3,121.62z
						 M125.87,115.48c0.9,0,1.64-0.73,1.64-1.64v-1.64c0-3.61,2.93-6.54,6.54-6.54h6.54c3.61,0,6.54,2.93,6.54,6.54v1.64
						c0,0.9,0.73,1.64,1.64,1.64v3.27c-0.9,0-1.64,0.73-1.64,1.64c0,2.83-1.45,5.78-1.46,5.81c-1.7,3.4-3.2,5.64-8.35,5.64
						c-5.15,0-6.65-2.23-8.35-5.64c-0.02-0.03-1.46-2.98-1.46-5.81c0-0.9-0.73-1.64-1.64-1.64L125.87,115.48L125.87,115.48z"/>
					<path class="st2" d="M165.12,177.62c-0.32,0-0.64,0.1-0.91,0.27l-4,2.67l-4-2.67c-0.27-0.18-0.58-0.27-0.91-0.27
						c-9.46,0-11.45,4.45-11.45,8.18c0,0.9,0.73,1.64,1.64,1.64c0.9,0,1.64-0.73,1.64-1.64c0-1.31,0-4.76,7.69-4.9l4.49,2.99
						c0.55,0.37,1.26,0.37,1.81,0l4.49-2.99c7.69,0.14,7.69,3.59,7.69,4.9c0,0.9,0.73,1.64,1.64,1.64c0.9,0,1.64-0.73,1.64-1.64
						C176.57,182.07,174.58,177.62,165.12,177.62z"/>
					<path class="st2" d="M194.66,158L194.66,158c-0.91,0-1.64,0.73-1.64,1.63l-0.1,26.17c0,0.9,0.72,1.64,1.63,1.64h0.01
						c0.9,0,1.63-0.73,1.64-1.63l0.1-26.17C196.3,158.74,195.57,158,194.66,158z"/>
					<path class="st2" d="M145.46,148.51l1.37-6.83c8.26,0.19,14.2,2.24,16.02,5.59c0.43,0.79,1.42,1.09,2.22,0.65
						c0.79-0.43,1.09-1.42,0.65-2.22c-2.57-4.72-9.71-7.31-20.12-7.31c-0.81-0.01-1.55,0.52-1.71,1.31l-1.64,8.16
						c-0.18,0.89,0.4,1.75,1.28,1.92c0.11,0.02,0.22,0.03,0.32,0.03C144.62,149.82,145.3,149.28,145.46,148.51z"/>
					<path class="st2" d="M201.99,146.55c-3.21-3.2-8.02-4.89-13.93-4.89c-0.95,0.02-1.68,0.71-1.68,1.63
						c0,0.33-0.12,8.16-6.54,8.16c-6.43,0-6.54-7.83-6.54-8.16c0-0.9-0.73-1.63-1.64-1.63c-0.9,0-1.64,0.73-1.64,1.64
						c0,3.66,1.77,10.32,8.18,11.29v8.31c0,0.9,0.73,1.64,1.64,1.64c0.9,0,1.64-0.73,1.64-1.64v-8.31c5.52-0.84,7.6-5.89,8.07-9.62
						c4.34,0.24,7.82,1.57,10.14,3.89c1.97,1.96,3.05,4.62,3.05,7.49v26.17c0,0.9,0.73,1.64,1.64,1.64c0.9,0,1.64-0.73,1.64-1.64
						v-26.17C206,152.62,204.58,149.13,201.99,146.55z"/>
					<path class="st2" d="M137.32,138.37c-1.8,0-3.27,1.47-3.27,3.27c0,1.21,0.66,2.25,1.64,2.82v11.9c0,0.9,0.73,1.64,1.64,1.64
						c0.9,0,1.64-0.73,1.64-1.64v-11.9c0.97-0.57,1.64-1.61,1.64-2.82C140.59,139.84,139.12,138.37,137.32,138.37z"/>
					<path class="st2" d="M119.33,158c-0.9,0-1.64,0.73-1.64,1.64v26.17c0,0.9,0.73,1.64,1.64,1.64c0.9,0,1.64-0.73,1.64-1.64
						v-26.17C120.96,158.73,120.23,158,119.33,158z"/>
					<path class="st2" d="M130.74,139.7c-0.16-0.79-0.93-1.3-1.71-1.3c-8.59,0-15.16,1.84-18.51,5.18
						c-1.75,1.75-2.64,3.85-2.64,6.24v32.71c0,0.9,0.73,1.64,1.64,1.64c0.9,0,1.64-0.73,1.64-1.64v-32.71c0-1.52,0.55-2.8,1.68-3.93
						c2.55-2.54,7.97-4.06,14.98-4.21l7.9,37.91c0.18,0.88,1.05,1.45,1.93,1.27c0.88-0.18,1.45-1.05,1.27-1.93L130.74,139.7z"/>
				</g>
			</g>
		</g>
		<path class="st4" d="M279.26,223.86c-1.2,0.56-1.72,1.98-1.19,3.18l5.47,11.74c0.27,0.58,0.76,1.04,1.36,1.26
			c0.26,0.1,0.54,0.15,0.83,0.15c0.35,0,0.7-0.07,1.02-0.22l41.31-19.29l-3.74,39.12c-0.07,0.77,0.22,1.53,0.8,2.04
			c1.81,1.5,4.07,2.35,6.42,2.43c0.65,0,1.29-0.08,1.92-0.24c3.35-0.88,5.95-3.86,7.73-8.97l16.26-48.13l32.19-15.02
			c9.48-4.42,14.36-13.39,11.08-20.39c-1.86-3.66-5.43-6.15-9.5-6.63c-4.53-0.68-9.15,0.03-13.27,2.04l-37.15,17.42l-39.95-15.62
			c-5.03-1.89-9.01-1.85-11.81,0.17c-2.34,1.92-3.68,4.82-3.62,7.85c0.02,0.77,0.41,1.48,1.04,1.92l26.9,18.49l-15.4,7.29
			l-25.83-6.56c-1.06-0.26-2.16,0.22-2.7,1.17l-6.44,11.59c-0.33,0.61-0.39,1.34-0.14,2c0.24,0.66,0.75,1.18,1.41,1.43l19.12,7.9
			L279.26,223.86z"/>
		<g>
			<g>
				<g>
					<path class="st2" d="M171.3,265.89c-1.05-7.38-7.47-12.94-14.93-12.94c-4.8,0-9.36,2.32-12.19,6.2
						c-0.58,0.79-0.41,1.9,0.39,2.48c0.79,0.58,1.9,0.41,2.48-0.39c2.17-2.97,5.65-4.74,9.32-4.74c5.71,0,10.62,4.25,11.42,9.89
						c0.13,0.89,0.89,1.52,1.76,1.52c0.08,0,0.17-0.01,0.25-0.02C170.77,267.75,171.44,266.86,171.3,265.89z"/>
				</g>
			</g>
			<g>
				<g>
					<path class="st2" d="M196.94,285.76l-5.32-8.87c-0.32-0.54-0.9-0.86-1.52-0.86h-5.1c-0.98,0-1.77,0.8-1.77,1.77
						c0,0.98,0.8,1.77,1.77,1.77h4.1l3.19,5.32h-71.83l3.19-5.32h1.88c0.98,0,1.77-0.8,1.77-1.77c0-0.98-0.8-1.77-1.77-1.77h-2.88
						c-0.62,0-1.2,0.33-1.52,0.86l-5.32,8.87c-0.33,0.55-0.34,1.23-0.02,1.79c0.31,0.56,0.9,0.9,1.54,0.9h78.1
						c0.64,0,1.23-0.34,1.54-0.9C197.27,286.99,197.27,286.3,196.94,285.76z"/>
				</g>
			</g>
			<g>
				<g>
					<path class="st2" d="M188.09,269.39c-0.25-0.4-0.65-0.69-1.1-0.79l-24.2-5.66c-0.46-0.11-0.94-0.03-1.34,0.22
						c-0.4,0.25-0.68,0.65-0.79,1.1l-1.82,7.8c-0.22,0.95,0.37,1.91,1.32,2.13c0.95,0.22,1.91-0.37,2.13-1.32l1.42-6.07l20.74,4.85
						l-3.26,13.93c-0.22,0.95,0.37,1.91,1.32,2.13c0.14,0.03,0.27,0.05,0.41,0.05c0.81,0,1.54-0.55,1.73-1.37l3.66-15.66
						C188.42,270.27,188.34,269.79,188.09,269.39z"/>
				</g>
			</g>
			<g>
				<g>
					<path class="st2" d="M157.31,273.59l-1.62-13.68c-0.06-0.47-0.29-0.89-0.66-1.19s-0.84-0.42-1.31-0.37l-29.69,3.51
						c-0.97,0.12-1.67,1-1.55,1.97l2.7,22.81c0.11,0.9,0.87,1.57,1.76,1.57c0.07,0,0.14,0,0.21-0.01c0.97-0.12,1.67-1,1.55-1.97
						l-2.49-21.05l26.16-3.09l1.41,11.92c0.12,0.97,0.99,1.67,1.97,1.55C156.72,275.44,157.42,274.56,157.31,273.59z"/>
				</g>
			</g>
			<g>
				<g>
					<path class="st3" d="M171.34,285.99l-3.52-14.65c-0.11-0.46-0.4-0.85-0.8-1.1c-0.4-0.24-0.88-0.32-1.34-0.21l-28.59,6.88
						c-0.95,0.23-1.54,1.19-1.31,2.14l1.76,7.32c0.23,0.95,1.19,1.54,2.14,1.31c0.95-0.23,1.54-1.19,1.31-2.14l26.9,1.28
						c0.2,0.81,0.92,1.36,1.72,1.36c0.14,0,0.28-0.02,0.42-0.05C170.99,287.91,171.57,286.95,171.34,285.99z"/>
				</g>
			</g>
			<g>
				<g>
					<path class="st2" d="M197.19,286.58c-0.05-0.94-0.83-1.68-1.77-1.68h-78.1c-0.95,0-1.72,0.74-1.77,1.68L112,355.8
						c-0.02,0.49,0.15,0.96,0.49,1.31c0.34,0.35,0.8,0.55,1.29,0.55h85.2c0.49,0,0.95-0.2,1.29-0.55c0.33-0.35,0.51-0.83,0.49-1.31
						L197.19,286.58z M115.64,354.12l3.37-65.67h74.72l3.37,65.67H115.64z"/>
				</g>
			</g>
			<g>
				<g>
					<path class="st2" d="M169.68,291.99c-2.94,0-5.32,2.39-5.32,5.32c0,2.94,2.39,5.32,5.32,5.32c2.94,0,5.32-2.39,5.32-5.32
						C175,294.38,172.62,291.99,169.68,291.99z M169.68,299.09c-0.98,0-1.77-0.8-1.77-1.77c0-0.98,0.8-1.77,1.77-1.77
						s1.77,0.8,1.77,1.77C171.45,298.3,170.66,299.09,169.68,299.09z"/>
				</g>
			</g>
			<g>
				<g>
					<path class="st2" d="M143.05,291.99c-2.94,0-5.32,2.39-5.32,5.32c0,2.94,2.39,5.32,5.32,5.32c2.94,0,5.32-2.39,5.32-5.32
						C148.38,294.38,145.99,291.99,143.05,291.99z M143.05,299.09c-0.98,0-1.77-0.8-1.77-1.77c0-0.98,0.8-1.77,1.77-1.77
						s1.77,0.8,1.77,1.77C144.83,298.3,144.03,299.09,143.05,299.09z"/>
				</g>
			</g>
			<g>
				<g>
					<path class="st2" d="M169.68,297.32h-0.14c-0.98,0-1.77,0.8-1.77,1.77c0,0.24,0.05,0.47,0.14,0.68v9.08
						c0,6.36-5.18,11.54-11.54,11.54s-11.54-5.18-11.54-11.54v-9.76c0-0.98-0.8-1.77-1.77-1.77s-1.77,0.8-1.77,1.77v9.76
						c0,8.32,6.77,15.09,15.09,15.09c8.32,0,15.09-6.77,15.09-15.09v-9.76C171.45,298.11,170.66,297.32,169.68,297.32z"/>
				</g>
			</g>
		</g>
		<g>
			<path class="st2" d="M313.13,342.25c6.02,0,10.92-4.9,10.92-10.92c0-6.02-4.9-10.92-10.92-10.92s-10.92,4.9-10.92,10.92
				C302.21,337.35,307.11,342.25,313.13,342.25z M313.13,325.45c3.24,0,5.88,2.64,5.88,5.88s-2.64,5.88-5.88,5.88
				s-5.88-2.64-5.88-5.88S309.89,325.45,313.13,325.45z"/>
			<path class="st3" d="M343.36,342.25c6.02,0,10.92-4.9,10.92-10.92c0-6.02-4.9-10.92-10.92-10.92s-10.92,4.9-10.92,10.92
				C332.45,337.35,337.34,342.25,343.36,342.25z"/>
		</g>
		<g>
			<g>
				<g>
					<path class="st2" d="M205.07,452.12c-3.12,0-5.3,1.39-5.3,3.39v6.08c-2.8-5.53-7.11-9.46-12.38-9.46h-49.5
						c-0.98,0-1.77,0.79-1.77,1.77c0,0,0,0,0,0v10.62c0.01-2.88-1.15-5.76-3.44-7.86c-4.32-3.96-11.03-3.66-14.99,0.66
						c-3.7,4.05-3.71,10.25-0.02,14.31c-1.02,0.11-1.98,0.53-2.77,1.19v-44.73c0-2.38-2.33-4.24-5.3-4.24c-2.97,0-5.3,1.86-5.3,4.24
						v76.38c0,2.38,2.33,4.24,5.3,4.24c2.97,0,5.3-1.86,5.3-4.24v-11.67h84.86v12.53c0,1.99,2.18,3.39,5.3,3.39
						c3.12,0,5.3-1.39,5.3-3.39v-49.8C210.37,453.51,208.19,452.12,205.07,452.12z M111.37,504.45c-0.02,0.14-0.61,0.71-1.77,0.71
						c-1.16,0-1.75-0.56-1.77-0.71v-76.38c0.02-0.14,0.61-0.71,1.77-0.71c1.16,0,1.75,0.56,1.77,0.71V504.45z M136.12,464.51v8.52
						c-0.76-0.74-1.73-1.23-2.78-1.4C135.19,469.61,136.11,467.06,136.12,464.51z M125.51,457.42c3.91,0,7.07,3.17,7.07,7.07
						s-3.17,7.07-7.07,7.07c-3.91,0-7.07-3.17-7.07-7.07C118.44,460.59,121.61,457.43,125.51,457.42z M199.77,489.24H114.9v-10.61
						c0.92-0.07,1.63-0.84,1.63-1.76c-0.02-0.96,0.74-1.75,1.7-1.77h14.28c0.96,0.02,1.72,0.81,1.7,1.77c0,0.98,0.79,1.77,1.77,1.77
						c0,0,0,0,0,0h63.79V489.24z M206.84,504.85c-1.14,0.41-2.39,0.41-3.54,0v-48.88c1.14-0.41,2.39-0.41,3.54,0V504.85z"/>
				</g>
			</g>
			<g>
				<g>
					<path class="st3" d="M130.65,444.41l4.5-5.4c0.31-0.37,0.37-0.88,0.17-1.32c-0.2-0.43-0.64-0.71-1.12-0.71h-7.43v2.48h4.78
						l-4.5,5.4c-0.44,0.53-0.37,1.31,0.16,1.74c0.22,0.18,0.5,0.29,0.79,0.29h7.43v-2.48H130.65z"/>
				</g>
			</g>
			<g>
				<g>
					<path class="st3" d="M144.16,441.02l7.11-9.14c0.29-0.37,0.34-0.88,0.14-1.3c-0.21-0.42-0.64-0.69-1.11-0.69h-9.9v2.48h7.37
						l-7.11,9.14c-0.42,0.54-0.32,1.32,0.22,1.74c0.22,0.17,0.49,0.26,0.76,0.26h9.9v-2.48L144.16,441.02L144.16,441.02z"/>
				</g>
			</g>
			<g>
				<g>
					<path class="st3" d="M160.19,437.63l9.65-12.87c0.41-0.55,0.3-1.32-0.25-1.73c-0.21-0.16-0.48-0.25-0.74-0.25h-11.14v2.48h8.66
						l-9.65,12.87c-0.28,0.38-0.33,0.88-0.12,1.3c0.21,0.42,0.64,0.68,1.11,0.68h12.38v-2.48H160.19z"/>
				</g>
			</g>
		</g>
		<g>
			<g>
				<g>
					<path class="st1" d="M105.79,51.23c0-0.77,0-1.73,0.02-2.67c-0.41,0.55-0.84,1.1-1.3,1.63c-0.19,0.22-0.34,0.31-0.43,0.31
						c-0.12,0-0.22-0.12-0.29-0.41c-0.19-0.74-0.6-1.54-0.91-2.02c2.04-2.26,3.67-4.97,4.56-7.83c0.19-0.58,0.31-1.13,0.38-1.7
						c0.79,0.22,1.66,0.46,2.35,0.74c0.26,0.12,0.38,0.19,0.38,0.36s-0.07,0.26-0.26,0.41c-0.17,0.14-0.26,0.36-0.48,0.98
						c-0.46,1.22-0.98,2.4-1.56,3.55v12.05c0,2.35,0.05,3.53,0.05,3.65c0,0.24-0.02,0.26-0.26,0.26h-2.06
						c-0.22,0-0.24-0.02-0.24-0.26c0-0.14,0.05-1.3,0.05-3.65V51.23z M113.23,46.36c-2.35,0-3.14,0.05-3.29,0.05
						c-0.24,0-0.26-0.02-0.26-0.26v-1.87c0-0.24,0.02-0.26,0.26-0.26c0.14,0,0.94,0.05,3.29,0.05h2.42v-1.87
						c0-1.54-0.05-2.42-0.19-3.38c0.89,0.02,1.75,0.07,2.54,0.14c0.24,0.02,0.38,0.14,0.38,0.26c0,0.22-0.07,0.34-0.14,0.5
						c-0.14,0.29-0.14,0.79-0.14,2.42v1.92h3.34c2.33,0,3.14-0.05,3.31-0.05c0.22,0,0.24,0.02,0.24,0.26v1.87
						c0,0.24-0.02,0.26-0.24,0.26c-0.17,0-0.98-0.05-3.31-0.05h-2.59c1.78,3.65,3.67,6,6.77,8.45c-0.5,0.5-0.86,1.06-1.2,1.68
						c-0.19,0.36-0.29,0.5-0.43,0.5c-0.12,0-0.24-0.12-0.48-0.34c-2.47-2.38-4.15-4.8-5.47-7.82c0.02,6.07,0.17,10.94,0.17,11.42
						c0,0.26-0.02,0.29-0.26,0.29h-2.09c-0.24,0-0.26-0.02-0.26-0.29c0-0.48,0.1-5.33,0.12-11.16c-1.18,3.02-2.83,5.42-5.16,7.68
						c-0.22,0.22-0.36,0.36-0.48,0.36s-0.22-0.17-0.38-0.5c-0.34-0.7-0.72-1.15-1.18-1.61c2.76-2.33,4.97-5.11,6.36-8.67H113.23z"/>
					<path class="st1" d="M134.18,50.03c0,6.12,0.05,7.32,0.05,7.46c0,0.24-0.02,0.26-0.26,0.26h-1.56c-0.26,0-0.29-0.02-0.29-0.26
						v-1.06h-1.92v1.92c0,0.22-0.02,0.24-0.26,0.24h-1.63c-0.22,0-0.24-0.02-0.24-0.24c0-0.17,0.05-1.46,0.05-7.92v-4.46
						c0-4.44-0.05-5.81-0.05-5.95c0-0.24,0.02-0.26,0.24-0.26c0.17,0,0.58,0.05,1.94,0.05h1.8c1.34,0,1.75-0.05,1.92-0.05
						c0.24,0,0.26,0.02,0.26,0.26c0,0.14-0.05,1.39-0.05,5.11V50.03z M130.19,41.99v4.87h1.92v-4.87H130.19z M132.11,54.28V49h-1.92
						v5.28H132.11z M135.43,41.92c0-1.27-0.05-1.9-0.05-2.04c0-0.26,0.02-0.29,0.29-0.29c0.14,0,0.82,0.05,2.21,0.05h2.14
						c1.08,0,1.51-0.05,1.66-0.05c0.26,0,0.29,0.02,0.29,0.29c0,0.14-0.05,0.79-0.05,2.14v2.45c0,1.37,0.05,2.02,0.05,2.14
						c0,0.24-0.02,0.26-0.29,0.26c-0.14,0-0.58-0.05-1.66-0.05h-2.35v2.42h1.68c1.1,0,1.39-0.05,1.54-0.05
						c0.26,0,0.29,0.02,0.29,0.26v1.66c0,0.24-0.02,0.26-0.29,0.26c-0.14,0-0.43-0.05-1.54-0.05h-1.68v2.57h1.7
						c1.13,0,1.42-0.05,1.56-0.05c0.26,0,0.29,0.02,0.29,0.26v1.68c0,0.24-0.02,0.26-0.29,0.26c-0.14,0-0.43-0.05-1.56-0.05h-1.7
						v0.94c0,2.18,0.05,3.29,0.05,3.43c0,0.24-0.02,0.26-0.29,0.26h-1.75c-0.26,0-0.29-0.02-0.29-0.26c0-0.17,0.05-1.25,0.05-3.43
						V41.92z M139.77,41.75h-2.11v3.07h2.11V41.75z M146.61,48.52c0.22,0,0.34-0.05,0.43-0.1s0.17-0.1,0.29-0.1
						c0.24,0,0.38,0.07,0.98,0.62c0.46,0.43,0.55,0.65,0.55,0.79c0,0.17-0.07,0.26-0.17,0.41c-0.14,0.19-0.24,0.43-0.31,0.77
						c-0.43,1.75-1.1,3.43-2.14,4.97c0.89,0.89,1.99,1.68,3.46,2.42c-0.26,0.29-0.62,0.86-0.89,1.49c-0.17,0.41-0.26,0.6-0.43,0.6
						c-0.12,0-0.26-0.1-0.53-0.26c-1.2-0.77-2.21-1.56-3.02-2.47c-0.94,0.96-2.06,1.85-3.43,2.62c-0.29,0.17-0.48,0.24-0.62,0.24
						c-0.17,0-0.26-0.14-0.43-0.43c-0.34-0.67-0.74-1.15-1.01-1.39c1.75-0.77,3.12-1.7,4.15-2.83c-0.65-1.06-1.18-2.28-1.61-3.77
						c-0.07-0.26-0.02-0.29,0.29-0.46l1.18-0.58c0.24-0.12,0.29-0.02,0.36,0.22c0.31,1.06,0.67,1.99,1.15,2.78
						c0.6-1.03,1.01-2.18,1.3-3.46h-2.02c-1.56,0-2.02,0.05-2.16,0.05c-0.26,0-0.29-0.02-0.29-0.29v-1.61
						c0-0.26,0.02-0.29,0.29-0.29c0.14,0,0.6,0.05,2.16,0.05H146.61z M144.14,46.74c-0.79,0-0.96,0.05-1.1,0.05
						c-0.24,0-0.26-0.02-0.26-0.24v-1.61c0-0.24,0.02-0.26,0.26-0.26c0.14,0,0.31,0.05,1.1,0.05h2.04v-2.98h-1.34
						c-1.3,0-1.66,0.05-1.8,0.05c-0.24,0-0.26-0.02-0.26-0.26v-1.66c0-0.26,0.02-0.29,0.26-0.29c0.14,0,0.5,0.05,1.8,0.05h1.37
						c1.32,0,1.87-0.05,2.02-0.05c0.24,0,0.26,0.02,0.26,0.29c0,0.14-0.05,0.77-0.05,2.14v2.38c0,1.39,0.05,2.02,0.05,2.16
						c0,0.22-0.02,0.24-0.26,0.24c-0.14,0-0.7-0.05-2.02-0.05H144.14z"/>
					<path class="st1" d="M157.29,40.79c0.26,0.14,0.36,0.29,0.36,0.48c0,0.17-0.07,0.34-0.17,0.53c-0.17,0.29-0.26,0.62-0.43,1.32
						c-0.79,3.62-1.2,6.98-1.2,8.74c0,0.96,0,2.06,0.07,3.07c0.48-1.1,0.98-2.14,1.49-3.34c0.34,0.77,0.53,1.1,0.84,1.51
						c0.1,0.12,0.14,0.22,0.14,0.34s-0.05,0.24-0.14,0.38c-0.84,1.9-1.13,2.95-1.22,3.65c-0.1,0.67-0.05,1.03-0.02,1.27
						c0.02,0.17-0.07,0.24-0.29,0.31c-0.46,0.17-1.15,0.31-1.8,0.41c-0.26,0.07-0.36,0.05-0.48-0.29c-0.67-1.7-1.03-4.56-1.03-7.32
						c0-2.3,0.19-4.22,0.98-9.1c0.12-0.84,0.26-1.87,0.17-2.83C155.51,40.17,156.81,40.55,157.29,40.79z M165.55,47.2
						c-1.63,0.05-3.31,0.1-4.94-0.02c-0.31,0-0.41-0.07-0.43-0.31c-0.1-0.58-0.17-1.44-0.17-2.18c1.8,0.17,3.67,0.19,5.47,0.07
						c0-0.86-0.02-1.63-0.02-2.52c-0.02-0.86-0.1-1.49-0.31-2.35c1.39,0.12,2.11,0.22,2.9,0.46c0.26,0.07,0.43,0.19,0.43,0.41
						c0,0.12-0.05,0.19-0.14,0.41c-0.1,0.22-0.17,0.53-0.19,0.84c-0.05,0.82-0.05,1.44-0.05,2.54c1.13-0.1,2.38-0.26,3.41-0.43
						c0.29-0.07,0.34,0.02,0.38,0.29c0.1,0.43,0.14,1.2,0.14,1.7c0,0.22-0.1,0.34-0.26,0.36c-0.86,0.22-2.45,0.41-3.7,0.5
						c0,2.69,0.05,4.37,0.17,6.43c1.42,0.58,2.64,1.25,3.98,2.3c0.22,0.14,0.24,0.22,0.12,0.48c-0.31,0.62-0.7,1.3-1.1,1.85
						c-0.07,0.1-0.14,0.14-0.22,0.14c-0.07,0-0.14-0.05-0.22-0.12c-0.74-0.7-1.54-1.3-2.59-1.92c-0.19,2.02-1.56,3.12-4.39,3.12
						c-2.76,0-4.3-1.3-4.3-3.36c0-1.97,1.78-3.38,4.2-3.38c0.62,0,1.34,0.07,1.92,0.19C165.59,50.85,165.57,49.1,165.55,47.2z
						 M163.6,54.66c-1.13,0-1.8,0.41-1.8,1.15s0.53,1.2,1.94,1.2c1.2,0,1.97-0.7,1.97-1.56c0-0.17,0-0.29-0.02-0.48
						C164.92,54.74,164.27,54.66,163.6,54.66z"/>
					<path class="st1" d="M178.15,50.68c0-0.7,0-1.54,0.02-2.38c-0.48,0.67-1.01,1.32-1.54,1.97c-0.17,0.19-0.29,0.29-0.41,0.29
						s-0.22-0.14-0.31-0.43c-0.29-0.96-0.58-1.58-0.94-2.06c2.3-2.47,3.82-5.3,4.63-7.82c0.17-0.55,0.34-1.1,0.43-1.73
						c0.86,0.24,1.63,0.5,2.33,0.82c0.24,0.14,0.38,0.22,0.38,0.41c0,0.17-0.07,0.26-0.26,0.43c-0.17,0.12-0.29,0.34-0.53,0.98
						c-0.41,1.1-0.86,2.16-1.37,3.17v12.24c0,2.42,0.05,3.62,0.05,3.74c0,0.24-0.02,0.26-0.26,0.26h-2.02
						c-0.24,0-0.26-0.02-0.26-0.26c0-0.14,0.05-1.32,0.05-3.74V50.68z M195.24,52.77c0,2.54,0.05,3.72,0.05,4.68
						c0,1.1-0.17,1.78-0.79,2.23c-0.53,0.41-1.56,0.6-3.79,0.6c-0.77,0-0.79,0.02-0.91-0.74c-0.1-0.65-0.34-1.32-0.6-1.73
						c0.98,0.07,1.58,0.07,2.5,0.07c0.82,0,1.06-0.14,1.06-0.89v-14.4h-6.53c-2.3,0-3.12,0.05-3.26,0.05
						c-0.24,0-0.26-0.02-0.26-0.29v-1.87c0-0.24,0.02-0.26,0.26-0.26c0.14,0,0.96,0.05,3.26,0.05h7.44c2.3,0,3.12-0.05,3.24-0.05
						c0.24,0,0.26,0.02,0.26,0.26v1.87c0,0.26-0.02,0.29-0.26,0.29c-0.1,0-0.58-0.02-1.66-0.05V52.77z M190.58,50.61
						c0,3.31,0.05,3.94,0.05,4.08c0,0.24-0.02,0.26-0.26,0.26h-1.78c-0.24,0-0.26-0.02-0.26-0.26v-1.01h-3.07v1.75
						c0,0.22-0.02,0.24-0.26,0.24h-1.78c-0.24,0-0.26-0.02-0.26-0.24c0-0.17,0.05-0.82,0.05-4.34v-2.33c0-2.14-0.05-2.81-0.05-2.95
						c0-0.24,0.02-0.26,0.26-0.26c0.17,0,0.67,0.05,2.26,0.05h2.64c1.58,0,2.09-0.05,2.26-0.05c0.24,0,0.26,0.02,0.26,0.26
						c0,0.14-0.05,0.79-0.05,2.4V50.61z M185.25,47.73v3.84h3.07v-3.84H185.25z"/>
					<path class="st1" d="M212.83,55.22c0,0.26-0.14,0.38-0.46,0.43c-0.31,0.05-1.03,0.12-1.7,0.12c-0.22,0-0.31-0.14-0.31-0.38
						c0-0.86,0-2.06,0.02-2.93c-2.14,1.1-2.9,2.04-2.9,3.19c0,1.01,0.82,1.66,3.34,1.66c2.21,0,4.13-0.22,5.98-0.48
						c0.22-0.02,0.31,0.05,0.34,0.26c0.12,0.55,0.22,1.39,0.22,1.97c0.02,0.29-0.07,0.46-0.26,0.46c-2.06,0.26-3.63,0.31-5.95,0.31
						c-3.94,0-6.02-1.18-6.02-3.96c0-2.3,1.44-3.98,5.06-5.86c-0.07-1.22-0.36-1.7-1.44-1.66c-1.13,0.05-2.21,0.77-3.31,1.73
						c-1.03,1.01-1.63,1.7-2.4,2.62c-0.12,0.14-0.19,0.22-0.29,0.22c-0.07,0-0.17-0.07-0.26-0.17c-0.34-0.34-1.06-1.08-1.37-1.58
						c-0.07-0.1-0.1-0.17-0.1-0.22c0-0.1,0.05-0.17,0.17-0.26c1.85-1.66,3.63-3.55,5.02-5.95c-1.13,0.05-2.42,0.07-3.84,0.07
						c-0.22,0-0.29-0.12-0.34-0.38c-0.07-0.38-0.17-1.27-0.24-1.99c1.82,0.1,3.7,0.07,5.52-0.02c0.26-0.65,0.48-1.22,0.72-2.06
						c0.1-0.41,0.17-0.82,0.17-1.46c1.06,0.17,2.11,0.43,2.74,0.67c0.19,0.07,0.29,0.24,0.29,0.41c0,0.12-0.05,0.26-0.17,0.36
						c-0.14,0.12-0.29,0.34-0.41,0.58c-0.14,0.34-0.26,0.65-0.55,1.3c1.46-0.17,2.93-0.41,4.37-0.74c0.26-0.05,0.34,0.02,0.38,0.24
						c0.12,0.48,0.22,1.03,0.24,1.73c0.02,0.24-0.07,0.34-0.41,0.38c-1.8,0.26-3.86,0.53-5.62,0.72c-0.55,0.89-1.08,1.78-1.8,2.66
						l0.02,0.05c0.77-0.5,1.75-0.74,2.4-0.74c1.58,0,2.69,0.72,2.93,2.59c0.94-0.43,2.3-1.06,3.53-1.68
						c0.46-0.24,1.22-0.67,1.82-1.3c0.79,0.84,1.42,1.68,1.68,2.11c0.14,0.22,0.19,0.38,0.19,0.53c0,0.19-0.12,0.29-0.36,0.34
						c-0.5,0.07-0.98,0.19-1.46,0.36c-1.56,0.55-3.12,1.08-5.16,1.92V55.22z"/>
					<path class="st1" d="M231.64,40.17c0.41,0.1,0.58,0.22,0.58,0.46c0,0.26-0.14,0.55-0.24,0.79c-0.12,0.34-0.22,1.08-0.34,2.93
						c-0.24,3.7-0.36,6.14-0.36,9.29c0,2.42,0.29,2.98,2.21,2.98c2.14,0,5.47-1.3,8.4-4.42c0.1,0.91,0.31,1.7,0.55,2.28
						c0.12,0.26,0.19,0.43,0.19,0.58c0,0.22-0.1,0.41-0.48,0.74c-2.59,2.38-5.98,3.6-9.1,3.6c-3.07,0-4.51-1.22-4.51-4.9
						c0-4.03,0.22-7.49,0.34-10.37c0.05-1.42,0.12-2.95-0.24-4.39C229.75,39.86,230.9,39.97,231.64,40.17z"/>
					<path class="st1" d="M259.94,44.15c-2.93,0.55-5.5,1.06-8.06,1.58c-0.91,0.22-1.15,0.26-1.51,0.38
						c-0.17,0.07-0.34,0.19-0.53,0.19c-0.17,0-0.36-0.14-0.46-0.36c-0.31-0.65-0.58-1.49-0.89-2.59c1.22-0.05,1.94-0.14,3.82-0.41
						c2.95-0.43,8.23-1.22,14.42-2.04c0.36-0.05,0.48,0.1,0.5,0.26c0.12,0.55,0.24,1.44,0.26,2.11c0,0.29-0.14,0.36-0.46,0.36
						c-1.13,0.07-1.9,0.19-2.93,0.53c-4.08,1.39-6.12,4.2-6.12,7.08c0,3.1,2.21,4.78,6.38,5.04c0.38,0,0.53,0.1,0.53,0.36
						c0,0.62-0.1,1.46-0.26,2.06c-0.07,0.36-0.17,0.5-0.46,0.5c-4.22,0-8.86-2.42-8.86-7.42c0-3.41,1.7-5.71,4.61-7.61V44.15z"/>
					<path class="st1" d="M276.09,42.78c0.22,0.1,0.38,0.26,0.38,0.43c0,0.14-0.07,0.38-0.19,0.67c-0.1,0.29-0.22,1.32-0.22,2.35
						c0,1.54,0.05,3.26,0.43,5.47c0.34,1.9,0.96,3.53,1.97,3.53c0.77,0,1.37-0.84,2.3-3.34c0.53,0.84,1.06,1.39,1.54,1.85
						c0.29,0.26,0.29,0.55,0.17,0.89c-0.91,2.45-2.4,3.74-4.08,3.74c-1.87,0-3.84-2.21-4.49-6.26c-0.38-2.28-0.58-4.78-0.58-6.98
						c0-1.32-0.05-2.04-0.29-3.14C274.19,42.13,275.37,42.42,276.09,42.78z M287.23,44.29c0.1-0.05,0.19-0.1,0.26-0.1
						c0.1,0,0.17,0.05,0.26,0.14c2.18,1.9,4.1,5.21,4.7,8.21c0.07,0.31-0.07,0.41-0.26,0.53c-0.62,0.41-1.22,0.74-1.87,0.96
						c-0.29,0.1-0.46,0.02-0.5-0.26c-0.82-3.43-2.04-5.93-4.49-8.38C286.24,44.82,286.84,44.49,287.23,44.29z"/>
					<path class="st1" d="M305.13,50.54c-1.66,0.05-3.29,0.05-4.94-0.1c-0.26,0-0.36-0.1-0.38-0.41c-0.1-0.53-0.14-1.49-0.14-2.04
						c1.78,0.22,3.6,0.26,5.4,0.19c-0.02-0.91-0.02-1.85-0.05-2.76c-2.3,0.07-4.03,0.07-5.74-0.12c-0.26,0-0.38-0.1-0.41-0.34
						c-0.07-0.6-0.12-1.18-0.17-2.16c2.09,0.24,4.18,0.24,6.29,0.24c0-0.89-0.02-1.51-0.05-2.33c-0.05-0.55-0.1-0.98-0.29-1.61
						c1.27,0.07,2.3,0.22,3.02,0.43c0.29,0.1,0.43,0.43,0.26,0.72c-0.17,0.34-0.34,0.74-0.36,1.15c-0.02,0.48-0.02,0.82-0.05,1.54
						c2.23-0.17,3.84-0.43,5.26-0.72c0.29-0.07,0.38,0,0.41,0.29c0.1,0.67,0.12,1.32,0.12,1.75c0,0.31-0.07,0.36-0.26,0.38
						c-1.7,0.29-3.24,0.48-5.54,0.62c0,0.96,0.02,1.85,0.02,2.71c1.82-0.12,2.98-0.36,4.7-0.62c0.29-0.07,0.36-0.02,0.38,0.19
						c0.02,0.46,0.07,1.25,0.07,1.97c0,0.24-0.1,0.31-0.36,0.34c-1.58,0.26-2.69,0.43-4.71,0.58c0.05,1.1,0.1,2.28,0.17,3.38
						c2.3,0.65,4.27,1.51,6.36,2.9c0.24,0.22,0.24,0.29,0.17,0.58c-0.17,0.46-0.67,1.34-1.06,1.78c-0.1,0.14-0.19,0.19-0.31,0.19
						c-0.07,0-0.17-0.02-0.26-0.12c-1.46-1.15-2.95-1.99-4.78-2.74c-0.02,2.59-1.58,3.65-4.87,3.65c-3.12,0-4.9-1.37-4.9-3.36
						c0-1.94,1.9-3.41,4.8-3.41c0.6,0,1.18,0,2.3,0.1C305.2,52.34,305.15,51.35,305.13,50.54z M303.07,55.38
						c-1.75,0-2.59,0.5-2.59,1.27c0,0.62,0.72,1.08,2.38,1.08c0.96,0,1.85-0.29,2.18-0.72c0.19-0.26,0.26-0.67,0.26-1.34
						C304.6,55.5,303.74,55.38,303.07,55.38z"/>
					<path class="st1" d="M330.11,40.96c-0.05-0.7-0.1-1.03-0.29-1.75c1.08,0.07,2.23,0.22,2.81,0.34c0.41,0.07,0.67,0.24,0.67,0.46
						c0,0.19-0.07,0.31-0.22,0.55c-0.07,0.14-0.14,0.38-0.19,0.7c-0.02,0.31-0.02,0.62-0.05,1.54c2.59-0.1,5.06-0.12,7.37-0.12
						c0.29,0,0.34,0.05,0.36,0.36c0.02,0.6,0.02,1.22,0,1.82c0,0.26-0.12,0.34-0.41,0.31c-2.5-0.07-4.82-0.07-7.32-0.05
						c0,1.46,0,3,0.02,4.46c0.24,0.65,0.36,1.58,0.36,2.38c0,2.78-1.13,5.69-4.27,7.75c-0.41,0.26-0.72,0.46-0.94,0.46
						c-0.22,0-0.48-0.17-0.72-0.36c-0.55-0.46-1.2-0.77-1.82-0.96c2.81-1.25,4.49-3.26,4.92-5.28c-0.48,0.7-1.46,0.96-2.26,0.96
						c-1.9,0-3.34-1.37-3.34-3.67c0-2.23,1.68-3.6,3.62-3.6c0.72,0,1.44,0.14,1.82,0.48c0-0.84-0.02-1.66-0.02-2.45
						c-3.02,0.17-6.41,0.46-8.3,0.72c-0.53,0.07-0.91,0.29-1.13,0.29c-0.24,0-0.34-0.1-0.41-0.34c-0.19-0.48-0.41-1.44-0.6-2.42
						c0.89,0.1,1.66,0,2.93-0.1c1.46-0.12,4.56-0.31,7.44-0.48C330.14,42.21,330.14,41.61,330.11,40.96z M327.04,50.68
						c0,1.06,0.67,1.63,1.54,1.63c0.89,0,1.63-0.55,1.63-1.66c0-0.98-0.62-1.54-1.58-1.54C327.88,49.12,327.04,49.62,327.04,50.68z"
						/>
					<path class="st1" d="M350.97,42.23c0.12-0.72,0.24-1.66,0.24-2.66c1.25,0.26,1.92,0.43,2.88,0.79
						c0.24,0.07,0.38,0.26,0.38,0.48c0,0.12-0.05,0.24-0.17,0.36c-0.24,0.31-0.36,0.58-0.48,0.91c-0.31,0.98-0.55,1.87-0.86,2.88
						c0.65-0.07,1.37-0.1,1.87-0.1c2.26,0,3.48,1.54,3.48,4.44c0,2.83-0.48,5.98-1.3,7.7c-0.7,1.54-1.85,2.26-3.24,2.26
						c-1.15,0-1.85-0.1-2.38-0.26c-0.29-0.1-0.43-0.31-0.43-0.67c-0.07-0.77-0.12-1.44-0.46-2.23c1.08,0.41,1.9,0.53,2.64,0.53
						c0.79,0,1.15-0.29,1.54-1.27c0.5-1.34,0.94-3.63,0.94-5.95c0-1.7-0.31-2.23-1.37-2.23c-0.58,0-1.32,0.07-2.02,0.17
						c-1.58,4.61-2.95,7.92-4.82,11.28c-0.14,0.31-0.34,0.36-0.62,0.22c-0.43-0.22-1.37-0.79-1.66-1.06
						c-0.12-0.12-0.19-0.22-0.19-0.36c0-0.07,0.02-0.17,0.1-0.26c1.92-3.34,3.17-5.88,4.39-9.41c-0.94,0.14-1.7,0.29-2.35,0.41
						c-0.62,0.12-1.01,0.26-1.32,0.38c-0.34,0.12-0.62,0.07-0.77-0.31c-0.22-0.55-0.48-1.42-0.74-2.47c1.06,0,2.11-0.07,3.17-0.17
						c1.01-0.1,1.9-0.22,2.83-0.36C350.63,43.89,350.8,43.05,350.97,42.23z M360.74,43.84c0.17-0.1,0.29-0.05,0.46,0.12
						c1.63,1.54,3.1,3.53,3.98,5.83c0.1,0.22,0.07,0.34-0.1,0.48c-0.41,0.38-1.32,0.96-1.8,1.2c-0.24,0.12-0.48,0.1-0.55-0.19
						c-0.96-2.52-2.21-4.58-3.94-6.22C359.39,44.65,360.09,44.18,360.74,43.84z"/>
					<path class="st1" d="M371.83,44.49c0.46-3.22,2.76-5.14,6.31-5.14c3.74,0,6.17,1.99,6.17,5.06c0,1.68-0.72,3.07-2.86,4.87
						c-1.99,1.66-2.28,2.42-2.3,4.66h-2.47v-0.58c0-2.38,0.5-3.46,2.21-5.16c1.73-1.73,2.18-2.57,2.18-3.79
						c0-1.63-1.13-2.66-2.9-2.66c-1.9,0-3.1,1.27-3.24,3.46L371.83,44.49z M379.6,56.27v3.24h-3.41v-3.24H379.6z"/>
				</g>
			</g>
		</g>
	</g>
	<g>
		<polygon class="st2" points="315.65,401.37 315.65,375 310.61,375 310.61,391.29 310.61,401.37 310.61,406.41 315.67,406.41 
			315.67,401.37 		"/>
		<polygon class="st2" points="335.81,401.37 335.81,357.36 320.69,357.36 320.69,391.29 320.71,391.29 320.71,406.41 
			325.73,406.41 325.73,362.4 330.77,362.4 330.77,406.41 335.81,406.41 335.81,401.37 		"/>
		<polygon class="st2" points="345.88,401.37 345.88,375 340.85,375 340.85,391.29 340.85,391.29 340.85,406.41 345.91,406.41 
			345.91,401.37 		"/>
		<path class="st2" d="M353.44,347.29h-50.39c-6.95,0-12.6,5.65-12.6,12.6V375c0,2.02,0.79,3.92,2.21,5.34
			c1.43,1.43,3.33,2.21,5.34,2.21c0.88,0,1.73-0.15,2.52-0.43v24.28h5.04v-5.04v-10.08V375c0,0,0-17.64,0-17.64h-5.04V375
			c0,1.39-1.13,2.52-2.52,2.52c-0.67,0-1.31-0.26-1.78-0.74c-0.48-0.48-0.74-1.11-0.74-1.78v-15.12c0-4.17,3.39-7.56,7.56-7.56
			h50.39c4.17,0,7.56,3.39,7.56,7.56V375c0,1.39-1.13,2.52-2.52,2.52c-1.39,0-2.52-1.13-2.52-2.52v-17.64h-5.04v33.93h0.02v15.12
			h5.02v-24.28c0.79,0.28,1.64,0.43,2.52,0.43c4.17,0,7.56-3.39,7.56-7.56v-15.12C366.04,352.94,360.39,347.29,353.44,347.29z"/>
	</g>
</g>
</svg>
