<?xml version="1.0" encoding="utf-8"?>
<!-- Generator: Adobe Illustrator 23.0.3, SVG Export Plug-In . SVG Version: 6.00 Build 0)  -->
<svg version="1.1" id="レイヤー_1" xmlns="http://www.w3.org/2000/svg" xmlns:xlink="http://www.w3.org/1999/xlink" x="0px"
	 y="0px" viewBox="0 0 112.64 90.11" style="enable-background:new 0 0 112.64 90.11;" xml:space="preserve">
<style type="text/css">
	.st0{fill:#FFFFFF;}
</style>
<g>
	<g>
		<g>
			<path class="st0" d="M65.71,73.22H46.93c-1.04,0-1.88,0.84-1.88,1.88v13.14c0,1.04,0.84,1.88,1.88,1.88h18.77
				c1.04,0,1.88-0.84,1.88-1.88V75.09C67.58,74.06,66.74,73.22,65.71,73.22z M63.83,86.36H48.81v-9.39h15.02V86.36z"/>
		</g>
	</g>
	<g>
		<g>
			<rect x="54.44" y="75.09" class="st0" width="3.75" height="13.14"/>
		</g>
	</g>
	<g>
		<g>
			<path class="st0" d="M75.09,0H37.55c-1.04,0-1.88,0.84-1.88,1.88v86.36c0,1.04,0.84,1.88,1.88,1.88h37.55
				c1.04,0,1.88-0.84,1.88-1.88V1.88C76.97,0.84,76.13,0,75.09,0z M73.22,86.36H39.42V3.75h33.79V86.36z"/>
		</g>
	</g>
	<g>
		<g>
			<path class="st0" d="M37.55,7.51H22.53c-1.04,0-1.88,0.84-1.88,1.88v78.85c0,1.04,0.84,1.88,1.88,1.88h15.02
				c1.04,0,1.88-0.84,1.88-1.88V9.39C39.42,8.35,38.58,7.51,37.55,7.51z M35.67,86.36H24.41V11.26h11.26V86.36z"/>
		</g>
	</g>
	<g>
		<g>
			<rect x="16.9" y="7.51" class="st0" width="5.63" height="3.75"/>
		</g>
	</g>
	<g>
		<g>
			<rect x="31.91" class="st0" width="48.81" height="3.75"/>
		</g>
	</g>
	<g>
		<g>
			<rect x="43.18" y="63.83" class="st0" width="3.75" height="5.63"/>
		</g>
	</g>
	<g>
		<g>
			<rect x="50.69" y="63.83" class="st0" width="3.75" height="5.63"/>
		</g>
	</g>
	<g>
		<g>
			<rect x="58.2" y="63.83" class="st0" width="3.75" height="5.63"/>
		</g>
	</g>
	<g>
		<g>
			<rect x="65.71" y="63.83" class="st0" width="3.75" height="5.63"/>
		</g>
	</g>
	<g>
		<g>
			<rect x="43.18" y="54.44" class="st0" width="3.75" height="5.63"/>
		</g>
	</g>
	<g>
		<g>
			<rect x="50.69" y="54.44" class="st0" width="3.75" height="5.63"/>
		</g>
	</g>
	<g>
		<g>
			<rect x="58.2" y="54.44" class="st0" width="3.75" height="5.63"/>
		</g>
	</g>
	<g>
		<g>
			<rect x="65.71" y="54.44" class="st0" width="3.75" height="5.63"/>
		</g>
	</g>
	<g>
		<g>
			<rect x="43.18" y="45.06" class="st0" width="3.75" height="5.63"/>
		</g>
	</g>
	<g>
		<g>
			<rect x="50.69" y="45.06" class="st0" width="3.75" height="5.63"/>
		</g>
	</g>
	<g>
		<g>
			<rect x="58.2" y="45.06" class="st0" width="3.75" height="5.63"/>
		</g>
	</g>
	<g>
		<g>
			<rect x="65.71" y="45.06" class="st0" width="3.75" height="5.63"/>
		</g>
	</g>
	<g>
		<g>
			<rect x="43.18" y="35.67" class="st0" width="3.75" height="5.63"/>
		</g>
	</g>
	<g>
		<g>
			<rect x="50.69" y="35.67" class="st0" width="3.75" height="5.63"/>
		</g>
	</g>
	<g>
		<g>
			<rect x="58.2" y="35.67" class="st0" width="3.75" height="5.63"/>
		</g>
	</g>
	<g>
		<g>
			<rect x="65.71" y="35.67" class="st0" width="3.75" height="5.63"/>
		</g>
	</g>
	<g>
		<g>
			<rect x="43.18" y="26.28" class="st0" width="3.75" height="5.63"/>
		</g>
	</g>
	<g>
		<g>
			<rect x="50.69" y="26.28" class="st0" width="3.75" height="5.63"/>
		</g>
	</g>
	<g>
		<g>
			<rect x="58.2" y="26.28" class="st0" width="3.75" height="5.63"/>
		</g>
	</g>
	<g>
		<g>
			<rect x="65.71" y="26.28" class="st0" width="3.75" height="5.63"/>
		</g>
	</g>
	<g>
		<g>
			<rect x="43.18" y="16.9" class="st0" width="3.75" height="5.63"/>
		</g>
	</g>
	<g>
		<g>
			<rect x="50.69" y="16.9" class="st0" width="3.75" height="5.63"/>
		</g>
	</g>
	<g>
		<g>
			<rect x="58.2" y="16.9" class="st0" width="3.75" height="5.63"/>
		</g>
	</g>
	<g>
		<g>
			<rect x="65.71" y="16.9" class="st0" width="3.75" height="5.63"/>
		</g>
	</g>
	<g>
		<g>
			<rect x="43.18" y="7.51" class="st0" width="3.75" height="5.63"/>
		</g>
	</g>
	<g>
		<g>
			<rect x="50.69" y="7.51" class="st0" width="3.75" height="5.63"/>
		</g>
	</g>
	<g>
		<g>
			<rect x="58.2" y="7.51" class="st0" width="3.75" height="5.63"/>
		</g>
	</g>
	<g>
		<g>
			<rect x="65.71" y="7.51" class="st0" width="3.75" height="5.63"/>
		</g>
	</g>
	<g>
		<g>
			<rect x="28.16" y="73.22" class="st0" width="3.75" height="5.63"/>
		</g>
	</g>
	<g>
		<g>
			<rect x="28.16" y="63.83" class="st0" width="3.75" height="5.63"/>
		</g>
	</g>
	<g>
		<g>
			<rect x="28.16" y="54.44" class="st0" width="3.75" height="5.63"/>
		</g>
	</g>
	<g>
		<g>
			<rect x="28.16" y="45.06" class="st0" width="3.75" height="5.63"/>
		</g>
	</g>
	<g>
		<g>
			<rect x="28.16" y="35.67" class="st0" width="3.75" height="5.63"/>
		</g>
	</g>
	<g>
		<g>
			<rect x="28.16" y="26.28" class="st0" width="3.75" height="5.63"/>
		</g>
	</g>
	<g>
		<g>
			<rect x="28.16" y="16.9" class="st0" width="3.75" height="5.63"/>
		</g>
	</g>
	<g>
		<g>
			<path class="st0" d="M90.11,7.51H75.09c-1.04,0-1.88,0.84-1.88,1.88v78.85c0,1.04,0.84,1.88,1.88,1.88h15.02
				c1.04,0,1.88-0.84,1.88-1.88V9.39C91.99,8.35,91.15,7.51,90.11,7.51z M88.23,86.36H76.97V11.26h11.26V86.36z"/>
		</g>
	</g>
	<g>
		<g>
			<rect x="90.11" y="7.51" class="st0" width="5.63" height="3.75"/>
		</g>
	</g>
	<g>
		<g>
			<rect x="80.73" y="73.22" class="st0" width="3.75" height="5.63"/>
		</g>
	</g>
	<g>
		<g>
			<rect x="80.73" y="63.83" class="st0" width="3.75" height="5.63"/>
		</g>
	</g>
	<g>
		<g>
			<rect x="80.73" y="54.44" class="st0" width="3.75" height="5.63"/>
		</g>
	</g>
	<g>
		<g>
			<rect x="80.73" y="45.06" class="st0" width="3.75" height="5.63"/>
		</g>
	</g>
	<g>
		<g>
			<rect x="80.73" y="35.67" class="st0" width="3.75" height="5.63"/>
		</g>
	</g>
	<g>
		<g>
			<rect x="80.73" y="26.28" class="st0" width="3.75" height="5.63"/>
		</g>
	</g>
	<g>
		<g>
			<rect x="80.73" y="16.9" class="st0" width="3.75" height="5.63"/>
		</g>
	</g>
	<g>
		<g>
			<rect y="86.36" class="st0" width="22.53" height="3.75"/>
		</g>
	</g>
	<g>
		<g>
			<rect x="90.11" y="86.36" class="st0" width="22.53" height="3.75"/>
		</g>
	</g>
	<g>
		<g>
			<rect x="7.51" y="48.81" class="st0" width="3.75" height="39.42"/>
		</g>
	</g>
	<g>
		<g>
			<rect x="7.51" y="48.81" transform="matrix(0.6 -0.8 0.8 0.6 -42.8032 30.7883)" class="st0" width="3.75" height="18.77"/>
		</g>
	</g>
	<g>
		<g>
			
				<rect x="0" y="56.32" transform="matrix(0.7999 -0.6002 0.6002 0.7999 -33.0523 17.279)" class="st0" width="18.77" height="3.75"/>
		</g>
	</g>
	<g>
		<g>
			<rect x="101.38" y="48.81" class="st0" width="3.75" height="39.42"/>
		</g>
	</g>
	<g>
		<g>
			<rect x="101.38" y="48.81" transform="matrix(0.6 -0.8 0.8 0.6 -5.2573 105.8814)" class="st0" width="3.75" height="18.77"/>
		</g>
	</g>
	<g>
		<g>
			
				<rect x="93.86" y="56.33" transform="matrix(0.8001 -0.5998 0.5998 0.8001 -14.2783 73.5606)" class="st0" width="18.77" height="3.75"/>
		</g>
	</g>
</g>
</svg>
