<?xml version="1.0" encoding="utf-8"?>
<!-- Generator: Adobe Illustrator 23.0.3, SVG Export Plug-In . SVG Version: 6.00 Build 0)  -->
<svg version="1.1" id="レイヤー_1" xmlns="http://www.w3.org/2000/svg" xmlns:xlink="http://www.w3.org/1999/xlink" x="0px"
	 y="0px" viewBox="0 0 70.68 58.86" style="enable-background:new 0 0 70.68 58.86;" xml:space="preserve">
<style type="text/css">
	.st0{fill:#FFFFFF;}
</style>
<g>
	<path class="st0" d="M35.09,58.86c-0.48,0-0.72-0.07-0.77-0.09l-0.07-0.04l-0.09-0.01c-2.27-0.31-4.43-1.91-5.37-3.96l-0.16-0.36
		L5.78,58.78c-0.1,0.02-0.2,0.03-0.31,0.03c-0.38,0-0.75-0.13-1.04-0.37c-0.38-0.31-0.59-0.77-0.59-1.25v-8.26L3.2,49.12
		c-0.15,0.05-0.3,0.1-0.45,0.15c-0.42,0.14-0.81,0.27-1.18,0.27c-0.31,0-0.59-0.09-0.87-0.3C0.26,48.93,0,48.44,0,47.91V4.35
		c0-0.69,0.44-1.31,1.08-1.54C1.41,2.7,9.1,0,18.49,0c7.72,0,14.25,1.8,16.7,2.58l0.15,0.05l0.15-0.05C37.94,1.8,44.48,0,52.2,0
		c9.4,0,17.08,2.7,17.4,2.81c0.65,0.23,1.09,0.85,1.09,1.54v43.56c0,0.43-0.16,0.83-0.46,1.13c-0.3,0.31-0.71,0.48-1.16,0.48l0,0
		c-0.21,0-0.43-0.04-0.65-0.11l-0.66-0.23v7.99c0,0.9-0.73,1.63-1.63,1.63c-0.19,0-1.06-0.17-4.72-0.85
		c-3.34-0.63-9.11-1.71-19.09-3.58l-0.38-0.07l-0.17,0.34C39.81,58.75,35.57,58.86,35.09,58.86z M31.38,51.22
		c0,0.69,0,0.96,0.01,1.01c0.36,2.19,2.24,3.32,3.91,3.32c1.42,0,2.66-0.73,3.38-2c0.19-0.39,0.41-0.87,0.45-1.31l0-3.74l-0.63,0.17
		c-0.97,0.25-1.83,0.51-2.55,0.75c-0.27,0.09-0.43,0.13-0.58,0.13c-0.3,0-0.68-0.12-1.3-0.31c-0.51-0.16-1.16-0.37-2.08-0.61
		l-0.63-0.16L31.38,51.22z M52.23,46.83c-3.08,0-6.17,0.29-9.42,0.88l-0.41,0.08v3.29l22.1,4.14v-6.9l-0.39-0.09
		C59.98,47.29,56.1,46.83,52.23,46.83z M18.47,46.83c-3.56,0-7.15,0.39-10.97,1.2l-0.4,0.08v7.1l21.02-4.02v-3.43l-0.41-0.07
		C24.5,47.1,21.48,46.83,18.47,46.83z M52.18,3.27c-4.92,0-9.91,0.73-14.85,2.16l-0.36,0.11V45.7l0.63-0.17
		c4.86-1.3,9.76-1.96,14.58-1.96c4.81,0,9.73,0.66,14.62,1.96l0.63,0.17V5.53l-0.36-0.1C62.1,4,57.09,3.27,52.18,3.27z M18.48,3.27
		C13.55,3.27,8.55,4,3.62,5.43L3.26,5.53V45.7l0.63-0.17c4.87-1.3,9.77-1.96,14.58-1.96c4.8,0,9.72,0.66,14.62,1.96l0.63,0.17V5.53
		l-0.36-0.1C28.41,4,23.4,3.27,18.48,3.27z"/>
	<path class="st0" d="M59.16,14.21c-0.21,0-0.63-0.13-1.12-0.28c-1.21-0.37-3.04-0.93-5.64-0.93c-2.11,0-4.35,0.38-6.68,1.12
		c-0.16,0.05-0.33,0.08-0.5,0.08c-0.71,0-1.33-0.45-1.55-1.13c-0.13-0.41-0.1-0.86,0.1-1.24c0.2-0.39,0.54-0.67,0.95-0.81
		c0.01,0,0.06-0.02,0.15-0.05c2.86-1.01,5.58-1.23,7.36-1.23c2.57,0,5.09,0.44,7.48,1.29c0.41,0.15,0.74,0.44,0.92,0.84
		c0.19,0.39,0.21,0.84,0.06,1.25C60.47,13.78,59.85,14.21,59.16,14.21z"/>
	<path class="st0" d="M45.22,25.85c-0.71,0-1.33-0.45-1.55-1.13c-0.13-0.42-0.1-0.86,0.1-1.24c0.2-0.39,0.54-0.67,0.95-0.81
		c0,0,0,0,0,0c0.01,0,0.13-0.04,0.31-0.1c0.88-0.3,3.54-1.2,7.19-1.2c2.55,0,5.07,0.44,7.49,1.31c0.85,0.3,1.29,1.24,0.98,2.08
		c-0.23,0.65-0.85,1.08-1.53,1.08l0,0c-0.19,0-0.37-0.03-0.55-0.1c-2.05-0.74-4.19-1.11-6.37-1.11c-3.16,0-5.5,0.79-6.27,1.05
		c-0.1,0.03-0.17,0.06-0.2,0.07C45.56,25.82,45.39,25.85,45.22,25.85z"/>
	<path class="st0" d="M45.22,37.49c-0.71,0-1.33-0.45-1.55-1.13c-0.13-0.42-0.1-0.86,0.1-1.24c0.2-0.39,0.54-0.67,0.95-0.81
		c0,0,0,0,0,0c0.01,0,0.13-0.04,0.32-0.1c0.88-0.29,3.54-1.19,7.18-1.19c2.55,0,5.07,0.44,7.49,1.31c0.41,0.15,0.74,0.44,0.92,0.84
		s0.21,0.84,0.06,1.25c-0.23,0.65-0.85,1.08-1.53,1.08l0,0c-0.19,0-0.37-0.03-0.55-0.1c-2.05-0.74-4.2-1.11-6.38-1.11
		c-3.16,0-5.49,0.79-6.26,1.05c-0.1,0.03-0.17,0.06-0.2,0.07C45.56,37.46,45.39,37.49,45.22,37.49z"/>
	<path class="st0" d="M11.5,14.22c-0.51,0-1-0.26-1.31-0.68c-0.31-0.43-0.39-0.96-0.23-1.47c0.28-0.83,0.99-1.03,1.46-1.16
		c0.16-0.04,0.29-0.09,0.37-0.13c2.11-0.67,4.39-1.03,6.71-1.03c2.58,0,5.11,0.44,7.51,1.3c0.84,0.3,1.29,1.24,0.98,2.08
		c-0.23,0.65-0.85,1.08-1.53,1.08l0,0c-0.19,0-0.37-0.03-0.55-0.1C22.85,13.38,20.7,13,18.53,13c-3.16,0-5.49,0.79-6.26,1.05
		c-0.1,0.03-0.17,0.06-0.2,0.07C11.84,14.19,11.67,14.22,11.5,14.22z"/>
	<path class="st0" d="M11.51,25.85c-0.71,0-1.33-0.45-1.55-1.13c-0.13-0.42-0.1-0.86,0.1-1.24c0.2-0.39,0.54-0.67,0.95-0.81
		c0,0,0,0,0,0c0.01,0,0.13-0.04,0.31-0.1c0.88-0.3,3.54-1.2,7.19-1.2c2.55,0,5.07,0.44,7.49,1.31c0.85,0.3,1.29,1.24,0.98,2.08
		c-0.23,0.65-0.85,1.08-1.53,1.08l0,0c-0.19,0-0.37-0.03-0.55-0.1c-2.05-0.74-4.2-1.11-6.37-1.11c-3.16,0-5.5,0.79-6.26,1.05
		c-0.1,0.03-0.17,0.06-0.2,0.07C11.85,25.82,11.68,25.85,11.51,25.85z"/>
	<path class="st0" d="M11.51,37.49c-0.71,0-1.33-0.45-1.55-1.13c-0.13-0.42-0.1-0.86,0.1-1.24c0.2-0.39,0.54-0.67,0.95-0.81
		c0,0,0,0,0,0c0.01,0,0.13-0.04,0.32-0.1c0.88-0.29,3.54-1.19,7.18-1.19c2.55,0,5.07,0.44,7.49,1.31c0.41,0.15,0.74,0.44,0.92,0.84
		s0.21,0.84,0.06,1.25c-0.23,0.65-0.85,1.08-1.54,1.08l0,0c-0.19,0-0.37-0.03-0.55-0.1c-2.06-0.74-4.2-1.11-6.38-1.11
		c-3.15,0-5.49,0.79-6.25,1.05c-0.1,0.03-0.17,0.06-0.21,0.07C11.85,37.46,11.68,37.49,11.51,37.49z"/>
</g>
</svg>
