<?xml version="1.0" encoding="utf-8"?>
<!-- Generator: Adobe Illustrator 23.0.3, SVG Export Plug-In . SVG Version: 6.00 Build 0)  -->
<svg version="1.1" id="レイヤー_1" xmlns="http://www.w3.org/2000/svg" xmlns:xlink="http://www.w3.org/1999/xlink" x="0px"
	 y="0px" viewBox="0 0 72.18 62.62" style="enable-background:new 0 0 72.18 62.62;" xml:space="preserve">
<style type="text/css">
	.st0{fill:#FFFFFF;stroke:#FFFFFF;stroke-width:0.5;stroke-miterlimit:10;}
</style>
<g>
	<g>
		<g>
			<path class="st0" d="M37.28,36.09c-4.22,0-7.17,2.95-7.17,7.17v1.19c0,5.81,3.28,9.56,8.36,9.56c5.08,0,8.36-3.75,8.36-9.56
				v-1.19c0-4.22-2.95-7.17-7.17-7.17H37.28z M44.45,43.26v1.19c0,2.16-0.58,7.17-5.97,7.17c-5.39,0-5.97-5.01-5.97-7.17v-1.19
				c0-2.9,1.88-4.78,4.78-4.78h2.39C42.58,38.48,44.45,40.35,44.45,43.26z"/>
			<path class="st0" d="M41.97,27.72c0.67,0.04,1.23-0.44,1.28-1.1l1.19-15.51c0.27-2.84,4.09-6.08,7.17-6.08h2.39
				c3.14,0,6.96,3.23,7.17,6.07l1.19,15.53c0.05,0.63,0.57,1.1,1.19,1.1c0.03,0,0.06,0,0.09,0c0.66-0.05,1.15-0.62,1.1-1.28
				l-1.19-15.53c-0.32-4.38-5.61-8.28-9.55-8.28h-2.39c-4.35,0-9.17,4.16-9.55,8.27l-1.19,15.53C40.82,27.1,41.31,27.67,41.97,27.72
				z"/>
			<path class="st0" d="M52.75,10.62c-0.16-0.49-0.62-0.82-1.13-0.82c-0.51,0-0.97,0.33-1.13,0.82c-0.9,2.69-3.54,2.77-3.64,2.77
				c-0.66,0-1.19,0.54-1.19,1.19v4.78c0,3.99,2.73,9.56,7.17,9.56c4.44,0,7.17-5.57,7.17-9.56v-4.78c0-0.66-0.54-1.19-1.19-1.19
				C58.74,13.39,53.65,13.32,52.75,10.62z M57.59,19.36c0,3.25-2.13,7.17-4.78,7.17c-2.65,0-4.78-3.92-4.78-7.17v-3.73
				c1.17-0.27,2.61-0.93,3.67-2.29c1.67,1.67,4.34,2.2,5.88,2.36L57.59,19.36L57.59,19.36z"/>
			<path class="st0" d="M12.24,14.29c0.23,2.3,1.23,4.32,1.27,4.41c1.08,2.17,2.72,5.44,8.24,5.44s7.15-3.27,8.24-5.44
				c0.05-0.1,1.05-2.12,1.28-4.41c0.74-0.41,1.24-1.19,1.24-2.09V9.81c0-0.88-0.48-1.65-1.19-2.07V7.42c0-3.95-3.22-7.17-7.17-7.17
				h-4.78c-3.95,0-7.17,3.21-7.17,7.17v0.32C11.48,8.15,11,8.92,11,9.81v2.39C11,13.1,11.5,13.88,12.24,14.29z M13.39,9.81
				c0.66,0,1.19-0.54,1.19-1.19V7.42c0-2.64,2.14-4.78,4.78-4.78h4.78c2.64,0,4.78,2.14,4.78,4.78v1.19c0,0.66,0.53,1.19,1.19,1.19
				v2.39c-0.66,0-1.19,0.54-1.19,1.19c0,2.07-1.06,4.22-1.07,4.24c-1.24,2.49-2.34,4.12-6.1,4.12c-3.76,0-4.86-1.63-6.1-4.12
				c-0.01-0.02-1.07-2.18-1.07-4.25c0-0.66-0.54-1.19-1.19-1.19L13.39,9.81L13.39,9.81z"/>
			<path class="st0" d="M42.06,55.2c-0.24,0-0.47,0.07-0.66,0.2l-2.92,1.95l-2.92-1.95c-0.2-0.13-0.43-0.2-0.66-0.2
				c-6.91,0-8.36,3.25-8.36,5.97c0,0.66,0.53,1.19,1.19,1.19c0.66,0,1.19-0.54,1.19-1.19c0-0.96,0-3.48,5.62-3.58l3.28,2.19
				c0.4,0.27,0.92,0.27,1.32,0l3.28-2.19c5.62,0.1,5.62,2.62,5.62,3.58c0,0.66,0.53,1.19,1.19,1.19c0.66,0,1.19-0.54,1.19-1.19
				C50.43,58.45,48.97,55.2,42.06,55.2z"/>
			<path class="st0" d="M63.65,40.87L63.65,40.87c-0.66,0-1.2,0.53-1.2,1.19l-0.07,19.11c0,0.66,0.53,1.2,1.19,1.2h0
				c0.66,0,1.19-0.53,1.19-1.19l0.07-19.11C64.84,41.41,64.31,40.87,63.65,40.87z"/>
			<path class="st0" d="M27.7,33.94l1-4.99c6.03,0.14,10.37,1.64,11.7,4.08c0.31,0.58,1.04,0.79,1.62,0.48
				c0.58-0.32,0.79-1.04,0.48-1.62c-1.87-3.45-7.1-5.34-14.7-5.34c-0.59-0.01-1.13,0.38-1.25,0.96l-1.19,5.96
				c-0.13,0.65,0.29,1.28,0.94,1.41c0.08,0.02,0.16,0.02,0.24,0.02C27.09,34.9,27.59,34.5,27.7,33.94z"/>
			<path class="st0" d="M69,32.51c-2.34-2.34-5.86-3.57-10.18-3.57c-0.69,0.01-1.23,0.52-1.23,1.19c0,0.24-0.08,5.96-4.78,5.96
				c-4.7,0-4.78-5.72-4.78-5.96c0-0.66-0.54-1.19-1.19-1.19c-0.66,0-1.19,0.53-1.19,1.19c0,2.67,1.29,7.54,5.97,8.25v6.07
				c0,0.66,0.53,1.19,1.19,1.19c0.66,0,1.19-0.54,1.19-1.19v-6.07c4.03-0.62,5.55-4.3,5.89-7.03c3.17,0.18,5.72,1.15,7.41,2.84
				c1.44,1.43,2.23,3.38,2.23,5.48v19.11c0,0.66,0.53,1.19,1.19,1.19c0.66,0,1.19-0.54,1.19-1.19V39.67
				C71.93,36.94,70.89,34.39,69,32.51z"/>
			<path class="st0" d="M21.75,26.53c-1.32,0-2.39,1.07-2.39,2.39c0,0.88,0.48,1.64,1.19,2.06v8.69c0,0.66,0.53,1.19,1.19,1.19
				c0.66,0,1.19-0.54,1.19-1.19v-8.69c0.71-0.41,1.19-1.18,1.19-2.06C24.14,27.6,23.07,26.53,21.75,26.53z"/>
			<path class="st0" d="M8.61,40.87c-0.66,0-1.19,0.54-1.19,1.19v19.11c0,0.66,0.53,1.19,1.19,1.19c0.66,0,1.19-0.54,1.19-1.19
				V42.06C9.81,41.4,9.27,40.87,8.61,40.87z"/>
			<path class="st0" d="M16.95,27.5c-0.12-0.58-0.68-0.95-1.25-0.95c-6.28,0-11.08,1.34-13.52,3.79c-1.28,1.28-1.93,2.81-1.93,4.56
				v23.89c0,0.66,0.53,1.19,1.19,1.19c0.66,0,1.19-0.54,1.19-1.19V34.9c0-1.11,0.4-2.05,1.22-2.87c1.86-1.86,5.82-2.96,10.95-3.08
				l5.77,27.7c0.13,0.65,0.77,1.06,1.41,0.93c0.65-0.13,1.06-0.77,0.92-1.41L16.95,27.5z"/>
		</g>
	</g>
</g>
</svg>
